<?xml version="1.0" encoding="UTF-8" standalone="no"?>
<!-- Created with Inkscape (http://www.inkscape.org/) -->

<svg
   xmlns:dc="http://purl.org/dc/elements/1.1/"
   xmlns:cc="http://creativecommons.org/ns#"
   xmlns:rdf="http://www.w3.org/1999/02/22-rdf-syntax-ns#"
   xmlns:svg="http://www.w3.org/2000/svg"
   xmlns="http://www.w3.org/2000/svg"
   xmlns:sodipodi="http://sodipodi.sourceforge.net/DTD/sodipodi-0.dtd"
   xmlns:inkscape="http://www.inkscape.org/namespaces/inkscape"
   width="128"
   height="128"
   id="svg2619"
   sodipodi:version="0.32"
   inkscape:version="0.48.4 r9939"
   version="1.0"
   sodipodi:docname="icon.svg"
   inkscape:output_extension="org.inkscape.output.svg.inkscape"
   inkscape:export-filename="/home/martin/Work/odoo/odoo/addons-funkring/farm/static/description/icon.png"
   inkscape:export-xdpi="90"
   inkscape:export-ydpi="90">
  <defs
     id="defs2621">
    <inkscape:perspective
       sodipodi:type="inkscape:persp3d"
       inkscape:vp_x="0 : 526.18109 : 1"
       inkscape:vp_y="0 : 1000 : 0"
       inkscape:vp_z="744.09448 : 526.18109 : 1"
       inkscape:persp3d-origin="372.04724 : 350.78739 : 1"
       id="perspective2627" />
    <inkscape:perspective
       id="perspective88"
       inkscape:persp3d-origin="491.728 : 191.651 : 1"
       inkscape:vp_z="983.45599 : 287.4765 : 1"
       inkscape:vp_y="0 : 1000 : 0"
       inkscape:vp_x="0 : 287.4765 : 1"
       sodipodi:type="inkscape:persp3d" />
  </defs>
  <sodipodi:namedview
     id="base"
     pagecolor="#ffffff"
     bordercolor="#666666"
     borderopacity="1.0"
     inkscape:pageopacity="0.0"
     inkscape:pageshadow="2"
     inkscape:zoom="2.8284271"
     inkscape:cx="64.969527"
     inkscape:cy="1.5873821"
     inkscape:document-units="px"
     inkscape:current-layer="layer1"
     showgrid="false"
     inkscape:window-width="1920"
     inkscape:window-height="1052"
     inkscape:window-x="0"
     inkscape:window-y="0"
     inkscape:window-maximized="1"
     showguides="true"
     inkscape:guide-bbox="true" />
  <metadata
     id="metadata2624">
    <rdf:RDF>
      <cc:Work
         rdf:about="">
        <dc:format>image/svg+xml</dc:format>
        <dc:type
           rdf:resource="http://purl.org/dc/dcmitype/StillImage" />
        <dc:title></dc:title>
      </cc:Work>
    </rdf:RDF>
  </metadata>
  <g
     inkscape:label="Ebene 1"
     inkscape:groupmode="layer"
     id="layer1"
     transform="translate(178.21353,-540.86827)">
    <path
       d=""
       id="path33"
       style="fill:none;stroke:#000000;stroke-width:1.65041435"
       inkscape:connector-curvature="0" />
    <path
       d=""
       id="path35"
       style="fill:none;stroke:#000000;stroke-width:1.65041435"
       inkscape:connector-curvature="0" />
    <path
       d=""
       id="path37"
       style="fill:none;stroke:#000000;stroke-width:1.65041435"
       inkscape:connector-curvature="0" />
    <path
       d=""
       id="path41"
       style="fill:none;stroke:#000000;stroke-width:1.65041435"
       inkscape:connector-curvature="0" />
    <path
       d=""
       id="path43"
       style="fill:none;stroke:#000000;stroke-width:1.65041435"
       inkscape:connector-curvature="0" />
    <path
       d=""
       id="path45"
       style="fill:none;stroke:#000000;stroke-width:1.65041435"
       inkscape:connector-curvature="0" />
    <path
       d=""
       id="path47"
       style="fill:none;stroke:#000000;stroke-width:1.65041435"
       inkscape:connector-curvature="0" />
    <path
       d=""
       id="path49"
       style="fill:none;stroke:#000000;stroke-width:1.65041435"
       inkscape:connector-curvature="0" />
    <path
       d=""
       id="path51"
       style="fill:none;stroke:#000000;stroke-width:1.65041435"
       inkscape:connector-curvature="0" />
    <path
       d=""
       id="path53"
       style="fill:none;stroke:#000000;stroke-width:1.65041435"
       inkscape:connector-curvature="0" />
    <path
       d=""
       id="path55"
       style="fill:none;stroke:#000000;stroke-width:1.65041435"
       inkscape:connector-curvature="0" />
    <path
       d=""
       id="path57"
       style="fill:none;stroke:#000000;stroke-width:1.65041435"
       inkscape:connector-curvature="0" />
    <path
       d=""
       id="path61"
       inkscape:connector-curvature="0" />
    <path
       d=""
       id="path73"
       style="fill:none;stroke:#abc716;stroke-width:1.65041435"
       inkscape:connector-curvature="0" />
    <path
       d=""
       id="path75"
       style="fill:none;stroke:#abc716;stroke-width:1.10027623"
       inkscape:connector-curvature="0" />
    <path
       d=""
       id="path79"
       style="fill:none;stroke:#abc716;stroke-width:1.10027623"
       inkscape:connector-curvature="0" />
    <path
       style="fill:#000000;fill-opacity:0.94117647;fill-rule:evenodd;stroke:none"
       d="m -163.46955,607.80469 c -0.0568,5.36804 6.26236,14.46242 8.76478,17.73951 l 1.04968,-0.41987 c 0.9531,-0.0904 9.05029,-3.44084 11.17903,-4.1987 -6.7725,-4.60388 -13.80322,-8.94743 -20.99349,-13.12094 z"
       id="path3229"
       inkscape:connector-curvature="0" />
    <path
       style="fill:#80b71b;fill-opacity:1;fill-rule:evenodd;stroke:none"
       d="m -68.99881,605.07554 c -28.935339,5.37853 -56.90498,12.67167 -83.02929,23.67017 4.06015,4.5136 10.88303,9.69899 16.84729,12.43864 21.39447,-13.49252 45.539093,-24.13622 71.22044,-33.16972 l -5.03844,-2.93909 z m 3.726347,6.98033 c -21.955001,8.94533 -43.710567,19.43788 -63.242917,31.6477 16.82839,5.04894 35.088535,0.90482 48.232565,-10.18184 6.898464,-5.8173 11.922208,-13.05586 15.010352,-21.46586 z"
       id="path3227"
       inkscape:connector-curvature="0" />
    <path
       style="fill:#000000;fill-opacity:0.94117647;fill-rule:evenodd;stroke:none"
       d="m -158.06373,601.97899 c -1.35408,0.19734 -4.55349,0.87333 -6.40302,1.46955 0.086,0.48075 0.21624,0.94051 0.31491,1.41706 9.41978,4.40444 18.49317,9.09648 27.13409,14.17061 1.51154,-0.50804 9.60663,-3.07765 11.12656,-3.56889 1.41706,-0.42617 2.82782,-0.84814 4.25118,-1.25961 -11.74796,-4.71304 -23.95148,-8.68711 -36.42372,-12.22872 z"
       id="path3225"
       inkscape:connector-curvature="0" />
    <path
       style="fill:#000000;fill-opacity:0.94117647;fill-rule:evenodd;stroke:none"
       d="m -128.7778,604.91808 -7.0853,-1.41706 -0.0524,0 -13.96068,-2.83412 -2.36177,0.47235 -3.30647,0.47236 c 12.94249,3.25819 25.45041,7.04752 37.31594,11.65139 2.29728,-0.64207 4.61194,-1.28668 6.92785,-1.88942 l 3.83132,-1.15464 c 0,0 -6.32114,-2.30508 -14.69545,-3.98876 l -6.61295,-1.3121 z"
       id="path3238"
       inkscape:connector-curvature="0" />
    <path
       style="fill:#80b71b;fill-opacity:1;fill-rule:evenodd;stroke:none"
       d="m -129.98491,563.91231 c -0.85864,-0.0418 -1.71517,0.0756 -2.57171,0.36738 l -0.3149,0.10497 c -1.22182,0.48285 -2.2463,1.24282 -2.99157,2.20432 -0.36529,0.46605 -0.6592,0.98249 -0.89222,1.52203 -0.6739,-0.18894 -1.33729,-0.27712 -2.04687,-0.3149 -1.3079,-0.0672 -2.64518,0.12176 -3.93628,0.6298 -2.43315,0.9573 -4.28058,2.81733 -5.24838,5.03844 -0.92581,2.12664 -1.08536,4.59338 -0.26242,6.92785 -0.82714,1.40867 -1.32888,2.98108 -1.52202,4.61857 -0.20574,1.75926 -0.0126,3.5815 0.6298,5.35335 l 0.10497,0.3149 c 1.18823,3.02096 3.48492,5.25257 6.24556,6.4555 2.03008,0.88593 4.29737,1.20713 6.56047,0.83974 l 1.04968,-0.15745 c -0.16396,1.48665 -0.38179,2.96562 -0.68229,4.30367 l 7.0853,1.41706 c -0.43059,-2.11726 -0.78318,-4.22601 -1.04967,-6.29805 l 3.20151,-0.26242 c 1.23232,0.004 2.50242,-0.18894 3.72634,-0.62981 l 0.26242,-0.10496 c 2.78584,-1.09796 4.87679,-3.2288 5.98315,-5.77322 1.06857,-2.45414 1.23442,-5.28406 0.26242,-7.97753 l -0.10497,-0.3149 c -0.11126,-0.28341 -0.26242,-0.57942 -0.41987,-0.89222 l -0.0525,-0.10497 c 0.38418,-0.99929 0.6403,-2.06366 0.68229,-3.14902 0.0546,-1.33099 -0.16795,-2.68087 -0.68229,-3.98877 -0.6655,-1.69627 -1.75296,-3.09654 -3.09654,-4.14621 -1.12525,-0.87963 -2.44575,-1.50734 -3.83132,-1.83694 -0.73897,-1.65008 -2.01327,-2.8929 -3.56889,-3.56889 -0.77886,-0.33905 -1.66059,-0.53559 -2.51922,-0.57732 z"
       id="path42"
       inkscape:connector-curvature="0" />
  </g>
</svg>
