<?xml version="1.0" encoding="UTF-8" standalone="no"?>
<!-- Created with Inkscape (http://www.inkscape.org/) -->

<svg
   xmlns:dc="http://purl.org/dc/elements/1.1/"
   xmlns:cc="http://creativecommons.org/ns#"
   xmlns:rdf="http://www.w3.org/1999/02/22-rdf-syntax-ns#"
   xmlns:svg="http://www.w3.org/2000/svg"
   xmlns="http://www.w3.org/2000/svg"
   xmlns:sodipodi="http://sodipodi.sourceforge.net/DTD/sodipodi-0.dtd"
   xmlns:inkscape="http://www.inkscape.org/namespaces/inkscape"
   width="128"
   height="128"
   id="svg3572"
   version="1.1"
   inkscape:version="0.48.4 r9939"
   sodipodi:docname="icon.svg"
   inkscape:export-filename="/home/martin/Work/odoo/odoo/addons-funkring/website_download/static/description/icon.png"
   inkscape:export-xdpi="90"
   inkscape:export-ydpi="90">
  <defs
     id="defs3574">
    <linearGradient
       gradientTransform="matrix(0,0.9396,0.9396,0,-213.7641,-135.9702)"
       y2="296.97031"
       x2="379.29251"
       y1="296.97031"
       x1="349.35019"
       gradientUnits="userSpaceOnUse"
       id="path10914_1_">
      <stop
         id="stop6879"
         style="stop-color:#6F6F6F"
         offset="0" />
      <stop
         id="stop6881"
         style="stop-color:#494949"
         offset="1" />
    </linearGradient>
    <linearGradient
       gradientTransform="matrix(0,0.9396,0.9396,0,-213.7641,-135.9702)"
       y2="295.0983"
       x2="357.4371"
       y1="295.0983"
       x1="335.42239"
       gradientUnits="userSpaceOnUse"
       id="path6560_1_">
      <stop
         id="stop6887"
         style="stop-color:#ABC837"
         offset="0" />
      <stop
         id="stop6889"
         style="stop-color:#8DAF0A"
         offset="1" />
    </linearGradient>
    <linearGradient
       id="linearGradient6968"
       gradientUnits="userSpaceOnUse"
       x1="349.35019"
       y1="296.97031"
       x2="379.29251"
       y2="296.97031"
       gradientTransform="matrix(0,0.9396,0.9396,0,-213.7641,-135.9702)">
      <stop
         offset="0"
         style="stop-color:#6F6F6F"
         id="stop6970" />
      <stop
         offset="1"
         style="stop-color:#494949"
         id="stop6972" />
    </linearGradient>
    <linearGradient
       id="linearGradient6977"
       gradientUnits="userSpaceOnUse"
       x1="335.42239"
       y1="295.0983"
       x2="357.4371"
       y2="295.0983"
       gradientTransform="matrix(0,0.9396,0.9396,0,-213.7641,-135.9702)">
      <stop
         offset="0"
         style="stop-color:#ABC837"
         id="stop6979" />
      <stop
         offset="1"
         style="stop-color:#8DAF0A"
         id="stop6981" />
    </linearGradient>
  </defs>
  <sodipodi:namedview
     id="base"
     pagecolor="#ffffff"
     bordercolor="#666666"
     borderopacity="1.0"
     inkscape:pageopacity="0.0"
     inkscape:pageshadow="2"
     inkscape:zoom="1.979899"
     inkscape:cx="-190.30695"
     inkscape:cy="97.006056"
     inkscape:document-units="px"
     inkscape:current-layer="layer1"
     showgrid="false"
     inkscape:window-width="1920"
     inkscape:window-height="1148"
     inkscape:window-x="0"
     inkscape:window-y="1080"
     inkscape:window-maximized="1" />
  <metadata
     id="metadata3577">
    <rdf:RDF>
      <cc:Work
         rdf:about="">
        <dc:format>image/svg+xml</dc:format>
        <dc:type
           rdf:resource="http://purl.org/dc/dcmitype/StillImage" />
        <dc:title></dc:title>
      </cc:Work>
    </rdf:RDF>
  </metadata>
  <g
     inkscape:label="Ebene 1"
     inkscape:groupmode="layer"
     id="layer1"
     transform="translate(0,-924.36218)">
    <g
       id="g7044"
       transform="matrix(1.3031962,0,0,1.3031962,212.03064,-304.74484)">
      <path
         inkscape:connector-curvature="0"
         style="fill:#000000"
         d="m -135.54851,977.36263 c -4.17635,0 -7.52694,3.48327 -7.52694,7.70517 v 40.3576 c 0,4.2219 3.34861,7.6458 7.52694,7.6458 h 43.916115 c 4.176357,0 7.526948,-3.4239 7.526948,-7.6458 v -40.3576 c 0,-4.21992 -3.348611,-7.70517 -7.526948,-7.70517 h -8.534895 c -4.88925,6.3289 -10.02207,12.60234 -14.81627,18.9649 -0.60794,0.73666 -1.48123,1.0733 -2.42977,1.06736 -0.94854,-0.006 -1.83174,-0.44358 -2.43176,-1.18617 -4.78825,-6.2279 -9.66166,-12.49937 -14.341,-18.84807 l -1.36242,0.002 0,0 z"
         id="path10914" />
      <path
         style="fill:#ffffff"
         inkscape:connector-curvature="0"
         d="m -95.448346,983.73113 h 2.867409 c 1.279244,0 2.326799,0.99409 2.326799,2.27135 v 2.70503 c 0,1.27925 -1.047555,2.3268 -2.326799,2.3268 h -2.867409 c -1.279245,0 -2.271353,-1.04755 -2.271353,-2.3268 v -2.70503 c 0,-1.27726 0.994088,-2.27135 2.271353,-2.27135 z"
         id="path10912" />
      <path
         style="fill:#ffffff"
         inkscape:connector-curvature="0"
         d="m -129.91666,1008.0526 h 32.000916 c 1.103002,0 1.954512,0.8991 1.954512,2.0139 v 16.8916 c 0,1.1129 -0.85349,2.0159 -1.954512,2.0159 h -32.000916 c -1.10498,0 -1.95649,-0.901 -1.95649,-2.0159 v -16.8916 c 0,-1.1148 0.85151,-2.0139 1.95649,-2.0139 z"
         id="path10910" />
      <path
         inkscape:connector-curvature="0"
         style="fill:#80b71b;fill-opacity:1"
         d="m -123.88679,970.53867 c 0,11.85777 0,1.66342 0,1.66342 h -7.01802 c -0.43962,0 -0.84161,0.25545 -1.03171,0.65744 -0.18813,0.40199 -0.1307,0.87725 0.14456,1.22182 l 13.64197,17.89754 c 0.21387,0.26734 0.53665,0.4218 0.87726,0.42576 0.3406,0.002 0.66536,-0.14852 0.88319,-0.41388 l 14.01822,-17.89754 c 0.28516,-0.34258 0.34655,-0.82181 0.15842,-1.22578 -0.18812,-0.40595 -0.59209,-0.66536 -1.03171,-0.66536 h -6.63187 c 0,0 -0.0119,13.93901 -0.0119,-1.08914 0,-15.02816 -21.22834,-19.66789 -21.22834,-19.66789 0,0 7.23189,7.23585 7.22991,19.09361 l 0,0 z"
         sodipodi:nodetypes="cccsccsccsccscc"
         id="path6560" />
      <path
         style="fill:#000000"
         inkscape:connector-curvature="0"
         d="m -125.98586,1011.5557 h 5.34669 c 0.65151,0 1.18221,0.5307 1.18221,1.1842 v 11.5488 c 0,0.6535 -0.5307,1.1822 -1.18221,1.1822 h -5.34669 c -0.65348,0 -1.18419,-0.5287 -1.18419,-1.1822 v -11.5488 c 0.002,-0.6555 0.53071,-1.1842 1.18419,-1.1842 z"
         id="rect10916" />
    </g>
  </g>
</svg>
