<?xml version="1.0" encoding="UTF-8" standalone="no"?>
<!-- Created with Inkscape (http://www.inkscape.org/) -->

<svg
   xmlns:dc="http://purl.org/dc/elements/1.1/"
   xmlns:cc="http://creativecommons.org/ns#"
   xmlns:rdf="http://www.w3.org/1999/02/22-rdf-syntax-ns#"
   xmlns:svg="http://www.w3.org/2000/svg"
   xmlns="http://www.w3.org/2000/svg"
   xmlns:sodipodi="http://sodipodi.sourceforge.net/DTD/sodipodi-0.dtd"
   xmlns:inkscape="http://www.inkscape.org/namespaces/inkscape"
   width="128"
   height="128"
   id="svg3492"
   version="1.1"
   inkscape:version="0.48.3.1 r9886"
   sodipodi:docname="image.svg">
  <defs
     id="defs3494" />
  <sodipodi:namedview
     id="base"
     pagecolor="#ffffff"
     bordercolor="#666666"
     borderopacity="1.0"
     inkscape:pageopacity="0.0"
     inkscape:pageshadow="2"
     inkscape:zoom="0.98994949"
     inkscape:cx="7.0064936"
     inkscape:cy="74.164657"
     inkscape:document-units="px"
     inkscape:current-layer="layer1"
     showgrid="false"
     inkscape:window-width="1920"
     inkscape:window-height="1147"
     inkscape:window-x="1920"
     inkscape:window-y="25"
     inkscape:window-maximized="1" />
  <metadata
     id="metadata3497">
    <rdf:RDF>
      <cc:Work
         rdf:about="">
        <dc:format>image/svg+xml</dc:format>
        <dc:type
           rdf:resource="http://purl.org/dc/dcmitype/StillImage" />
        <dc:title></dc:title>
      </cc:Work>
    </rdf:RDF>
  </metadata>
  <g
     inkscape:label="Ebene 1"
     inkscape:groupmode="layer"
     id="layer1"
     transform="translate(0,-924.36218)">
    <g
       transform="matrix(3.13569,0,0,3.13569,-95.241313,359.59519)"
       id="g3486">
      <path
         style="fill:#80b71b"
         inkscape:connector-curvature="0"
         d="m 40.5,183.019 c -2.177,0 -3.909,1.765 -3.909,3.942 v 8.673 h 28.387 v -8.673 c 0,-2.177 -1.732,-3.942 -3.91,-3.942 H 40.5 z"
         id="rect7516" />
      <path
         style="fill:#ffffff"
         inkscape:connector-curvature="0"
         d="m 41.48,186.509 h 18.604 c 0.962,0 1.736,0.801 1.736,1.797 v 2.21 c 0,0.995 -0.774,1.797 -1.736,1.797 H 41.48 c -0.962,0 -1.736,-0.802 -1.736,-1.797 v -2.21 c 0,-0.995 0.774,-1.797 1.736,-1.797 z"
         sodipodi:nodetypes="ccccccccc"
         id="rect7628" />
      <path
         style="fill:#1a171b"
         inkscape:connector-curvature="0"
         d="m 36.589,197.602 v 16.572 c 0,2.135 1.71,3.846 3.845,3.846 h 20.697 c 2.135,0 3.845,-1.711 3.845,-3.846 V 197.602 H 36.589 z"
         sodipodi:nodetypes="ccccccc"
         id="rect7634" />
      <path
         style="fill:#ffffff"
         inkscape:connector-curvature="0"
         d="m 42.406,200.689 c -1.008,0 -1.838,0.795 -1.838,1.804 0,1.009 0.83,1.839 1.838,1.839 h 0.067 c 1.009,0 1.805,-0.83 1.805,-1.839 0,-1.009 -0.796,-1.804 -1.805,-1.804 h -0.067 z m 5.555,0 c -1.008,0 -1.812,0.795 -1.812,1.804 0,1.009 0.805,1.839 1.812,1.839 h 0.094 c 1.008,0 1.805,-0.83 1.805,-1.839 0,-1.009 -0.797,-1.804 -1.805,-1.804 h -0.094 z m 5.583,0 c -1.008,0 -1.805,0.795 -1.805,1.804 0,1.009 0.797,1.839 1.805,1.839 h 0.067 c 1.008,0 1.838,-0.83 1.838,-1.839 0,-1.009 -0.83,-1.804 -1.838,-1.804 h -0.067 z m 5.583,0 c -1.009,0 -1.839,0.795 -1.839,1.804 0,1.009 0.83,1.839 1.839,1.839 h 0.067 c 1.008,0 1.804,-0.83 1.804,-1.839 0,-1.009 -0.796,-1.804 -1.804,-1.804 h -0.067 z m -16.721,5.184 c -1.008,0 -1.838,0.83 -1.838,1.838 0,1.008 0.83,1.805 1.838,1.805 h 0.067 c 1.009,0 1.805,-0.797 1.805,-1.805 0,-1.008 -0.796,-1.838 -1.805,-1.838 h -0.067 z m 5.555,0 c -1.008,0 -1.812,0.83 -1.812,1.838 0,1.008 0.805,1.805 1.812,1.805 h 0.094 c 1.008,0 1.805,-0.797 1.805,-1.805 0,-1.008 -0.797,-1.838 -1.805,-1.838 h -0.094 z m 5.583,0 c -1.008,0 -1.805,0.83 -1.805,1.838 0,1.008 0.797,1.805 1.805,1.805 h 0.067 c 1.008,0 1.838,-0.797 1.838,-1.805 0,-1.008 -0.83,-1.838 -1.838,-1.838 h -0.067 z m 5.583,0 c -1.009,0 -1.839,0.83 -1.839,1.838 v 5.148 c 0,1.009 0.83,1.839 1.839,1.839 h 0.067 c 1.008,0 1.804,-0.83 1.804,-1.839 v -5.148 c 0,-1.008 -0.796,-1.838 -1.804,-1.838 h -0.067 z m -16.721,5.217 c -1.008,0 -1.838,0.797 -1.838,1.805 0,1.008 0.83,1.805 1.838,1.805 h 0.067 c 1.009,0 1.805,-0.797 1.805,-1.805 0,-1.008 -0.796,-1.805 -1.805,-1.805 h -0.067 z m 5.555,0 c -1.008,0 -1.812,0.797 -1.812,1.805 0,1.008 0.805,1.805 1.812,1.805 h 0.094 c 1.008,0 1.805,-0.797 1.805,-1.805 0,-1.008 -0.797,-1.805 -1.805,-1.805 h -0.094 z m 5.583,0 c -1.008,0 -1.805,0.797 -1.805,1.805 0,1.008 0.797,1.805 1.805,1.805 h 0.067 c 1.008,0 1.838,-0.797 1.838,-1.805 0,-1.008 -0.83,-1.805 -1.838,-1.805 h -0.067 z"
         sodipodi:nodetypes="csccscccsccscccsccscccsccscccsccscccsccscccsccsccccccccccccsccscccsccscccsccscc"
         id="path11250" />
    </g>
  </g>
</svg>
