<?xml version="1.0" encoding="UTF-8" standalone="no"?>
<!-- Created with Inkscape (http://www.inkscape.org/) -->

<svg
   xmlns:dc="http://purl.org/dc/elements/1.1/"
   xmlns:cc="http://creativecommons.org/ns#"
   xmlns:rdf="http://www.w3.org/1999/02/22-rdf-syntax-ns#"
   xmlns:svg="http://www.w3.org/2000/svg"
   xmlns="http://www.w3.org/2000/svg"
   xmlns:sodipodi="http://sodipodi.sourceforge.net/DTD/sodipodi-0.dtd"
   xmlns:inkscape="http://www.inkscape.org/namespaces/inkscape"
   width="128"
   height="128"
   id="svg2619"
   sodipodi:version="0.32"
   inkscape:version="0.48.4 r9939"
   version="1.0"
   sodipodi:docname="icon.svg"
   inkscape:output_extension="org.inkscape.output.svg.inkscape"
   inkscape:export-filename="/home/martin/Work/odoo/odoo/addons-funkring/farm_chicken/static/description/icon.png"
   inkscape:export-xdpi="90"
   inkscape:export-ydpi="90">
  <defs
     id="defs2621">
    <inkscape:perspective
       sodipodi:type="inkscape:persp3d"
       inkscape:vp_x="0 : 526.18109 : 1"
       inkscape:vp_y="0 : 1000 : 0"
       inkscape:vp_z="744.09448 : 526.18109 : 1"
       inkscape:persp3d-origin="372.04724 : 350.78739 : 1"
       id="perspective2627" />
    <inkscape:perspective
       id="perspective88"
       inkscape:persp3d-origin="491.728 : 191.651 : 1"
       inkscape:vp_z="983.45599 : 287.4765 : 1"
       inkscape:vp_y="0 : 1000 : 0"
       inkscape:vp_x="0 : 287.4765 : 1"
       sodipodi:type="inkscape:persp3d" />
  </defs>
  <sodipodi:namedview
     id="base"
     pagecolor="#ffffff"
     bordercolor="#666666"
     borderopacity="1.0"
     inkscape:pageopacity="0.0"
     inkscape:pageshadow="2"
     inkscape:zoom="2.8284271"
     inkscape:cx="64.969527"
     inkscape:cy="1.5873821"
     inkscape:document-units="px"
     inkscape:current-layer="layer1"
     showgrid="false"
     inkscape:window-width="1920"
     inkscape:window-height="1148"
     inkscape:window-x="0"
     inkscape:window-y="1080"
     inkscape:window-maximized="1"
     showguides="true"
     inkscape:guide-bbox="true" />
  <metadata
     id="metadata2624">
    <rdf:RDF>
      <cc:Work
         rdf:about="">
        <dc:format>image/svg+xml</dc:format>
        <dc:type
           rdf:resource="http://purl.org/dc/dcmitype/StillImage" />
        <dc:title></dc:title>
      </cc:Work>
    </rdf:RDF>
  </metadata>
  <g
     inkscape:label="Ebene 1"
     inkscape:groupmode="layer"
     id="layer1"
     transform="translate(178.21353,-540.86827)">
    <path
       d=""
       id="path33"
       style="fill:none;stroke:#000000;stroke-width:1.65041435"
       inkscape:connector-curvature="0" />
    <path
       d=""
       id="path35"
       style="fill:none;stroke:#000000;stroke-width:1.65041435"
       inkscape:connector-curvature="0" />
    <path
       d=""
       id="path37"
       style="fill:none;stroke:#000000;stroke-width:1.65041435"
       inkscape:connector-curvature="0" />
    <path
       d=""
       id="path41"
       style="fill:none;stroke:#000000;stroke-width:1.65041435"
       inkscape:connector-curvature="0" />
    <path
       d=""
       id="path43"
       style="fill:none;stroke:#000000;stroke-width:1.65041435"
       inkscape:connector-curvature="0" />
    <path
       d=""
       id="path45"
       style="fill:none;stroke:#000000;stroke-width:1.65041435"
       inkscape:connector-curvature="0" />
    <path
       d=""
       id="path47"
       style="fill:none;stroke:#000000;stroke-width:1.65041435"
       inkscape:connector-curvature="0" />
    <path
       d=""
       id="path49"
       style="fill:none;stroke:#000000;stroke-width:1.65041435"
       inkscape:connector-curvature="0" />
    <path
       d=""
       id="path51"
       style="fill:none;stroke:#000000;stroke-width:1.65041435"
       inkscape:connector-curvature="0" />
    <path
       d=""
       id="path53"
       style="fill:none;stroke:#000000;stroke-width:1.65041435"
       inkscape:connector-curvature="0" />
    <path
       d=""
       id="path55"
       style="fill:none;stroke:#000000;stroke-width:1.65041435"
       inkscape:connector-curvature="0" />
    <path
       d=""
       id="path57"
       style="fill:none;stroke:#000000;stroke-width:1.65041435"
       inkscape:connector-curvature="0" />
    <path
       d=""
       id="path61"
       inkscape:connector-curvature="0" />
    <path
       d=""
       id="path73"
       style="fill:none;stroke:#abc716;stroke-width:1.65041435"
       inkscape:connector-curvature="0" />
    <path
       d=""
       id="path75"
       style="fill:none;stroke:#abc716;stroke-width:1.10027623"
       inkscape:connector-curvature="0" />
    <path
       d=""
       id="path79"
       style="fill:none;stroke:#abc716;stroke-width:1.10027623"
       inkscape:connector-curvature="0" />
    <g
       transform="matrix(1.1148841,0,0,-1.1148841,-484.801,819.56708)"
       id="g18149">
      <path
         inkscape:connector-curvature="0"
         transform="matrix(0.8,0,0,-0.8,0,670)"
         id="path17634"
         d="m 358.34375,598.28125 c -3.6425,0 -6.625,2.95 -6.625,6.59375 0,3.6425 2.9825,6.625 6.625,6.625 l 2.375,0 c 3.355,8.7625 9.9325,14.71875 17.5,14.71875 7.56875,0 14.17625,-5.95625 17.53125,-14.71875 l 2.21875,0 c 3.355,8.7625 9.93125,14.71875 17.5,14.71875 7.5675,0 14.17625,-5.95625 17.53125,-14.71875 l 2.28125,0 c 3.355,8.7625 9.9625,14.71875 17.53125,14.71875 7.5675,0 14.145,-5.95625 17.5,-14.71875 l 2.34375,0 c 3.6425,0 6.625,-2.9825 6.625,-6.625 0,-3.64375 -2.9825,-6.59375 -6.625,-6.59375 l -114.3125,0 z"
         style="fill:#231f20;fill-opacity:1;fill-rule:evenodd;stroke:none" />
      <path
         inkscape:connector-curvature="0"
         transform="matrix(0.8,0,0,-0.8,0,670)"
         id="path17632"
         d="m 431.875,594.5 c 0.1448,-0.0439 0.28023,-0.12273 0.28125,-0.28125 l 0,-0.3125 c 0.0425,-6.03125 -1.22875,-12.4375 -4.21875,-17.71875 -2.26,-3.995 -5.805,-7.7925 -10.5,-8.65625 -0.64,-0.11625 -1.31875,-0.1875 -1.96875,-0.1875 -0.6475,0 -1.27,0.0712 -1.90625,0.1875 -4.6975,0.86 -8.29875,4.66125 -10.5625,8.65625 -2.99125,5.2825 -4.23625,11.685 -4.1875,17.71875 l 0,0.3125 c 10e-4,0.15955 0.13577,0.23764 0.28125,0.28125 l 32.78125,0 z m -19.84375,-21.3125 c 0.75141,-0.0123 1.5125,0.25063 2.09375,0.8125 1.1625,1.12375 1.1875,2.99375 0.0625,4.15625 -2.09875,2.17125 -3.42625,5.38625 -4.15625,8.28125 -0.39375,1.56125 -2.00125,2.51875 -3.5625,2.125 -1.56125,-0.39375 -2.51875,-2.00125 -2.125,-3.5625 0.99,-3.92875 2.78125,-7.99875 5.625,-10.9375 0.56187,-0.58125 1.31109,-0.86266 2.0625,-0.875 z"
         style="fill:#80b71b;fill-opacity:1;fill-rule:evenodd;stroke:none" />
      <path
         inkscape:connector-curvature="0"
         transform="matrix(0.8,0,0,-0.8,0,670)"
         id="path17630"
         d="m 431.875,594.5 -32.78125,0 c 0.0323,0.01 0.027,0.0625 0.0625,0.0625 l 32.65625,0 c 0.0352,0 0.0303,-0.0527 0.0625,-0.0625 z"
         style="fill:#231f20;fill-opacity:1;fill-rule:evenodd;stroke:none" />
      <path
         inkscape:connector-curvature="0"
         transform="matrix(0.8,0,0,-0.8,0,670)"
         id="path17628"
         d="m 469.1875,594.5 c 0.1448,-0.0436 0.28023,-0.1217 0.28125,-0.28125 l 0,-0.3125 C 469.5175,587.8725 468.2425,581.47 465.25,576.1875 c -2.26375,-3.995 -5.8325,-7.79625 -10.53125,-8.65625 -0.63625,-0.11625 -1.25875,-0.1875 -1.90625,-0.1875 -0.64875,0 -1.3,0.07 -1.9375,0.1875 -4.6975,0.86 -8.26875,4.66125 -10.53125,8.65625 -2.9925,5.28375 -4.2675,11.685 -4.21875,17.71875 l 0,0.3125 c 10e-4,0.15955 0.13577,0.23764 0.28125,0.28125 l 32.78125,0 z m -19.84375,-21.3125 c 0.75141,-0.0123 1.5125,0.25063 2.09375,0.8125 1.1625,1.12375 1.18625,2.99375 0.0625,4.15625 -2.10125,2.17125 -3.42625,5.38625 -4.15625,8.28125 -0.39375,1.56125 -2.00125,2.51875 -3.5625,2.125 -1.56125,-0.39375 -2.51875,-2.00125 -2.125,-3.5625 0.99125,-3.92875 2.7825,-7.99875 5.625,-10.9375 0.56187,-0.58125 1.31109,-0.86266 2.0625,-0.875 z"
         style="fill:#80b71b;fill-opacity:1;fill-rule:evenodd;stroke:none" />
      <path
         inkscape:connector-curvature="0"
         transform="matrix(0.8,0,0,-0.8,0,670)"
         id="path17626"
         d="m 469.1875,594.5 -32.78125,0 c 0.0323,0.01 0.027,0.0625 0.0625,0.0625 l 32.65625,0 c 0.0352,0 0.0303,-0.0528 0.0625,-0.0625 z"
         style="fill:#231f20;fill-opacity:1;fill-rule:evenodd;stroke:none" />
      <path
         inkscape:connector-curvature="0"
         transform="matrix(0.8,0,0,-0.8,0,670)"
         id="path17624"
         d="m 394.625,594.5 -32.78125,0 c 0.0322,0.01 0.0273,0.0625 0.0625,0.0625 l 32.65625,0 c 0.0355,0 0.0302,-0.0528 0.0625,-0.0625 z"
         style="fill:#231f20;fill-opacity:1;fill-rule:evenodd;stroke:none" />
      <path
         inkscape:connector-curvature="0"
         transform="matrix(0.8,0,0,-0.8,0,670)"
         id="path100"
         d="m 378.21875,567.34375 c -0.6475,0 -1.27,0.0712 -1.90625,0.1875 -4.69875,0.86 -8.29875,4.66125 -10.5625,8.65625 -2.9925,5.2825 -4.23625,11.685 -4.1875,17.71875 l 0,0.3125 c 10e-4,0.15955 0.13645,0.23764 0.28125,0.28125 l 32.78125,0 c 0.14548,-0.0436 0.28023,-0.1217 0.28125,-0.28125 l 0,-0.3125 c 0.0487,-6.03375 -1.2275,-12.435 -4.21875,-17.71875 -2.2625,-3.995 -5.83375,-7.79625 -10.53125,-8.65625 -0.6375,-0.1175 -1.29,-0.1875 -1.9375,-0.1875 z m -3.4375,5.84375 c 0.75125,-0.0123 1.51313,0.25063 2.09375,0.8125 1.1625,1.12375 1.1875,2.99375 0.0625,4.15625 -2.1,2.17125 -3.425,5.385 -4.15625,8.28125 -0.39375,1.56125 -2.00125,2.51875 -3.5625,2.125 -1.56125,-0.39375 -2.55,-2.00125 -2.15625,-3.5625 0.99125,-3.92875 2.8125,-7.99875 5.65625,-10.9375 0.56187,-0.58125 1.31125,-0.86266 2.0625,-0.875 z"
         style="fill:#80b71b;fill-opacity:1;fill-rule:evenodd;stroke:none" />
    </g>
  </g>
</svg>
