<?xml version="1.0" encoding="UTF-8" standalone="no"?>
<!-- Created with Inkscape (http://www.inkscape.org/) -->

<svg
   xmlns:dc="http://purl.org/dc/elements/1.1/"
   xmlns:cc="http://creativecommons.org/ns#"
   xmlns:rdf="http://www.w3.org/1999/02/22-rdf-syntax-ns#"
   xmlns:svg="http://www.w3.org/2000/svg"
   xmlns="http://www.w3.org/2000/svg"
   xmlns:sodipodi="http://sodipodi.sourceforge.net/DTD/sodipodi-0.dtd"
   xmlns:inkscape="http://www.inkscape.org/namespaces/inkscape"
   width="128"
   height="128"
   id="svg3492"
   version="1.1"
   inkscape:version="0.48.3.1 r9886"
   sodipodi:docname="icon.svg">
  <defs
     id="defs3494">
    <linearGradient
       id="path6036_1_"
       gradientUnits="userSpaceOnUse"
       x1="27.284201"
       y1="89.963799"
       x2="51.273998"
       y2="89.963799"
       gradientTransform="matrix(0,1,-1,0,296.6679,2.8149)">
      <stop
         offset="0"
         style="stop-color:#6F6F6F"
         id="stop37" />
      <stop
         offset="1"
         style="stop-color:#494949"
         id="stop39" />
    </linearGradient>
    <linearGradient
       id="rect14892-5_1_"
       gradientUnits="userSpaceOnUse"
       x1="45.6973"
       y1="105.6464"
       x2="64.283699"
       y2="105.6464"
       gradientTransform="matrix(0,1,-1,0,296.6699,2.8149)">
      <stop
         offset="0"
         style="stop-color:#ABC837"
         id="stop43" />
      <stop
         offset="1"
         style="stop-color:#8DAF0A"
         id="stop45" />
    </linearGradient>
  </defs>
  <sodipodi:namedview
     id="base"
     pagecolor="#ffffff"
     bordercolor="#666666"
     borderopacity="1.0"
     inkscape:pageopacity="0.0"
     inkscape:pageshadow="2"
     inkscape:zoom="1.979899"
     inkscape:cx="75.109765"
     inkscape:cy="129.59782"
     inkscape:document-units="px"
     inkscape:current-layer="layer1"
     showgrid="false"
     inkscape:window-width="1920"
     inkscape:window-height="1124"
     inkscape:window-x="1920"
     inkscape:window-y="24"
     inkscape:window-maximized="1" />
  <metadata
     id="metadata3497">
    <rdf:RDF>
      <cc:Work
         rdf:about="">
        <dc:format>image/svg+xml</dc:format>
        <dc:type
           rdf:resource="http://purl.org/dc/dcmitype/StillImage" />
        <dc:title />
      </cc:Work>
    </rdf:RDF>
  </metadata>
  <g
     inkscape:label="Ebene 1"
     inkscape:groupmode="layer"
     id="layer1"
     transform="translate(0,-924.36218)">
    <g
       transform="matrix(3.13569,0,0,3.13569,-95.241313,359.59519)"
       id="g3486">
      <path
         style="fill:#80b71b"
         inkscape:connector-curvature="0"
         d="m 40.5,183.019 c -2.177,0 -3.909,1.765 -3.909,3.942 v 8.673 h 28.387 v -8.673 c 0,-2.177 -1.732,-3.942 -3.91,-3.942 H 40.5 z"
         id="rect7516" />
      <path
         style="fill:#ffffff"
         inkscape:connector-curvature="0"
         d="m 41.48,186.509 h 18.604 c 0.962,0 1.736,0.801 1.736,1.797 v 2.21 c 0,0.995 -0.774,1.797 -1.736,1.797 H 41.48 c -0.962,0 -1.736,-0.802 -1.736,-1.797 v -2.21 c 0,-0.995 0.774,-1.797 1.736,-1.797 z"
         sodipodi:nodetypes="ccccccccc"
         id="rect7628" />
      <path
         style="fill:#1a171b"
         inkscape:connector-curvature="0"
         d="m 36.589,197.602 v 16.572 c 0,2.135 1.71,3.846 3.845,3.846 h 20.697 c 2.135,0 3.845,-1.711 3.845,-3.846 V 197.602 H 36.589 z"
         sodipodi:nodetypes="ccccccc"
         id="rect7634" />
      <path
         style="fill:#ffffff"
         inkscape:connector-curvature="0"
         d="m 42.406,200.689 c -1.008,0 -1.838,0.795 -1.838,1.804 0,1.009 0.83,1.839 1.838,1.839 h 0.067 c 1.009,0 1.805,-0.83 1.805,-1.839 0,-1.009 -0.796,-1.804 -1.805,-1.804 h -0.067 z m 5.555,0 c -1.008,0 -1.812,0.795 -1.812,1.804 0,1.009 0.805,1.839 1.812,1.839 h 0.094 c 1.008,0 1.805,-0.83 1.805,-1.839 0,-1.009 -0.797,-1.804 -1.805,-1.804 h -0.094 z m 5.583,0 c -1.008,0 -1.805,0.795 -1.805,1.804 0,1.009 0.797,1.839 1.805,1.839 h 0.067 c 1.008,0 1.838,-0.83 1.838,-1.839 0,-1.009 -0.83,-1.804 -1.838,-1.804 h -0.067 z m 5.583,0 c -1.009,0 -1.839,0.795 -1.839,1.804 0,1.009 0.83,1.839 1.839,1.839 h 0.067 c 1.008,0 1.804,-0.83 1.804,-1.839 0,-1.009 -0.796,-1.804 -1.804,-1.804 h -0.067 z m -16.721,5.184 c -1.008,0 -1.838,0.83 -1.838,1.838 0,1.008 0.83,1.805 1.838,1.805 h 0.067 c 1.009,0 1.805,-0.797 1.805,-1.805 0,-1.008 -0.796,-1.838 -1.805,-1.838 h -0.067 z m 5.555,0 c -1.008,0 -1.812,0.83 -1.812,1.838 0,1.008 0.805,1.805 1.812,1.805 h 0.094 c 1.008,0 1.805,-0.797 1.805,-1.805 0,-1.008 -0.797,-1.838 -1.805,-1.838 h -0.094 z m 5.583,0 c -1.008,0 -1.805,0.83 -1.805,1.838 0,1.008 0.797,1.805 1.805,1.805 h 0.067 c 1.008,0 1.838,-0.797 1.838,-1.805 0,-1.008 -0.83,-1.838 -1.838,-1.838 h -0.067 z m 5.583,0 c -1.009,0 -1.839,0.83 -1.839,1.838 v 5.148 c 0,1.009 0.83,1.839 1.839,1.839 h 0.067 c 1.008,0 1.804,-0.83 1.804,-1.839 v -5.148 c 0,-1.008 -0.796,-1.838 -1.804,-1.838 h -0.067 z m -16.721,5.217 c -1.008,0 -1.838,0.797 -1.838,1.805 0,1.008 0.83,1.805 1.838,1.805 h 0.067 c 1.009,0 1.805,-0.797 1.805,-1.805 0,-1.008 -0.796,-1.805 -1.805,-1.805 h -0.067 z m 5.555,0 c -1.008,0 -1.812,0.797 -1.812,1.805 0,1.008 0.805,1.805 1.812,1.805 h 0.094 c 1.008,0 1.805,-0.797 1.805,-1.805 0,-1.008 -0.797,-1.805 -1.805,-1.805 h -0.094 z m 5.583,0 c -1.008,0 -1.805,0.797 -1.805,1.805 0,1.008 0.797,1.805 1.805,1.805 h 0.067 c 1.008,0 1.838,-0.797 1.838,-1.805 0,-1.008 -0.83,-1.805 -1.838,-1.805 h -0.067 z"
         sodipodi:nodetypes="csccscccsccscccsccscccsccscccsccscccsccscccsccsccccccccccccsccscccsccscccsccscc"
         id="path11250" />
    </g>
    <g
       id="g3814"
       transform="translate(-159.6041,69.700525)">
      <path
         transform="translate(93.027595,915.83046)"
         d="m 189.90867,37.086269 c 0,13.947296 -11.30651,25.253813 -25.25381,25.253813 -13.94729,0 -25.25381,-11.306517 -25.25381,-25.253813 0,-13.947295 11.30652,-25.253812 25.25381,-25.253812 13.9473,0 25.25381,11.306517 25.25381,25.253812 z"
         sodipodi:ry="25.253813"
         sodipodi:rx="25.253813"
         sodipodi:cy="37.086269"
         sodipodi:cx="164.65486"
         id="path3022"
         style="fill:#80b71b;fill-opacity:1;fill-rule:nonzero;stroke:none"
         sodipodi:type="arc" />
      <g
         style="fill:#ffffff"
         transform="matrix(0.80888677,0,0,0.80888677,95.725498,913.60559)"
         id="g12962">
        <linearGradient
           gradientTransform="matrix(0,1,-1,0,296.6679,2.8149)"
           y2="89.963799"
           x2="51.273998"
           y1="89.963799"
           x1="27.284201"
           gradientUnits="userSpaceOnUse"
           id="linearGradient3503">
          <stop
             id="stop3505"
             style="stop-color:#6F6F6F"
             offset="0" />
          <stop
             id="stop3507"
             style="stop-color:#494949"
             offset="1" />
        </linearGradient>
        <path
           d="m 209.876,30.683 c -0.273,-0.278 -0.803,-0.464 -1.33,-0.533 -3.214,-0.305 -6.521,0.768 -8.98,3.232 -2.216,2.219 -3.319,5.153 -3.294,8.063 0,2.687 -0.508,3.907 -1.58,5.614 l 7.02,7.03 c 1.703,-1.074 3.005,-1.5 5.688,-1.5 2.905,0.026 5.834,-1.08 8.05,-3.298 2.511,-2.515 3.562,-5.916 3.193,-9.196 -0.062,-1.158 -0.948,-1.649 -1.63,-0.966 l -4.773,4.781 c -0.743,0.744 -1.919,0.744 -2.661,0 l -4.641,-4.648 c -0.743,-0.744 -0.743,-1.921 0,-2.666 l 4.772,-4.781 c 0.464,-0.465 0.441,-0.854 0.166,-1.132 z"
           sodipodi:nodetypes="ccsccccscccccccc"
           id="path6036"
           inkscape:connector-curvature="0"
           style="fill:#ffffff" />
        <linearGradient
           gradientTransform="matrix(0,1,-1,0,296.6699,2.8149)"
           y2="105.6464"
           x2="64.283699"
           y1="105.6464"
           x1="45.6973"
           gradientUnits="userSpaceOnUse"
           id="linearGradient3510">
          <stop
             id="stop3512"
             style="stop-color:#ABC837"
             offset="0" />
          <stop
             id="stop3514"
             style="stop-color:#8DAF0A"
             offset="1" />
        </linearGradient>
        <path
           d="m 193.323,48.512 -10.399,10.399 c -1.593,1.593 -1.593,4.153 0,5.747 l 1.246,1.246 c 1.595,1.593 4.164,1.593 5.758,0 l 10.39,-10.389 -6.995,-7.003 z"
           sodipodi:nodetypes="ccccccc"
           id="rect14892-5"
           inkscape:connector-curvature="0"
           style="fill:#ffffff" />
      </g>
    </g>
  </g>
</svg>
