<?xml version="1.0" encoding="UTF-8" standalone="no"?>
<!-- Created with Inkscape (http://www.inkscape.org/) -->

<svg
   xmlns:dc="http://purl.org/dc/elements/1.1/"
   xmlns:cc="http://creativecommons.org/ns#"
   xmlns:rdf="http://www.w3.org/1999/02/22-rdf-syntax-ns#"
   xmlns:svg="http://www.w3.org/2000/svg"
   xmlns="http://www.w3.org/2000/svg"
   xmlns:sodipodi="http://sodipodi.sourceforge.net/DTD/sodipodi-0.dtd"
   xmlns:inkscape="http://www.inkscape.org/namespaces/inkscape"
   width="128"
   height="128"
   id="svg3572"
   version="1.1"
   inkscape:version="0.48.3.1 r9886"
   sodipodi:docname="Neues Dokument 1">
  <defs
     id="defs3574" />
  <sodipodi:namedview
     id="base"
     pagecolor="#ffffff"
     bordercolor="#666666"
     borderopacity="1.0"
     inkscape:pageopacity="0.0"
     inkscape:pageshadow="2"
     inkscape:zoom="1.979899"
     inkscape:cx="-126.66734"
     inkscape:cy="97.006056"
     inkscape:document-units="px"
     inkscape:current-layer="layer1"
     showgrid="false"
     inkscape:window-width="1920"
     inkscape:window-height="1056"
     inkscape:window-x="0"
     inkscape:window-y="1080"
     inkscape:window-maximized="1" />
  <metadata
     id="metadata3577">
    <rdf:RDF>
      <cc:Work
         rdf:about="">
        <dc:format>image/svg+xml</dc:format>
        <dc:type
           rdf:resource="http://purl.org/dc/dcmitype/StillImage" />
        <dc:title></dc:title>
      </cc:Work>
    </rdf:RDF>
  </metadata>
  <g
     inkscape:label="Ebene 1"
     inkscape:groupmode="layer"
     id="layer1"
     transform="translate(0,-924.36218)">
    <g
       id="g4375">
      <path
         d="m 81.969267,933.92016 c -1.000115,0.0612 -1.915672,0.46069 -2.735008,1.27711 l -32.164043,32.07365 c -1.629925,1.62993 -1.708651,4.12001 -0.274084,5.55458 l 0.728947,0.72895 c 1.437483,1.43456 3.93048,1.26836 5.557489,-0.36448 l 31.983265,-32.07365 c 1.63284,-1.62993 1.711566,-4.12292 0.274084,-5.55458 l -0.548168,-0.64147 c -0.714368,-0.71728 -1.819451,-1.06426 -2.822482,-1.00011 z m -36.08286,53.94205 -20.862454,20.86539 c -5.784921,5.7849 -5.784921,15.0805 0,20.8654 5.782005,5.7849 15.080449,5.8782 20.862454,0.09 l 20.958675,-20.9587 -20.958675,-20.86249 0,0 z"
         id="path12322"
         inkscape:connector-curvature="0"
         style="fill:#80b71b" />
      <path
         id="path272"
         d="m 101.19596,938.65831 c -3.781771,0 -7.493567,1.39083 -10.386028,4.28329 l -40.911403,41.00179 20.86537,20.86541 41.001791,-41.00183 c 5.78201,-5.78492 5.78201,-15.08045 0,-20.86537 -2.89246,-2.89538 -6.78795,-4.28329 -10.56973,-4.28329 z"
         inkscape:connector-curvature="0"
         style="fill:#000000;fill-opacity:1" />
      <path
         id="path274"
         d="m 18.91538,1028.7736 -5.554574,5.5575 c -1.950661,1.9536 -1.950661,5.0618 0,7.0154 1.953577,1.9536 5.061806,1.9536 7.012467,0 l 5.650795,-5.6508 c -1.495799,-0.7464 -2.85164,-1.7611 -4.099596,-3.0062 -1.215883,-1.2042 -2.262651,-2.4667 -3.009092,-3.9159 z"
         inkscape:connector-curvature="0"
         style="fill:#000000;fill-opacity:1" />
    </g>
  </g>
</svg>
