<?xml version="1.0" encoding="UTF-8" standalone="no"?>
<!-- Created with Inkscape (http://www.inkscape.org/) -->

<svg
   xmlns:dc="http://purl.org/dc/elements/1.1/"
   xmlns:cc="http://creativecommons.org/ns#"
   xmlns:rdf="http://www.w3.org/1999/02/22-rdf-syntax-ns#"
   xmlns:svg="http://www.w3.org/2000/svg"
   xmlns="http://www.w3.org/2000/svg"
   xmlns:sodipodi="http://sodipodi.sourceforge.net/DTD/sodipodi-0.dtd"
   xmlns:inkscape="http://www.inkscape.org/namespaces/inkscape"
   width="136.53334"
   height="136.53334"
   id="svg3572"
   version="1.1"
   inkscape:version="0.92.1 unknown"
   sodipodi:docname="icon.svg"
   inkscape:export-filename="/home/martin/Work/odoo/odoo/addons-funkring/website_download/static/description/icon.png"
   inkscape:export-xdpi="90"
   inkscape:export-ydpi="90">
  <defs
     id="defs3574">
    <linearGradient
       gradientTransform="matrix(0,0.9396,0.9396,0,-213.7641,-135.9702)"
       y2="296.97031"
       x2="379.29251"
       y1="296.97031"
       x1="349.35019"
       gradientUnits="userSpaceOnUse"
       id="path10914_1_">
      <stop
         id="stop6879"
         style="stop-color:#6F6F6F"
         offset="0" />
      <stop
         id="stop6881"
         style="stop-color:#494949"
         offset="1" />
    </linearGradient>
    <linearGradient
       gradientTransform="matrix(0,0.9396,0.9396,0,-213.7641,-135.9702)"
       y2="295.0983"
       x2="357.4371"
       y1="295.0983"
       x1="335.42239"
       gradientUnits="userSpaceOnUse"
       id="path6560_1_">
      <stop
         id="stop6887"
         style="stop-color:#ABC837"
         offset="0" />
      <stop
         id="stop6889"
         style="stop-color:#8DAF0A"
         offset="1" />
    </linearGradient>
    <linearGradient
       id="linearGradient6968"
       gradientUnits="userSpaceOnUse"
       x1="349.35019"
       y1="296.97031"
       x2="379.29251"
       y2="296.97031"
       gradientTransform="matrix(0,0.9396,0.9396,0,-213.7641,-135.9702)">
      <stop
         offset="0"
         style="stop-color:#6F6F6F"
         id="stop6970" />
      <stop
         offset="1"
         style="stop-color:#494949"
         id="stop6972" />
    </linearGradient>
    <linearGradient
       id="linearGradient6977"
       gradientUnits="userSpaceOnUse"
       x1="335.42239"
       y1="295.0983"
       x2="357.4371"
       y2="295.0983"
       gradientTransform="matrix(0,0.9396,0.9396,0,-213.7641,-135.9702)">
      <stop
         offset="0"
         style="stop-color:#ABC837"
         id="stop6979" />
      <stop
         offset="1"
         style="stop-color:#8DAF0A"
         id="stop6981" />
    </linearGradient>
    <linearGradient
       id="path10531-8_1_"
       gradientUnits="userSpaceOnUse"
       x1="404.85861"
       y1="441.08801"
       x2="445.80881"
       y2="441.08801"
       gradientTransform="matrix(0,0.9396,0.9396,0,-215.43144,-124.73692)">
      <stop
         offset="0"
         style="stop-color:#ABC837"
         id="stop7905" />
      <stop
         offset="1"
         style="stop-color:#8DAF0A"
         id="stop7907" />
    </linearGradient>
  </defs>
  <sodipodi:namedview
     id="base"
     pagecolor="#ffffff"
     bordercolor="#666666"
     borderopacity="1.0"
     inkscape:pageopacity="0.0"
     inkscape:pageshadow="2"
     inkscape:zoom="1.979899"
     inkscape:cx="-90.301849"
     inkscape:cy="97.006056"
     inkscape:document-units="px"
     inkscape:current-layer="g8147"
     showgrid="false"
     inkscape:window-width="1920"
     inkscape:window-height="1148"
     inkscape:window-x="0"
     inkscape:window-y="1080"
     inkscape:window-maximized="1" />
  <metadata
     id="metadata3577">
    <rdf:RDF>
      <cc:Work
         rdf:about="">
        <dc:format>image/svg+xml</dc:format>
        <dc:type
           rdf:resource="http://purl.org/dc/dcmitype/StillImage" />
        <dc:title></dc:title>
      </cc:Work>
    </rdf:RDF>
  </metadata>
  <g
     inkscape:label="Ebene 1"
     inkscape:groupmode="layer"
     id="layer1"
     transform="translate(0,-985.98633)">
    <g
       transform="matrix(2.6681664,0,0,2.6681664,-461.7901,318.83653)"
       id="g8147">
      <g
         id="g8475"
         transform="translate(-0.3480973,0.72668418)">
        <path
           id="path10531-8"
           d="m 199.02466,255.66148 c -10.604,0 -19.255,8.654 -19.255,19.255 0,10.601 8.651,19.221 19.255,19.221 10.604,0 19.221,-8.62 19.221,-19.221 0,-10.601 -8.617,-19.255 -19.221,-19.255 z"
           style="fill:url(#path10531-8_1_)"
           inkscape:connector-curvature="0" />
        <path
           id="path10533-2"
           d="m 199.00866,258.96948 c 8.783,0 15.929,7.147 15.929,15.93 0,8.781 -7.146,15.93 -15.929,15.93 -8.784,0 -15.93,-7.148 -15.93,-15.93 0,-8.782 7.146,-15.93 15.93,-15.93 z"
           inkscape:connector-curvature="0"
           style="fill:#ffffff" />
        <path
           id="path10575"
           d="m 197.01666,260.27948 c -2.491,0.34 -4.774,1.311 -6.711,2.734 0.915,-0.256 1.795,-0.871 2.672,-0.84 1.109,-1.118 3.249,-0.479 4.039,-1.894 z m 6.027,0.434 c -0.797,0.089 -1.571,0.483 -2.019,1.149 -1.285,0.391 1.209,-1.023 -0.249,-0.994 -1.376,-0.259 -2.495,0.098 -3.542,0.901 0.734,0.474 1.995,0.929 2.082,-0.28 1.462,0.729 -0.697,1.822 -1.336,0.994 -0.571,-0.41 -1.141,0.855 -1.927,0.777 -0.938,0.405 -0.875,1.522 -2.05,1.273 -1.68,0.251 0.391,2.465 1.305,1.336 0.491,-1.043 1.86,-1.854 2.951,-1.057 0.545,0.898 2.462,0.819 2.796,0.871 -0.123,-0.72 1.327,-0.478 1.119,-1.336 0.864,-0.846 3.393,1.122 1.336,0.869 -0.841,-0.402 -2.482,0.682 -1.149,1.119 1.061,0.029 2.012,-0.188 1.926,1.118 0.77,1.241 1.589,2.448 2.454,3.635 0.632,0.823 0.429,2.458 1.896,1.678 1.251,-0.341 2.55,-2.337 0.994,-3.138 -0.97,-0.084 -1.884,-0.741 -2.112,-1.678 1.222,0.766 2.73,0.957 3.945,1.74 1.012,1.339 1.38,3.05 2.237,4.442 0.028,-0.059 0.04,-0.126 0.062,-0.187 -0.42,-6.316 -4.822,-11.559 -10.719,-13.232 z m -7.487,1.087 c -0.198,0.775 -0.454,0.968 -1.149,0.871 0.451,0.781 2.993,0.364 1.149,-0.871 z m 0.932,4.351 c -0.413,0.001 -0.858,0.101 -1.305,0.311 -1.848,-0.024 -3.622,0.952 -4.35,2.703 -0.385,1.575 -1.655,3.393 -0.467,4.878 1.118,1.213 2.574,2.531 4.319,1.491 1.158,-0.92 2.106,0.716 2.982,0.932 -0.117,1.475 0.465,2.626 1.242,3.79 0.512,1.498 -0.134,2.94 -0.031,4.381 0.793,1.098 -0.213,3.487 1.803,3.325 1.712,-0.041 2.947,-1.388 3.697,-2.796 0.415,-1.312 1.567,-2.012 2.36,-3.076 -0.119,-1.394 -0.691,-2.812 0.528,-3.946 0.513,-1.528 2.437,-2.046 2.485,-3.759 0.206,-1.682 -1.706,0.158 -2.36,-1.088 -1.302,-1.069 -1.702,-2.709 -2.579,-4.07 -0.526,-0.499 -0.663,-1.864 -1.585,-1.305 -1.087,-0.496 -2.391,-0.74 -3.354,-0.187 -1.041,-0.776 -2.146,-1.591 -3.385,-1.584 z m -12.241,8.637 c -0.001,0.052 0,0.104 0,0.155 0,3.371 1.138,6.457 3.045,8.948 -0.261,-1.331 -0.56,-2.663 -0.652,-4.008 0.651,-1.33 -0.225,-2.423 -1.181,-3.294 -0.819,-0.461 -0.941,-1.138 -1.212,-1.801 z m 23.892,6.121 c -0.217,0.054 -0.421,0.29 -0.528,0.776 -0.278,1.301 -0.912,2.78 -0.932,3.977 1.161,-0.713 1.983,-2.129 2.236,-3.448 l -0.031,-0.218 c 0.002,-0.736 -0.384,-1.176 -0.745,-1.087 z"
           style="fill:#000000"
           inkscape:connector-curvature="0" />
      </g>
    </g>
  </g>
</svg>
