<?xml version="1.0" encoding="UTF-8" standalone="no"?>
<!-- Created with Inkscape (http://www.inkscape.org/) -->

<svg
   xmlns:dc="http://purl.org/dc/elements/1.1/"
   xmlns:cc="http://creativecommons.org/ns#"
   xmlns:rdf="http://www.w3.org/1999/02/22-rdf-syntax-ns#"
   xmlns:svg="http://www.w3.org/2000/svg"
   xmlns="http://www.w3.org/2000/svg"
   xmlns:sodipodi="http://sodipodi.sourceforge.net/DTD/sodipodi-0.dtd"
   xmlns:inkscape="http://www.inkscape.org/namespaces/inkscape"
   width="128"
   height="128"
   id="svg3512"
   version="1.1"
   inkscape:version="0.48.4 r9939"
   inkscape:export-filename="/home/edwin/Work/odoo/odoo/addons-funkring/fpos/static/description/icon.png"
   inkscape:export-xdpi="90"
   inkscape:export-ydpi="90"
   sodipodi:docname="Neues Dokument 3">
  <defs
     id="defs3514" />
  <sodipodi:namedview
     id="base"
     pagecolor="#ffffff"
     bordercolor="#666666"
     borderopacity="1.0"
     inkscape:pageopacity="0.0"
     inkscape:pageshadow="2"
     inkscape:zoom="2.8"
     inkscape:cx="88.315192"
     inkscape:cy="36.237091"
     inkscape:document-units="px"
     inkscape:current-layer="g3573"
     showgrid="false"
     inkscape:window-width="1920"
     inkscape:window-height="1028"
     inkscape:window-x="0"
     inkscape:window-y="0"
     inkscape:window-maximized="1" />
  <metadata
     id="metadata3517">
    <rdf:RDF>
      <cc:Work
         rdf:about="">
        <dc:format>image/svg+xml</dc:format>
        <dc:type
           rdf:resource="http://purl.org/dc/dcmitype/StillImage" />
        <dc:title></dc:title>
      </cc:Work>
    </rdf:RDF>
  </metadata>
  <g
     inkscape:label="Ebene 1"
     inkscape:groupmode="layer"
     id="layer1"
     transform="translate(0,-924.36218)">
    <g
       id="g3573">
      <g
         id="g4141">
        <g
           id="g4107">
          <g
             id="g4074">
            <g
               id="g4042">
              <g
                 id="g4011">
                <g
                   id="g3981">
                  <g
                     id="g3952">
                    <g
                       id="g3924">
                      <g
                         id="g3897">
                        <g
                           id="g3871">
                          <g
                             id="g3846">
                            <g
                               id="g3822">
                              <g
                                 id="g3799">
                                <g
                                   id="g3777">
                                <g
                                   id="g3756">
                                <g
                                   id="g3736">
                                <g
                                   id="g3717">
                                <g
                                   id="g3699">
                                <g
                                   id="g3682">
                                <g
                                   id="g3666">
                                <g
                                   id="g3651">
                                <g
                                   id="g3637">
                                <g
                                   id="g3624">
                                <g
                                   id="g3612">
                                <g
                                   id="g3601">
                                <g
                                   id="g3591">
                                <g
                                   id="g3582">
                                <g
                                   id="g3549">
                                <g
                                   id="g3542">
                                <g
                                   id="g3536">
                                <g
                                   transform="matrix(3.0359423,0,0,3.0359423,-733.35885,-2497.8914)"
                                   id="g3531">
                                <path
                                   style="fill:#80b71b"
                                   inkscape:connector-curvature="0"
                                   id="path11166"
                                   d="m 262.07316,1134.2047 c -0.416,0.018 -0.803,0.28 -0.958,0.694 -0.208,0.551 0.076,1.18 0.628,1.388 l 3.37,1.256 c 0.552,0.208 1.182,-0.076 1.389,-0.628 0.155,-0.414 0.036,-0.871 -0.265,-1.157 -0.1,-0.096 -0.226,-0.146 -0.363,-0.198 l -3.37,-1.289 c -0.139,-0.053 -0.293,-0.073 -0.431,-0.066 z m 5.948,2.742 c -0.27,0.037 -0.516,0.195 -0.694,0.43 -0.355,0.469 -0.271,1.13 0.198,1.487 l 2.875,2.181 c 0.469,0.357 1.13,0.271 1.487,-0.198 0.312,-0.41 0.293,-0.982 -0.033,-1.354 -0.047,-0.054 -0.106,-0.087 -0.165,-0.132 l -2.875,-2.181 c -0.236,-0.18 -0.525,-0.269 -0.793,-0.233 l 0,0 z m 5.221,4.362 c -0.236,-0.01 -0.487,0.075 -0.692,0.231 -0.47,0.357 -0.557,1.018 -0.198,1.487 l 2.214,2.875 c 0.357,0.469 1.019,0.556 1.487,0.198 0.469,-0.357 0.555,-1.018 0.198,-1.487 l -2.183,-2.875 c -0.044,-0.059 -0.111,-0.118 -0.165,-0.165 -0.187,-0.163 -0.423,-0.257 -0.661,-0.264 l 0,0 z m 3.569,5.551 c -0.105,0.01 -0.229,0.027 -0.331,0.066 -0.551,0.208 -0.835,0.803 -0.628,1.354 l 1.289,3.404 c 0.208,0.551 0.804,0.802 1.354,0.595 0.553,-0.208 0.836,-0.804 0.628,-1.354 l -1.255,-3.371 c -0.053,-0.138 -0.137,-0.263 -0.23,-0.363 -0.215,-0.226 -0.514,-0.35 -0.827,-0.331 l 0,0 z" />
                                <path
                                   style="fill:#000000;fill-opacity:1"
                                   inkscape:connector-curvature="0"
                                   id="rect4795"
                                   d="m 249.31016,1130.3267 c -0.993,0 -1.785,0.792 -1.785,1.785 v 6.609 c 0,0.022 0,0.044 0,0.066 0,0.012 0,0.021 0,0.033 v 19.331 c 0,0.512 0.365,0.859 0.859,0.859 h 26.634 c 0.532,0 0.893,-0.421 0.893,-0.892 0,-0.548 0,0.448 0,-0.099 0,-10.856 -8.188,-19.703 -18.703,-20.686 v -5.221 c 0,-0.993 -0.823,-1.785 -1.816,-1.785 h -6.082 z m 2.742,1.917 h 2.412 c 0.292,0 0.528,0.274 0.528,0.595 v 3.866 c 0,0.321 -0.236,0.562 -0.528,0.562 h -2.412 c -0.292,0 -0.528,-0.241 -0.528,-0.562 v -3.866 c 0,-0.321 0.236,-0.595 0.528,-0.595 z" />
                                <path
                                   style="fill:#80b71b"
                                   inkscape:connector-curvature="0"
                                   id="rect6937-8"
                                   sodipodi:nodetypes="ccccccccc"
                                   d="m 247.02816,1160.9887 h 31.222 c 0.832,0 1.503,0.688 1.503,1.541 v 2.257 c 0,0.853 -0.671,1.54 -1.503,1.54 h -31.222 c -0.832,0 -1.502,-0.687 -1.502,-1.54 v -2.257 c 0,-0.854 0.67,-1.541 1.502,-1.541 z" />
                                </g>
                                </g>
                                </g>
                                </g>
                                </g>
                                </g>
                                </g>
                                </g>
                                </g>
                                </g>
                                </g>
                                </g>
                                </g>
                                </g>
                                </g>
                                </g>
                                </g>
                                </g>
                              </g>
                            </g>
                          </g>
                        </g>
                      </g>
                    </g>
                  </g>
                </g>
              </g>
            </g>
          </g>
        </g>
      </g>
    </g>
  </g>
</svg>
