<?xml version="1.0" encoding="UTF-8" standalone="no"?>
<!-- Created with Inkscape (http://www.inkscape.org/) -->

<svg
   xmlns:dc="http://purl.org/dc/elements/1.1/"
   xmlns:cc="http://creativecommons.org/ns#"
   xmlns:rdf="http://www.w3.org/1999/02/22-rdf-syntax-ns#"
   xmlns:svg="http://www.w3.org/2000/svg"
   xmlns="http://www.w3.org/2000/svg"
   xmlns:xlink="http://www.w3.org/1999/xlink"
   xmlns:sodipodi="http://sodipodi.sourceforge.net/DTD/sodipodi-0.dtd"
   xmlns:inkscape="http://www.inkscape.org/namespaces/inkscape"
   width="128"
   height="128"
   id="svg13945"
   version="1.1"
   inkscape:version="0.48.3.1 r9886"
   sodipodi:docname="icon.svg"
   inkscape:export-filename="/home/edwin/Work/openerp-merge/addons-funkring/at_subscription/static/description/icon.png"
   inkscape:export-xdpi="90"
   inkscape:export-ydpi="90">
  <defs
     id="defs13947">
    <linearGradient
       inkscape:collect="always"
       xlink:href="#SVGID_47_"
       id="linearGradient14090"
       gradientUnits="userSpaceOnUse"
       gradientTransform="translate(179.1401,3150.5547)"
       x1="1085.0491"
       y1="-568.30713"
       x2="1085.0491"
       y2="-254.38921" />
    <linearGradient
       gradientTransform="translate(179.1401,3150.5547)"
       y2="-254.38921"
       x2="1085.0491"
       y1="-568.30713"
       x1="1085.0491"
       gradientUnits="userSpaceOnUse"
       id="SVGID_47_">
      <stop
         id="stop11693"
         style="stop-color:#80b71b;stop-opacity:1;"
         offset="0" />
      <stop
         id="stop11695"
         style="stop-color:#92B211"
         offset="1" />
    </linearGradient>
    <linearGradient
       inkscape:collect="always"
       xlink:href="#SVGID_48_"
       id="linearGradient14087"
       gradientUnits="userSpaceOnUse"
       gradientTransform="matrix(0.39763488,0,0,0.39763488,-357.71692,1183.3447)"
       x1="1088.7292"
       y1="-643.33148"
       x2="1088.7292"
       y2="-563.71039" />
    <linearGradient
       gradientTransform="translate(179.1401,3150.5547)"
       y2="-563.71039"
       x2="1088.7292"
       y1="-643.33148"
       x1="1088.7292"
       gradientUnits="userSpaceOnUse"
       id="SVGID_48_">
      <stop
         id="stop11700"
         style="stop-color:#676767"
         offset="0" />
      <stop
         id="stop11702"
         style="stop-color:#383838"
         offset="1" />
    </linearGradient>
    <linearGradient
       inkscape:collect="always"
       xlink:href="#SVGID_49_"
       id="linearGradient14084"
       gradientUnits="userSpaceOnUse"
       gradientTransform="matrix(0.39763488,0,0,0.39763488,-357.71692,1183.3447)"
       x1="989.65601"
       y1="-643.33148"
       x2="989.65601"
       y2="-563.71039" />
    <linearGradient
       gradientTransform="translate(179.1401,3150.5547)"
       y2="-563.71039"
       x2="989.65601"
       y1="-643.33148"
       x1="989.65601"
       gradientUnits="userSpaceOnUse"
       id="SVGID_49_">
      <stop
         id="stop11707"
         style="stop-color:#676767"
         offset="0" />
      <stop
         id="stop11709"
         style="stop-color:#383838"
         offset="1" />
    </linearGradient>
    <linearGradient
       inkscape:collect="always"
       xlink:href="#SVGID_50_"
       id="linearGradient14081"
       gradientUnits="userSpaceOnUse"
       gradientTransform="matrix(0.39763488,0,0,0.39763488,-357.71692,1183.3447)"
       x1="1039.8909"
       y1="-603.51508"
       x2="1039.8909"
       y2="-289.32571" />
    <linearGradient
       gradientTransform="translate(179.1401,3150.5547)"
       y2="-289.32571"
       x2="1039.8909"
       y1="-603.51508"
       x1="1039.8909"
       gradientUnits="userSpaceOnUse"
       id="SVGID_50_">
      <stop
         id="stop11714"
         style="stop-color:#676767"
         offset="0" />
      <stop
         id="stop11716"
         style="stop-color:#383838"
         offset="1" />
    </linearGradient>
    <linearGradient
       inkscape:collect="always"
       xlink:href="#SVGID_51_"
       id="linearGradient14078"
       gradientUnits="userSpaceOnUse"
       gradientTransform="matrix(0.39763488,0,0,0.39763488,-357.71692,1183.3447)"
       x1="983.13263"
       y1="-487.728"
       x2="983.13263"
       y2="-347.35989" />
    <linearGradient
       gradientTransform="translate(179.1401,3150.5547)"
       y2="-347.35989"
       x2="983.13263"
       y1="-487.728"
       x1="983.13263"
       gradientUnits="userSpaceOnUse"
       id="SVGID_51_">
      <stop
         id="stop11721"
         style="stop-color:#676767"
         offset="0" />
      <stop
         id="stop11723"
         style="stop-color:#383838"
         offset="1" />
    </linearGradient>
    <linearGradient
       inkscape:collect="always"
       xlink:href="#SVGID_52_"
       id="linearGradient14075"
       gradientUnits="userSpaceOnUse"
       gradientTransform="matrix(0.39763488,0,0,0.39763488,-357.71692,1183.3447)"
       x1="1101.2336"
       y1="-487.73389"
       x2="1101.2336"
       y2="-349.67239" />
    <linearGradient
       gradientTransform="translate(179.1401,3150.5547)"
       y2="-349.67239"
       x2="1101.2336"
       y1="-487.73389"
       x1="1101.2336"
       gradientUnits="userSpaceOnUse"
       id="SVGID_52_">
      <stop
         id="stop11728"
         style="stop-color:#676767"
         offset="0" />
      <stop
         id="stop11730"
         style="stop-color:#383838"
         offset="1" />
    </linearGradient>
    <linearGradient
       y2="-254.38921"
       x2="1085.0491"
       y1="-568.30713"
       x1="1085.0491"
       gradientTransform="matrix(0.39763488,0,0,0.39763488,-357.71692,1183.3447)"
       gradientUnits="userSpaceOnUse"
       id="linearGradient14132"
       xlink:href="#SVGID_47_"
       inkscape:collect="always" />
    <linearGradient
       inkscape:collect="always"
       xlink:href="#SVGID_47_"
       id="linearGradient14717"
       gradientUnits="userSpaceOnUse"
       gradientTransform="matrix(0.39763488,0,0,0.39763488,-357.71692,1183.3447)"
       x1="1085.0491"
       y1="-568.30713"
       x2="1085.0491"
       y2="-254.38921" />
    <linearGradient
       inkscape:collect="always"
       xlink:href="#SVGID_48_"
       id="linearGradient14719"
       gradientUnits="userSpaceOnUse"
       gradientTransform="matrix(0.39763488,0,0,0.39763488,-357.71692,1183.3447)"
       x1="1088.7292"
       y1="-643.33148"
       x2="1088.7292"
       y2="-563.71039" />
    <linearGradient
       inkscape:collect="always"
       xlink:href="#SVGID_49_"
       id="linearGradient14721"
       gradientUnits="userSpaceOnUse"
       gradientTransform="matrix(0.39763488,0,0,0.39763488,-357.71692,1183.3447)"
       x1="989.65601"
       y1="-643.33148"
       x2="989.65601"
       y2="-563.71039" />
    <linearGradient
       inkscape:collect="always"
       xlink:href="#SVGID_50_"
       id="linearGradient14723"
       gradientUnits="userSpaceOnUse"
       gradientTransform="matrix(0.39763488,0,0,0.39763488,-357.71692,1183.3447)"
       x1="1039.8909"
       y1="-603.51508"
       x2="1039.8909"
       y2="-289.32571" />
    <linearGradient
       inkscape:collect="always"
       xlink:href="#SVGID_51_"
       id="linearGradient14725"
       gradientUnits="userSpaceOnUse"
       gradientTransform="matrix(0.39763488,0,0,0.39763488,-357.71692,1183.3447)"
       x1="983.13263"
       y1="-487.728"
       x2="983.13263"
       y2="-347.35989" />
    <linearGradient
       inkscape:collect="always"
       xlink:href="#SVGID_52_"
       id="linearGradient14727"
       gradientUnits="userSpaceOnUse"
       gradientTransform="matrix(0.39763488,0,0,0.39763488,-357.71692,1183.3447)"
       x1="1101.2336"
       y1="-487.73389"
       x2="1101.2336"
       y2="-349.67239" />
    <linearGradient
       inkscape:collect="always"
       xlink:href="#SVGID_47_"
       id="linearGradient3036"
       gradientUnits="userSpaceOnUse"
       gradientTransform="matrix(0.30729179,0,0,0.30729179,-262.39917,1126.2933)"
       x1="1085.0491"
       y1="-568.30713"
       x2="1085.0491"
       y2="-254.38921" />
  </defs>
  <sodipodi:namedview
     id="base"
     pagecolor="#ffffff"
     bordercolor="#666666"
     borderopacity="1.0"
     inkscape:pageopacity="0.0"
     inkscape:pageshadow="2"
     inkscape:zoom="1.979899"
     inkscape:cx="-13.006146"
     inkscape:cy="8.65768"
     inkscape:document-units="px"
     inkscape:current-layer="layer1"
     showgrid="false"
     inkscape:window-width="1920"
     inkscape:window-height="1056"
     inkscape:window-x="1920"
     inkscape:window-y="0"
     inkscape:window-maximized="1" />
  <metadata
     id="metadata13950">
    <rdf:RDF>
      <cc:Work
         rdf:about="">
        <dc:format>image/svg+xml</dc:format>
        <dc:type
           rdf:resource="http://purl.org/dc/dcmitype/StillImage" />
        <dc:title></dc:title>
      </cc:Work>
    </rdf:RDF>
  </metadata>
  <g
     inkscape:label="Ebene 1"
     inkscape:groupmode="layer"
     id="layer1"
     transform="translate(0,-924.36218)">
    <path
       inkscape:connector-curvature="0"
       style="fill:url(#linearGradient3036)"
       id="path11697"
       d="m 113.75115,951.65695 c 0.22894,0.80419 0.35401,1.65354 0.35401,2.53117 v 78.02968 c 0,5.114 -4.14814,9.2603 -9.25962,9.2603 H 21.521518 c -0.420068,0 -0.832453,-0.03 -1.237464,-0.084 1.101949,3.883 4.668684,6.7273 8.905009,6.7273 h 83.323707 c 5.10842,0 9.25778,-4.1456 9.25778,-9.2612 v -78.03242 c -3.1e-4,-4.6905 -3.49329,-8.56576 -8.0194,-9.17113 z" />
    <path
       inkscape:connector-curvature="0"
       style="fill:#1a171b;fill-opacity:1"
       id="path11704"
       d="m 71.000106,953.06957 h 2.315752 c 2.556361,0 4.62843,-2.83937 4.62843,-6.34035 v -11.78157 c 0,-3.50528 -2.071762,-6.34496 -4.62843,-6.34496 h -2.315752 c -2.553594,0 -4.628428,2.83968 -4.628428,6.34496 v 11.78157 c 3.07e-4,3.50098 2.075141,6.34035 4.628428,6.34035 z" />
    <path
       inkscape:connector-curvature="0"
       style="fill:#1a171b;fill-opacity:1"
       id="path11711"
       d="m 40.555787,953.06957 h 2.315444 c 2.557589,0 4.628428,-2.83937 4.628428,-6.34035 v -11.78157 c 0,-3.50528 -2.069917,-6.34496 -4.628428,-6.34496 h -2.315444 c -2.55421,0 -4.627814,2.83968 -4.627814,6.34496 v 11.78157 c 0,3.50098 2.074833,6.34035 4.627814,6.34035 z" />
    <path
       inkscape:connector-curvature="0"
       style="fill:#1a171b;fill-opacity:1"
       id="path11718"
       d="m 108.0721,1028.1244 v -78.0288 c 0,-5.11333 -4.14476,-9.25778 -9.256551,-9.25778 H 83.946925 v 8.59403 c 0,5.11518 -4.147824,9.2584 -9.260546,9.2584 h -4.628736 c -5.109955,0 -9.256858,-4.1426 -9.256858,-9.2584 v -8.59403 h -7.295722 v 8.59403 c 0,5.11518 -4.146903,9.2584 -9.263618,9.2584 h -4.62843 c -5.11395,0 -9.256857,-4.1426 -9.256857,-9.2584 v -8.59403 H 15.487844 c -5.111491,0 -9.2583937,4.14445 -9.2583937,9.25778 v 78.0288 c 0,5.1152 4.1469027,9.2615 9.2583937,9.2615 H 98.81493 c 5.10934,0 9.25717,-4.147 9.25717,-9.2615 z m -94.624059,0.5679 V 967.27998 H 100.8535 v 61.41232 H 13.448041 z" />
    <path
       inkscape:connector-curvature="0"
       style="fill:#1a171b;fill-opacity:1"
       id="path11725"
       d="m 52.554302,997.24522 c -0.854886,-0.53223 -2.088048,-0.99591 -3.696106,-1.39413 1.987563,-1.09799 3.477622,-2.3803 4.465872,-3.8412 0.984563,-1.45843 1.481454,-3.09135 1.481454,-4.89143 0,-3.07479 -1.216569,-5.62531 -3.643866,-7.65651 -2.431293,-2.02936 -6.36555,-3.04342 -11.808917,-3.04342 -4.74397,0 -8.405659,0.92833 -10.995515,2.7899 -2.591084,1.85635 -4.340497,4.53348 -5.251616,8.02155 l 10.953723,1.96545 c 0.305448,-2.06777 0.883464,-3.51577 1.735277,-4.34112 0.8555,-0.82601 1.965438,-1.23716 3.329506,-1.23716 1.329344,0 2.371371,0.38042 3.130075,1.13763 0.76024,0.75896 1.138208,1.7755 1.138208,3.04428 0,1.32937 -0.506109,2.4759 -1.520172,3.44197 -1.016829,0.96708 -2.284715,1.45202 -3.799664,1.45202 -0.358302,0 -0.864104,-0.0448 -1.508495,-0.14174 l -0.596453,8.27969 c 1.59423,-0.4579 2.846443,-0.6837 3.75572,-0.6837 1.709157,0 3.059705,0.5313 4.052871,1.5942 0.998392,1.0632 1.496511,2.5594 1.496511,4.496 0,1.8941 -0.519323,3.4134 -1.550901,4.5516 -1.035881,1.1398 -2.332652,1.7061 -3.884168,1.7061 -1.478996,0 -2.69833,-0.4483 -3.655851,-1.3509 -0.960594,-0.9006 -1.665214,-2.517 -2.121235,-4.8512 l -11.578755,1.5371 c 0.757474,2.5988 1.843136,4.7581 3.258215,6.4728 1.413542,1.715 3.213043,3.0204 5.403419,3.9115 2.193449,0.8912 5.184319,1.3383 8.981217,1.3383 3.884476,0 7.024076,-0.602 9.416343,-1.8088 2.389501,-1.2008 4.218809,-2.9192 5.48946,-5.1508 1.272495,-2.2266 1.907668,-4.5525 1.907668,-6.9844 0,-1.9351 -0.384115,-3.6005 -1.15173,-4.991 -0.771609,-1.39607 -1.848053,-2.51918 -3.232095,-3.37258 z" />
    <path
       inkscape:connector-curvature="0"
       style="fill:#1a171b;fill-opacity:1"
       id="path11732"
       d="m 73.239035,983.02069 c -2.181772,1.78138 -5.24332,3.30982 -9.188025,4.57745 v 9.50511 c 2.673131,-0.81337 4.896695,-1.66824 6.673148,-2.56128 1.773381,-0.88988 3.606684,-2.05789 5.504827,-3.49877 v 27.7985 h 11.721953 v -42.42532 h -9.590884 c -1.23347,2.61966 -2.939554,4.81895 -5.121019,6.60431 z" />
  </g>
</svg>
