<?xml version="1.0" encoding="UTF-8" standalone="no"?>
<!-- Created with Inkscape (http://www.inkscape.org/) -->

<svg
   xmlns:dc="http://purl.org/dc/elements/1.1/"
   xmlns:cc="http://creativecommons.org/ns#"
   xmlns:rdf="http://www.w3.org/1999/02/22-rdf-syntax-ns#"
   xmlns:svg="http://www.w3.org/2000/svg"
   xmlns="http://www.w3.org/2000/svg"
   xmlns:xlink="http://www.w3.org/1999/xlink"
   xmlns:sodipodi="http://sodipodi.sourceforge.net/DTD/sodipodi-0.dtd"
   xmlns:inkscape="http://www.inkscape.org/namespaces/inkscape"
   width="128"
   height="128"
   id="svg7664"
   version="1.1"
   inkscape:version="0.48.3.1 r9886"
   sodipodi:docname="icon.svg"
   inkscape:export-filename="/home/martin/Work/openerp-merge/addons-funkring/at_account_followup/static/description/icon.png"
   inkscape:export-xdpi="90"
   inkscape:export-ydpi="90">
  <defs
     id="defs7666">
    <linearGradient
       id="path7406_1_"
       gradientUnits="userSpaceOnUse"
       x1="265.63599"
       y1="451.9296"
       x2="282.71881"
       y2="451.9296"
       gradientTransform="matrix(0,0.9396,0.9396,0,-218.0559,-127.7409)">
      <stop
         offset="0"
         style="stop-color:#ABC837"
         id="stop5758" />
      <stop
         offset="1"
         style="stop-color:#8DAF0A"
         id="stop5760" />
    </linearGradient>
    <linearGradient
       id="path15531_1_"
       gradientUnits="userSpaceOnUse"
       x1="267.86649"
       y1="451.91199"
       x2="296.27271"
       y2="451.91199"
       gradientTransform="matrix(0,0.9396,0.9396,0,-218.0559,-127.7409)">
      <stop
         offset="0"
         style="stop-color:#6F6F6F"
         id="stop5764" />
      <stop
         offset="1"
         style="stop-color:#494949"
         id="stop5766" />
    </linearGradient>
    <linearGradient
       id="path9354_1_"
       gradientUnits="userSpaceOnUse"
       x1="183.4377"
       y1="459.31061"
       x2="220.2249"
       y2="459.31061"
       gradientTransform="matrix(0,0.9396,0.9396,0,-226.6132,-127.191)">
      <stop
         offset="0"
         style="stop-color:#ABC837"
         id="stop5664" />
      <stop
         offset="1"
         style="stop-color:#8DAF0A"
         id="stop5666" />
    </linearGradient>
    <linearGradient
       id="path9356_1_"
       gradientUnits="userSpaceOnUse"
       x1="193.24049"
       y1="463.14069"
       x2="221.7092"
       y2="463.14069"
       gradientTransform="matrix(0,0.9396,0.9396,0,-226.6132,-127.191)">
      <stop
         offset="0"
         style="stop-color:#6F6F6F"
         id="stop5670" />
      <stop
         offset="1"
         style="stop-color:#494949"
         id="stop5672" />
    </linearGradient>
    <linearGradient
       gradientTransform="translate(179.1401,3150.5547)"
       y2="-1094.314"
       x2="3313.8777"
       y1="-1146.2104"
       x1="3313.8777"
       gradientUnits="userSpaceOnUse"
       id="SVGID_143_">
      <stop
         id="stop11069"
         style="stop-color:#676767"
         offset="0" />
      <stop
         id="stop11071"
         style="stop-color:#383838"
         offset="1" />
    </linearGradient>
    <linearGradient
       gradientTransform="translate(179.1401,3150.5547)"
       y2="-1164.6465"
       x2="3313.8777"
       y1="-1216.5293"
       x1="3313.8777"
       gradientUnits="userSpaceOnUse"
       id="SVGID_144_">
      <stop
         id="stop11076"
         style="stop-color:#676767"
         offset="0" />
      <stop
         id="stop11078"
         style="stop-color:#383838"
         offset="1" />
    </linearGradient>
    <linearGradient
       gradientTransform="translate(179.1401,3150.5547)"
       y2="-1235.9834"
       x2="3313.8777"
       y1="-1287.8799"
       x1="3313.8777"
       gradientUnits="userSpaceOnUse"
       id="SVGID_145_">
      <stop
         id="stop11083"
         style="stop-color:#676767"
         offset="0" />
      <stop
         id="stop11085"
         style="stop-color:#383838"
         offset="1" />
    </linearGradient>
    <linearGradient
       gradientTransform="translate(179.1401,3150.5547)"
       y2="-1022.2515"
       x2="3357.1208"
       y1="-1450.3398"
       x1="3357.1208"
       gradientUnits="userSpaceOnUse"
       id="SVGID_146_">
      <stop
         id="stop11090"
         style="stop-color:#676767"
         offset="0" />
      <stop
         id="stop11092"
         style="stop-color:#383838"
         offset="1" />
    </linearGradient>
    <linearGradient
       id="SVGID_150_"
       gradientUnits="userSpaceOnUse"
       x1="3459.4548"
       y1="-1240.5513"
       x2="3459.4548"
       y2="-1088.7412"
       gradientTransform="translate(179.1401,3150.5547)">
      <stop
         offset="0"
         style="stop-color:#A7C92A"
         id="stop11118" />
      <stop
         offset="1"
         style="stop-color:#92B211"
         id="stop11120" />
    </linearGradient>
    <linearGradient
       y2="-1088.7412"
       x2="3459.4548"
       y1="-1240.5513"
       x1="3459.4548"
       gradientTransform="translate(179.1401,3150.5547)"
       gradientUnits="userSpaceOnUse"
       id="linearGradient11583"
       xlink:href="#SVGID_150_"
       inkscape:collect="always" />
    <linearGradient
       id="linearGradient11554"
       gradientUnits="userSpaceOnUse"
       x1="3313.8777"
       y1="-1146.2104"
       x2="3313.8777"
       y2="-1094.314"
       gradientTransform="translate(179.1401,3150.5547)">
      <stop
         offset="0"
         style="stop-color:#676767"
         id="stop11556" />
      <stop
         offset="1"
         style="stop-color:#383838"
         id="stop11558" />
    </linearGradient>
    <linearGradient
       id="linearGradient11561"
       gradientUnits="userSpaceOnUse"
       x1="3313.8777"
       y1="-1216.5293"
       x2="3313.8777"
       y2="-1164.6465"
       gradientTransform="translate(179.1401,3150.5547)">
      <stop
         offset="0"
         style="stop-color:#676767"
         id="stop11563" />
      <stop
         offset="1"
         style="stop-color:#383838"
         id="stop11565" />
    </linearGradient>
    <linearGradient
       id="linearGradient11568"
       gradientUnits="userSpaceOnUse"
       x1="3313.8777"
       y1="-1287.8799"
       x2="3313.8777"
       y2="-1235.9834"
       gradientTransform="translate(179.1401,3150.5547)">
      <stop
         offset="0"
         style="stop-color:#676767"
         id="stop11570" />
      <stop
         offset="1"
         style="stop-color:#383838"
         id="stop11572" />
    </linearGradient>
    <linearGradient
       id="linearGradient11575"
       gradientUnits="userSpaceOnUse"
       x1="3357.1208"
       y1="-1450.3398"
       x2="3357.1208"
       y2="-1022.2515"
       gradientTransform="translate(179.1401,3150.5547)">
      <stop
         offset="0"
         style="stop-color:#676767"
         id="stop11577" />
      <stop
         offset="1"
         style="stop-color:#383838"
         id="stop11579" />
    </linearGradient>
    <linearGradient
       id="SVGID_147_"
       gradientUnits="userSpaceOnUse"
       x1="2561.0681"
       y1="-1299.1543"
       x2="2561.0681"
       y2="-1030.728"
       gradientTransform="matrix(0.26014594,0,0,0.26014594,-601.96599,1306.9403)">
      <stop
         offset="0"
         style="stop-color:#676767"
         id="stop1102" />
      <stop
         offset="1"
         style="stop-color:#383838"
         id="stop1104" />
    </linearGradient>
    <linearGradient
       id="SVGID_58_"
       gradientUnits="userSpaceOnUse"
       x1="2561.0662"
       y1="-1341.1504"
       x2="2561.0662"
       y2="-1318.9346"
       gradientTransform="translate(179.1401,3150.5547)">
      <stop
         offset="0"
         style="stop-color:#A7C92A"
         id="stop413" />
      <stop
         offset="1"
         style="stop-color:#92B211"
         id="stop415" />
    </linearGradient>
    <linearGradient
       id="SVGID_59_"
       gradientUnits="userSpaceOnUse"
       x1="2561.0652"
       y1="-1426.1855"
       x2="2561.0652"
       y2="-1358.0557"
       gradientTransform="translate(179.1401,3150.5547)">
      <stop
         offset="0"
         style="stop-color:#676767"
         id="stop420" />
      <stop
         offset="1"
         style="stop-color:#383838"
         id="stop422" />
    </linearGradient>
    <linearGradient
       gradientTransform="translate(179.1401,3150.5547)"
       y2="-1318.9346"
       x2="2561.0662"
       y1="-1341.1504"
       x1="2561.0662"
       gradientUnits="userSpaceOnUse"
       id="linearGradient4612">
      <stop
         id="stop4614"
         style="stop-color:#A7C92A"
         offset="0" />
      <stop
         id="stop4616"
         style="stop-color:#92B211"
         offset="1" />
    </linearGradient>
    <linearGradient
       gradientTransform="translate(179.1401,3150.5547)"
       y2="-1358.0557"
       x2="2561.0652"
       y1="-1426.1855"
       x1="2561.0652"
       gradientUnits="userSpaceOnUse"
       id="linearGradient4619">
      <stop
         id="stop4621"
         style="stop-color:#676767"
         offset="0" />
      <stop
         id="stop4623"
         style="stop-color:#383838"
         offset="1" />
    </linearGradient>
  </defs>
  <sodipodi:namedview
     id="base"
     pagecolor="#ffffff"
     bordercolor="#666666"
     borderopacity="1.0"
     inkscape:pageopacity="0.0"
     inkscape:pageshadow="2"
     inkscape:zoom="1.4"
     inkscape:cx="-275.61276"
     inkscape:cy="163.56061"
     inkscape:document-units="px"
     inkscape:current-layer="layer1"
     showgrid="false"
     inkscape:window-width="1920"
     inkscape:window-height="1147"
     inkscape:window-x="1920"
     inkscape:window-y="25"
     inkscape:window-maximized="1" />
  <metadata
     id="metadata7669">
    <rdf:RDF>
      <cc:Work
         rdf:about="">
        <dc:format>image/svg+xml</dc:format>
        <dc:type
           rdf:resource="http://purl.org/dc/dcmitype/StillImage" />
        <dc:title></dc:title>
      </cc:Work>
    </rdf:RDF>
  </metadata>
  <g
     inkscape:label="Ebene 1"
     inkscape:groupmode="layer"
     id="layer1"
     transform="translate(0,-924.36218)">
    <g
       id="g3851">
      <rect
         style="fill:#80b71b;fill-opacity:1"
         x="45.297634"
         y="958.04541"
         width="37.974545"
         height="5.7794023"
         id="rect417" />
      <path
         style="fill:#000000"
         inkscape:connector-curvature="0"
         d="m 49.045036,953.64766 c 2.439909,0 15.23987,0 15.23987,0 0,0 12.79996,0 15.239869,0 2.440689,0 8.991164,-2.43965 8.991164,-8.47608 0,-6.03538 -2.236995,-9.05516 -5.519516,-9.05516 -4.24194,0 -4.818163,3.46827 -8.60849,3.46827 -3.788505,0 -5.307757,-3.66078 -10.103287,-3.66078 -4.79501,0 -6.314523,3.66078 -10.102508,3.66078 -3.788245,0 -4.36733,-3.46827 -8.607709,-3.46827 -3.282521,0 -5.520557,3.01874 -5.520557,9.05516 0,6.03643 6.552036,8.47608 8.991164,8.47608 z"
         id="path424" />
      <path
         id="path1106"
         d="m 99.201173,1001.6089 c 0,-9.64774 -2.27758,-18.50155 -9.109793,-24.28823 -4.841056,-4.10328 -6.829612,-8.35017 -6.829612,-8.35017 H 64.284901 45.309857 c 0,0 -0.664412,3.13138 -6.830912,8.35017 -6.16832,5.21696 -9.108748,15.74923 -9.108748,24.28823 0,8.5383 4.407651,12.9033 -0.07388,20.4934 -4.480754,7.5923 -2.962542,16.6982 6.146206,16.6982 9.10875,0 28.84238,0 28.84238,0 0,0 19.735192,0 28.843945,0 9.108742,0 10.627742,-9.1067 6.14516,-16.6982 -4.48179,-7.5901 -0.0729,-10.8458 -0.0729,-20.4934 z m -23.939153,19.7977 c -2.553073,2.102 -5.758851,3.1535 -9.615515,3.1535 -4.453438,0 -7.923784,-1.4251 -10.409219,-4.2763 -2.487255,-2.8501 -4.04631,-6.4355 -4.678725,-10.7545 h -3.254165 v -3.5402 h 2.908432 7.11265 9.212807 v 3.5402 h -8.89673 c 0.498439,3.2634 1.578045,5.6421 3.238817,7.1397 1.661292,1.4987 3.431585,2.2475 5.31322,2.2475 1.841313,0 3.450576,-0.7305 4.821545,-2.1889 1.37305,-1.4581 2.164414,-3.3013 2.376172,-5.5281 l 6.59366,0.6909 c -0.595214,4.2417 -2.169618,7.4145 -4.722949,9.5162 z m -1.870711,-25.29533 c -0.920395,-4.99012 -3.523415,-7.48466 -7.803597,-7.48466 -1.803331,0 -3.474508,0.76821 -5.00911,2.30333 -1.535901,1.53591 -2.515091,3.91754 -2.937047,7.13997 h 8.89673 v 3.51299 h -9.212807 -7.11265 -2.909212 v -3.51299 h 3.196933 c 0.690427,-4.8754 2.537203,-8.56895 5.542669,-11.08352 3.003905,-2.51509 6.16676,-3.77264 9.488303,-3.77264 3.895425,0 7.120194,1.05671 9.674306,3.1678 2.552552,2.11187 4.146206,5.11603 4.778622,9.01302 l -6.59314,0.7167 z"
         inkscape:connector-curvature="0"
         style="fill:#000000" />
    </g>
  </g>
</svg>
