<?xml version="1.0" encoding="UTF-8" standalone="no"?>
<!-- Created with Inkscape (http://www.inkscape.org/) -->

<svg
   xmlns:dc="http://purl.org/dc/elements/1.1/"
   xmlns:cc="http://creativecommons.org/ns#"
   xmlns:rdf="http://www.w3.org/1999/02/22-rdf-syntax-ns#"
   xmlns:svg="http://www.w3.org/2000/svg"
   xmlns="http://www.w3.org/2000/svg"
   xmlns:xlink="http://www.w3.org/1999/xlink"
   xmlns:sodipodi="http://sodipodi.sourceforge.net/DTD/sodipodi-0.dtd"
   xmlns:inkscape="http://www.inkscape.org/namespaces/inkscape"
   width="128"
   height="128"
   id="svg7664"
   version="1.1"
   inkscape:version="0.48.3.1 r9886"
   sodipodi:docname="icon.svg"
   inkscape:export-filename="/home/martin/Work/openerp-merge/addons-funkring/at_sale/static/description/icon.png"
   inkscape:export-xdpi="90"
   inkscape:export-ydpi="90">
  <defs
     id="defs7666">
    <linearGradient
       id="path7406_1_"
       gradientUnits="userSpaceOnUse"
       x1="265.63599"
       y1="451.9296"
       x2="282.71881"
       y2="451.9296"
       gradientTransform="matrix(0,0.9396,0.9396,0,-218.0559,-127.7409)">
      <stop
         offset="0"
         style="stop-color:#ABC837"
         id="stop5758" />
      <stop
         offset="1"
         style="stop-color:#8DAF0A"
         id="stop5760" />
    </linearGradient>
    <linearGradient
       id="path15531_1_"
       gradientUnits="userSpaceOnUse"
       x1="267.86649"
       y1="451.91199"
       x2="296.27271"
       y2="451.91199"
       gradientTransform="matrix(0,0.9396,0.9396,0,-218.0559,-127.7409)">
      <stop
         offset="0"
         style="stop-color:#6F6F6F"
         id="stop5764" />
      <stop
         offset="1"
         style="stop-color:#494949"
         id="stop5766" />
    </linearGradient>
    <linearGradient
       id="path9354_1_"
       gradientUnits="userSpaceOnUse"
       x1="183.4377"
       y1="459.31061"
       x2="220.2249"
       y2="459.31061"
       gradientTransform="matrix(0,0.9396,0.9396,0,-226.6132,-127.191)">
      <stop
         offset="0"
         style="stop-color:#ABC837"
         id="stop5664" />
      <stop
         offset="1"
         style="stop-color:#8DAF0A"
         id="stop5666" />
    </linearGradient>
    <linearGradient
       id="path9356_1_"
       gradientUnits="userSpaceOnUse"
       x1="193.24049"
       y1="463.14069"
       x2="221.7092"
       y2="463.14069"
       gradientTransform="matrix(0,0.9396,0.9396,0,-226.6132,-127.191)">
      <stop
         offset="0"
         style="stop-color:#6F6F6F"
         id="stop5670" />
      <stop
         offset="1"
         style="stop-color:#494949"
         id="stop5672" />
    </linearGradient>
    <linearGradient
       gradientTransform="translate(179.1401,3150.5547)"
       y2="-1094.314"
       x2="3313.8777"
       y1="-1146.2104"
       x1="3313.8777"
       gradientUnits="userSpaceOnUse"
       id="SVGID_143_">
      <stop
         id="stop11069"
         style="stop-color:#676767"
         offset="0" />
      <stop
         id="stop11071"
         style="stop-color:#383838"
         offset="1" />
    </linearGradient>
    <linearGradient
       gradientTransform="translate(179.1401,3150.5547)"
       y2="-1164.6465"
       x2="3313.8777"
       y1="-1216.5293"
       x1="3313.8777"
       gradientUnits="userSpaceOnUse"
       id="SVGID_144_">
      <stop
         id="stop11076"
         style="stop-color:#676767"
         offset="0" />
      <stop
         id="stop11078"
         style="stop-color:#383838"
         offset="1" />
    </linearGradient>
    <linearGradient
       gradientTransform="translate(179.1401,3150.5547)"
       y2="-1235.9834"
       x2="3313.8777"
       y1="-1287.8799"
       x1="3313.8777"
       gradientUnits="userSpaceOnUse"
       id="SVGID_145_">
      <stop
         id="stop11083"
         style="stop-color:#676767"
         offset="0" />
      <stop
         id="stop11085"
         style="stop-color:#383838"
         offset="1" />
    </linearGradient>
    <linearGradient
       gradientTransform="translate(179.1401,3150.5547)"
       y2="-1022.2515"
       x2="3357.1208"
       y1="-1450.3398"
       x1="3357.1208"
       gradientUnits="userSpaceOnUse"
       id="SVGID_146_">
      <stop
         id="stop11090"
         style="stop-color:#676767"
         offset="0" />
      <stop
         id="stop11092"
         style="stop-color:#383838"
         offset="1" />
    </linearGradient>
    <linearGradient
       id="SVGID_150_"
       gradientUnits="userSpaceOnUse"
       x1="3459.4548"
       y1="-1240.5513"
       x2="3459.4548"
       y2="-1088.7412"
       gradientTransform="translate(179.1401,3150.5547)">
      <stop
         offset="0"
         style="stop-color:#A7C92A"
         id="stop11118" />
      <stop
         offset="1"
         style="stop-color:#92B211"
         id="stop11120" />
    </linearGradient>
    <linearGradient
       id="SVGID_81_"
       gradientUnits="userSpaceOnUse"
       x1="1700.5735"
       y1="-1222.4326"
       x2="1700.5735"
       y2="-1175.2749"
       gradientTransform="translate(179.1401,3150.5547)">
      <stop
         offset="0"
         style="stop-color:#A7C92A"
         id="stop10587" />
      <stop
         offset="1"
         style="stop-color:#92B211"
         id="stop10589" />
    </linearGradient>
    <linearGradient
       id="SVGID_82_"
       gradientUnits="userSpaceOnUse"
       x1="1700.5735"
       y1="-1281.7832"
       x2="1700.5735"
       y2="-1224.9082"
       gradientTransform="translate(179.1401,3150.5547)">
      <stop
         offset="0"
         style="stop-color:#A7C92A"
         id="stop10594" />
      <stop
         offset="1"
         style="stop-color:#92B211"
         id="stop10596" />
    </linearGradient>
    <linearGradient
       id="SVGID_83_"
       gradientUnits="userSpaceOnUse"
       x1="1944.825"
       y1="-1250.876"
       x2="1944.825"
       y2="-1193.9941"
       gradientTransform="translate(179.1401,3150.5547)">
      <stop
         offset="0"
         style="stop-color:#676767"
         id="stop10601" />
      <stop
         offset="1"
         style="stop-color:#383838"
         id="stop10603" />
    </linearGradient>
    <linearGradient
       id="SVGID_84_"
       gradientUnits="userSpaceOnUse"
       x1="1944.8269"
       y1="-1312.8145"
       x2="1944.8269"
       y2="-1255.9434"
       gradientTransform="translate(179.1401,3150.5547)">
      <stop
         offset="0"
         style="stop-color:#676767"
         id="stop10608" />
      <stop
         offset="1"
         style="stop-color:#383838"
         id="stop10610" />
    </linearGradient>
    <linearGradient
       id="SVGID_85_"
       gradientUnits="userSpaceOnUse"
       x1="1944.825"
       y1="-1130.9536"
       x2="1944.825"
       y2="-1074.0757"
       gradientTransform="translate(179.1401,3150.5547)">
      <stop
         offset="0"
         style="stop-color:#676767"
         id="stop10615" />
      <stop
         offset="1"
         style="stop-color:#383838"
         id="stop10617" />
    </linearGradient>
    <linearGradient
       id="SVGID_86_"
       gradientUnits="userSpaceOnUse"
       x1="1944.8269"
       y1="-1189.4883"
       x2="1944.8269"
       y2="-1132.6167"
       gradientTransform="translate(179.1401,3150.5547)">
      <stop
         offset="0"
         style="stop-color:#676767"
         id="stop10622" />
      <stop
         offset="1"
         style="stop-color:#383838"
         id="stop10624" />
    </linearGradient>
    <linearGradient
       id="SVGID_87_"
       gradientUnits="userSpaceOnUse"
       x1="1727.5076"
       y1="-1081.2417"
       x2="1727.5076"
       y2="-1024.3735"
       gradientTransform="translate(179.1401,3150.5547)">
      <stop
         offset="0"
         style="stop-color:#676767"
         id="stop10629" />
      <stop
         offset="1"
         style="stop-color:#383838"
         id="stop10631" />
    </linearGradient>
    <linearGradient
       id="SVGID_88_"
       gradientUnits="userSpaceOnUse"
       x1="1700.5735"
       y1="-1374.458"
       x2="1700.5735"
       y2="-1286.3691"
       gradientTransform="translate(179.1401,3150.5547)">
      <stop
         offset="0"
         style="stop-color:#A7C92A"
         id="stop10636" />
      <stop
         offset="1"
         style="stop-color:#92B211"
         id="stop10638" />
    </linearGradient>
    <linearGradient
       id="SVGID_89_"
       gradientUnits="userSpaceOnUse"
       x1="1944.824"
       y1="-1409.0371"
       x2="1944.824"
       y2="-1320.9473"
       gradientTransform="translate(179.1401,3150.5547)">
      <stop
         offset="0"
         style="stop-color:#676767"
         id="stop10643" />
      <stop
         offset="1"
         style="stop-color:#383838"
         id="stop10645" />
    </linearGradient>
    <linearGradient
       id="SVGID_90_"
       gradientUnits="userSpaceOnUse"
       x1="1727.5134"
       y1="-1171.4082"
       x2="1727.5134"
       y2="-1083.3257"
       gradientTransform="translate(179.1401,3150.5547)">
      <stop
         offset="0"
         style="stop-color:#676767"
         id="stop10650" />
      <stop
         offset="1"
         style="stop-color:#383838"
         id="stop10652" />
    </linearGradient>
    <linearGradient
       id="SVGID_111_"
       gradientUnits="userSpaceOnUse"
       x1="3431.9363"
       y1="-2942.3271"
       x2="3431.9363"
       y2="-2709.5547"
       gradientTransform="translate(179.1401,3150.5547)">
      <stop
         offset="0"
         style="stop-color:#A7C92A"
         id="stop10819" />
      <stop
         offset="1"
         style="stop-color:#92B211"
         id="stop10821" />
    </linearGradient>
    <linearGradient
       id="SVGID_112_"
       gradientUnits="userSpaceOnUse"
       x1="3254.3884"
       y1="-2935.7256"
       x2="3254.3884"
       y2="-2719.4844"
       gradientTransform="translate(179.1401,3150.5547)">
      <stop
         offset="0"
         style="stop-color:#676767"
         id="stop10826" />
      <stop
         offset="1"
         style="stop-color:#383838"
         id="stop10828" />
    </linearGradient>
    <linearGradient
       id="SVGID_113_"
       gradientUnits="userSpaceOnUse"
       x1="3504.7722"
       y1="-2746.8687"
       x2="3504.7722"
       y2="-2670.0186"
       gradientTransform="translate(179.1401,3150.5547)">
      <stop
         offset="0"
         style="stop-color:#676767"
         id="stop10833" />
      <stop
         offset="1"
         style="stop-color:#383838"
         id="stop10835" />
    </linearGradient>
    <linearGradient
       id="SVGID_114_"
       gradientUnits="userSpaceOnUse"
       x1="3373.3982"
       y1="-2710.6406"
       x2="3373.3982"
       y2="-2571.7827"
       gradientTransform="translate(179.1401,3150.5547)">
      <stop
         offset="0"
         style="stop-color:#676767"
         id="stop10840" />
      <stop
         offset="1"
         style="stop-color:#383838"
         id="stop10842" />
    </linearGradient>
    <linearGradient
       gradientTransform="translate(179.1401,3150.5547)"
       y2="-263.52591"
       x2="196.0007"
       y1="-332.29251"
       x1="196.0007"
       gradientUnits="userSpaceOnUse"
       id="SVGID_95_">
      <stop
         id="stop10689"
         style="stop-color:#676767"
         offset="0" />
      <stop
         id="stop10691"
         style="stop-color:#383838"
         offset="1" />
    </linearGradient>
    <linearGradient
       gradientTransform="translate(179.1401,3150.5547)"
       y2="-263.52591"
       x2="333.53491"
       y1="-332.29251"
       x1="333.53491"
       gradientUnits="userSpaceOnUse"
       id="SVGID_96_">
      <stop
         id="stop10696"
         style="stop-color:#676767"
         offset="0" />
      <stop
         id="stop10698"
         style="stop-color:#383838"
         offset="1" />
    </linearGradient>
    <linearGradient
       gradientTransform="translate(179.1401,3150.5547)"
       y2="-346.42719"
       x2="210.3244"
       y1="-590.54639"
       x1="210.32449"
       gradientUnits="userSpaceOnUse"
       id="SVGID_97_">
      <stop
         id="stop10703"
         style="stop-color:#A7C92A"
         offset="0" />
      <stop
         id="stop10705"
         style="stop-color:#92B211"
         offset="1" />
    </linearGradient>
    <linearGradient
       id="SVGID_98_"
       gradientUnits="userSpaceOnUse"
       x1="314.991"
       y1="-675.54639"
       x2="314.991"
       y2="-518.24371"
       gradientTransform="translate(179.1401,3150.5547)">
      <stop
         offset="0"
         style="stop-color:#A7C92A"
         id="stop10710" />
      <stop
         offset="1"
         style="stop-color:#92B211"
         id="stop10712" />
    </linearGradient>
    <linearGradient
       id="SVGID_149_"
       gradientUnits="userSpaceOnUse"
       x1="316.34351"
       y1="-551.63428"
       x2="316.34351"
       y2="-408.50629"
       gradientTransform="translate(179.1401,3150.5547)">
      <stop
         offset="0"
         style="stop-color:#676767"
         id="stop11111" />
      <stop
         offset="1"
         style="stop-color:#383838"
         id="stop11113" />
    </linearGradient>
    <linearGradient
       gradientTransform="translate(179.1401,3150.5547)"
       y2="-263.52591"
       x2="196.0007"
       y1="-332.29251"
       x1="196.0007"
       gradientUnits="userSpaceOnUse"
       id="linearGradient12368">
      <stop
         id="stop12370"
         style="stop-color:#676767"
         offset="0" />
      <stop
         id="stop12372"
         style="stop-color:#383838"
         offset="1" />
    </linearGradient>
    <linearGradient
       gradientTransform="translate(179.1401,3150.5547)"
       y2="-263.52591"
       x2="333.53491"
       y1="-332.29251"
       x1="333.53491"
       gradientUnits="userSpaceOnUse"
       id="linearGradient12375">
      <stop
         id="stop12377"
         style="stop-color:#676767"
         offset="0" />
      <stop
         id="stop12379"
         style="stop-color:#383838"
         offset="1" />
    </linearGradient>
    <linearGradient
       gradientTransform="translate(179.1401,3150.5547)"
       y2="-346.42719"
       x2="210.3244"
       y1="-590.54639"
       x1="210.32449"
       gradientUnits="userSpaceOnUse"
       id="linearGradient12382">
      <stop
         id="stop12384"
         style="stop-color:#A7C92A"
         offset="0" />
      <stop
         id="stop12386"
         style="stop-color:#92B211"
         offset="1" />
    </linearGradient>
    <linearGradient
       id="path12389_1_"
       gradientUnits="userSpaceOnUse"
       x1="34.810501"
       y1="-129.7838"
       x2="57.4776"
       y2="-129.7838"
       gradientTransform="matrix(0,1,-1,0,216.6688,1.7347)">
      <stop
         offset="0"
         style="stop-color:#6F6F6F"
         id="stop5345" />
      <stop
         offset="1"
         style="stop-color:#494949"
         id="stop5347" />
    </linearGradient>
    <linearGradient
       id="path12387_1_"
       gradientUnits="userSpaceOnUse"
       x1="57.541"
       y1="-128.692"
       x2="65.242104"
       y2="-128.1608"
       gradientTransform="matrix(0,1,-1,0,216.6688,1.7347)">
      <stop
         offset="0"
         style="stop-color:#6F6F6F"
         id="stop5351" />
      <stop
         offset="1"
         style="stop-color:#494949"
         id="stop5353" />
    </linearGradient>
    <linearGradient
       id="path10419-3-5_1_"
       gradientUnits="userSpaceOnUse"
       x1="26.5718"
       y1="-72.515297"
       x2="32.2187"
       y2="-72.515297"
       gradientTransform="matrix(0,1,-1,0,296.6688,1.7367)">
      <stop
         offset="0"
         style="stop-color:#ABC837"
         id="stop5358" />
      <stop
         offset="1"
         style="stop-color:#8DAF0A"
         id="stop5360" />
    </linearGradient>
    <linearGradient
       gradientTransform="matrix(0,1,-1,0,216.6688,1.7347)"
       y2="-129.7838"
       x2="57.4776"
       y1="-129.7838"
       x1="34.810501"
       gradientUnits="userSpaceOnUse"
       id="linearGradient18278">
      <stop
         id="stop18280"
         style="stop-color:#6F6F6F"
         offset="0" />
      <stop
         id="stop18282"
         style="stop-color:#494949"
         offset="1" />
    </linearGradient>
    <linearGradient
       gradientTransform="matrix(0,1,-1,0,216.6688,1.7347)"
       y2="-128.1608"
       x2="65.242104"
       y1="-128.692"
       x1="57.541"
       gradientUnits="userSpaceOnUse"
       id="linearGradient18285">
      <stop
         id="stop18287"
         style="stop-color:#6F6F6F"
         offset="0" />
      <stop
         id="stop18289"
         style="stop-color:#494949"
         offset="1" />
    </linearGradient>
    <linearGradient
       gradientTransform="matrix(0,1,-1,0,296.6688,1.7367)"
       y2="-72.515297"
       x2="32.2187"
       y1="-72.515297"
       x1="26.5718"
       gradientUnits="userSpaceOnUse"
       id="linearGradient18293">
      <stop
         id="stop18295"
         style="stop-color:#ABC837"
         offset="0" />
      <stop
         id="stop18297"
         style="stop-color:#8DAF0A"
         offset="1" />
    </linearGradient>
    <linearGradient
       inkscape:collect="always"
       xlink:href="#path12387_1_"
       id="linearGradient18392"
       gradientUnits="userSpaceOnUse"
       gradientTransform="matrix(0,2.4024462,-2.4024462,0,-255.49988,877.93061)"
       x1="57.541"
       y1="-128.692"
       x2="65.242104"
       y2="-128.1608" />
    <linearGradient
       inkscape:collect="always"
       xlink:href="#path12389_1_"
       id="linearGradient18395"
       gradientUnits="userSpaceOnUse"
       gradientTransform="matrix(0,2.4024462,-2.4024462,0,-255.49988,877.93061)"
       x1="34.810501"
       y1="-129.7838"
       x2="57.4776"
       y2="-129.7838" />
    <linearGradient
       inkscape:collect="always"
       xlink:href="#path12389_1_"
       id="linearGradient18402"
       gradientUnits="userSpaceOnUse"
       gradientTransform="matrix(0,2.4024462,-2.4024462,0,-255.49988,877.93061)"
       x1="34.810501"
       y1="-129.7838"
       x2="57.4776"
       y2="-129.7838" />
    <linearGradient
       inkscape:collect="always"
       xlink:href="#path12387_1_"
       id="linearGradient18404"
       gradientUnits="userSpaceOnUse"
       gradientTransform="matrix(0,2.4024462,-2.4024462,0,-255.49988,877.93061)"
       x1="57.541"
       y1="-128.692"
       x2="65.242104"
       y2="-128.1608" />
    <linearGradient
       id="SVGID_110_"
       gradientUnits="userSpaceOnUse"
       x1="1810.157"
       y1="-2577.0781"
       x2="1810.1569"
       y2="1048.6025"
       gradientTransform="translate(179.1401,3150.5547)">
      <stop
         offset="0"
         style="stop-color:#676767"
         id="stop815" />
      <stop
         offset="1"
         style="stop-color:#383838"
         id="stop817" />
    </linearGradient>
    <linearGradient
       id="SVGID_109_"
       gradientUnits="userSpaceOnUse"
       x1="1905.8665"
       y1="-1940.0381"
       x2="1925.0032"
       y2="-1940.0381"
       gradientTransform="translate(-1728.7287,2970.8601)">
      <stop
         offset="0"
         style="stop-color:#676767"
         id="stop794" />
      <stop
         offset="1"
         style="stop-color:#1A1A1A"
         id="stop796" />
    </linearGradient>
    <linearGradient
       id="SVGID_108_"
       gradientUnits="userSpaceOnUse"
       x1="1811.8313"
       y1="-1953.4912"
       x2="1834.1467"
       y2="-1953.4912"
       gradientTransform="translate(179.1401,3150.5547)">
      <stop
         offset="0"
         style="stop-color:#676767"
         id="stop787" />
      <stop
         offset="1"
         style="stop-color:#1A1A1A"
         id="stop789" />
    </linearGradient>
    <linearGradient
       inkscape:collect="always"
       xlink:href="#SVGID_108_"
       id="linearGradient3203"
       gradientUnits="userSpaceOnUse"
       gradientTransform="translate(-1728.7287,2970.8601)"
       x1="1811.8313"
       y1="-1953.4912"
       x2="1834.1467"
       y2="-1953.4912" />
    <linearGradient
       inkscape:collect="always"
       xlink:href="#SVGID_109_"
       id="linearGradient3205"
       gradientUnits="userSpaceOnUse"
       gradientTransform="translate(-1728.7287,2970.8601)"
       x1="1905.8665"
       y1="-1940.0381"
       x2="1925.0032"
       y2="-1940.0381" />
    <linearGradient
       inkscape:collect="always"
       xlink:href="#SVGID_110_"
       id="linearGradient3207"
       gradientUnits="userSpaceOnUse"
       gradientTransform="translate(179.1401,3150.5547)"
       x1="1810.157"
       y1="-2577.0781"
       x2="1810.1569"
       y2="1048.6025" />
    <linearGradient
       inkscape:collect="always"
       xlink:href="#SVGID_110_"
       id="linearGradient3994"
       gradientUnits="userSpaceOnUse"
       gradientTransform="translate(179.1401,3150.5547)"
       x1="1810.157"
       y1="-2577.0781"
       x2="1810.1569"
       y2="1048.6025" />
    <linearGradient
       gradientTransform="translate(179.1401,3150.5547)"
       y2="1048.6025"
       x2="1810.1569"
       y1="-2577.0781"
       x1="1810.157"
       gradientUnits="userSpaceOnUse"
       id="linearGradient4548">
      <stop
         id="stop4550"
         style="stop-color:#676767"
         offset="0" />
      <stop
         id="stop4552"
         style="stop-color:#383838"
         offset="1" />
    </linearGradient>
    <linearGradient
       inkscape:collect="always"
       xlink:href="#SVGID_110_"
       id="linearGradient4000"
       gradientUnits="userSpaceOnUse"
       gradientTransform="matrix(0.23358967,0,0,0.23358967,-360.69118,1450.8013)"
       x1="1810.157"
       y1="-2577.0781"
       x2="1810.1569"
       y2="1048.6025" />
  </defs>
  <sodipodi:namedview
     id="base"
     pagecolor="#ffffff"
     bordercolor="#666666"
     borderopacity="1.0"
     inkscape:pageopacity="0.0"
     inkscape:pageshadow="2"
     inkscape:zoom="1.979899"
     inkscape:cx="-69.912505"
     inkscape:cy="-34.807284"
     inkscape:document-units="px"
     inkscape:current-layer="layer1"
     showgrid="false"
     inkscape:window-width="1920"
     inkscape:window-height="1147"
     inkscape:window-x="1920"
     inkscape:window-y="25"
     inkscape:window-maximized="1" />
  <metadata
     id="metadata7669">
    <rdf:RDF>
      <cc:Work
         rdf:about="">
        <dc:format>image/svg+xml</dc:format>
        <dc:type
           rdf:resource="http://purl.org/dc/dcmitype/StillImage" />
        <dc:title />
      </cc:Work>
    </rdf:RDF>
  </metadata>
  <g
     inkscape:label="Ebene 1"
     inkscape:groupmode="layer"
     id="layer1"
     transform="translate(0,-924.36218)">
    <g
       id="g3492">
      <path
         style="fill:#80b71b;fill-opacity:1"
         inkscape:connector-curvature="0"
         d="m 112.62522,985.6449 c -5.56807,-2.6567 -64.144642,-30.60727 -64.144642,-30.60727 l -26.70397,9.2413 -12.5601197,-5.94535 c -1.58304,-0.7545 -3.4802496,-0.085 -4.2361496,1.49801 -0.75683,1.5856 -0.085,3.48305 1.49941,4.23874 l 12.4825693,5.9098 9.65519,26.68497 c 0,0 58.57729,27.9495 64.1456,30.6071 5.569006,2.6584 10.573422,2.5255 13.091052,-2.7508 2.51786,-5.2761 6.43446,-13.4856 6.43446,-13.4856 0,0 3.91543,-8.2074 6.4347,-13.4839 2.51669,-5.2771 -0.52768,-9.2497 -6.0981,-11.907 z M 35.131398,974.21813 c -1.3651,2.861 -4.7907,4.07337 -7.6524,2.7097 -2.86007,-1.3661 -4.07287,-4.7919 -2.70871,-7.6529 1.36533,-2.8587 4.79186,-4.0733 7.6531,-2.7085 2.86007,1.3658 4.0724,4.7921 2.70801,7.6517 z m 21.01255,18.76567 c -1.09506,1.0416 -2.23755,1.6823 -3.42792,1.9224 -1.18921,0.2416 -2.44919,0.044 -3.78112,-0.5907 -2.33823,-1.115 -3.58724,-2.6583 -3.75215,-4.6302 -0.16468,-1.9711 0.26045,-4.1736 1.2761,-6.6069 l 4.24736,1.494 c -0.44826,1.1661 -0.67858,2.108 -0.69119,2.8248 -0.0166,1.1622 0.38005,1.9363 1.19364,2.3243 0.60593,0.2896 1.18944,0.2688 1.74982,-0.062 0.55992,-0.3308 0.99322,-0.8174 1.29969,-1.4593 0.29199,-0.6113 0.39477,-1.2312 0.31325,-1.8628 -0.0827,-0.63 -0.59005,-1.432 -1.52324,-2.403 -1.52137,-1.6059 -2.39523,-3.1925 -2.62251,-4.7603 -0.23196,-1.5709 0.0923,-3.27537 0.96963,-5.11697 0.57767,-1.2096 1.32819,-2.2549 2.2497,-3.1362 0.92408,-0.8809 1.9416,-1.4321 3.05886,-1.6566 1.11562,-0.2226 2.38892,0.01 3.81966,0.6888 1.75706,0.8393 2.82853,2.0381 3.21769,3.5964 0.38683,1.559 0.086,3.5991 -0.90282,6.12447 l -4.1941,-1.5083 c 0.3978,-1.11027 0.54333,-1.98827 0.43284,-2.63277 -0.11166,-0.6449 -0.46695,-1.1091 -1.06587,-1.3966 -0.49334,-0.2348 -0.95118,-0.2336 -1.37187,0 -0.4228,0.2403 -0.75473,0.6178 -0.9993,1.1315 -0.17916,0.3747 -0.23756,0.7615 -0.17426,1.1595 0.0533,0.4046 0.3894,0.9208 1.01168,1.54637 1.52908,1.5713 2.52791,2.8986 2.99672,3.9839 0.46905,1.084 0.6377,2.2335 0.50783,3.4463 -0.12941,1.2131 -0.50129,2.4616 -1.11399,3.7459 -0.72109,1.512 -1.62906,2.7872 -2.72413,3.8287 z m 12.3931,8.052 c -0.15814,0.4826 -0.306,1.1245 -0.44288,1.9276 l -3.5814,-1.7087 c 0.0645,-0.5071 0.13128,-0.8855 0.19809,-1.1376 0.0666,-0.2515 0.19481,-0.6342 0.38542,-1.1457 -0.89348,0.5858 -1.67134,0.9371 -2.33333,1.0549 -0.90025,0.149 -1.797,0.011 -2.69095,-0.4165 -1.18757,-0.5665 -1.86405,-1.4667 -2.03036,-2.7022 -0.16585,-1.2364 0.0806,-2.5452 0.73931,-3.9269 0.61808,-1.2954 1.34945,-2.2541 2.19084,-2.8785 0.84209,-0.6232 1.95724,-0.8528 3.34523,-0.6907 1.6669,0.1904 2.75916,0.2878 3.27937,0.2936 0.51974,0 1.0932,-0.041 1.72225,-0.1341 0.38239,-0.8035 0.55361,-1.4123 0.51203,-1.8252 -0.0404,-0.4135 -0.3046,-0.7351 -0.7921,-0.969 -0.62532,-0.2976 -1.17519,-0.3499 -1.64984,-0.1565 -0.37258,0.1509 -0.80939,0.5597 -1.31114,1.228 l -3.33356,-2.3992 c 0.65919,-1.0269 1.26769,-1.7912 1.8248,-2.2936 0.55898,-0.5018 1.19178,-0.8676 1.89885,-1.0955 0.50806,-0.1638 1.11282,-0.1916 1.81219,-0.082 0.69914,0.1111 1.40574,0.3352 2.11679,0.6753 1.14412,0.5459 2.01051,1.0946 2.60032,1.6447 0.58888,0.5498 0.94884,1.284 1.07802,2.2011 0.096,0.6374 0.0259,1.4419 -0.2086,2.4137 -0.23335,0.9724 -0.54099,1.8607 -0.92455,2.6645 l -3.59377,7.5321 c -0.38286,0.7991 -0.65429,1.4422 -0.81103,1.9259 z m 1.49801,2.8538 11.2352,-23.5433 3.8248,1.8248 -11.23496,23.5442 -3.82504,-1.8257 z m 15.36857,6.4368 c -1.16725,0.356 -2.51109,0.1717 -4.02942,-0.5522 -1.31978,-0.6293 -2.20462,-1.4441 -2.65662,-2.4399 -0.45293,-0.9976 -0.59822,-2.3083 -0.43307,-3.9327 0.16468,-1.6239 0.69376,-3.373 1.58887,-5.2464 1.2726,-2.6655 2.79958,-4.5849 4.5842,-5.758 1.78276,-1.1728 3.55337,-1.3398 5.30926,-0.5017 1.42607,0.6797 2.37514,1.5863 2.84746,2.7183 0.47185,1.1331 0.58888,2.5031 0.35155,4.1114 -0.23849,1.6099 -0.89301,3.5372 -1.96636,5.786 l -0.35295,0.7381 -7.651,-3.6498 c -0.43097,1.082 -0.6384,1.9416 -0.62018,2.5811 0.0145,0.9157 0.32025,1.5135 0.91451,1.7975 0.37467,0.179 0.80682,0.1883 1.29899,0.029 0.3025,-0.1047 0.6961,-0.3584 1.17893,-0.7592 l 3.47675,2.3882 c -1.39383,1.4371 -2.67367,2.3343 -3.84092,2.6905 z m 19.420632,-5.6496 -3.91029,-1.1161 c 0.16702,-0.5893 0.20206,-1.0656 0.10605,-1.4282 -0.13688,-0.4844 -0.41719,-0.8297 -0.84185,-1.0334 -0.431436,-0.2046 -0.808216,-0.2244 -1.131036,-0.055 -0.32026,0.1684 -0.57207,0.4396 -0.74936,0.8127 -0.19949,0.4174 -0.22565,0.7925 -0.0768,1.1249 0.14763,0.3345 0.59986,0.7856 1.35599,1.3563 1.151126,0.8516 1.931776,1.6447 2.340796,2.3791 0.40948,0.7337 0.58514,1.5846 0.52534,2.5545 -0.0614,0.9692 -0.32212,1.9414 -0.78626,2.9143 -0.46952,0.9843 -1.09998,1.8589 -1.890906,2.6229 -0.7914,0.7655 -1.69165,1.2453 -2.70099,1.4401 -1.008646,0.1932 -2.157906,-0.016 -3.444986,-0.6307 -1.81966,-0.8675 -2.90235,-1.9297 -3.2504,-3.1875 -0.34734,-1.2572 -0.23966,-2.758 0.32166,-4.4999 l 4.08081,1.1971 c -0.21257,0.8456 -0.25788,1.5025 -0.13338,1.9678 0.1217,0.4655 0.41859,0.8122 0.88671,1.035 0.51272,0.2451 0.99906,0.2474 1.459226,0.01 0.35132,-0.1726 0.62625,-0.4683 0.82504,-0.8855 0.22448,-0.4714 0.25414,-0.9021 0.0895,-1.2964 -0.11913,-0.2799 -0.55968,-0.7653 -1.319316,-1.4562 -1.13688,-1.0278 -1.88203,-1.8342 -2.23685,-2.4165 -0.35436,-0.5826 -0.51834,-1.3595 -0.48867,-2.331 0.0299,-0.9699 0.28988,-1.9697 0.78066,-2.9963 0.53562,-1.1238 1.18803,-2 1.95818,-2.6311 0.768736,-0.6305 1.583036,-0.9879 2.443346,-1.0687 0.85961,-0.082 1.852826,0.1451 2.978026,0.6821 1.18827,0.5667 1.99042,1.1397 2.40715,1.7201 0.41765,0.5812 0.65895,1.2873 0.72646,2.1206 0.064,0.8334 -0.0423,1.867 -0.32376,3.0983 z"
         id="path819" />
      <path
         id="path791"
         d="m 65.699413,992.57247 c -0.943001,-0.0173 -1.600323,0.0974 -1.970095,0.34104 -0.381218,0.25181 -0.678578,0.60336 -0.894181,1.05279 -0.244802,0.51389 -0.340808,0.98341 -0.286848,1.41018 0.05326,0.427 0.283344,0.73697 0.689323,0.93038 0.424432,0.20206 0.903992,0.21514 1.438679,0.036 0.533752,-0.17987 0.998595,-0.48634 1.395464,-0.92198 0.395701,-0.43448 0.78743,-1.05956 1.176824,-1.87362 l 0.49778,-1.04392 c -0.677644,0.0715 -1.359725,0.0941 -2.046946,0.0691 z"
         inkscape:connector-curvature="0"
         style="fill:#80b71b;fill-opacity:1" />
      <path
         id="path798"
         d="m 88.960272,996.90929 c -0.06237,-0.7003 -0.355057,-1.17472 -0.880867,-1.42583 -0.606399,-0.28965 -1.286612,-0.10909 -2.042742,0.54333 -0.477457,0.40294 -0.988551,1.09904 -1.537253,2.08549 l 3.760093,1.7949 c 0.527445,-1.29969 0.761268,-2.29875 0.700769,-2.99789 z"
         inkscape:connector-curvature="0"
         style="fill:#80b71b;fill-opacity:1" />
      <path
         style="fill:none"
         inkscape:connector-curvature="0"
         d="m 32.42339,966.2093 c -2.86124,-1.36509 -6.287767,-0.15089 -7.653099,2.70848 -1.364163,2.861 -0.151366,6.28683 2.708706,7.65286 2.861707,1.36417 6.2873,0.15137 7.652398,-2.70964 1.364397,-2.8596 0.152067,-6.2859 -2.708005,-7.6517 z"
         id="path802" />
      <path
         style="fill:none"
         inkscape:connector-curvature="0"
         d="m 73.866869,988.55356 c 0.234524,-0.97174 0.304601,-1.77622 0.208595,-2.41368 -0.129642,-0.91708 -0.489603,-1.65055 -1.078483,-2.20112 -0.58888,-0.55057 -1.45503,-1.09881 -2.600087,-1.6447 -0.71128,-0.34011 -1.417188,-0.56412 -2.116789,-0.67508 -0.699601,-0.11095 -1.304131,-0.0827 -1.812422,0.0813 -0.706843,0.22868 -1.339637,0.59379 -1.899085,1.09577 -0.557111,0.50222 -1.164911,1.26722 -1.824802,2.29338 l 3.333558,2.3992 c 0.502218,-0.6676 0.939264,-1.07708 1.311606,-1.22821 0.474654,-0.19318 1.025459,-0.14109 1.64961,0.15674 0.487736,0.23382 0.751926,0.55617 0.792337,0.96893 0.04135,0.41368 -0.130343,1.02172 -0.512496,1.82527 -0.62859,0.093 -1.202053,0.13968 -1.722257,0.13384 -0.520204,-0.005 -1.612002,-0.10231 -3.278664,-0.29362 -1.388224,-0.16188 -2.503614,0.0675 -3.345472,0.69096 -0.841623,0.62415 -1.572759,1.58304 -2.190837,2.87852 -0.658723,1.38169 -0.90516,2.69026 -0.739545,3.92665 0.166549,1.23522 0.842791,2.13641 2.030361,2.7024 0.893481,0.427 1.790699,0.56552 2.691187,0.41649 0.661993,-0.11773 1.439847,-0.46905 2.333094,-1.05513 -0.190376,0.5118 -0.318617,0.89442 -0.38519,1.14599 -0.06657,0.25205 -0.132912,0.63045 -0.198317,1.13755 l 3.581396,1.7087 c 0.136884,-0.803 0.28498,-1.4449 0.442886,-1.9275 0.156739,-0.4838 0.42817,-1.12688 0.811724,-1.92856 l 3.594011,-7.53209 c 0.383087,-0.80122 0.690725,-1.68956 0.924081,-2.66199 z"
         id="path804" />
      <path
         style="fill:none"
         inkscape:connector-curvature="0"
         d="m 59.981598,985.05275 c 0.130577,-1.21233 -0.03878,-2.36183 -0.507824,-3.44638 -0.468581,-1.08503 -1.467644,-2.41252 -2.996722,-3.98387 -0.622283,-0.62509 -0.958652,-1.14132 -1.011677,-1.54637 -0.06307,-0.39803 -0.0047,-0.78486 0.174258,-1.15954 0.244569,-0.51366 0.5772,-0.89044 0.999531,-1.13104 0.420461,-0.23873 0.878297,-0.23989 1.371872,-0.005 0.59869,0.28732 0.954914,0.75169 1.065636,1.39664 0.111422,0.64424 -0.0341,1.5223 -0.432608,2.63255 l 4.193869,1.50829 c 0.988785,-2.52487 1.289648,-4.56551 0.903057,-6.12449 -0.38916,-1.55874 -1.46087,-2.75706 -3.217697,-3.59634 -1.430737,-0.68232 -2.703567,-0.91124 -3.819659,-0.68839 -1.116558,0.22448 -2.135009,0.77528 -3.05909,1.65638 -0.921511,0.88087 -1.672035,1.92641 -2.249702,3.13594 -0.87783,1.84162 -1.201819,3.54683 -0.969397,5.11725 0.227282,1.56762 1.100908,3.15416 2.622511,4.76009 0.932724,0.9715 1.440781,1.77295 1.523238,2.40317 0.08269,0.63116 -0.02126,1.25064 -0.313244,1.86265 -0.306469,0.6419 -0.739778,1.12847 -1.299692,1.45923 -0.560382,0.33053 -1.143889,0.35132 -1.749587,0.0617 -0.813827,-0.38753 -1.210929,-1.16281 -1.193877,-2.32375 0.01308,-0.71665 0.242933,-1.65919 0.691192,-2.82527 l -4.247361,-1.49404 c -1.015414,2.43331 -1.440781,4.63629 -1.2761,6.60732 0.165147,1.9715 1.414619,3.51482 3.75215,4.63021 1.331228,0.63513 2.591911,0.83205 3.781116,0.59028 1.190373,-0.23989 2.33216,-0.88086 3.427929,-1.9222 1.095769,-1.04135 2.003031,-2.31675 2.723889,-3.82854 0.612472,-1.28474 0.98458,-2.53328 1.113989,-3.74631 z"
         id="path806" />
      <path
         style="fill:none"
         inkscape:connector-curvature="0"
         d="m 104.4197,999.0999 c -0.41673,-0.58047 -1.21911,-1.1537 -2.40714,-1.72016 -1.12521,-0.53702 -2.118429,-0.7643 -2.978273,-0.68208 -0.860077,0.0808 -1.674371,0.43822 -2.443114,1.06867 -0.769678,0.63023 -1.422094,1.50689 -1.958182,2.63117 -0.490772,1.0268 -0.750758,2.0261 -0.780657,2.9962 -0.02967,0.9711 0.134314,1.7475 0.488669,2.3308 0.35529,0.5826 1.099974,1.3885 2.236855,2.4167 0.759634,0.6907 1.200417,1.1761 1.318847,1.4562 0.164681,0.3943 0.135015,0.8253 -0.08946,1.2962 -0.199019,0.4174 -0.473487,0.7132 -0.824806,0.8855 -0.460405,0.2404 -0.946738,0.2385 -1.459468,-0.01 -0.468114,-0.2224 -0.764305,-0.5691 -0.886473,-1.0348 -0.123569,-0.4656 -0.07942,-1.122 0.133147,-1.9676 l -4.080345,-1.1971 c -0.561783,1.7419 -0.669468,3.2422 -0.321653,4.4994 0.348049,1.2581 1.430737,2.3205 3.2504,3.1876 1.286612,0.6148 2.435874,0.8234 3.444981,0.6307 1.009341,-0.1949 1.910296,-0.6751 2.700764,-1.4404 0.791172,-0.764 1.421622,-1.6391 1.891142,-2.6229 0.46391,-0.9729 0.72506,-1.9449 0.78603,-2.9143 0.06,-0.9692 -0.11586,-1.8213 -0.52511,-2.555 -0.40972,-0.7339 -1.19084,-1.5267 -2.340803,-2.3786 -0.755896,-0.57 -1.208359,-1.0218 -1.355988,-1.3567 -0.148796,-0.3331 -0.122167,-0.7071 0.07685,-1.1245 0.177295,-0.3733 0.429104,-0.6443 0.749356,-0.8127 0.322821,-0.1689 0.699601,-0.149 1.131044,0.056 0.42466,0.2037 0.70544,0.5487 0.84185,1.0334 0.0967,0.3621 0.0614,0.8384 -0.10558,1.4282 l 3.91053,1.1158 c 0.28147,-1.2312 0.38752,-2.2646 0.32165,-3.0995 -0.0663,-0.8318 -0.3074,-1.5377 -0.72506,-2.1191 z"
         id="path808" />
      <rect
         style="fill:none"
         x="-875.5235"
         y="495.43594"
         transform="matrix(0.43069811,-0.90249606,0.90249606,0.43069811,0,0)"
         width="26.087175"
         height="4.2382693"
         id="rect810" />
      <path
         style="fill:none"
         inkscape:connector-curvature="0"
         d="m 84.588635,1005.6481 c -0.491473,0.1598 -0.924315,0.1504 -1.298992,-0.029 -0.594253,-0.2841 -0.900255,-0.8816 -0.914504,-1.7973 -0.01822,-0.6388 0.189675,-1.4991 0.620181,-2.5814 l 7.650996,3.6499 0.352954,-0.7379 c 1.073344,-2.2488 1.727629,-4.17661 1.966357,-5.78604 0.237795,-1.60826 0.120299,-2.97827 -0.351552,-4.11141 -0.472318,-1.13198 -1.421393,-2.03901 -2.847458,-2.71828 -1.755894,-0.83836 -3.526503,-0.67064 -5.30926,0.50175 -1.784625,1.17308 -3.3116,3.09249 -4.584197,5.75798 -0.895116,1.87339 -1.424196,3.6225 -1.588877,5.2464 -0.165148,1.6244 -0.02009,2.9344 0.433075,3.9327 0.45223,0.9965 1.336834,1.8106 2.656616,2.4397 1.518333,0.7248 2.862174,0.9091 4.029422,0.5524 1.167247,-0.3558 2.447318,-1.2528 3.83998,-2.6919 l -3.476515,-2.3885 c -0.481895,0.4021 -0.875728,0.6555 -1.178226,0.7606 z"
         id="path812" />
    </g>
  </g>
</svg>
