<?xml version="1.0" encoding="UTF-8" standalone="no"?>
<!-- Created with Inkscape (http://www.inkscape.org/) -->

<svg
   xmlns:dc="http://purl.org/dc/elements/1.1/"
   xmlns:cc="http://creativecommons.org/ns#"
   xmlns:rdf="http://www.w3.org/1999/02/22-rdf-syntax-ns#"
   xmlns:svg="http://www.w3.org/2000/svg"
   xmlns="http://www.w3.org/2000/svg"
   xmlns:sodipodi="http://sodipodi.sourceforge.net/DTD/sodipodi-0.dtd"
   xmlns:inkscape="http://www.inkscape.org/namespaces/inkscape"
   width="128"
   height="128"
   id="svg2619"
   sodipodi:version="0.32"
   inkscape:version="0.48.4 r9939"
   version="1.0"
   sodipodi:docname="icon.svg"
   inkscape:output_extension="org.inkscape.output.svg.inkscape"
   inkscape:export-filename="/home/martin/Work/odoo/odoo/addons-funkring/at_crm/static/description/icon.png"
   inkscape:export-xdpi="90"
   inkscape:export-ydpi="90">
  <defs
     id="defs2621">
    <inkscape:perspective
       sodipodi:type="inkscape:persp3d"
       inkscape:vp_x="0 : 526.18109 : 1"
       inkscape:vp_y="0 : 1000 : 0"
       inkscape:vp_z="744.09448 : 526.18109 : 1"
       inkscape:persp3d-origin="372.04724 : 350.78739 : 1"
       id="perspective2627" />
    <inkscape:perspective
       id="perspective88"
       inkscape:persp3d-origin="491.728 : 191.651 : 1"
       inkscape:vp_z="983.45599 : 287.4765 : 1"
       inkscape:vp_y="0 : 1000 : 0"
       inkscape:vp_x="0 : 287.4765 : 1"
       sodipodi:type="inkscape:persp3d" />
  </defs>
  <sodipodi:namedview
     id="base"
     pagecolor="#ffffff"
     bordercolor="#666666"
     borderopacity="1.0"
     inkscape:pageopacity="0.0"
     inkscape:pageshadow="2"
     inkscape:zoom="2.8284271"
     inkscape:cx="64.969527"
     inkscape:cy="1.5873821"
     inkscape:document-units="px"
     inkscape:current-layer="g2857"
     showgrid="false"
     inkscape:window-width="1920"
     inkscape:window-height="1148"
     inkscape:window-x="0"
     inkscape:window-y="1080"
     inkscape:window-maximized="1"
     showguides="true"
     inkscape:guide-bbox="true" />
  <metadata
     id="metadata2624">
    <rdf:RDF>
      <cc:Work
         rdf:about="">
        <dc:format>image/svg+xml</dc:format>
        <dc:type
           rdf:resource="http://purl.org/dc/dcmitype/StillImage" />
        <dc:title></dc:title>
      </cc:Work>
    </rdf:RDF>
  </metadata>
  <g
     inkscape:label="Ebene 1"
     inkscape:groupmode="layer"
     id="layer1"
     transform="translate(178.21353,-540.86827)">
    <path
       d=""
       id="path33"
       style="fill:none;stroke:#000000;stroke-width:1.65041435"
       inkscape:connector-curvature="0" />
    <path
       d=""
       id="path35"
       style="fill:none;stroke:#000000;stroke-width:1.65041435"
       inkscape:connector-curvature="0" />
    <path
       d=""
       id="path37"
       style="fill:none;stroke:#000000;stroke-width:1.65041435"
       inkscape:connector-curvature="0" />
    <path
       d=""
       id="path41"
       style="fill:none;stroke:#000000;stroke-width:1.65041435"
       inkscape:connector-curvature="0" />
    <path
       d=""
       id="path43"
       style="fill:none;stroke:#000000;stroke-width:1.65041435"
       inkscape:connector-curvature="0" />
    <path
       d=""
       id="path45"
       style="fill:none;stroke:#000000;stroke-width:1.65041435"
       inkscape:connector-curvature="0" />
    <path
       d=""
       id="path47"
       style="fill:none;stroke:#000000;stroke-width:1.65041435"
       inkscape:connector-curvature="0" />
    <path
       d=""
       id="path49"
       style="fill:none;stroke:#000000;stroke-width:1.65041435"
       inkscape:connector-curvature="0" />
    <path
       d=""
       id="path51"
       style="fill:none;stroke:#000000;stroke-width:1.65041435"
       inkscape:connector-curvature="0" />
    <path
       d=""
       id="path53"
       style="fill:none;stroke:#000000;stroke-width:1.65041435"
       inkscape:connector-curvature="0" />
    <path
       d=""
       id="path55"
       style="fill:none;stroke:#000000;stroke-width:1.65041435"
       inkscape:connector-curvature="0" />
    <path
       d=""
       id="path57"
       style="fill:none;stroke:#000000;stroke-width:1.65041435"
       inkscape:connector-curvature="0" />
    <path
       d=""
       id="path61"
       inkscape:connector-curvature="0" />
    <path
       d=""
       id="path73"
       style="fill:none;stroke:#abc716;stroke-width:1.65041435"
       inkscape:connector-curvature="0" />
    <path
       d=""
       id="path75"
       style="fill:none;stroke:#abc716;stroke-width:1.10027623"
       inkscape:connector-curvature="0" />
    <path
       d=""
       id="path79"
       style="fill:none;stroke:#abc716;stroke-width:1.10027623"
       inkscape:connector-curvature="0" />
    <g
       id="g2857"
       transform="matrix(0.38887554,0,0,0.38887554,-97.376434,403.50972)">
      <g
         transform="matrix(3.3110595,0,0,3.3110595,179.99435,150.1948)"
         id="g3588">
        <path
           style="fill:#1a171b"
           inkscape:connector-curvature="0"
           d="m -62.894,95.8 c -0.997,1.489 -3.998,5.942 -4.68,5.942 -0.683,0 -3.625,-4.424 -4.629,-5.875 -5.362,1.385 -10.687,1.51 -10.687,8.526 v 9.864 c 0.41,2.192 2.369,3.521 4.541,3.776 6.172,0 16.901,0 22.365,0 2.081,0 3.665,-1.973 3.665,-3.776 v -9.845 c 0.001,-7.185 -5.782,-7.34 -10.575,-8.612 l 0,0 z"
           sodipodi:nodetypes="cscsccsssc"
           id="path3836_1_" />
        <path
           style="fill:#80b71b"
           inkscape:connector-curvature="0"
           d="m -60.268,89.239 c 0,4.336 -3.312,7.851 -7.396,7.851 -4.084,0 -7.396,-3.515 -7.396,-7.851 0,-4.335 3.312,-7.85 7.396,-7.85 4.084,0 7.396,3.515 7.396,7.85 z"
           id="path10437_1_" />
        <path
           style="fill:#1a171b"
           inkscape:connector-curvature="0"
           d="m -87.894,118.423 c -0.997,1.489 -3.998,5.942 -4.68,5.942 -0.683,0 -3.625,-4.424 -4.629,-5.875 -5.362,1.385 -10.687,1.51 -10.687,8.526 v 9.864 c 0.41,2.192 2.369,3.521 4.541,3.776 6.172,0 16.901,0 22.365,0 2.081,0 3.665,-1.973 3.665,-3.776 v -9.845 c 0.001,-7.184 -5.782,-7.339 -10.575,-8.612 l 0,0 z"
           sodipodi:nodetypes="cscsccsssc"
           id="path3836_2_" />
        <path
           style="fill:#80b71b"
           inkscape:connector-curvature="0"
           d="m -85.268,111.863 c 0,4.336 -3.312,7.851 -7.396,7.851 -4.084,0 -7.396,-3.515 -7.396,-7.851 0,-4.335 3.312,-7.85 7.396,-7.85 4.084,0 7.396,3.514 7.396,7.85 z"
           id="path10437_2_" />
        <path
           style="fill:#1a171b"
           inkscape:connector-curvature="0"
           d="m -37.561,118.423 c -0.997,1.489 -3.998,5.942 -4.68,5.942 -0.683,0 -3.625,-4.424 -4.629,-5.875 -5.362,1.385 -10.687,1.51 -10.687,8.526 v 9.864 c 0.41,2.192 2.369,3.521 4.541,3.776 6.172,0 16.901,0 22.365,0 2.081,0 3.665,-1.973 3.665,-3.776 v -9.845 c 0.001,-7.184 -5.781,-7.339 -10.575,-8.612 l 0,0 z"
           sodipodi:nodetypes="cscsccsssc"
           id="path3836_3_" />
        <path
           style="fill:#80b71b"
           inkscape:connector-curvature="0"
           d="m -34.934,111.863 c 0,4.336 -3.312,7.851 -7.396,7.851 -4.084,0 -7.396,-3.515 -7.396,-7.851 0,-4.335 3.312,-7.85 7.396,-7.85 4.084,0 7.396,3.514 7.396,7.85 z"
           id="path10437_3_" />
      </g>
    </g>
  </g>
</svg>
