<?xml version="1.0" encoding="UTF-8" standalone="no"?>
<!-- Created with Inkscape (http://www.inkscape.org/) -->

<svg
   xmlns:dc="http://purl.org/dc/elements/1.1/"
   xmlns:cc="http://creativecommons.org/ns#"
   xmlns:rdf="http://www.w3.org/1999/02/22-rdf-syntax-ns#"
   xmlns:svg="http://www.w3.org/2000/svg"
   xmlns="http://www.w3.org/2000/svg"
   xmlns:sodipodi="http://sodipodi.sourceforge.net/DTD/sodipodi-0.dtd"
   xmlns:inkscape="http://www.inkscape.org/namespaces/inkscape"
   width="128"
   height="128"
   id="svg4485"
   version="1.1"
   inkscape:version="0.48.3.1 r9886"
   sodipodi:docname="Neues Dokument 1">
  <defs
     id="defs4487">
    <linearGradient
       id="SVGID_150_"
       gradientUnits="userSpaceOnUse"
       x1="3459.4548"
       y1="-1240.5513"
       x2="3459.4548"
       y2="-1088.7412"
       gradientTransform="translate(-3279.4364,2261.8894)">
      <stop
         offset="0"
         style="stop-color:#A7C92A"
         id="stop1123" />
      <stop
         offset="1"
         style="stop-color:#92B211"
         id="stop1125" />
    </linearGradient>
    <linearGradient
       id="SVGID_143_"
       gradientUnits="userSpaceOnUse"
       x1="3313.8777"
       y1="-1146.2104"
       x2="3313.8777"
       y2="-1094.314"
       gradientTransform="translate(179.1401,3150.5547)">
      <stop
         offset="0"
         style="stop-color:#676767"
         id="stop1074" />
      <stop
         offset="1"
         style="stop-color:#383838"
         id="stop1076" />
    </linearGradient>
    <linearGradient
       id="SVGID_144_"
       gradientUnits="userSpaceOnUse"
       x1="3313.8777"
       y1="-1216.5293"
       x2="3313.8777"
       y2="-1164.6465"
       gradientTransform="translate(179.1401,3150.5547)">
      <stop
         offset="0"
         style="stop-color:#676767"
         id="stop1081" />
      <stop
         offset="1"
         style="stop-color:#383838"
         id="stop1083" />
    </linearGradient>
    <linearGradient
       id="SVGID_145_"
       gradientUnits="userSpaceOnUse"
       x1="3313.8777"
       y1="-1287.8799"
       x2="3313.8777"
       y2="-1235.9834"
       gradientTransform="translate(179.1401,3150.5547)">
      <stop
         offset="0"
         style="stop-color:#676767"
         id="stop1088" />
      <stop
         offset="1"
         style="stop-color:#383838"
         id="stop1090" />
    </linearGradient>
    <linearGradient
       id="SVGID_146_"
       gradientUnits="userSpaceOnUse"
       x1="3357.1208"
       y1="-1450.3398"
       x2="3357.1208"
       y2="-1022.2515"
       gradientTransform="translate(179.1401,3150.5547)">
      <stop
         offset="0"
         style="stop-color:#676767"
         id="stop1095" />
      <stop
         offset="1"
         style="stop-color:#383838"
         id="stop1097" />
    </linearGradient>
  </defs>
  <sodipodi:namedview
     id="base"
     pagecolor="#ffffff"
     bordercolor="#666666"
     borderopacity="1.0"
     inkscape:pageopacity="0.0"
     inkscape:pageshadow="2"
     inkscape:zoom="1.4"
     inkscape:cx="-194.44724"
     inkscape:cy="-14.844829"
     inkscape:document-units="px"
     inkscape:current-layer="layer1"
     showgrid="false"
     inkscape:window-width="1920"
     inkscape:window-height="1056"
     inkscape:window-x="0"
     inkscape:window-y="1080"
     inkscape:window-maximized="1" />
  <metadata
     id="metadata4490">
    <rdf:RDF>
      <cc:Work
         rdf:about="">
        <dc:format>image/svg+xml</dc:format>
        <dc:type
           rdf:resource="http://purl.org/dc/dcmitype/StillImage" />
        <dc:title></dc:title>
      </cc:Work>
    </rdf:RDF>
  </metadata>
  <g
     inkscape:label="Ebene 1"
     inkscape:groupmode="layer"
     id="layer1"
     transform="translate(0,-924.36218)">
    <g
       id="g6798"
       transform="matrix(1.0512063,0,0,1.0512063,-2.2573999,-50.989213)">
      <g
         transform="translate(70.45814,-10.859139)"
         id="g5801"
         style="fill:#000000;fill-opacity:1">
        <g
           id="g5770"
           style="fill:#000000;fill-opacity:1">
          <g
             id="g5740"
             style="fill:#000000;fill-opacity:1">
            <g
               id="g5711"
               style="fill:#000000;fill-opacity:1">
              <g
                 transform="translate(-69.195449,10.85914)"
                 id="g5683"
                 style="fill:#000000;fill-opacity:1">
                <g
                   id="g5656"
                   style="fill:#000000;fill-opacity:1">
                  <g
                     id="g5630"
                     style="fill:#000000;fill-opacity:1">
                    <g
                       id="g5605"
                       style="fill:#000000;fill-opacity:1">
                      <g
                         id="g5581"
                         style="fill:#000000;fill-opacity:1">
                        <g
                           id="g5558"
                           style="fill:#000000;fill-opacity:1">
                          <g
                             id="g5536"
                             style="fill:#000000;fill-opacity:1">
                            <g
                               id="g5515"
                               style="fill:#000000;fill-opacity:1">
                              <g
                                 id="g5455"
                                 style="fill:#000000;fill-opacity:1">
                                <g
                                   transform="matrix(0.26141708,0,0,0.26141708,-865.96993,488.3027)"
                                   id="g1069"
                                   style="fill:#000000;fill-opacity:1">
                                <g
                                   id="g1071"
                                   style="fill:#000000;fill-opacity:1">
                                <linearGradient
                                   id="linearGradient4520"
                                   gradientUnits="userSpaceOnUse"
                                   x1="3313.8777"
                                   y1="-1146.2104"
                                   x2="3313.8777"
                                   y2="-1094.314"
                                   gradientTransform="translate(179.1401,3150.5547)">
                                <stop
                                   offset="0"
                                   style="stop-color:#676767"
                                   id="stop4522" />
                                <stop
                                   offset="1"
                                   style="stop-color:#383838"
                                   id="stop4524" />
                                </linearGradient>
                                <path
                                   style="fill:#000000;fill-opacity:1"
                                   inkscape:connector-curvature="0"
                                   d="m 3467.072,2056.24 h 51.893 v -51.896 h -51.893 v 51.896 z m 12.254,-39.639 h 27.39 v 27.387 h -27.39 v -27.387 z"
                                   id="path1078" />
                                <linearGradient
                                   id="linearGradient4527"
                                   gradientUnits="userSpaceOnUse"
                                   x1="3313.8777"
                                   y1="-1216.5293"
                                   x2="3313.8777"
                                   y2="-1164.6465"
                                   gradientTransform="translate(179.1401,3150.5547)">
                                <stop
                                   offset="0"
                                   style="stop-color:#676767"
                                   id="stop4529" />
                                <stop
                                   offset="1"
                                   style="stop-color:#383838"
                                   id="stop4531" />
                                </linearGradient>
                                <path
                                   style="fill:#000000;fill-opacity:1"
                                   inkscape:connector-curvature="0"
                                   d="m 3518.965,1934.025 h -51.893 v 51.883 h 51.893 v -51.883 z m -12.249,39.638 h -27.39 v -27.396 h 27.39 v 27.396 z"
                                   id="path1085" />
                                <linearGradient
                                   id="linearGradient4534"
                                   gradientUnits="userSpaceOnUse"
                                   x1="3313.8777"
                                   y1="-1287.8799"
                                   x2="3313.8777"
                                   y2="-1235.9834"
                                   gradientTransform="translate(179.1401,3150.5547)">
                                <stop
                                   offset="0"
                                   style="stop-color:#676767"
                                   id="stop4536" />
                                <stop
                                   offset="1"
                                   style="stop-color:#383838"
                                   id="stop4538" />
                                </linearGradient>
                                <path
                                   style="fill:#000000;fill-opacity:1"
                                   inkscape:connector-curvature="0"
                                   d="m 3518.965,1862.675 h -51.893 v 51.896 h 51.893 v -51.896 z m -12.249,39.639 h -27.39 v -27.388 h 27.39 v 27.388 z"
                                   id="path1092" />
                                <linearGradient
                                   id="linearGradient4541"
                                   gradientUnits="userSpaceOnUse"
                                   x1="3357.1208"
                                   y1="-1450.3398"
                                   x2="3357.1208"
                                   y2="-1022.2515"
                                   gradientTransform="translate(179.1401,3150.5547)">
                                <stop
                                   offset="0"
                                   style="stop-color:#676767"
                                   id="stop4543" />
                                <stop
                                   offset="1"
                                   style="stop-color:#383838"
                                   id="stop4545" />
                                </linearGradient>
                                <path
                                   style="fill:#000000;fill-opacity:1"
                                   inkscape:connector-curvature="0"
                                   d="m 3684.003,1862.675 c 0,-26.241 0,-90.179 0,-90.179 0,-14.439 -11.721,-26.154 -26.156,-26.154 h -81.235 c 0,-25.469 -18.061,-46.127 -40.351,-46.127 -22.289,0 -40.353,20.658 -40.353,46.127 h -81.234 c -14.445,0 -26.154,11.715 -26.154,26.154 v 329.652 c 0,14.445 11.709,26.154 26.154,26.154 h 243.173 c 14.438,0 26.156,-11.709 26.156,-26.154 v -10.567 h -45.405 -209.753 -0.717 v -308.513 h 42.545 c 0,0 1.44,38.224 64.862,38.224 63.419,0 66.299,-38.224 66.299,-38.224 h 42.559 c 0,0 0,54.692 0,79.605 0,24.923 39.61,26.25 39.61,0 z M 3536.26,1724.719 c 10.345,0 18.729,9.684 18.729,21.623 0,11.945 -8.385,21.627 -18.729,21.627 -10.343,0 -18.735,-9.682 -18.735,-21.627 0,-11.943 8.393,-21.623 18.735,-21.623 z"
                                   id="path1099" />
                                </g>
                                </g>
                              </g>
                            </g>
                          </g>
                        </g>
                      </g>
                    </g>
                  </g>
                </g>
              </g>
            </g>
          </g>
        </g>
      </g>
      <g
         transform="matrix(1.1102221,0,0,1.1102221,74.787206,-126.15203)"
         id="g6201">
        <g
           id="g6407">
          <path
             style="fill:#80b71b;fill-opacity:1"
             inkscape:connector-curvature="0"
             id="path4911"
             d="m 4.6728349,1002.4728 c -0.146,0 -0.301,0 -0.445,0.064 l -4.73600027,1.939 c -0.57800003,0.233 -0.86900003,0.885 -0.63700003,1.463 l 1.33600003,3.274 c -1.05,0.785 -1.98200003,1.691 -2.76700003,2.703 l -3.274,-1.367 c -0.573,-0.243 -1.219,0 -1.462,0.572 l -2.003,4.737 c -0.244,0.573 0.03,1.251 0.604,1.495 l 3.243,1.367 c -0.184,1.265 -0.196,2.58 -0.032,3.879 l -3.274,1.303 c -0.577,0.233 -0.869,0.885 -0.636,1.462 l 1.939,4.77 c 0.233,0.577 0.885,0.869 1.462,0.636 l 3.275,-1.335 c 0.783,1.049 1.69,1.982 2.70200003,2.766 l -1.36700003,3.274 c -0.243,0.573 -10e-4,1.219 0.57200003,1.463 l 4.73700027,2.003 c 0.573,0.243 1.251,-0.031 1.494,-0.604 l 1.367,-3.243 c 1.266,0.184 2.579,0.196 3.8790001,0.032 l 1.304,3.275 c 0.232,0.578 0.885,0.869 1.462,0.636 l 4.77,-1.939 c 0.577,-0.233 0.868,-0.885 0.636,-1.462 l -1.336,-3.275 c 1.05,-0.784 1.983,-1.691 2.767,-2.702 l 3.274,1.367 c 0.573,0.244 1.219,0 1.463,-0.572 l 2.003,-4.737 c 0.243,-0.573 -0.031,-1.25 -0.604,-1.494 l -3.243,-1.367 c 0.184,-1.267 0.196,-2.579 0.032,-3.879 l 3.274,-1.335 c 0.577,-0.233 0.869,-0.885 0.636,-1.463 l -1.939,-4.769 c -0.233,-0.578 -0.885,-0.837 -1.462,-0.604 l -3.275,1.335 c -0.784,-1.05 -1.69,-1.982 -2.702,-2.766 l 1.367,-3.275 c 0.243,-0.573 -0.031,-1.219 -0.604,-1.462 l -4.706,-2.003 c -0.573,-0.244 -1.251,0.031 -1.494,0.604 l -1.367,3.243 c -1.2670001,-0.184 -2.5780001,-0.196 -3.8790001,-0.032 l -1.303,-3.275 c -0.177,-0.435 -0.612,-0.696 -1.051,-0.702 l 0,0 z m 4.165,10.238 c 4.4500001,0 8.0440001,3.625 8.0440001,8.076 0,4.451 -3.594,8.044 -8.0440001,8.044 -4.45,0 -8.04399997,-3.593 -8.04399997,-8.044 0,-4.451 3.59399997,-8.076 8.04399997,-8.076 z" />
          <path
             style="fill:#000000;fill-opacity:1;stroke:#ffffff;stroke-width:2"
             inkscape:connector-curvature="0"
             id="path4791"
             d="m 8.9418349,1013.2528 c 4.1020001,0 7.4260001,3.324 7.4260001,7.426 0,4.102 -3.324,7.428 -7.4260001,7.428 -4.102,0 -7.427,-3.327 -7.427,-7.428 0,-4.101 3.325,-7.426 7.427,-7.426 z" />
        </g>
      </g>
    </g>
  </g>
</svg>
