<?xml version="1.0" encoding="UTF-8" standalone="no"?>
<!-- Created with Inkscape (http://www.inkscape.org/) -->

<svg
   xmlns:dc="http://purl.org/dc/elements/1.1/"
   xmlns:cc="http://creativecommons.org/ns#"
   xmlns:rdf="http://www.w3.org/1999/02/22-rdf-syntax-ns#"
   xmlns:svg="http://www.w3.org/2000/svg"
   xmlns="http://www.w3.org/2000/svg"
   xmlns:sodipodi="http://sodipodi.sourceforge.net/DTD/sodipodi-0.dtd"
   xmlns:inkscape="http://www.inkscape.org/namespaces/inkscape"
   width="128"
   height="128"
   id="svg2619"
   sodipodi:version="0.32"
   inkscape:version="0.48.3.1 r9886"
   version="1.0"
   sodipodi:docname="icon.svg"
   inkscape:output_extension="org.inkscape.output.svg.inkscape"
   inkscape:export-filename="/home/martin/Work/openerp-merge/addons-funkring/at_hr/static/description/icon.png"
   inkscape:export-xdpi="90"
   inkscape:export-ydpi="90">
  <defs
     id="defs2621">
    <inkscape:perspective
       sodipodi:type="inkscape:persp3d"
       inkscape:vp_x="0 : 526.18109 : 1"
       inkscape:vp_y="0 : 1000 : 0"
       inkscape:vp_z="744.09448 : 526.18109 : 1"
       inkscape:persp3d-origin="372.04724 : 350.78739 : 1"
       id="perspective2627" />
    <inkscape:perspective
       id="perspective88"
       inkscape:persp3d-origin="491.728 : 191.651 : 1"
       inkscape:vp_z="983.45599 : 287.4765 : 1"
       inkscape:vp_y="0 : 1000 : 0"
       inkscape:vp_x="0 : 287.4765 : 1"
       sodipodi:type="inkscape:persp3d" />
    <linearGradient
       id="SVGID_128_"
       gradientUnits="userSpaceOnUse"
       x1="275.03339"
       y1="-1259.5127"
       x2="275.03339"
       y2="-1032.395"
       gradientTransform="translate(179.1401,3150.5547)">
      <stop
         offset="0"
         style="stop-color:#A7C92A"
         id="stop8695" />
      <stop
         offset="1"
         style="stop-color:#92B211"
         id="stop8697" />
    </linearGradient>
    <linearGradient
       id="SVGID_129_"
       gradientUnits="userSpaceOnUse"
       x1="277.6384"
       y1="-1463.6895"
       x2="277.6384"
       y2="-1239.667"
       gradientTransform="translate(179.1401,3150.5547)">
      <stop
         offset="0"
         style="stop-color:#676767"
         id="stop8702" />
      <stop
         offset="1"
         style="stop-color:#383838"
         id="stop8704" />
    </linearGradient>
    <linearGradient
       gradientTransform="translate(179.1401,3150.5547)"
       y2="-1032.395"
       x2="275.03339"
       y1="-1259.5127"
       x1="275.03339"
       gradientUnits="userSpaceOnUse"
       id="linearGradient9362">
      <stop
         id="stop9364"
         style="stop-color:#A7C92A"
         offset="0" />
      <stop
         id="stop9366"
         style="stop-color:#92B211"
         offset="1" />
    </linearGradient>
    <linearGradient
       gradientTransform="translate(179.1401,3150.5547)"
       y2="-1239.667"
       x2="277.6384"
       y1="-1463.6895"
       x1="277.6384"
       gradientUnits="userSpaceOnUse"
       id="linearGradient9369">
      <stop
         id="stop9371"
         style="stop-color:#676767"
         offset="0" />
      <stop
         id="stop9373"
         style="stop-color:#383838"
         offset="1" />
    </linearGradient>
  </defs>
  <sodipodi:namedview
     id="base"
     pagecolor="#ffffff"
     bordercolor="#666666"
     borderopacity="1.0"
     inkscape:pageopacity="0.0"
     inkscape:pageshadow="2"
     inkscape:zoom="2.8284271"
     inkscape:cx="152.19579"
     inkscape:cy="72.298061"
     inkscape:document-units="px"
     inkscape:current-layer="layer1"
     showgrid="false"
     inkscape:window-width="1920"
     inkscape:window-height="1147"
     inkscape:window-x="1920"
     inkscape:window-y="25"
     inkscape:window-maximized="1"
     showguides="true"
     inkscape:guide-bbox="true" />
  <metadata
     id="metadata2624">
    <rdf:RDF>
      <cc:Work
         rdf:about="">
        <dc:format>image/svg+xml</dc:format>
        <dc:type
           rdf:resource="http://purl.org/dc/dcmitype/StillImage" />
        <dc:title></dc:title>
      </cc:Work>
    </rdf:RDF>
  </metadata>
  <g
     inkscape:label="Ebene 1"
     inkscape:groupmode="layer"
     id="layer1"
     transform="translate(178.21353,-540.86827)">
    <path
       d=""
       id="path33"
       style="fill:none;stroke:#000000;stroke-width:1.65041435"
       inkscape:connector-curvature="0" />
    <path
       d=""
       id="path35"
       style="fill:none;stroke:#000000;stroke-width:1.65041435"
       inkscape:connector-curvature="0" />
    <path
       d=""
       id="path37"
       style="fill:none;stroke:#000000;stroke-width:1.65041435"
       inkscape:connector-curvature="0" />
    <path
       d=""
       id="path41"
       style="fill:none;stroke:#000000;stroke-width:1.65041435"
       inkscape:connector-curvature="0" />
    <path
       d=""
       id="path43"
       style="fill:none;stroke:#000000;stroke-width:1.65041435"
       inkscape:connector-curvature="0" />
    <path
       d=""
       id="path45"
       style="fill:none;stroke:#000000;stroke-width:1.65041435"
       inkscape:connector-curvature="0" />
    <path
       d=""
       id="path47"
       style="fill:none;stroke:#000000;stroke-width:1.65041435"
       inkscape:connector-curvature="0" />
    <path
       d=""
       id="path49"
       style="fill:none;stroke:#000000;stroke-width:1.65041435"
       inkscape:connector-curvature="0" />
    <path
       d=""
       id="path51"
       style="fill:none;stroke:#000000;stroke-width:1.65041435"
       inkscape:connector-curvature="0" />
    <path
       d=""
       id="path53"
       style="fill:none;stroke:#000000;stroke-width:1.65041435"
       inkscape:connector-curvature="0" />
    <path
       d=""
       id="path55"
       style="fill:none;stroke:#000000;stroke-width:1.65041435"
       inkscape:connector-curvature="0" />
    <path
       d=""
       id="path57"
       style="fill:none;stroke:#000000;stroke-width:1.65041435"
       inkscape:connector-curvature="0" />
    <path
       d=""
       id="path61"
       inkscape:connector-curvature="0" />
    <path
       d=""
       id="path73"
       style="fill:none;stroke:#abc716;stroke-width:1.65041435"
       inkscape:connector-curvature="0" />
    <path
       d=""
       id="path75"
       style="fill:none;stroke:#abc716;stroke-width:1.10027623"
       inkscape:connector-curvature="0" />
    <path
       d=""
       id="path79"
       style="fill:none;stroke:#abc716;stroke-width:1.10027623"
       inkscape:connector-curvature="0" />
    <g
       id="g3840"
       transform="matrix(0.92989181,0,0,0.92989181,-134.24725,45.687496)">
      <path
         style="fill:#80b71b;fill-opacity:1"
         inkscape:connector-curvature="0"
         d="m 42.508786,598.14803 0,0 0,0 C 40.68408,600.15943 31.596163,611.3681 22.304851,611.36532 13.19551,611.36226 4.1120446,600.53255 2.3543944,598.3517 l -0.1686143,-0.20312 -0.2359486,0.1547 C -13.008698,608.56343 -22.876526,623.78935 -23.84258,647.53585 v 0.95632 l 0.153033,-0.68475 c 13.9774513,8.85419 30.0673104,13.53421 46.560619,13.53421 15.41429,0 30.591795,-4.10489 43.908145,-11.91207 l 0.151642,-0.0865 V 649.1747 C 66.390236,625.84778 56.893304,609.0971 42.508786,598.14803 z"
         id="path8699" />
      <path
         style="fill:#000000;fill-opacity:1"
         inkscape:connector-curvature="0"
         d="m 2.883331,592.18531 -0.00167,-0.0111 c 0.4156925,0.43183 0.8386192,0.85614 1.2813011,1.25876 4.7988276,4.34307 11.1396679,10.23677 18.1020999,10.23677 6.030045,0 11.610731,-5.23427 16.104884,-8.59737 1.176126,-0.87785 2.273788,-1.85365 3.288255,-2.90763 l -0.0045,0.0206 c 0,0 2.938784,0.50279 9.355028,6.9182 0,0 18.674443,-57.76596 -28.737038,-57.76596 0,0 -0.0058,0 -0.0067,0 -47.411203,0 -28.7370384,57.76596 -28.7370384,57.76596 6.41596586,-6.41541 9.3553068,-6.9182 9.3553068,-6.9182 z m 19.383401,-41.19668 c 0.0011,0 0.0031,0 0.0056,0 0,0.006 5.081243,21.17444 22.478001,23.66637 -0.353645,6.89844 -3.815801,12.9858 -9.021974,16.87867 -3.758205,2.81135 -8.422642,6.79354 -13.46187,6.79354 -5.821642,0 -11.121026,-4.53338 -15.1329872,-8.16554 -2.4270988,-2.21369 -4.3681101,-4.95743 -5.6516371,-8.04146 3.4223678,3.38509 8.4679954,7.06038 14.8672673,8.09237 0.290762,2.30217 2.252085,4.08626 4.632439,4.08626 2.582357,0 4.676123,-2.09321 4.676123,-4.67418 0,-2.58375 -2.092653,-4.67779 -4.676123,-4.67779 -1.828046,0 -3.408456,1.05398 -4.176958,2.58542 C 8.3863873,586.15249 2.3824967,579.44131 -0.07715628,576.18894 -0.13697815,575.68199 -0.18622686,575.17058 -0.2121033,574.655 17.188272,572.16112 22.266732,550.98863 22.266732,550.98863 z"
         id="path8706" />
    </g>
  </g>
</svg>
