<?xml version="1.0" encoding="UTF-8" standalone="no"?>
<!-- Created with Inkscape (http://www.inkscape.org/) -->

<svg
   xmlns:dc="http://purl.org/dc/elements/1.1/"
   xmlns:cc="http://creativecommons.org/ns#"
   xmlns:rdf="http://www.w3.org/1999/02/22-rdf-syntax-ns#"
   xmlns:svg="http://www.w3.org/2000/svg"
   xmlns="http://www.w3.org/2000/svg"
   xmlns:xlink="http://www.w3.org/1999/xlink"
   xmlns:sodipodi="http://sodipodi.sourceforge.net/DTD/sodipodi-0.dtd"
   xmlns:inkscape="http://www.inkscape.org/namespaces/inkscape"
   width="128"
   height="128"
   id="svg14860"
   version="1.1"
   inkscape:version="0.48.3.1 r9886"
   sodipodi:docname="icon.svg"
   inkscape:export-filename="/home/martin/Work/openerp-merge/addons-funkring/password_management/static/description/icon.png"
   inkscape:export-xdpi="90"
   inkscape:export-ydpi="90">
  <defs
     id="defs14862">
    <linearGradient
       id="SVGID_57_"
       gradientUnits="userSpaceOnUse"
       x1="990.13263"
       y1="-2801.0332"
       x2="990.13263"
       y2="-2726.0171"
       gradientTransform="matrix(0.28867276,0,0,0.28867276,-242.29793,1792.4137)">
      <stop
         offset="0"
         style="stop-color:#676767"
         id="stop11765" />
      <stop
         offset="1"
         style="stop-color:#383838"
         id="stop11767" />
    </linearGradient>
    <linearGradient
       id="SVGID_56_"
       gradientUnits="userSpaceOnUse"
       x1="1059.0281"
       y1="-2864.7393"
       x2="1059.0281"
       y2="-2669.6987"
       gradientTransform="matrix(0.28867276,0,0,0.28867276,-242.29793,1792.4137)">
      <stop
         offset="0"
         style="stop-color:#80b71b;stop-opacity:1;"
         id="stop11758" />
      <stop
         offset="1"
         style="stop-color:#92B211"
         id="stop11760" />
    </linearGradient>
    <linearGradient
       id="SVGID_55_"
       gradientUnits="userSpaceOnUse"
       x1="1041.0139"
       y1="-2935.8428"
       x2="1041.0139"
       y2="-2582.3779"
       gradientTransform="translate(179.1401,3150.5547)">
      <stop
         offset="0"
         style="stop-color:#676767"
         id="stop11751" />
      <stop
         offset="1"
         style="stop-color:#383838"
         id="stop11753" />
    </linearGradient>
    <linearGradient
       y2="-2582.3779"
       x2="1041.0139"
       y1="-2935.8428"
       x1="1041.0139"
       gradientTransform="matrix(0.28867276,0,0,0.28867276,-242.29793,1792.4137)"
       gradientUnits="userSpaceOnUse"
       id="linearGradient14890"
       xlink:href="#SVGID_55_"
       inkscape:collect="always" />
    <linearGradient
       inkscape:collect="always"
       xlink:href="#SVGID_55_"
       id="linearGradient15436"
       gradientUnits="userSpaceOnUse"
       gradientTransform="matrix(0.28867276,0,0,0.28867276,-242.29793,1792.4137)"
       x1="1041.0139"
       y1="-2935.8428"
       x2="1041.0139"
       y2="-2582.3779" />
    <linearGradient
       inkscape:collect="always"
       xlink:href="#SVGID_56_"
       id="linearGradient15438"
       gradientUnits="userSpaceOnUse"
       gradientTransform="matrix(0.28867276,0,0,0.28867276,-242.29793,1792.4137)"
       x1="1059.0281"
       y1="-2864.7393"
       x2="1059.0281"
       y2="-2669.6987" />
    <linearGradient
       inkscape:collect="always"
       xlink:href="#SVGID_57_"
       id="linearGradient15440"
       gradientUnits="userSpaceOnUse"
       gradientTransform="matrix(0.28867276,0,0,0.28867276,-242.29793,1792.4137)"
       x1="990.13263"
       y1="-2801.0332"
       x2="990.13263"
       y2="-2726.0171" />
  </defs>
  <sodipodi:namedview
     id="base"
     pagecolor="#ffffff"
     bordercolor="#666666"
     borderopacity="1.0"
     inkscape:pageopacity="0.0"
     inkscape:pageshadow="2"
     inkscape:zoom="2.8"
     inkscape:cx="-87.67949"
     inkscape:cy="68.437963"
     inkscape:document-units="px"
     inkscape:current-layer="layer1"
     showgrid="false"
     inkscape:window-width="1920"
     inkscape:window-height="1147"
     inkscape:window-x="1920"
     inkscape:window-y="25"
     inkscape:window-maximized="1" />
  <metadata
     id="metadata14865">
    <rdf:RDF>
      <cc:Work
         rdf:about="">
        <dc:format>image/svg+xml</dc:format>
        <dc:type
           rdf:resource="http://purl.org/dc/dcmitype/StillImage" />
        <dc:title></dc:title>
      </cc:Work>
    </rdf:RDF>
  </metadata>
  <g
     inkscape:label="Ebene 1"
     inkscape:groupmode="layer"
     id="layer1"
     transform="translate(0,-924.36218)">
    <g
       id="g4646">
      <path
         id="path11755"
         d="M 116.90289,937.34447 H 11.097687 c -3.157503,0 -5.7186077,2.55995 -5.7186077,5.71861 v 86.86192 c 0,3.1581 2.55995,5.7192 5.7186077,5.7192 h 3.467537 c 0,2.0629 1.673436,3.7357 3.736003,3.7357 h 12.76078 c 2.063433,0 3.736869,-1.6731 3.736869,-3.7357 h 58.403983 c 0,2.0629 1.671704,3.7357 3.735714,3.7357 h 12.761067 c 2.06344,0 3.73687,-1.6731 3.73687,-3.7357 h 3.46523 c 3.1601,0 5.71918,-2.5605 5.71918,-5.7192 v -86.86222 c 0.003,-3.15836 -2.55792,-5.71831 -5.71803,-5.71831 z m -7.32362,56.32321 c 3.62197,0 6.56124,4.11761 6.56124,8.13602 0,4.0169 -2.94042,8.1327 -6.56124,8.1327 h -7.9974 v 3.3749 c 0,3.2363 -2.624031,5.8601 -5.861207,5.8601 H 26.855756 c -3.236599,0 -5.861212,-2.6238 -5.861212,-5.8601 v -54.57964 c 0,-3.23631 2.624613,-5.86121 5.861212,-5.86121 h 68.864907 c 3.237176,0 5.861207,2.6249 5.861207,5.86121 v 2.12175 h 7.9974 c 3.62197,0 6.56124,4.11792 6.56124,8.1348 0,4.01804 -2.94042,8.13451 -6.56124,8.13451 h -7.9974 v 16.54527 l 7.9974,0 0,0 z"
         inkscape:connector-curvature="0"
         style="fill:#000000" />
      <path
         id="path11762"
         d="m 106.86055,973.68925 c 2.36942,0 4.29141,-1.9191 4.29141,-4.28968 0,-2.36914 -1.92199,-4.28795 -4.29141,-4.28795 H 95.681115 v -2.26405 c 0,-2.74875 -2.230286,-4.97731 -4.978739,-4.97731 H 32.226224 c -2.749319,0 -4.977585,2.22799 -4.977585,4.97731 v 46.34843 c 0,2.7482 2.228266,4.977 4.977585,4.977 h 58.476152 c 2.748453,0 4.978739,-2.23 4.978739,-4.977 v -3.4849 h 11.179435 c 2.36942,0 4.29141,-1.9196 4.29141,-4.2888 0,-2.37032 -1.92199,-4.28882 -4.29141,-4.28882 H 95.681115 v -23.4428 h 11.179435 v 0 z m -57.549518,29.40735 c -9.061149,0 -16.404118,-7.34502 -16.404118,-16.40323 0,-8.32677 6.206753,-15.20064 14.246578,-16.25834 v -4.86442 c 0,-1.19251 0.967631,-2.15957 2.158984,-2.15957 1.192218,0 2.158406,0.96792 2.158406,2.15957 v 4.86442 c 8.04098,1.0577 14.246289,7.93245 14.246289,16.25834 -0.0029,9.05821 -7.345855,16.40323 -16.406139,16.40323 z"
         inkscape:connector-curvature="0"
         style="fill:#80b71b;fill-opacity:1" />
      <path
         id="path11769"
         d="m 49.311032,976.26045 c -5.982165,0 -10.827826,4.84739 -10.827826,10.82753 0,5.97901 4.845661,10.8275 10.827826,10.8275 5.982166,0 10.829559,-4.84849 10.829559,-10.8275 0,-5.98014 -4.848259,-10.82753 -10.829559,-10.82753 z"
         inkscape:connector-curvature="0"
         style="fill:#000000" />
    </g>
  </g>
</svg>
