<?xml version="1.0" encoding="UTF-8" standalone="no"?>
<!-- Created with Inkscape (http://www.inkscape.org/) -->

<svg
   xmlns:dc="http://purl.org/dc/elements/1.1/"
   xmlns:cc="http://creativecommons.org/ns#"
   xmlns:rdf="http://www.w3.org/1999/02/22-rdf-syntax-ns#"
   xmlns:svg="http://www.w3.org/2000/svg"
   xmlns="http://www.w3.org/2000/svg"
   xmlns:sodipodi="http://sodipodi.sourceforge.net/DTD/sodipodi-0.dtd"
   xmlns:inkscape="http://www.inkscape.org/namespaces/inkscape"
   width="128"
   height="128"
   viewBox="0 0 33.866666 33.866668"
   version="1.1"
   id="svg7223"
   inkscape:version="0.92.3 (unknown)"
   sodipodi:docname="icon.svg">
  <defs
     id="defs7217" />
  <sodipodi:namedview
     id="base"
     pagecolor="#ffffff"
     bordercolor="#666666"
     borderopacity="1.0"
     inkscape:pageopacity="0.0"
     inkscape:pageshadow="2"
     inkscape:zoom="1.979899"
     inkscape:cx="10.68455"
     inkscape:cy="131.87374"
     inkscape:document-units="mm"
     inkscape:current-layer="layer1"
     showgrid="false"
     units="px" />
  <metadata
     id="metadata7220">
    <rdf:RDF>
      <cc:Work
         rdf:about="">
        <dc:format>image/svg+xml</dc:format>
        <dc:type
           rdf:resource="http://purl.org/dc/dcmitype/StillImage" />
        <dc:title></dc:title>
      </cc:Work>
    </rdf:RDF>
  </metadata>
  <g
     inkscape:label="Ebene 1"
     inkscape:groupmode="layer"
     id="layer1"
     transform="translate(0,-263.13332)">
    <path
       id="path4911"
       d="m 14.572944,269.6857 c -0.08271,-10e-4 -0.170543,0.002 -0.252125,0.0364 l -2.683309,1.0986 c -0.32748,0.13209 -0.492355,0.50142 -0.360907,0.8289 l 0.756946,1.85497 c -0.594907,0.44476 -1.122956,0.95809 -1.567718,1.53147 l -1.854972,-0.77452 c -0.3246484,-0.13772 -0.6906561,0 -0.8283349,0.32409 l -1.1348545,2.68387 c -0.1382402,0.32464 0.017064,0.70879 0.3422139,0.84703 l 1.8374071,0.77452 c -0.1042511,0.71671 -0.1110581,1.46176 -0.018069,2.19775 l -1.8549719,0.73824 c -0.3269143,0.13209 -0.4923549,0.50142 -0.3603442,0.82833 l 1.098592,2.70258 c 0.1320169,0.3269 0.5014211,0.49235 0.828336,0.36033 l 1.8555395,-0.75637 c 0.443629,0.59434 0.957512,1.12294 1.530888,1.56714 l -0.77451,1.85498 c -0.137679,0.32464 -5.68e-4,0.69066 0.324083,0.82891 l 2.683873,1.13484 c 0.324647,0.13772 0.708787,-0.0181 0.846465,-0.3422 l 0.774511,-1.83741 c 0.717285,0.10417 1.461201,0.111 2.197751,0.0181 l 0.738814,1.85554 c 0.131455,0.32748 0.501421,0.49236 0.828336,0.36034 l 2.702571,-1.0986 c 0.326916,-0.13209 0.491789,-0.5014 0.360343,-0.82832 l -0.756946,-1.85554 c 0.594905,-0.44419 1.12352,-0.95808 1.567718,-1.5309 l 1.854971,0.77452 c 0.32465,0.13832 0.690657,5.8e-4 0.828902,-0.32408 l 1.134852,-2.68388 c 0.137678,-0.32464 -0.01767,-0.70821 -0.342214,-0.84647 l -1.837405,-0.77449 c 0.104251,-0.71787 0.111058,-1.4612 0.01807,-2.19776 l 1.854971,-0.75638 c 0.326915,-0.1321 0.492355,-0.50143 0.360343,-0.8289 l -1.098592,-2.70205 c -0.132016,-0.32747 -0.501418,-0.47423 -0.828335,-0.34221 l -1.855537,0.75639 c -0.444198,-0.59494 -0.957517,-1.12299 -1.530892,-1.56718 l 0.774509,-1.85554 c 0.137679,-0.32464 -0.01747,-0.69066 -0.342212,-0.82834 l -2.66631,-1.13484 c -0.324647,-0.13833 -0.708787,0.0181 -0.846466,0.34219 l -0.774509,1.83742 c -0.717853,-0.10417 -1.460634,-0.11102 -2.197751,-0.0181 l -0.738249,-1.85554 c -0.10028,-0.24645 -0.346745,-0.39432 -0.595473,-0.39774 z m 2.359792,5.80061 c 2.521266,0 4.557544,2.05384 4.557544,4.57568 0,2.52183 -2.036278,4.55753 -4.557544,4.55753 -2.521266,0 -4.557541,-2.0357 -4.557541,-4.55753 0,-2.52184 2.036275,-4.57568 4.557541,-4.57568 z"
       inkscape:connector-curvature="0"
       style="fill:#1a171b;stroke-width:0.56657666" />
    <path
       id="path4791"
       d="m 16.933616,275.85868 c 2.324099,0 4.207398,1.88329 4.207398,4.2074 0,2.32409 -1.883299,4.20854 -4.207398,4.20854 -2.324096,0 -4.207964,-1.88501 -4.207964,-4.20854 0,-2.32353 1.883868,-4.2074 4.207964,-4.2074 z"
       inkscape:connector-curvature="0"
       style="fill:#80b71b;stroke:#ffffff;stroke-width:1.13315332" />
  </g>
</svg>
