<?xml version="1.0" encoding="UTF-8" standalone="no"?>
<!-- Created with Inkscape (http://www.inkscape.org/) -->

<svg
   xmlns:dc="http://purl.org/dc/elements/1.1/"
   xmlns:cc="http://creativecommons.org/ns#"
   xmlns:rdf="http://www.w3.org/1999/02/22-rdf-syntax-ns#"
   xmlns:svg="http://www.w3.org/2000/svg"
   xmlns="http://www.w3.org/2000/svg"
   xmlns:sodipodi="http://sodipodi.sourceforge.net/DTD/sodipodi-0.dtd"
   xmlns:inkscape="http://www.inkscape.org/namespaces/inkscape"
   width="128"
   height="128"
   id="svg7664"
   version="1.1"
   inkscape:version="0.48.3.1 r9886"
   sodipodi:docname="Neues Dokument 5">
  <defs
     id="defs7666" />
  <sodipodi:namedview
     id="base"
     pagecolor="#ffffff"
     bordercolor="#666666"
     borderopacity="1.0"
     inkscape:pageopacity="0.0"
     inkscape:pageshadow="2"
     inkscape:zoom="1.4"
     inkscape:cx="8.672954"
     inkscape:cy="163.56061"
     inkscape:document-units="px"
     inkscape:current-layer="layer1"
     showgrid="false"
     inkscape:window-width="1920"
     inkscape:window-height="1147"
     inkscape:window-x="1920"
     inkscape:window-y="25"
     inkscape:window-maximized="1" />
  <metadata
     id="metadata7669">
    <rdf:RDF>
      <cc:Work
         rdf:about="">
        <dc:format>image/svg+xml</dc:format>
        <dc:type
           rdf:resource="http://purl.org/dc/dcmitype/StillImage" />
        <dc:title></dc:title>
      </cc:Work>
    </rdf:RDF>
  </metadata>
  <g
     inkscape:label="Ebene 1"
     inkscape:groupmode="layer"
     id="layer1"
     transform="translate(0,-924.36218)">
    <g
       id="g7681"
       transform="translate(1.1428587,0.28536394)">
      <path
         d="m 51.100571,936.3702 c -0.412016,-0.006 -0.849431,0.0141 -1.255803,0.18061 l -13.365127,5.47199 c -1.631132,0.65755 -2.452343,2.49754 -1.797632,4.12869 l 3.77023,9.23946 c -2.96313,2.21532 -5.59326,4.77211 -7.808553,7.62804 l -9.239321,-3.85776 c -1.617023,-0.68576 -3.440053,0 -4.125805,1.61422 l -5.652523,13.36814 c -0.688575,1.61705 0.08466,3.53041 1.704504,4.21899 l 9.151839,3.85777 c -0.519253,3.56992 -0.553118,7.28095 -0.0903,10.94681 l -9.239322,3.67716 c -1.62831,0.65753 -2.452342,2.49756 -1.79481,4.12588 l 5.471913,13.4612 c 0.657534,1.6284 2.497495,2.4524 4.125807,1.7948 l 9.242142,-3.7673 c 2.209649,2.9603 4.769228,5.5933 7.625122,7.8058 l -3.857714,9.2395 c -0.685752,1.617 -0.0028,3.44 1.614201,4.1287 l 13.367949,5.6525 c 1.617022,0.6858 3.530357,-0.088 4.216111,-1.7045 l 3.857712,-9.152 c 3.572688,0.5193 7.278012,0.5532 10.946649,0.091 l 3.679925,9.2423 c 0.654711,1.6312 2.497495,2.4524 4.125805,1.7949 l 13.461076,-5.4721 c 1.628311,-0.6574 2.449521,-2.4975 1.794811,-4.1258 l -3.770231,-9.2423 c 2.96313,-2.2125 5.596083,-4.7721 7.808554,-7.6252 l 9.23932,3.8577 c 1.61702,0.6886 3.44005,0 4.12863,-1.6142 l 5.65252,-13.3682 c 0.68576,-1.617 -0.0875,-3.52754 -1.7045,-4.21612 l -9.15184,-3.85777 c 0.51925,-3.57556 0.55312,-7.27811 0.0903,-10.94681 l 9.23931,-3.76746 c 1.62832,-0.65754 2.45235,-2.49753 1.79481,-4.12869 l -5.47191,-13.45844 c -0.65754,-1.63115 -2.49749,-2.36207 -4.12581,-1.70453 l -9.242138,3.76747 c -2.212471,-2.96318 -4.769228,-5.59334 -7.625122,-7.80585 l 3.857713,-9.24227 c 0.685754,-1.61705 -0.08748,-3.4401 -1.704505,-4.12587 l -13.280466,-5.65261 c -1.617022,-0.68858 -3.530357,0.0875 -4.21611,1.70454 l -3.857714,9.15196 c -3.575509,-0.51925 -7.275189,-0.55312 -10.946648,-0.0903 l -3.677103,-9.24228 c -0.499499,-1.2276 -1.727081,-1.96417 -2.965952,-1.9811 l 0,0 z m 11.753749,28.89234 c 12.558026,0 22.700397,10.23 22.700397,22.79103 0,12.56103 -10.142371,22.70073 -22.700397,22.70073 -12.558027,0 -22.700398,-10.1397 -22.700398,-22.70073 0,-12.56103 10.142371,-22.79103 22.700398,-22.79103 z"
         id="path4911"
         inkscape:connector-curvature="0"
         style="fill:#1a171b" />
      <path
         d="m 63.147812,966.7921 c 11.575961,0 20.956384,9.38056 20.956384,20.95668 0,11.5761 -9.380423,20.96232 -20.956384,20.96232 -11.575962,0 -20.959206,-9.38903 -20.959206,-20.96232 0,-11.5733 9.383244,-20.95668 20.959206,-20.95668 z"
         id="path4791"
         inkscape:connector-curvature="0"
         style="fill:#80b71b;stroke:#ffffff;stroke-width:2" />
    </g>
  </g>
</svg>
