<?xml version="1.0" encoding="UTF-8" standalone="no"?>
<!-- Created with Inkscape (http://www.inkscape.org/) -->

<svg
   xmlns:dc="http://purl.org/dc/elements/1.1/"
   xmlns:cc="http://creativecommons.org/ns#"
   xmlns:rdf="http://www.w3.org/1999/02/22-rdf-syntax-ns#"
   xmlns:svg="http://www.w3.org/2000/svg"
   xmlns="http://www.w3.org/2000/svg"
   xmlns:sodipodi="http://sodipodi.sourceforge.net/DTD/sodipodi-0.dtd"
   xmlns:inkscape="http://www.inkscape.org/namespaces/inkscape"
   width="210mm"
   height="297mm"
   id="svg4088"
   version="1.1"
   inkscape:version="0.48.3.1 r9886"
   sodipodi:docname="Briefpapier3.svg"
   inkscape:export-filename="/media/users/martin/public/Vorlagen/Briefpapier3.png"
   inkscape:export-xdpi="150.00539"
   inkscape:export-ydpi="150.00539">
  <defs
     id="defs4090">
    <inkscape:perspective
       sodipodi:type="inkscape:persp3d"
       inkscape:vp_x="0 : 287.4765 : 1"
       inkscape:vp_y="0 : 1000 : 0"
       inkscape:vp_z="983.45599 : 287.4765 : 1"
       inkscape:persp3d-origin="491.728 : 191.651 : 1"
       id="perspective88" />
    <inkscape:perspective
       id="perspective2627"
       inkscape:persp3d-origin="372.04724 : 350.78739 : 1"
       inkscape:vp_z="744.09448 : 526.18109 : 1"
       inkscape:vp_y="0 : 1000 : 0"
       inkscape:vp_x="0 : 526.18109 : 1"
       sodipodi:type="inkscape:persp3d" />
    <inkscape:perspective
       sodipodi:type="inkscape:persp3d"
       inkscape:vp_x="0 : 287.4765 : 1"
       inkscape:vp_y="0 : 1000 : 0"
       inkscape:vp_z="983.45599 : 287.4765 : 1"
       inkscape:persp3d-origin="491.728 : 191.651 : 1"
       id="perspective88-0" />
    <inkscape:perspective
       id="perspective2627-3"
       inkscape:persp3d-origin="372.04724 : 350.78739 : 1"
       inkscape:vp_z="744.09448 : 526.18109 : 1"
       inkscape:vp_y="0 : 1000 : 0"
       inkscape:vp_x="0 : 526.18109 : 1"
       sodipodi:type="inkscape:persp3d" />
  </defs>
  <sodipodi:namedview
     id="base"
     pagecolor="#ffffff"
     bordercolor="#666666"
     borderopacity="1.0"
     inkscape:pageopacity="0.0"
     inkscape:pageshadow="2"
     inkscape:zoom="0.93"
     inkscape:cx="172.03887"
     inkscape:cy="548.13028"
     inkscape:document-units="px"
     inkscape:current-layer="layer1"
     showgrid="false"
     showguides="true"
     inkscape:guide-bbox="true"
     inkscape:window-width="1920"
     inkscape:window-height="1172"
     inkscape:window-x="0"
     inkscape:window-y="1080"
     inkscape:window-maximized="1">
    <sodipodi:guide
       orientation="1,0"
       position="702.15054,236.55914"
       id="guide5291" />
    <sodipodi:guide
       orientation="0,1"
       position="187.63441,61.290322"
       id="guide3070" />
    <sodipodi:guide
       orientation="1,0"
       position="69.892473,464.51613"
       id="guide3072" />
    <sodipodi:guide
       orientation="0,1"
       position="390.32258,1034.4086"
       id="guide3861" />
  </sodipodi:namedview>
  <metadata
     id="metadata4093">
    <rdf:RDF>
      <cc:Work
         rdf:about="">
        <dc:format>image/svg+xml</dc:format>
        <dc:type
           rdf:resource="http://purl.org/dc/dcmitype/StillImage" />
        <dc:title></dc:title>
      </cc:Work>
    </rdf:RDF>
  </metadata>
  <g
     inkscape:label="Ebene 1"
     inkscape:groupmode="layer"
     id="layer1">
    <g
       transform="matrix(-0.21439883,0.66189679,-0.66189679,-0.21439883,1730.3326,-0.59828072)"
       id="g4125">
      <path
         transform="matrix(0.88562192,0.46440695,-0.46440695,0.88562192,-155.12378,-230.00285)"
         d="m 467.16515,135.13042 c 0,44.16905 -35.8061,79.97514 -79.97515,79.97514 -44.16905,0 -79.97514,-35.80609 -79.97514,-79.97514 0,-44.169055 35.80609,-79.975147 79.97514,-79.975147 44.16905,0 79.97515,35.806092 79.97515,79.975147 z"
         sodipodi:ry="79.975143"
         sodipodi:rx="79.975143"
         sodipodi:cy="135.13042"
         sodipodi:cx="387.19"
         id="path4127"
         style="fill:none;stroke:#80b71b;stroke-width:6;stroke-miterlimit:4;stroke-opacity:1;stroke-dasharray:none"
         sodipodi:type="arc" />
      <path
         sodipodi:type="arc"
         style="opacity:0.4;fill:none;stroke:#80b71b;stroke-width:6;stroke-miterlimit:4;stroke-opacity:1;stroke-dasharray:none"
         id="path4129"
         sodipodi:cx="387.19"
         sodipodi:cy="135.13042"
         sodipodi:rx="79.975143"
         sodipodi:ry="79.975143"
         d="m 467.16515,135.13042 c 0,44.16905 -35.8061,79.97514 -79.97515,79.97514 -44.16905,0 -79.97514,-35.80609 -79.97514,-79.97514 0,-44.169055 35.80609,-79.975147 79.97514,-79.975147 44.16905,0 79.97515,35.806092 79.97515,79.975147 z"
         transform="matrix(0.54418117,0.2853605,-0.2853605,0.54418117,-13.302657,-46.597646)" />
    </g>
    <g
       transform="matrix(0.20936192,0,0,0.20936192,519.44069,-57.111426)"
       id="layer1-4"
       inkscape:label="Ebene 1"
       inkscape:export-xdpi="150"
       inkscape:export-ydpi="150"
       inkscape:export-filename="/media/users/martin/public/Vorlagen/Briefpapier3.png">
      <path
         style="fill:none;stroke:#000000;stroke-width:1.65041435"
         id="path33-4"
         d=""
         inkscape:connector-curvature="0" />
      <path
         style="fill:none;stroke:#000000;stroke-width:1.65041435"
         id="path35-6"
         d=""
         inkscape:connector-curvature="0" />
      <path
         style="fill:none;stroke:#000000;stroke-width:1.65041435"
         id="path37-9"
         d=""
         inkscape:connector-curvature="0" />
      <path
         style="fill:none;stroke:#000000;stroke-width:1.65041435"
         id="path41-0"
         d=""
         inkscape:connector-curvature="0" />
      <path
         style="fill:none;stroke:#000000;stroke-width:1.65041435"
         id="path43-8"
         d=""
         inkscape:connector-curvature="0" />
      <path
         style="fill:none;stroke:#000000;stroke-width:1.65041435"
         id="path45-8"
         d=""
         inkscape:connector-curvature="0" />
      <path
         style="fill:none;stroke:#000000;stroke-width:1.65041435"
         id="path47-7"
         d=""
         inkscape:connector-curvature="0" />
      <path
         style="fill:none;stroke:#000000;stroke-width:1.65041435"
         id="path49-9"
         d=""
         inkscape:connector-curvature="0" />
      <path
         style="fill:none;stroke:#000000;stroke-width:1.65041435"
         id="path51-1"
         d=""
         inkscape:connector-curvature="0" />
      <path
         style="fill:none;stroke:#000000;stroke-width:1.65041435"
         id="path53-7"
         d=""
         inkscape:connector-curvature="0" />
      <path
         style="fill:none;stroke:#000000;stroke-width:1.65041435"
         id="path55-7"
         d=""
         inkscape:connector-curvature="0" />
      <path
         style="fill:none;stroke:#000000;stroke-width:1.65041435"
         id="path57-1"
         d=""
         inkscape:connector-curvature="0" />
      <path
         id="path61-4"
         d=""
         inkscape:connector-curvature="0" />
      <path
         style="fill:none;stroke:#abc716;stroke-width:1.65041435"
         id="path73-0"
         d=""
         inkscape:connector-curvature="0" />
      <path
         style="fill:none;stroke:#abc716;stroke-width:1.10027623"
         id="path75-3"
         d=""
         inkscape:connector-curvature="0" />
      <path
         style="fill:none;stroke:#abc716;stroke-width:1.10027623"
         id="path79-4"
         d=""
         inkscape:connector-curvature="0" />
      <g
         id="g2868">
        <path
           d="m 165.78932,564.81816 c 0,-8.90919 -0.38976,-15.59032 -0.77645,-23.28114 l 8.57468,0 0.77644,17.61277 0.38976,0 c 5.06686,-10.93164 16.76267,-19.83776 32.16271,-19.83776 8.96751,0 32.55248,4.65561 32.55248,41.09339 l 0,58.30719 -9.16085,0 0,-57.49392 c 0,-17.61277 -6.62896,-33.60512 -25.92659,-33.60512 -13.25177,0 -24.36448,9.71633 -28.06872,22.26838 -0.77951,2.43062 -1.36568,5.67144 -1.36568,8.70357 l 0,60.12709 -9.16085,0 0,-73.89445 0.003,0 z"
           id="path9"
           inkscape:connector-curvature="0" />
        <path
           d="m 330.21505,570.68909 c 0,-9.7194 -0.38976,-19.84084 -0.77952,-29.15207 l 8.57468,0 0.38976,19.63522 0.38669,0 c 4.09399,-12.14695 13.83794,-21.86328 26.7061,-21.86328 1.16927,0 2.53496,0.20255 3.70423,0.40203 l 0,9.3143 c -1.36261,-0.4051 -2.7283,-0.4051 -4.48068,-0.4051 -12.86508,0 -22.02593,11.53929 -24.5609,27.12654 -0.38975,2.83265 -0.77951,6.07348 -0.77951,9.31123 l 0,53.64851 -9.16085,0 0,-68.01738 0,0 z"
           id="path11"
           inkscape:connector-curvature="0" />
        <path
           d="m 398.09126,516.87178 c 0,4.45613 -2.92472,8.30154 -7.79516,8.30154 -4.28734,0 -7.21512,-3.84541 -7.21512,-8.30154 0,-4.45306 3.31447,-8.50409 7.60181,-8.50409 4.48375,0 7.40847,3.84541 7.40847,8.50409 z"
           id="path13"
           inkscape:connector-curvature="0" />
        <path
           d="m 386.00546,541.53668 9.16085,0 0,97.17559 -9.16085,0 0,-97.17559 z"
           id="rect15"
           inkscape:connector-curvature="0" />
        <path
           d="m 412.94811,564.81816 c 0,-8.90919 -0.38976,-15.59032 -0.77952,-23.28114 l 8.57468,0 0.77951,17.61277 0.38976,0 c 5.06686,-10.93164 16.76267,-19.83776 32.15965,-19.83776 8.9675,0 32.55247,4.65561 32.55247,41.09339 l 0,58.30719 -9.16085,0 0,-57.49392 c 0,-17.61277 -6.62896,-33.60512 -25.92659,-33.60512 -13.25484,0 -24.36448,9.71633 -28.06872,22.26838 -0.78258,2.43062 -1.36568,5.67144 -1.36568,8.70357 l 0,60.12709 -9.16085,0 0,-73.89445 0.006,0 z"
           id="path17"
           inkscape:connector-curvature="0" />
        <path
           d="m 579.60191,624.53708 c 0,24.89848 -4.87351,37.25105 -12.67175,44.94187 -8.57467,8.50409 -21.24641,11.54236 -31.77295,11.54236 -10.71988,0 -22.61211,-2.83572 -29.62775,-8.29847 l 3.31448,-7.69696 c 6.43254,4.25358 15.59646,8.09899 27.68203,8.09899 19.68431,0 33.91509,-10.72909 33.91509,-39.47605 l 0,-13.76429 -0.38976,0 c -4.87351,9.91582 -15.78981,18.82808 -32.55247,18.82808 -23.58497,0 -40.15429,-21.25869 -40.15429,-47.77759 0,-33.80767 21.44283,-51.62299 42.10308,-51.62299 18.51811,0 27.67896,10.52653 31.57961,18.62245 l 0.38976,0 0.38669,-16.39746 8.57774,0 c -0.38976,7.28879 -0.77645,14.98267 -0.77645,25.10411 l 0,57.89595 -0.003,0 z M 570.44106,578.785 c 0,-3.44337 -0.38976,-6.47857 -1.17235,-9.31122 -3.89758,-11.74185 -13.83487,-22.26839 -29.04158,-22.26839 -19.88073,0 -33.52533,17.00512 -33.52533,42.71074 0,21.86635 11.11271,40.69135 33.13864,40.69135 12.47533,0 24.16807,-7.89643 28.84824,-21.86634 1.16927,-3.23776 1.75238,-6.88368 1.75238,-10.32399 l 0,-19.63215 0,0 z"
           id="path19"
           inkscape:connector-curvature="0" />
        <path
           d="m 637.91524,624.36215 c 0,7.23968 -4.93182,13.49115 -13.15971,13.49115 -7.23661,0 -12.17457,-6.25147 -12.17457,-13.49115 0,-7.23661 5.59472,-13.81647 12.83133,-13.81647 7.57113,0 12.50295,6.25148 12.50295,13.81647 z"
           id="path21"
           style="fill:#80b71b"
           inkscape:connector-curvature="0" />
        <path
           d="m 670.03192,564.81816 c 0,-8.90919 -0.39283,-15.58725 -0.77952,-23.28114 l 8.57468,0 0.77951,17.61277 0.38976,0 c 5.06993,-10.93164 16.76267,-19.83776 32.16272,-19.83776 8.96443,0 32.5494,4.65561 32.5494,41.09339 l 0,58.30719 -9.15778,0 0,-57.49699 c 0,-17.61277 -6.62896,-33.60512 -25.92659,-33.60512 -13.25484,0 -24.36755,9.7194 -28.06872,22.26838 -0.77951,2.43062 -1.36261,5.67144 -1.36261,8.70357 l 0,60.13016 -9.16085,0 0,-73.89445 z"
           id="path23"
           inkscape:connector-curvature="0" />
        <path
           d="m 765.17585,586.04003 c 0,31.17451 16.37598,43.32146 35.67054,43.32146 13.6446,0 20.66331,-2.83266 25.92658,-5.46276 l 2.33855,7.68775 c -3.51089,2.02552 -13.0615,6.27603 -29.43441,6.27603 -26.89944,0 -43.66211,-20.44542 -43.66211,-48.98983 0,-32.38982 17.92887,-52.63268 42.10308,-52.63268 30.60368,0 36.45005,29.96226 36.45005,43.92911 0,2.63317 0,4.25051 -0.38669,5.87092 l -69.00559,0 0,0 z m 59.64526,-7.69082 c 0.19335,-13.56481 -5.26634,-34.21278 -27.8723,-34.21278 -20.66332,0 -29.63389,19.23011 -31.18986,34.21278 l 59.06216,0 z"
           id="path25"
           inkscape:connector-curvature="0" />
        <path
           d="m 865.09816,507.74469 0,23.10314 26.7061,0 0,8.2862 -26.7061,0 0,67.99897 c 0,13.29474 3.70424,21.79576 13.6446,21.79576 4.87658,0 8.37826,-0.87465 10.71681,-1.74317 l 1.17235,8.06216 c -3.11807,1.52835 -7.40541,2.61783 -13.05843,2.61783 -6.82537,0 -12.47533,-2.61783 -15.98622,-7.62637 -4.28427,-5.45048 -5.8433,-14.1694 -5.8433,-24.84631 l 0,-66.2558 -15.79288,0 0,-8.2862 15.79288,0 0,-19.18101 9.35419,-3.9252 z"
           id="path27"
           inkscape:connector-curvature="0" />
        <path
           style="font-size:medium;font-style:normal;font-variant:normal;font-weight:normal;font-stretch:normal;text-indent:0;text-align:start;text-decoration:none;line-height:normal;letter-spacing:normal;word-spacing:normal;text-transform:none;direction:ltr;block-progression:tb;writing-mode:lr-tb;text-anchor:start;color:#000000;fill:#80b71b;fill-opacity:1;stroke:none;stroke-width:15.34480572;marker:none;visibility:visible;display:inline;overflow:visible;enable-background:accumulate;font-family:Bitstream Vera Sans;-inkscape-font-specification:Bitstream Vera Sans"
           d="m -55,422.46875 c -67.9542,0 -123.21875,55.2333 -123.21875,123.1875 0,67.9542 55.26455,123.21875 123.21875,123.21875 67.954227,0 123.1875,-55.26456 123.1875,-123.21875 0,-67.95419 -55.233273,-123.1875 -123.1875,-123.1875 z m 0,15.34375 c 59.6612809,0 107.84375,48.1825 107.84375,107.84375 0,59.66125 -48.1824691,107.875 -107.84375,107.875 -59.66125,0 -107.875,-48.21376 -107.875,-107.875 0,-59.66124 48.21375,-107.84375 107.875,-107.84375 z"
           id="circle31-6"
           inkscape:connector-curvature="0" />
        <path
           d="m -92.506735,400.78219 c 10.455951,-2.02552 21.326211,-3.09045 32.488023,-3.09045 75.250929,0 137.418876,48.52642 147.107586,111.42478"
           id="path67-5"
           style="fill:none;stroke:#80b71b;stroke-width:9.20688343"
           inkscape:connector-curvature="0" />
        <path
           d="m 154.40654,611.95434 c 0,8.50409 0.38669,16.19491 0.77951,23.68624 l -8.57774,0 -0.5831,-17.20767 -0.38976,0 c -4.6771,8.90613 -15.39698,19.43267 -32.15965,19.43267 -11.89222,0 -31.772953,-6.07348 -31.772953,-42.91636 l 0,-56.48116 9.16085,0 0,54.66127 c 0,21.05307 6.432542,36.23522 24.950653,36.23522 13.6446,0 23.58497,-9.91888 27.48562,-19.63521 0.97286,-3.0352 1.94879,-6.88061 1.94879,-10.72909 l 0,-60.52912 9.16085,0 0,73.48321 -0.003,0 z"
           id="path69"
           inkscape:connector-curvature="0" />
        <path
           d="m -10.737333,377.75884 c 40.568598,8.35678 75.223308,32.92688 96.884036,66.63635"
           id="path71-9"
           style="fill:none;stroke:#80b71b;stroke-width:6.13792229"
           inkscape:connector-curvature="0" />
        <path
           d="m 41.324525,368.09468 c 15.83584,7.4054 30.299854,17.25063 42.907146,29.05386"
           id="path77-6"
           style="fill:none;stroke:#80b71b;stroke-width:3.06896114"
           inkscape:connector-curvature="0" />
        <path
           d="m 276.28419,581.82328 37.81574,-40.28626 -11.30605,0 -32.94223,36.03575 c -2.92472,3.23775 -6.8223,7.69081 -9.16085,10.72908 l -0.38976,0 0,-79.02268 -9.16084,0 0,129.43037 9.16084,0 0,-40.49187 9.55061,-10.52654 38.2055,51.01841 11.30605,0 -43.07901,-56.88626 z"
           id="path81"
           inkscape:connector-curvature="0" />
        <path
           style="fill:#000000;fill-opacity:1;stroke:none"
           d="m -78.382118,637.23226 0,-78.36719 68.563048,0 -0.20703,-18.89844 -68.356018,0.0792 0,-55.23088 75.003828,0 -0.38609,-18.81318 -96.08348,0 0,171.23047 21.465742,0 z"
           id="path3658-7"
           inkscape:connector-curvature="0" />
      </g>
    </g>
  </g>
</svg>
