<?xml version="1.0" encoding="UTF-8" standalone="no"?>
<!-- Created with Inkscape (http://www.inkscape.org/) -->

<svg
   xmlns:dc="http://purl.org/dc/elements/1.1/"
   xmlns:cc="http://creativecommons.org/ns#"
   xmlns:rdf="http://www.w3.org/1999/02/22-rdf-syntax-ns#"
   xmlns:svg="http://www.w3.org/2000/svg"
   xmlns="http://www.w3.org/2000/svg"
   xmlns:sodipodi="http://sodipodi.sourceforge.net/DTD/sodipodi-0.dtd"
   xmlns:inkscape="http://www.inkscape.org/namespaces/inkscape"
   width="602.125"
   height="16.406639"
   id="svg2"
   version="1.1"
   inkscape:version="0.48.0 r9654"
   sodipodi:docname="footer.svg"
   inkscape:export-filename="/home/martin/Work/openerp/addons-custom-funkring/funkring/report/header.png"
   inkscape:export-xdpi="300"
   inkscape:export-ydpi="300">
  <defs
     id="defs4">
    <inkscape:perspective
       sodipodi:type="inkscape:persp3d"
       inkscape:vp_x="0 : 526.18109 : 1"
       inkscape:vp_y="0 : 1000 : 0"
       inkscape:vp_z="744.09448 : 526.18109 : 1"
       inkscape:persp3d-origin="372.04724 : 350.78739 : 1"
       id="perspective10" />
    <inkscape:perspective
       sodipodi:type="inkscape:persp3d"
       inkscape:vp_x="0 : 287.4765 : 1"
       inkscape:vp_y="0 : 1000 : 0"
       inkscape:vp_z="983.45599 : 287.4765 : 1"
       inkscape:persp3d-origin="491.728 : 191.651 : 1"
       id="perspective88" />
    <inkscape:perspective
       id="perspective2627"
       inkscape:persp3d-origin="372.04724 : 350.78739 : 1"
       inkscape:vp_z="744.09448 : 526.18109 : 1"
       inkscape:vp_y="0 : 1000 : 0"
       inkscape:vp_x="0 : 526.18109 : 1"
       sodipodi:type="inkscape:persp3d" />
  </defs>
  <sodipodi:namedview
     id="base"
     pagecolor="#ffffff"
     bordercolor="#666666"
     borderopacity="1.0"
     inkscape:pageopacity="0.0"
     inkscape:pageshadow="2"
     inkscape:zoom="2.0000001"
     inkscape:cx="90.661284"
     inkscape:cy="13.864808"
     inkscape:document-units="mm"
     inkscape:current-layer="layer1"
     showgrid="false"
     inkscape:window-width="1920"
     inkscape:window-height="1171"
     inkscape:window-x="1400"
     inkscape:window-y="0"
     inkscape:window-maximized="1"
     showguides="true"
     inkscape:guide-bbox="true"
     fit-margin-top="0"
     fit-margin-left="0"
     fit-margin-right="0"
     fit-margin-bottom="0"
     units="mm"
     inkscape:showpageshadow="false">
    <sodipodi:guide
       orientation="0,1"
       position="39.13624,0.50708524"
       id="guide4043" />
    <sodipodi:guide
       orientation="1,0"
       position="0.011247,263.56958"
       id="guide3049" />
    <sodipodi:guide
       orientation="1,0"
       position="602.13622,415.00707"
       id="guide3051" />
  </sodipodi:namedview>
  <metadata
     id="metadata7">
    <rdf:RDF>
      <cc:Work
         rdf:about="">
        <dc:format>image/svg+xml</dc:format>
        <dc:type
           rdf:resource="http://purl.org/dc/dcmitype/StillImage" />
        <dc:title></dc:title>
      </cc:Work>
    </rdf:RDF>
  </metadata>
  <g
     inkscape:label="Ebene 1"
     inkscape:groupmode="layer"
     id="layer1"
     transform="translate(-119.96875,5.7191381)">
    <text
       xml:space="preserve"
       style="font-size:10px;font-style:normal;font-variant:normal;font-weight:normal;font-stretch:normal;text-align:start;line-height:125%;letter-spacing:0px;word-spacing:0px;writing-mode:lr-tb;text-anchor:start;fill:#000000;fill-opacity:1;stroke:none;font-family:Arial;-inkscape-font-specification:Arial"
       x="239.51233"
       y="70.892891"
       id="text3154"
       sodipodi:linespacing="125%"><tspan
         sodipodi:role="line"
         id="tspan3156"
         x="239.51233"
         y="70.892891" /></text>
    <text
       xml:space="preserve"
       style="font-size:10px;font-style:normal;font-variant:normal;font-weight:normal;font-stretch:normal;text-align:start;line-height:125%;letter-spacing:0px;word-spacing:0px;writing-mode:lr-tb;text-anchor:start;fill:#000000;fill-opacity:1;stroke:none;font-family:Arial;-inkscape-font-specification:Arial"
       x="260.37198"
       y="77.963959"
       id="text3158"
       sodipodi:linespacing="125%"><tspan
         sodipodi:role="line"
         id="tspan3162"
         x="260.37198"
         y="77.963959" /></text>
    <path
       inkscape:connector-curvature="0"
       style="font-size:10px;font-style:normal;font-variant:normal;font-weight:normal;font-stretch:normal;text-align:start;line-height:125%;writing-mode:lr-tb;text-anchor:start;fill:none;stroke:#000000;stroke-width:0.22445618;font-family:DejaVu Sans;-inkscape-font-specification:DejaVu Sans"
       id="path33"
       d="" />
    <path
       inkscape:connector-curvature="0"
       style="font-size:10px;font-style:normal;font-variant:normal;font-weight:normal;font-stretch:normal;text-align:start;line-height:125%;writing-mode:lr-tb;text-anchor:start;fill:none;stroke:#000000;stroke-width:0.22445618;font-family:DejaVu Sans;-inkscape-font-specification:DejaVu Sans"
       id="path35"
       d="" />
    <path
       inkscape:connector-curvature="0"
       style="font-size:10px;font-style:normal;font-variant:normal;font-weight:normal;font-stretch:normal;text-align:start;line-height:125%;writing-mode:lr-tb;text-anchor:start;fill:none;stroke:#000000;stroke-width:0.22445618;font-family:DejaVu Sans;-inkscape-font-specification:DejaVu Sans"
       id="path37"
       d="" />
    <path
       inkscape:connector-curvature="0"
       style="font-size:10px;font-style:normal;font-variant:normal;font-weight:normal;font-stretch:normal;text-align:start;line-height:125%;writing-mode:lr-tb;text-anchor:start;fill:none;stroke:#000000;stroke-width:0.22445618;font-family:DejaVu Sans;-inkscape-font-specification:DejaVu Sans"
       id="path41"
       d="" />
    <path
       inkscape:connector-curvature="0"
       style="font-size:10px;font-style:normal;font-variant:normal;font-weight:normal;font-stretch:normal;text-align:start;line-height:125%;writing-mode:lr-tb;text-anchor:start;fill:none;stroke:#000000;stroke-width:0.22445618;font-family:DejaVu Sans;-inkscape-font-specification:DejaVu Sans"
       id="path43"
       d="" />
    <path
       inkscape:connector-curvature="0"
       style="font-size:10px;font-style:normal;font-variant:normal;font-weight:normal;font-stretch:normal;text-align:start;line-height:125%;writing-mode:lr-tb;text-anchor:start;fill:none;stroke:#000000;stroke-width:0.22445618;font-family:DejaVu Sans;-inkscape-font-specification:DejaVu Sans"
       id="path45"
       d="" />
    <path
       inkscape:connector-curvature="0"
       style="font-size:10px;font-style:normal;font-variant:normal;font-weight:normal;font-stretch:normal;text-align:start;line-height:125%;writing-mode:lr-tb;text-anchor:start;fill:none;stroke:#000000;stroke-width:0.22445618;font-family:DejaVu Sans;-inkscape-font-specification:DejaVu Sans"
       id="path47"
       d="" />
    <path
       inkscape:connector-curvature="0"
       style="font-size:10px;font-style:normal;font-variant:normal;font-weight:normal;font-stretch:normal;text-align:start;line-height:125%;writing-mode:lr-tb;text-anchor:start;fill:none;stroke:#000000;stroke-width:0.22445618;font-family:DejaVu Sans;-inkscape-font-specification:DejaVu Sans"
       id="path49"
       d="" />
    <path
       inkscape:connector-curvature="0"
       style="font-size:10px;font-style:normal;font-variant:normal;font-weight:normal;font-stretch:normal;text-align:start;line-height:125%;writing-mode:lr-tb;text-anchor:start;fill:none;stroke:#000000;stroke-width:0.22445618;font-family:DejaVu Sans;-inkscape-font-specification:DejaVu Sans"
       id="path51"
       d="" />
    <path
       inkscape:connector-curvature="0"
       style="font-size:10px;font-style:normal;font-variant:normal;font-weight:normal;font-stretch:normal;text-align:start;line-height:125%;writing-mode:lr-tb;text-anchor:start;fill:none;stroke:#000000;stroke-width:0.22445618;font-family:DejaVu Sans;-inkscape-font-specification:DejaVu Sans"
       id="path53"
       d="" />
    <path
       inkscape:connector-curvature="0"
       style="font-size:10px;font-style:normal;font-variant:normal;font-weight:normal;font-stretch:normal;text-align:start;line-height:125%;writing-mode:lr-tb;text-anchor:start;fill:none;stroke:#000000;stroke-width:0.22445618;font-family:DejaVu Sans;-inkscape-font-specification:DejaVu Sans"
       id="path55"
       d="" />
    <path
       inkscape:connector-curvature="0"
       style="font-size:10px;font-style:normal;font-variant:normal;font-weight:normal;font-stretch:normal;text-align:start;line-height:125%;writing-mode:lr-tb;text-anchor:start;fill:none;stroke:#000000;stroke-width:0.22445618;font-family:DejaVu Sans;-inkscape-font-specification:DejaVu Sans"
       id="path57"
       d="" />
    <path
       style="font-size:10px;font-style:normal;font-variant:normal;font-weight:normal;font-stretch:normal;text-align:start;line-height:125%;writing-mode:lr-tb;text-anchor:start;fill:#000000;fill-opacity:1;stroke:none;font-family:DejaVu Sans;-inkscape-font-specification:DejaVu Sans"
       inkscape:connector-curvature="0"
       id="path61"
       d="" />
    <path
       inkscape:connector-curvature="0"
       style="font-size:10px;font-style:normal;font-variant:normal;font-weight:normal;font-stretch:normal;text-align:start;line-height:125%;writing-mode:lr-tb;text-anchor:start;fill:none;stroke:#abc716;stroke-width:0.22445618;font-family:DejaVu Sans;-inkscape-font-specification:DejaVu Sans"
       id="path73"
       d="" />
    <path
       inkscape:connector-curvature="0"
       style="font-size:10px;font-style:normal;font-variant:normal;font-weight:normal;font-stretch:normal;text-align:start;line-height:125%;writing-mode:lr-tb;text-anchor:start;fill:none;stroke:#abc716;stroke-width:0.14963745;font-family:DejaVu Sans;-inkscape-font-specification:DejaVu Sans"
       id="path75"
       d="" />
    <path
       inkscape:connector-curvature="0"
       style="font-size:10px;font-style:normal;font-variant:normal;font-weight:normal;font-stretch:normal;text-align:start;line-height:125%;writing-mode:lr-tb;text-anchor:start;fill:none;stroke:#abc716;stroke-width:0.14963745;font-family:DejaVu Sans;-inkscape-font-specification:DejaVu Sans"
       id="path79"
       d="" />
    <g
       style="font-size:14px;font-style:normal;font-variant:normal;font-weight:normal;font-stretch:normal;text-align:start;line-height:125%;letter-spacing:0px;word-spacing:0px;writing-mode:lr-tb;text-anchor:start;fill:#000000;fill-opacity:1;stroke:none;font-family:Arial;-inkscape-font-specification:Arial"
       id="text4261"
       transform="translate(51.999997,-6)">
      <path
         d="m 68.129417,10.302346 0,-10.02148415 1.326172,0 0,10.02148415 -1.326172,0"
         id="path5907"
         inkscape:connector-curvature="0" />
      <path
         d="m 71.629417,10.302346 0,-7.2597654 1.107422,0 0,1.0322266 c 0.533201,-0.797519 1.303382,-1.1962817 2.310547,-1.1962891 0.437495,7.4e-6 0.838537,0.07976 1.203125,0.2392578 0.369135,0.154955 0.644851,0.3600329 0.827149,0.6152344 0.182285,0.2552146 0.309889,0.5582742 0.382812,0.9091797 0.04557,0.22787 0.06835,0.6266326 0.06836,1.196289 l 0,4.463867 -1.230468,0 0,-4.4160154 C 76.298357,5.3850334 76.250506,5.0113359 76.154808,4.7652369 76.0591,4.5145916 75.888201,4.3163496 75.642113,4.1705103 75.400572,4.0201259 75.115741,3.9449307 74.787621,3.9449244 c -0.524093,6.3e-6 -0.977543,0.1663473 -1.360352,0.4990234 -0.378258,0.3326878 -0.567385,0.9638721 -0.567383,1.8935547 l 0,3.9648435 -1.230469,0"
         id="path5909"
         inkscape:connector-curvature="0" />
      <path
         d="m 82.10891,9.2017603 0.177734,1.0869137 c -0.346358,0.07292 -0.656253,0.109375 -0.929688,0.109375 -0.446617,0 -0.79297,-0.07064 -1.039062,-0.211914 C 80.071799,10.04486 79.898622,9.8602894 79.798363,9.6324244 79.698101,9.4000034 79.647971,8.9146523 79.647972,8.1763697 l 0,-4.1767578 -0.902344,0 0,-0.9570313 0.902344,0 0,-1.7978516 1.223633,-0.73828121 0,2.53613281 1.237305,0 0,0.9570313 -1.237305,0 0,4.2451171 c -2e-6,0.3509132 0.0205,0.5764989 0.06152,0.6767579 0.04557,0.1002617 0.116209,0.1800142 0.211914,0.2392578 0.100258,0.059246 0.241534,0.088868 0.423829,0.088867 0.136715,10e-7 0.316728,-0.015949 0.540039,-0.047852"
         id="path5911"
         inkscape:connector-curvature="0" />
      <path
         d="m 88.274925,7.9644556 1.271485,0.1572266 c -0.200528,0.7428399 -0.571947,1.3193368 -1.114258,1.7294922 -0.542323,0.4101566 -1.235031,0.6152346 -2.078125,0.6152346 -1.061852,0 -1.90495,-0.325846 -2.529297,-0.9775393 -0.619793,-0.6562486 -0.929688,-1.5745419 -0.929688,-2.7548828 0,-1.2213494 0.314453,-2.1692651 0.94336,-2.84375 0.628904,-0.6744721 1.444658,-1.0117114 2.447265,-1.0117188 0.970699,7.4e-6 1.763667,0.3304107 2.378907,0.9912109 0.615227,0.6608131 0.922844,1.5904997 0.922851,2.7890625 -7e-6,0.07292 -0.0023,0.1822952 -0.0068,0.328125 l -5.414062,0 c 0.04557,0.7975286 0.271157,1.4082051 0.676758,1.8320313 0.405596,0.4238292 0.911455,0.635743 1.517578,0.6357422 0.451167,8e-7 0.836258,-0.1184886 1.155273,-0.3554688 0.319005,-0.2369777 0.571935,-0.6152325 0.758789,-1.1347656 m -4.040039,-1.9892578 4.053711,0 C 88.233904,5.3645256 88.078956,4.9065183 87.823753,4.6011744 87.431821,4.1272222 86.923684,3.8902433 86.299339,3.8902369 85.734232,3.8902433 85.257995,4.0793707 84.870628,4.4576197 84.487814,4.8358803 84.2759,5.3417392 84.234886,5.9751978"
         id="path5913"
         inkscape:connector-curvature="0" />
      <path
         d="m 91.084496,10.302346 0,-7.2597654 1.107421,0 0,1.1005859 c 0.28255,-0.5149672 0.542316,-0.8544851 0.779297,-1.0185546 0.241534,-0.1640552 0.505856,-0.2460864 0.792969,-0.2460938 0.41471,7.4e-6 0.836259,0.1321688 1.264648,0.3964844 L 94.605003,4.416604 C 94.304218,4.2388757 94.003437,4.1500086 93.70266,4.1500025 c -0.268884,6.1e-6 -0.51042,0.082037 -0.72461,0.2460937 -0.214195,0.159511 -0.366864,0.3828181 -0.458008,0.6699219 -0.136721,0.4375048 -0.20508,0.9160199 -0.205078,1.4355469 l 0,3.800781 -1.230468,0"
         id="path5915"
         inkscape:connector-curvature="0" />
      <path
         d="m 95.773949,10.302346 0,-7.2597654 1.107422,0 0,1.0322266 c 0.5332,-0.797519 1.303382,-1.1962817 2.310546,-1.1962891 0.437496,7.4e-6 0.838533,0.07976 1.203123,0.2392578 0.36914,0.154955 0.64485,0.3600329 0.82715,0.6152344 0.18229,0.2552146 0.30989,0.5582742 0.38281,0.9091797 0.0456,0.22787 0.0684,0.6266326 0.0684,1.196289 l 0,4.463867 -1.23047,0 0,-4.4160154 c 0,-0.5012972 -0.0479,-0.8749947 -0.14355,-1.1210937 C 100.20363,4.5145916 100.03273,4.3163496 99.786644,4.1705103 99.545103,4.0201259 99.260272,3.9449307 98.932152,3.9449244 98.40806,3.9449307 97.95461,4.1112717 97.5718,4.4439478 97.193543,4.7766356 97.004415,5.4078199 97.004417,6.3375025 l 0,3.9648435 -1.230468,0"
         id="path5917"
         inkscape:connector-curvature="0" />
      <path
         d="m 108.53664,7.9644556 1.27149,0.1572266 c -0.20053,0.7428399 -0.57195,1.3193368 -1.11426,1.7294922 -0.54232,0.4101566 -1.23503,0.6152346 -2.07812,0.6152346 -1.06186,0 -1.90495,-0.325846 -2.5293,-0.9775393 -0.61979,-0.6562486 -0.92969,-1.5745419 -0.92969,-2.7548828 0,-1.2213494 0.31445,-2.1692651 0.94336,-2.84375 0.6289,-0.6744721 1.44466,-1.0117114 2.44727,-1.0117188 0.97069,7.4e-6 1.76366,0.3304107 2.3789,0.9912109 0.61523,0.6608131 0.92285,1.5904997 0.92285,2.7890625 0,0.07292 -0.002,0.1822952 -0.007,0.328125 l -5.41406,0 c 0.0456,0.7975286 0.27115,1.4082051 0.67675,1.8320313 0.4056,0.4238292 0.91146,0.635743 1.51758,0.6357422 0.45117,8e-7 0.83626,-0.1184886 1.15527,-0.3554688 0.31901,-0.2369777 0.57194,-0.6152325 0.75879,-1.1347656 m -4.04004,-1.9892578 4.05372,0 c -0.0547,-0.6106722 -0.20965,-1.0686795 -0.46485,-1.3740234 -0.39193,-0.4739522 -0.90007,-0.7109311 -1.52441,-0.7109375 -0.56511,6.4e-6 -1.04135,0.1891338 -1.42871,0.5673828 -0.38282,0.3782606 -0.59473,0.8841195 -0.63575,1.5175781"
         id="path5919"
         inkscape:connector-curvature="0" />
      <path
         d="m 114.04641,9.2017603 0.17773,1.0869137 c -0.34635,0.07292 -0.65625,0.109375 -0.92968,0.109375 -0.44662,0 -0.79297,-0.07064 -1.03907,-0.211914 -0.24609,-0.141275 -0.41927,-0.3258456 -0.51953,-0.5537106 -0.10026,-0.232421 -0.15039,-0.7177721 -0.15039,-1.4560547 l 0,-4.1767578 -0.90234,0 0,-0.9570313 0.90234,0 0,-1.7978516 1.22363,-0.73828121 0,2.53613281 1.23731,0 0,0.9570313 -1.23731,0 0,4.2451171 c 0,0.3509132 0.0205,0.5764989 0.0615,0.6767579 0.0456,0.1002617 0.11621,0.1800142 0.21191,0.2392578 0.10026,0.059246 0.24154,0.088868 0.42383,0.088867 0.13672,10e-7 0.31673,-0.015949 0.54004,-0.047852"
         id="path5921"
         inkscape:connector-curvature="0" />
    </g>
    <g
       style="font-size:14px;font-style:normal;font-variant:normal;font-weight:normal;font-stretch:normal;text-align:start;line-height:125%;letter-spacing:0px;word-spacing:0px;writing-mode:lr-tb;text-anchor:start;fill:#000000;fill-opacity:1;stroke:none;font-family:Arial;-inkscape-font-specification:Arial"
       id="text4269"
       transform="translate(30.080323,-6)">
      <path
         d="m 176.53746,10.302346 0,-10.02148415 1.32617,0 0,4.11523435 5.20899,0 0,-4.11523435 1.32617,0 0,10.02148415 -1.32617,0 0,-4.7236326 -5.20899,0 0,4.7236326 -1.32617,0"
         id="path5890"
         inkscape:connector-curvature="0" />
      <path
         d="m 191.19371,9.4068384 c -0.45573,0.3873703 -0.89551,0.6608076 -1.31934,0.8203126 -0.41927,0.159505 -0.87044,0.239258 -1.35351,0.239258 -0.79753,0 -1.41048,-0.193685 -1.83887,-0.581055 -0.42838,-0.3919262 -0.64258,-0.8909492 -0.64258,-1.4970703 0,-0.3554665 0.0798,-0.6790338 0.23926,-0.9707031 0.16406,-0.2962208 0.37598,-0.5331997 0.63574,-0.7109375 0.26432,-0.1777306 0.56055,-0.3121706 0.88868,-0.4033203 0.24153,-0.063798 0.60611,-0.1253214 1.09375,-0.1845703 0.99348,-0.1184853 1.72493,-0.2597612 2.19433,-0.4238281 0.005,-0.1686151 0.007,-0.2757113 0.007,-0.3212891 -1e-5,-0.5012967 -0.11622,-0.8544864 -0.34864,-1.0595703 -0.31445,-0.2779885 -0.78158,-0.4169858 -1.40136,-0.4169922 -0.57878,6.4e-6 -1.00717,0.1025454 -1.28516,0.3076172 -0.27344,0.2005267 -0.47624,0.5582737 -0.6084,1.0732422 l -1.20312,-0.1640625 c 0.10937,-0.5149683 0.28938,-0.9296814 0.54004,-1.2441407 0.25065,-0.3190036 0.61295,-0.5628185 1.08691,-0.7314453 0.47396,-0.1731697 1.02311,-0.2597582 1.64746,-0.2597656 0.61979,7.4e-6 1.12337,0.072924 1.51074,0.21875 0.38737,0.1458404 0.6722,0.3304105 0.8545,0.5537109 0.18228,0.2187565 0.30989,0.496751 0.38281,0.8339844 0.041,0.209641 0.0615,0.5878959 0.0615,1.1347656 l 0,1.640625 c 0,1.1438821 0.0251,1.8684908 0.0752,2.1738282 0.0547,0.3007818 0.1595,0.5901698 0.31445,0.8681638 l -1.28516,0 c -0.12761,-0.255208 -0.20964,-0.5537102 -0.24609,-0.8955076 m -0.10254,-2.7480469 c -0.44662,0.1822952 -1.11654,0.3372429 -2.00976,0.4648438 -0.50587,0.07292 -0.86361,0.1549509 -1.07325,0.2460937 -0.20963,0.091149 -0.37142,0.2255887 -0.48535,0.4033204 -0.11393,0.1731794 -0.1709,0.3668641 -0.1709,0.5810546 0,0.3281267 0.12305,0.6015639 0.36914,0.8203125 0.25065,0.218751 0.61524,0.3281258 1.09375,0.328125 0.47396,8e-7 0.89551,-0.1025381 1.26465,-0.3076171 0.36914,-0.2096341 0.6403,-0.4944646 0.81348,-0.8544922 0.13216,-0.2779926 0.19824,-0.6881484 0.19824,-1.2304688 l 0,-0.4511719"
         id="path5892"
         inkscape:connector-curvature="0" />
      <path
         d="m 194.2357,10.302346 0,-7.2597654 1.10742,0 0,1.1005859 c 0.28255,-0.5149672 0.54232,-0.8544851 0.7793,-1.0185546 0.24153,-0.1640552 0.50586,-0.2460864 0.79297,-0.2460938 0.41471,7.4e-6 0.83626,0.1321688 1.26465,0.3964844 l -0.42383,1.1416015 c -0.30079,-0.1777283 -0.60157,-0.2665954 -0.90234,-0.2666015 -0.26889,6.1e-6 -0.51042,0.082037 -0.72461,0.2460937 -0.2142,0.159511 -0.36687,0.3828181 -0.45801,0.6699219 -0.13672,0.4375048 -0.20508,0.9160199 -0.20508,1.4355469 l 0,3.800781 -1.23047,0"
         id="path5894"
         inkscape:connector-curvature="0" />
      <path
         d="m 203.63512,10.302346 0,-0.9160154 c -0.4603,0.7200524 -1.13705,1.0800784 -2.03028,1.0800784 -0.57878,0 -1.11198,-0.159505 -1.59961,-0.4785159 -0.48307,-0.3190098 -0.85905,-0.7633453 -1.12793,-1.3330078 -0.26432,-0.5742165 -0.39648,-1.2327445 -0.39648,-1.9755859 0,-0.7246051 0.12077,-1.3808544 0.3623,-1.96875 0.24154,-0.5924418 0.60384,-1.0458918 1.08692,-1.3603516 0.48307,-0.3144459 1.02311,-0.4716723 1.62012,-0.4716797 0.43749,7.4e-6 0.82714,0.093432 1.16894,0.2802734 0.34179,0.1822987 0.61979,0.4215562 0.83399,0.7177735 l 0,-3.59570315 1.22363,0 0,10.02148415 -1.1416,0 m -3.88965,-3.6230466 c 0,0.9296901 0.19596,1.6246764 0.58789,2.0849609 0.39192,0.4602875 0.85449,0.6904305 1.38769,0.6904297 0.53776,8e-7 0.99349,-0.218749 1.36719,-0.65625 0.37825,-0.4420554 0.56738,-1.1142552 0.56738,-2.0166016 0,-0.9934851 -0.19141,-1.722651 -0.57421,-2.1875 -0.38282,-0.4648376 -0.8545,-0.6972592 -1.41504,-0.6972656 -0.54688,6.4e-6 -1.00489,0.2233135 -1.37403,0.6699219 -0.36458,0.4466198 -0.54687,1.1507207 -0.54687,2.1123047"
         id="path5896"
         inkscape:connector-curvature="0" />
      <path
         d="m 208.05797,10.302346 -2.22168,-7.2597654 1.27148,0 1.15528,4.1904297 0.43066,1.5585937 c 0.0182,-0.077472 0.14355,-0.5764953 0.37598,-1.4970703 l 1.15527,-4.2519531 1.26465,0 1.08691,4.2109375 0.36231,1.3876953 0.41699,-1.4013672 1.24414,-4.1972656 1.19629,0 -2.26953,7.2597654 -1.27832,0 -1.15528,-4.347656 -0.28027,-1.2373047 -1.46973,5.5849607 -1.28515,0"
         id="path5898"
         inkscape:connector-curvature="0" />
      <path
         d="m 221.57262,9.4068384 c -0.45574,0.3873703 -0.89552,0.6608076 -1.31934,0.8203126 -0.41927,0.159505 -0.87045,0.239258 -1.35351,0.239258 -0.79753,0 -1.41049,-0.193685 -1.83887,-0.581055 -0.42839,-0.3919262 -0.64258,-0.8909492 -0.64258,-1.4970703 0,-0.3554665 0.0798,-0.6790338 0.23926,-0.9707031 0.16406,-0.2962208 0.37597,-0.5331997 0.63574,-0.7109375 0.26432,-0.1777306 0.56054,-0.3121706 0.88867,-0.4033203 0.24154,-0.063798 0.60612,-0.1253214 1.09375,-0.1845703 0.99349,-0.1184853 1.72493,-0.2597612 2.19434,-0.4238281 0.005,-0.1686151 0.007,-0.2757113 0.007,-0.3212891 0,-0.5012967 -0.11621,-0.8544864 -0.34863,-1.0595703 -0.31446,-0.2779885 -0.78158,-0.4169858 -1.40137,-0.4169922 -0.57878,6.4e-6 -1.00716,0.1025454 -1.28515,0.3076172 -0.27344,0.2005267 -0.47624,0.5582737 -0.6084,1.0732422 L 216.6304,5.1138697 c 0.10938,-0.5149683 0.28939,-0.9296814 0.54004,-1.2441407 0.25065,-0.3190036 0.61296,-0.5628185 1.08692,-0.7314453 0.47395,-0.1731697 1.02311,-0.2597582 1.64746,-0.2597656 0.61978,7.4e-6 1.12337,0.072924 1.51074,0.21875 0.38736,0.1458404 0.67219,0.3304105 0.85449,0.5537109 0.18229,0.2187565 0.30989,0.496751 0.38281,0.8339844 0.041,0.209641 0.0615,0.5878959 0.0615,1.1347656 l 0,1.640625 c -1e-5,1.1438821 0.0251,1.8684908 0.0752,2.1738282 0.0547,0.3007818 0.1595,0.5901698 0.31446,0.8681638 l -1.28516,0 c -0.12761,-0.255208 -0.20964,-0.5537102 -0.24609,-0.8955076 m -0.10254,-2.7480469 c -0.44662,0.1822952 -1.11654,0.3372429 -2.00977,0.4648438 -0.50586,0.07292 -0.86361,0.1549509 -1.07324,0.2460937 -0.20964,0.091149 -0.37142,0.2255887 -0.48535,0.4033204 -0.11394,0.1731794 -0.1709,0.3668641 -0.1709,0.5810546 0,0.3281267 0.12304,0.6015639 0.36914,0.8203125 0.25065,0.218751 0.61523,0.3281258 1.09375,0.328125 0.47395,8e-7 0.8955,-0.1025381 1.26465,-0.3076171 0.36913,-0.2096341 0.64029,-0.4944646 0.81348,-0.8544922 0.13215,-0.2779926 0.19823,-0.6881484 0.19824,-1.2304688 l 0,-0.4511719"
         id="path5900"
         inkscape:connector-curvature="0" />
      <path
         d="m 224.61461,10.302346 0,-7.2597654 1.10742,0 0,1.1005859 c 0.28255,-0.5149672 0.54232,-0.8544851 0.7793,-1.0185546 0.24153,-0.1640552 0.50585,-0.2460864 0.79297,-0.2460938 0.41471,7.4e-6 0.83625,0.1321688 1.26464,0.3964844 l -0.42382,1.1416015 c -0.30079,-0.1777283 -0.60157,-0.2665954 -0.90235,-0.2666015 -0.26888,6.1e-6 -0.51042,0.082037 -0.72461,0.2460937 -0.21419,0.159511 -0.36686,0.3828181 -0.458,0.6699219 -0.13673,0.4375048 -0.20508,0.9160199 -0.20508,1.4355469 l 0,3.800781 -1.23047,0"
         id="path5902"
         inkscape:connector-curvature="0" />
      <path
         d="m 234.27379,7.9644556 1.27148,0.1572266 c -0.20052,0.7428399 -0.57194,1.3193368 -1.11425,1.7294922 -0.54233,0.4101566 -1.23504,0.6152346 -2.07813,0.6152346 -1.06185,0 -1.90495,-0.325846 -2.5293,-0.9775393 -0.61979,-0.6562486 -0.92968,-1.5745419 -0.92968,-2.7548828 0,-1.2213494 0.31445,-2.1692651 0.94336,-2.84375 0.6289,-0.6744721 1.44465,-1.0117114 2.44726,-1.0117188 0.9707,7.4e-6 1.76367,0.3304107 2.37891,0.9912109 0.61522,0.6608131 0.92284,1.5904997 0.92285,2.7890625 -1e-5,0.07292 -0.002,0.1822952 -0.007,0.328125 l -5.41406,0 c 0.0456,0.7975286 0.27116,1.4082051 0.67676,1.8320313 0.40559,0.4238292 0.91145,0.635743 1.51758,0.6357422 0.45116,8e-7 0.83625,-0.1184886 1.15527,-0.3554688 0.319,-0.2369777 0.57193,-0.6152325 0.75879,-1.1347656 m -4.04004,-1.9892578 4.05371,0 c -0.0547,-0.6106722 -0.20964,-1.0686795 -0.46484,-1.3740234 -0.39194,-0.4739522 -0.90007,-0.7109311 -1.52442,-0.7109375 -0.56511,6.4e-6 -1.04134,0.1891338 -1.42871,0.5673828 -0.38281,0.3782606 -0.59473,0.8841195 -0.63574,1.5175781"
         id="path5904"
         inkscape:connector-curvature="0" />
    </g>
    <g
       style="font-size:14px;font-style:normal;font-variant:normal;font-weight:normal;font-stretch:normal;text-align:start;line-height:125%;letter-spacing:0px;word-spacing:0px;writing-mode:lr-tb;text-anchor:start;fill:#000000;fill-opacity:1;stroke:none;font-family:Arial;-inkscape-font-specification:Arial"
       id="text4273"
       transform="translate(8.1606274,-6)">
      <path
         d="m 297.89963,7.2535257 1.25097,-0.109375 c 0.0593,0.5013049 0.19597,0.9137394 0.41016,1.2373047 0.21875,0.3190122 0.55599,0.5787776 1.01172,0.7792969 0.45572,0.1959647 0.96842,0.2939463 1.53809,0.2939453 0.50585,1e-6 0.95246,-0.075194 1.33984,-0.2255859 0.38736,-0.1503893 0.67447,-0.3554672 0.86133,-0.6152344 0.1914,-0.2643208 0.2871,-0.5514299 0.28711,-0.8613281 -1e-5,-0.3144501 -0.0912,-0.5878873 -0.27344,-0.8203125 -0.1823,-0.2369754 -0.48308,-0.4352174 -0.90234,-0.5947266 -0.26889,-0.1048135 -0.86362,-0.2665972 -1.78418,-0.4853516 -0.92058,-0.2233024 -1.56544,-0.4329376 -1.93457,-0.6289062 -0.47852,-0.2506455 -0.83627,-0.5605411 -1.07325,-0.9296875 -0.23242,-0.3736914 -0.34863,-0.7906831 -0.34863,-1.2509766 0,-0.5058514 0.14355,-0.9775306 0.43066,-1.415039 0.28711,-0.442048 0.70638,-0.77700863 1.25782,-1.00488284 0.55143,-0.22785451 1.16438,-0.34178668 1.83886,-0.34179688 0.74284,1.02e-5 1.39681,0.1207783 1.96192,0.36230469 0.56965,0.23698876 1.00715,0.58789983 1.3125,1.05273433 0.30533,0.4648521 0.46939,0.9912188 0.49219,1.5791016 l -1.27149,0.095703 c -0.0684,-0.6334558 -0.30079,-1.1119709 -0.69726,-1.4355468 -0.39194,-0.3235589 -0.97299,-0.4853426 -1.74317,-0.4853516 -0.80209,9e-6 -1.3877,0.1481209 -1.75683,0.4443359 -0.36459,0.291675 -0.54688,0.6448647 -0.54688,1.0595703 0,0.3600332 0.12988,0.6562569 0.38965,0.8886719 0.2552,0.2324283 0.92057,0.4716859 1.99609,0.7177735 1.08008,0.2415421 1.82063,0.4534559 2.22168,0.6357421 0.58333,0.2688853 1.01399,0.6106818 1.29199,1.0253907 0.27799,0.4101601 0.41699,0.8841179 0.417,1.421875 -10e-6,0.5332054 -0.15268,1.0367856 -0.45801,1.5107422 -0.30535,0.4694019 -0.74513,0.8362635 -1.31934,1.1005857 -0.56966,0.259766 -1.21224,0.389649 -1.92773,0.389649 -0.90691,0 -1.66797,-0.132162 -2.2832,-0.396485 -0.61068,-0.2643222 -1.09148,-0.6608061 -1.44239,-1.1894529 -0.34635,-0.5332011 -0.52864,-1.134763 -0.54687,-1.8046875"
         id="path5873"
         inkscape:connector-curvature="0" />
      <path
         d="m 307.08713,6.8433695 c 0,-1.3443961 0.37369,-2.3401633 1.12109,-2.9873047 0.62435,-0.5377533 1.38542,-0.8066332 2.2832,-0.8066406 0.99805,7.4e-6 1.8138,0.3281321 2.44727,0.984375 0.63346,0.6516985 0.95019,1.5540413 0.9502,2.7070312 -1e-5,0.9342476 -0.14129,1.6702495 -0.42383,2.2080078 -0.278,0.5332042 -0.68588,0.9479173 -1.22364,1.2441408 -0.5332,0.296224 -1.11654,0.444336 -1.75,0.444336 -1.01627,0 -1.83886,-0.325846 -2.46777,-0.9775393 -0.62435,-0.6516912 -0.93652,-1.5904924 -0.93652,-2.8164062 m 1.26465,0 c -1e-5,0.9296902 0.20279,1.6269551 0.60839,2.0917969 0.4056,0.4602875 0.91602,0.6904305 1.53125,0.6904296 0.61068,9e-7 1.11881,-0.2324207 1.52442,-0.6972656 0.40559,-0.4648417 0.60839,-1.1734999 0.6084,-2.1259765 -10e-6,-0.8977819 -0.20509,-1.5768177 -0.61524,-2.0371094 -0.4056,-0.4648376 -0.91146,-0.6972592 -1.51758,-0.6972656 -0.61523,6.4e-6 -1.12565,0.2301494 -1.53125,0.6904296 -0.4056,0.4602918 -0.6084,1.155278 -0.60839,2.084961"
         id="path5875"
         inkscape:connector-curvature="0" />
      <path
         d="m 315.63205,10.473252 0,-6.3027341 -1.08691,0 0,-0.9570312 1.08691,0 0,-0.772461 c 0,-0.4876217 0.0433,-0.849926 0.12988,-1.086914 0.11849,-0.319001 0.32585,-0.57648773 0.62207,-0.77246097 0.30078,-0.20051074 0.72005,-0.30077105 1.25782,-0.30078125 0.34635,1.02e-5 0.72916,0.0410258 1.14843,0.12304688 l -0.18457,1.07324214 c -0.25521,-0.045564 -0.49675,-0.06835 -0.72461,-0.068359 -0.3737,9e-6 -0.63802,0.079762 -0.79297,0.2392578 -0.15495,0.1595139 -0.23242,0.4580162 -0.23242,0.8955078 l 0,0.6699219 1.41504,0 0,0.9570312 -1.41504,0 0,6.3027338 -1.22363,0"
         id="path5877"
         inkscape:connector-curvature="0" />
      <path
         d="m 321.90744,9.3726664 0.17773,1.0869136 c -0.34635,0.07292 -0.65625,0.109375 -0.92968,0.109375 -0.44662,0 -0.79297,-0.07064 -1.03907,-0.211914 -0.24609,-0.141275 -0.41927,-0.325846 -0.51953,-0.5537106 -0.10026,-0.232421 -0.15039,-0.717772 -0.15039,-1.4560547 l 0,-4.1767578 -0.90234,0 0,-0.9570312 0.90234,0 0,-1.7978516 1.22364,-0.73828124 0,2.53613284 1.2373,0 0,0.9570312 -1.2373,0 0,4.2451172 c -1e-5,0.3509132 0.0205,0.5764989 0.0615,0.6767578 0.0456,0.1002617 0.11621,0.1800142 0.21191,0.2392578 0.10026,0.059246 0.24154,0.088868 0.42383,0.088867 0.13672,1.1e-6 0.31673,-0.015949 0.54004,-0.047852"
         id="path5879"
         inkscape:connector-curvature="0" />
      <path
         d="m 324.44357,10.473252 -2.22168,-7.2597653 1.27149,0 1.15527,4.1904297 0.43067,1.5585937 c 0.0182,-0.077472 0.14355,-0.5764953 0.37597,-1.4970703 l 1.15528,-4.2519531 1.26464,0 1.08692,4.2109375 0.3623,1.3876953 0.41699,-1.4013672 1.24415,-4.1972656 1.19628,0 -2.26953,7.2597653 -1.27832,0 -1.15527,-4.347656 -0.28027,-1.2373046 -1.46973,5.5849606 -1.28516,0"
         id="path5881"
         inkscape:connector-curvature="0" />
      <path
         d="m 337.95822,9.5777445 c -0.45573,0.3873703 -0.89551,0.6608075 -1.31933,0.8203125 -0.41928,0.159505 -0.87045,0.239258 -1.35352,0.239258 -0.79753,0 -1.41048,-0.193685 -1.83887,-0.581055 -0.42838,-0.3919262 -0.64258,-0.8909491 -0.64258,-1.4970702 0,-0.3554665 0.0798,-0.6790339 0.23926,-0.9707031 0.16406,-0.2962208 0.37598,-0.5331997 0.63574,-0.7109375 0.26433,-0.1777306 0.56055,-0.3121706 0.88868,-0.4033203 0.24153,-0.063798 0.60611,-0.1253214 1.09375,-0.1845704 0.99348,-0.1184852 1.72493,-0.2597611 2.19433,-0.4238281 0.005,-0.168615 0.007,-0.2757112 0.007,-0.321289 -1e-5,-0.5012967 -0.11622,-0.8544864 -0.34863,-1.0595704 -0.31446,-0.2779885 -0.78158,-0.4169857 -1.40137,-0.4169921 -0.57878,6.4e-6 -1.00717,0.1025453 -1.28516,0.3076171 -0.27344,0.2005268 -0.47624,0.5582738 -0.6084,1.0732422 L 333.016,5.2847757 c 0.10937,-0.5149682 0.28939,-0.9296813 0.54004,-1.2441406 0.25065,-0.3190037 0.61295,-0.5628185 1.08691,-0.7314453 0.47396,-0.1731697 1.02311,-0.2597582 1.64746,-0.2597656 0.61979,7.4e-6 1.12337,0.072924 1.51074,0.21875 0.38737,0.1458404 0.6722,0.3304105 0.8545,0.5537109 0.18228,0.2187564 0.30989,0.496751 0.38281,0.8339844 0.041,0.209641 0.0615,0.5878958 0.0615,1.1347656 l 0,1.640625 c 0,1.1438821 0.0251,1.8684908 0.0752,2.1738281 0.0547,0.3007819 0.1595,0.5901698 0.31445,0.8681638 l -1.28515,0 c -0.12761,-0.255208 -0.20965,-0.5537101 -0.2461,-0.8955075 m -0.10254,-2.7480469 c -0.44662,0.1822951 -1.11654,0.3372429 -2.00976,0.4648438 -0.50587,0.07292 -0.86361,0.1549509 -1.07325,0.2460937 -0.20963,0.091149 -0.37142,0.2255887 -0.48535,0.4033203 -0.11393,0.1731795 -0.1709,0.3668642 -0.1709,0.5810547 0,0.3281266 0.12305,0.6015639 0.36915,0.8203125 0.25064,0.2187509 0.61523,0.3281258 1.09375,0.328125 0.47395,8e-7 0.8955,-0.1025382 1.26464,-0.3076172 0.36914,-0.2096341 0.6403,-0.4944645 0.81348,-0.8544922 0.13216,-0.2779925 0.19824,-0.6881484 0.19824,-1.2304687 l 0,-0.4511719"
         id="path5883"
         inkscape:connector-curvature="0" />
      <path
         d="m 341.00021,10.473252 0,-7.2597653 1.10743,0 0,1.1005859 c 0.28255,-0.5149673 0.54231,-0.8544852 0.77929,-1.0185547 0.24154,-0.1640551 0.50586,-0.2460863 0.79297,-0.2460937 0.41471,7.4e-6 0.83626,0.1321687 1.26465,0.3964843 l -0.42383,1.1416016 c -0.30078,-0.1777283 -0.60156,-0.2665954 -0.90234,-0.2666016 -0.26889,6.2e-6 -0.51042,0.082037 -0.72461,0.2460938 -0.2142,0.159511 -0.36687,0.382818 -0.45801,0.6699219 -0.13672,0.4375048 -0.20508,0.9160199 -0.20508,1.4355468 l 0,3.800781 -1.23047,0"
         id="path5885"
         inkscape:connector-curvature="0" />
      <path
         d="m 350.65939,8.1353617 1.27149,0.1572265 c -0.20053,0.74284 -0.57195,1.3193368 -1.11426,1.7294918 -0.54232,0.410157 -1.23503,0.615235 -2.07813,0.615235 -1.06185,0 -1.90495,-0.325846 -2.52929,-0.9775393 -0.61979,-0.6562485 -0.92969,-1.5745418 -0.92969,-2.7548828 0,-1.2213494 0.31445,-2.1692651 0.94336,-2.84375 0.6289,-0.6744721 1.44466,-1.0117113 2.44727,-1.0117187 0.97069,7.4e-6 1.76366,0.3304107 2.3789,0.9912109 0.61523,0.6608131 0.92285,1.5904996 0.92285,2.7890625 0,0.07292 -0.002,0.1822951 -0.007,0.328125 l -5.41407,0 c 0.0456,0.7975286 0.27116,1.408205 0.67676,1.8320313 0.4056,0.4238291 0.91146,0.635743 1.51758,0.6357421 0.45117,9e-7 0.83626,-0.1184886 1.15527,-0.3554687 0.31901,-0.2369777 0.57194,-0.6152326 0.75879,-1.1347656 m -4.04004,-1.9892578 4.05372,0 c -0.0547,-0.6106722 -0.20965,-1.0686795 -0.46485,-1.3740235 -0.39193,-0.4739521 -0.90007,-0.7109311 -1.52441,-0.7109375 -0.56511,6.4e-6 -1.04135,0.1891338 -1.42871,0.5673828 -0.38282,0.3782607 -0.59473,0.8841196 -0.63575,1.5175782"
         id="path5887"
         inkscape:connector-curvature="0" />
    </g>
    <g
       style="font-size:14px;font-style:normal;font-variant:normal;font-weight:normal;font-stretch:normal;text-align:start;line-height:125%;letter-spacing:0px;word-spacing:0px;writing-mode:lr-tb;text-anchor:start;fill:#000000;fill-opacity:1;stroke:none;font-family:Arial;-inkscape-font-specification:Arial"
       id="text4277"
       transform="translate(-13.759005,-6)">
      <path
         d="m 414.28519,7.2535257 1.25097,-0.109375 c 0.0593,0.5013049 0.19596,0.9137394 0.41016,1.2373047 0.21875,0.3190122 0.55599,0.5787776 1.01172,0.7792969 0.45572,0.1959647 0.96842,0.2939463 1.53808,0.2939453 0.50586,1e-6 0.95247,-0.075194 1.33985,-0.2255859 0.38736,-0.1503893 0.67447,-0.3554672 0.86133,-0.6152344 0.1914,-0.2643208 0.2871,-0.5514299 0.28711,-0.8613281 -1e-5,-0.3144501 -0.0912,-0.5878873 -0.27344,-0.8203125 -0.1823,-0.2369754 -0.48308,-0.4352174 -0.90235,-0.5947266 -0.26888,-0.1048135 -0.86361,-0.2665972 -1.78418,-0.4853516 -0.92057,-0.2233024 -1.56543,-0.4329376 -1.93457,-0.6289062 -0.47851,-0.2506455 -0.83626,-0.5605411 -1.07324,-0.9296875 -0.23242,-0.3736914 -0.34863,-0.7906831 -0.34863,-1.2509766 0,-0.5058514 0.14355,-0.9775306 0.43066,-1.415039 0.28711,-0.442048 0.70638,-0.77700863 1.25782,-1.00488284 0.55142,-0.22785451 1.16438,-0.34178668 1.83886,-0.34179688 0.74284,1.02e-5 1.39681,0.1207783 1.96192,0.36230469 0.56965,0.23698876 1.00715,0.58789983 1.3125,1.05273433 0.30533,0.4648521 0.46939,0.9912188 0.49218,1.5791016 l -1.27148,0.095703 c -0.0684,-0.6334558 -0.30079,-1.1119709 -0.69727,-1.4355468 -0.39193,-0.3235589 -0.97298,-0.4853426 -1.74316,-0.4853516 -0.80209,9e-6 -1.3877,0.1481209 -1.75684,0.4443359 -0.36458,0.291675 -0.54687,0.6448647 -0.54687,1.0595703 0,0.3600332 0.12988,0.6562569 0.38965,0.8886719 0.2552,0.2324283 0.92057,0.4716859 1.99609,0.7177735 1.08007,0.2415421 1.82063,0.4534559 2.22168,0.6357421 0.58333,0.2688853 1.01399,0.6106818 1.29199,1.0253907 0.27799,0.4101601 0.41699,0.8841179 0.417,1.421875 -10e-6,0.5332054 -0.15268,1.0367856 -0.45801,1.5107422 -0.30535,0.4694019 -0.74513,0.8362635 -1.31934,1.1005857 -0.56967,0.259766 -1.21224,0.389649 -1.92773,0.389649 -0.90691,0 -1.66797,-0.132162 -2.28321,-0.396485 -0.61067,-0.2643222 -1.09147,-0.6608061 -1.44238,-1.1894529 -0.34635,-0.5332011 -0.52864,-1.134763 -0.54687,-1.8046875"
         id="path5844"
         inkscape:connector-curvature="0" />
      <path
         d="m 423.87601,13.269151 -0.13672,-1.155274 c 0.26888,0.07292 0.50358,0.109374 0.7041,0.109375 0.27344,-1e-6 0.49219,-0.04557 0.65625,-0.136718 0.16406,-0.09115 0.2985,-0.218752 0.40332,-0.382813 0.0775,-0.123048 0.2028,-0.428386 0.37598,-0.916016 0.0228,-0.06836 0.0592,-0.16862 0.10937,-0.300781 l -2.75488,-7.2734373 1.32617,0 1.51074,4.2041015 c 0.19596,0.5332057 0.37142,1.093752 0.52637,1.6816407 0.14127,-0.5651023 0.30989,-1.116534 0.50586,-1.6542969 l 1.55176,-4.2314453 1.23047,0 -2.76172,7.3828123 c -0.29623,0.797525 -0.52637,1.346678 -0.69043,1.647461 -0.21876,0.405597 -0.46941,0.701821 -0.75196,0.888672 -0.28255,0.191403 -0.61979,0.287106 -1.01171,0.287109 -0.23698,-3e-6 -0.50131,-0.05013 -0.79297,-0.15039"
         id="path5846"
         inkscape:connector-curvature="0" />
      <path
         d="m 430.43851,8.3062601 1.21679,-0.1914062 c 0.0684,0.487632 0.25749,0.8613296 0.56739,1.1210937 0.31445,0.2597666 0.75195,0.3896493 1.3125,0.3896484 0.5651,9e-7 0.98437,-0.1139313 1.25781,-0.3417968 0.27343,-0.2324205 0.41015,-0.5035791 0.41016,-0.8134766 -1e-5,-0.2779925 -0.12078,-0.4967423 -0.36231,-0.65625 -0.16862,-0.1093722 -0.58789,-0.2483695 -1.25781,-0.4169922 -0.90235,-0.2278613 -1.52898,-0.4238246 -1.87988,-0.5878906 -0.34636,-0.168616 -0.61068,-0.398759 -0.79297,-0.6904297 -0.17774,-0.2962193 -0.26661,-0.6220653 -0.2666,-0.9775391 -1e-5,-0.323562 0.0729,-0.6220643 0.21875,-0.8955078 0.15038,-0.2779883 0.35318,-0.5081313 0.60839,-0.6904297 0.19141,-0.1412689 0.45117,-0.2597584 0.7793,-0.3554687 0.33268,-0.100253 0.68815,-0.1503832 1.06641,-0.1503906 0.56965,7.4e-6 1.06868,0.082039 1.49707,0.2460937 0.43293,0.1640695 0.75194,0.3873766 0.95703,0.6699219 0.20507,0.278001 0.34635,0.6516986 0.42383,1.1210937 l -1.20313,0.1640625 c -0.0547,-0.3736923 -0.2142,-0.6653586 -0.47851,-0.875 -0.25977,-0.2096291 -0.62891,-0.3144467 -1.10743,-0.3144531 -0.5651,6.4e-6 -0.96842,0.093431 -1.20996,0.2802735 -0.24154,0.1868549 -0.3623,0.4056046 -0.3623,0.65625 0,0.1595105 0.0501,0.303065 0.15039,0.430664 0.10026,0.1321664 0.25748,0.2415413 0.47168,0.328125 0.12304,0.045578 0.48535,0.1503952 1.08691,0.3144531 0.87044,0.2324261 1.47656,0.4238321 1.81836,0.5742188 0.34635,0.145837 0.61751,0.3600295 0.81348,0.6425781 0.19596,0.282555 0.29394,0.6334661 0.29394,1.0527344 0,0.410158 -0.12077,0.7975274 -0.3623,1.1621094 -0.23699,0.3600266 -0.58106,0.6402998 -1.03223,0.8408198 -0.45117,0.195964 -0.96159,0.293946 -1.53125,0.293946 -0.94336,0 -1.66341,-0.195964 -2.16015,-0.587891 -0.49219,-0.3919261 -0.80664,-0.9729802 -0.94336,-1.7431639"
         id="path5848"
         inkscape:connector-curvature="0" />
      <path
         d="m 440.61722,9.3726664 0.17773,1.0869136 c -0.34636,0.07292 -0.65625,0.109375 -0.92969,0.109375 -0.44661,0 -0.79297,-0.07064 -1.03906,-0.211914 -0.24609,-0.141275 -0.41927,-0.325846 -0.51953,-0.5537106 -0.10026,-0.232421 -0.15039,-0.717772 -0.15039,-1.4560547 l 0,-4.1767578 -0.90234,0 0,-0.9570312 0.90234,0 0,-1.7978516 1.22363,-0.73828124 0,2.53613284 1.23731,0 0,0.9570312 -1.23731,0 0,4.2451172 c 0,0.3509132 0.0205,0.5764989 0.0615,0.6767578 0.0456,0.1002617 0.11621,0.1800142 0.21191,0.2392578 0.10026,0.059246 0.24153,0.088868 0.42383,0.088867 0.13671,1.1e-6 0.31673,-0.015949 0.54004,-0.047852"
         id="path5850"
         inkscape:connector-curvature="0" />
      <path
         d="m 446.78323,8.1353617 1.27149,0.1572265 c -0.20053,0.74284 -0.57195,1.3193368 -1.11426,1.7294918 -0.54232,0.410157 -1.23503,0.615235 -2.07812,0.615235 -1.06186,0 -1.90495,-0.325846 -2.5293,-0.9775393 -0.61979,-0.6562485 -0.92969,-1.5745418 -0.92969,-2.7548828 0,-1.2213494 0.31445,-2.1692651 0.94336,-2.84375 0.6289,-0.6744721 1.44466,-1.0117113 2.44727,-1.0117187 0.97069,7.4e-6 1.76366,0.3304107 2.3789,0.9912109 0.61523,0.6608131 0.92285,1.5904996 0.92285,2.7890625 0,0.07292 -0.002,0.1822951 -0.007,0.328125 l -5.41406,0 c 0.0456,0.7975286 0.27115,1.408205 0.67675,1.8320313 0.4056,0.4238291 0.91146,0.635743 1.51758,0.6357421 0.45117,9e-7 0.83626,-0.1184886 1.15527,-0.3554687 0.31901,-0.2369777 0.57194,-0.6152326 0.75879,-1.1347656 m -4.04004,-1.9892578 4.05372,0 c -0.0547,-0.6106722 -0.20965,-1.0686795 -0.46485,-1.3740235 -0.39193,-0.4739521 -0.90007,-0.7109311 -1.52441,-0.7109375 -0.56511,6.4e-6 -1.04135,0.1891338 -1.42871,0.5673828 -0.38282,0.3782607 -0.59473,0.8841196 -0.63575,1.5175782"
         id="path5852"
         inkscape:connector-curvature="0" />
      <path
         d="m 449.60648,10.473252 0,-7.2597653 1.10058,0 0,1.0185547 c 0.22786,-0.3554622 0.53092,-0.6402926 0.90918,-0.8544922 0.37825,-0.2187427 0.80892,-0.3281176 1.29199,-0.328125 0.53776,7.4e-6 0.97754,0.1116609 1.31934,0.3349609 0.34635,0.2233142 0.59016,0.5354883 0.73144,0.9365234 0.57422,-0.8476492 1.32161,-1.2714769 2.24219,-1.2714843 0.72005,7.4e-6 1.27376,0.200528 1.66114,0.6015625 0.38735,0.3964908 0.58104,1.0094459 0.58105,1.8388672 l 0,4.9833981 -1.22363,0 0,-4.5732419 c -1e-5,-0.4921824 -0.041,-0.8453722 -0.12305,-1.0595703 -0.0775,-0.2187442 -0.22104,-0.3941997 -0.43066,-0.5263672 -0.20965,-0.1321552 -0.45574,-0.1982358 -0.73829,-0.1982422 -0.51042,6.4e-6 -0.93425,0.1709046 -1.27148,0.5126953 -0.33725,0.3372451 -0.50587,0.8795623 -0.50586,1.6269532 l 0,4.2177731 -1.23047,0 0,-4.7167966 c 0,-0.5468697 -0.10026,-0.9570256 -0.30078,-1.2304687 -0.20052,-0.2734313 -0.52865,-0.4101499 -0.98437,-0.4101563 -0.34636,6.4e-6 -0.66765,0.091152 -0.96387,0.2734375 -0.29167,0.1822976 -0.50358,0.4488989 -0.63574,0.7998047 -0.13217,0.3509164 -0.19825,0.8567753 -0.19825,1.5175781 l 0,3.7666013 -1.23046,0"
         id="path5854"
         inkscape:connector-curvature="0" />
      <path
         d="m 461.25491,10.473252 0,-10.02148408 1.23047,0 0,10.02148408 -1.23047,0"
         id="path5856"
         inkscape:connector-curvature="0" />
      <path
         d="m 463.94144,6.8433695 c 0,-1.3443961 0.37369,-2.3401633 1.12109,-2.9873047 0.62435,-0.5377533 1.38541,-0.8066332 2.2832,-0.8066406 0.99805,7.4e-6 1.8138,0.3281321 2.44727,0.984375 0.63346,0.6516985 0.95019,1.5540413 0.95019,2.7070312 0,0.9342476 -0.14128,1.6702495 -0.42382,2.2080078 -0.278,0.5332042 -0.68588,0.9479173 -1.22364,1.2441408 -0.5332,0.296224 -1.11654,0.444336 -1.75,0.444336 -1.01628,0 -1.83887,-0.325846 -2.46777,-0.9775393 -0.62435,-0.6516912 -0.93652,-1.5904924 -0.93652,-2.8164062 m 1.26465,0 c -1e-5,0.9296902 0.20279,1.6269551 0.60839,2.0917969 0.4056,0.4602875 0.91602,0.6904305 1.53125,0.6904296 0.61068,9e-7 1.11881,-0.2324207 1.52442,-0.6972656 0.40559,-0.4648417 0.60839,-1.1734999 0.6084,-2.1259765 -10e-6,-0.8977819 -0.20509,-1.5768177 -0.61524,-2.0371094 -0.4056,-0.4648376 -0.91146,-0.6972592 -1.51758,-0.6972656 -0.61523,6.4e-6 -1.12565,0.2301494 -1.53125,0.6904296 -0.4056,0.4602918 -0.6084,1.155278 -0.60839,2.084961 m 0.21875,-5.0517578 0,-1.40136722 1.28515,0 0,1.40136722 -1.28515,0 m 2.5498,0 0,-1.40136722 1.28516,0 0,1.40136722 -1.28516,0"
         id="path5858"
         inkscape:connector-curvature="0" />
      <path
         d="m 471.70023,8.3062601 1.21679,-0.1914062 c 0.0684,0.487632 0.25749,0.8613296 0.56739,1.1210937 0.31445,0.2597666 0.75195,0.3896493 1.3125,0.3896484 0.5651,9e-7 0.98437,-0.1139313 1.25781,-0.3417968 0.27343,-0.2324205 0.41015,-0.5035791 0.41015,-0.8134766 0,-0.2779925 -0.12077,-0.4967423 -0.3623,-0.65625 -0.16862,-0.1093722 -0.5879,-0.2483695 -1.25781,-0.4169922 -0.90235,-0.2278613 -1.52898,-0.4238246 -1.87989,-0.5878906 -0.34635,-0.168616 -0.61067,-0.398759 -0.79296,-0.6904297 -0.17774,-0.2962193 -0.26661,-0.6220653 -0.26661,-0.9775391 0,-0.323562 0.0729,-0.6220643 0.21875,-0.8955078 0.15039,-0.2779883 0.35319,-0.5081313 0.6084,-0.6904297 0.19141,-0.1412689 0.45117,-0.2597584 0.7793,-0.3554687 0.33268,-0.100253 0.68815,-0.1503832 1.06641,-0.1503906 0.56965,7.4e-6 1.06868,0.082039 1.49707,0.2460937 0.43293,0.1640695 0.75194,0.3873766 0.95703,0.6699219 0.20507,0.278001 0.34635,0.6516986 0.42383,1.1210937 l -1.20313,0.1640625 c -0.0547,-0.3736923 -0.2142,-0.6653586 -0.47852,-0.875 -0.25977,-0.2096291 -0.62891,-0.3144467 -1.10742,-0.3144531 -0.5651,6.4e-6 -0.96842,0.093431 -1.20996,0.2802735 -0.24154,0.1868549 -0.3623,0.4056046 -0.3623,0.65625 0,0.1595105 0.0501,0.303065 0.15039,0.430664 0.10026,0.1321664 0.25748,0.2415413 0.47168,0.328125 0.12304,0.045578 0.48535,0.1503952 1.08691,0.3144531 0.87044,0.2324261 1.47656,0.4238321 1.81836,0.5742188 0.34635,0.145837 0.61751,0.3600295 0.81348,0.6425781 0.19595,0.282555 0.29394,0.6334661 0.29394,1.0527344 0,0.410158 -0.12077,0.7975274 -0.3623,1.1621094 -0.23699,0.3600266 -0.58106,0.6402998 -1.03223,0.8408198 -0.45118,0.195964 -0.96159,0.293946 -1.53125,0.293946 -0.94336,0 -1.66341,-0.195964 -2.16015,-0.587891 -0.49219,-0.3919261 -0.80665,-0.9729802 -0.94336,-1.7431639"
         id="path5860"
         inkscape:connector-curvature="0" />
      <path
         d="m 483.95023,10.473252 0,-1.066406 c -0.56511,0.820313 -1.33302,1.230469 -2.30372,1.230469 -0.42838,0 -0.82942,-0.08203 -1.20312,-0.246094 -0.36914,-0.164062 -0.64486,-0.36914 -0.82715,-0.6152343 -0.17773,-0.2506501 -0.30306,-0.5559884 -0.37598,-0.9160157 -0.0501,-0.2415346 -0.0752,-0.6243467 -0.0752,-1.1484375 l 0,-4.4980468 1.23047,0 0,4.0263672 c 0,0.6425807 0.0251,1.075523 0.0752,1.2988281 0.0775,0.3235693 0.24154,0.5787774 0.49219,0.765625 0.25065,0.1822926 0.56054,0.2734384 0.92969,0.2734375 0.36914,9e-7 0.71549,-0.093424 1.03906,-0.2802735 0.32356,-0.1914048 0.55143,-0.4488916 0.68359,-0.7724609 0.13672,-0.3281227 0.20508,-0.8020806 0.20508,-1.421875 l 0,-3.8896484 1.23047,0 0,7.2597653 -1.10058,0"
         id="path5862"
         inkscape:connector-curvature="0" />
      <path
         d="m 486.98538,10.473252 0,-7.2597653 1.10742,0 0,1.0322265 c 0.5332,-0.797519 1.30339,-1.1962816 2.31055,-1.196289 0.4375,7.4e-6 0.83854,0.07976 1.20313,0.2392578 0.36913,0.1549549 0.64485,0.3600329 0.82714,0.6152344 0.18229,0.2552146 0.30989,0.5582742 0.38282,0.9091796 0.0456,0.2278701 0.0684,0.6266327 0.0684,1.1962891 l 0,4.4638669 -1.23047,0 0,-4.4160153 c -10e-6,-0.5012972 -0.0479,-0.8749947 -0.14356,-1.1210938 -0.0957,-0.2506452 -0.2666,-0.4488872 -0.51269,-0.5947265 -0.24154,-0.1503844 -0.52637,-0.2255796 -0.85449,-0.225586 -0.5241,6.4e-6 -0.97755,0.1663474 -1.36036,0.4990235 -0.37825,0.3326878 -0.56738,0.963872 -0.56738,1.8935546 l 0,3.9648435 -1.23047,0"
         id="path5864"
         inkscape:connector-curvature="0" />
      <path
         d="m 494.55276,11.074815 1.19629,0.177734 c 0.0501,0.36914 0.18913,0.63802 0.417,0.806641 0.30533,0.227863 0.72232,0.341795 1.25097,0.341797 0.56966,-2e-6 1.00944,-0.113934 1.31934,-0.341797 0.30989,-0.227866 0.51952,-0.546876 0.6289,-0.957031 0.0638,-0.250652 0.0934,-0.777019 0.0889,-1.579102 -0.53776,0.633464 -1.20768,0.950195 -2.00976,0.950195 -0.99805,0 -1.77051,-0.360025 -2.31739,-1.0800778 -0.54687,-0.7200503 -0.82031,-1.5836562 -0.82031,-2.5908203 0,-0.692704 0.12533,-1.3307242 0.37598,-1.9140625 0.25065,-0.5878845 0.61295,-1.0413346 1.08691,-1.3603516 0.47851,-0.3190032 1.03906,-0.4785082 1.68164,-0.4785156 0.85677,7.4e-6 1.56315,0.3463612 2.11914,1.0390625 l 0,-0.875 1.13477,0 0,6.2753906 c -10e-6,1.1302077 -0.11622,1.9300117 -0.34863,2.3994137 -0.22788,0.473957 -0.59246,0.847654 -1.09375,1.121094 -0.49675,0.273435 -1.10971,0.410153 -1.83887,0.410156 -0.86589,-3e-6 -1.56543,-0.195966 -2.09863,-0.58789 -0.53321,-0.387372 -0.79069,-0.972983 -0.77247,-1.756836 m 1.01856,-4.3613283 c 0,0.9524767 0.18913,1.647463 0.56738,2.0849609 0.37825,0.4375012 0.85221,0.656251 1.42188,0.65625 0.5651,1e-6 1.03906,-0.2164701 1.42187,-0.6494141 0.38281,-0.4374978 0.57422,-1.1210909 0.57422,-2.0507812 0,-0.8886673 -0.19825,-1.5585885 -0.59473,-2.0097656 -0.39193,-0.4511657 -0.86589,-0.6767514 -1.42187,-0.6767578 -0.54688,6.4e-6 -1.01172,0.2233134 -1.39453,0.6699218 -0.38282,0.4420626 -0.57422,1.1005906 -0.57422,1.975586"
         id="path5866"
         inkscape:connector-curvature="0" />
      <path
         d="m 507.54105,8.1353617 1.27148,0.1572265 c -0.20053,0.74284 -0.57195,1.3193368 -1.11426,1.7294918 -0.54232,0.410157 -1.23503,0.615235 -2.07812,0.615235 -1.06185,0 -1.90495,-0.325846 -2.5293,-0.9775393 -0.61979,-0.6562485 -0.92969,-1.5745418 -0.92969,-2.7548828 0,-1.2213494 0.31446,-2.1692651 0.94336,-2.84375 0.62891,-0.6744721 1.44466,-1.0117113 2.44727,-1.0117187 0.9707,7.4e-6 1.76366,0.3304107 2.3789,0.9912109 0.61523,0.6608131 0.92285,1.5904996 0.92286,2.7890625 -10e-6,0.07292 -0.002,0.1822951 -0.007,0.328125 l -5.41406,0 c 0.0456,0.7975286 0.27115,1.408205 0.67676,1.8320313 0.40559,0.4238291 0.91145,0.635743 1.51757,0.6357421 0.45117,9e-7 0.83626,-0.1184886 1.15528,-0.3554687 0.319,-0.2369777 0.57193,-0.6152326 0.75879,-1.1347656 m -4.04004,-1.9892578 4.05371,0 c -0.0547,-0.6106722 -0.20964,-1.0686795 -0.46485,-1.3740235 -0.39193,-0.4739521 -0.90007,-0.7109311 -1.52441,-0.7109375 -0.56511,6.4e-6 -1.04134,0.1891338 -1.42871,0.5673828 -0.38282,0.3782607 -0.59473,0.8841196 -0.63574,1.5175782"
         id="path5868"
         inkscape:connector-curvature="0" />
      <path
         d="m 510.36429,10.473252 0,-7.2597653 1.10742,0 0,1.0322265 c 0.5332,-0.797519 1.30338,-1.1962816 2.31055,-1.196289 0.43749,7.4e-6 0.83853,0.07976 1.20312,0.2392578 0.36914,0.1549549 0.64485,0.3600329 0.82715,0.6152344 0.18229,0.2552146 0.30989,0.5582742 0.38281,0.9091796 0.0456,0.2278701 0.0684,0.6266327 0.0684,1.1962891 l 0,4.4638669 -1.23047,0 0,-4.4160153 c 0,-0.5012972 -0.0479,-0.8749947 -0.14355,-1.1210938 -0.0957,-0.2506452 -0.26661,-0.4488872 -0.5127,-0.5947265 -0.24154,-0.1503844 -0.52637,-0.2255796 -0.85449,-0.225586 -0.52409,6.4e-6 -0.97754,0.1663474 -1.36035,0.4990235 -0.37826,0.3326878 -0.56739,0.963872 -0.56738,1.8935546 l 0,3.9648435 -1.23047,0"
         id="path5870"
         inkscape:connector-curvature="0" />
    </g>
    <g
       style="font-size:14px;font-style:normal;font-variant:normal;font-weight:normal;font-stretch:normal;text-align:start;line-height:125%;letter-spacing:0px;word-spacing:0px;writing-mode:lr-tb;text-anchor:start;fill:#000000;fill-opacity:1;stroke:none;font-family:Arial;-inkscape-font-specification:Arial"
       id="text4281"
       transform="translate(-35.678623,-6)">
      <path
         d="m 578.57703,10.302346 0,-10.02148415 1.36035,0 5.26367,7.86816405 0,-7.86816405 1.27148,0 0,10.02148415 -1.36035,0 -5.26367,-7.8749998 0,7.8749998 -1.27148,0"
         id="path5813"
         inkscape:connector-curvature="0" />
      <path
         d="m 593.52039,7.9644556 1.27148,0.1572266 c -0.20053,0.7428399 -0.57195,1.3193368 -1.11426,1.7294922 -0.54232,0.4101566 -1.23503,0.6152346 -2.07812,0.6152346 -1.06185,0 -1.90495,-0.325846 -2.5293,-0.9775393 -0.61979,-0.6562486 -0.92969,-1.5745419 -0.92969,-2.7548828 0,-1.2213494 0.31446,-2.1692651 0.94336,-2.84375 0.62891,-0.6744721 1.44466,-1.0117114 2.44727,-1.0117188 0.9707,7.4e-6 1.76366,0.3304107 2.3789,0.9912109 0.61523,0.6608131 0.92285,1.5904997 0.92286,2.7890625 -10e-6,0.07292 -0.002,0.1822952 -0.007,0.328125 l -5.41406,0 c 0.0456,0.7975286 0.27115,1.4082051 0.67676,1.8320313 0.40559,0.4238292 0.91145,0.635743 1.51757,0.6357422 0.45117,8e-7 0.83626,-0.1184886 1.15528,-0.3554688 0.319,-0.2369777 0.57193,-0.6152325 0.75879,-1.1347656 m -4.04004,-1.9892578 4.05371,0 c -0.0547,-0.6106722 -0.20964,-1.0686795 -0.46485,-1.3740234 -0.39193,-0.4739522 -0.90007,-0.7109311 -1.52441,-0.7109375 -0.56511,6.4e-6 -1.04134,0.1891338 -1.42871,0.5673828 -0.38282,0.3782606 -0.59473,0.8841195 -0.63574,1.5175781"
         id="path5815"
         inkscape:connector-curvature="0" />
      <path
         d="m 599.03015,9.2017603 0.17774,1.0869137 c -0.34636,0.07292 -0.65626,0.109375 -0.92969,0.109375 -0.44662,0 -0.79297,-0.07064 -1.03906,-0.211914 -0.2461,-0.141275 -0.41928,-0.3258456 -0.51954,-0.5537106 -0.10026,-0.232421 -0.15039,-0.7177721 -0.15039,-1.4560547 l 0,-4.1767578 -0.90234,0 0,-0.9570313 0.90234,0 0,-1.7978516 1.22364,-0.73828121 0,2.53613281 1.2373,0 0,0.9570313 -1.2373,0 0,4.2451171 c -1e-5,0.3509132 0.0205,0.5764989 0.0615,0.6767579 0.0456,0.1002617 0.11621,0.1800142 0.21191,0.2392578 0.10026,0.059246 0.24154,0.088868 0.42383,0.088867 0.13672,10e-7 0.31673,-0.015949 0.54004,-0.047852"
         id="path5817"
         inkscape:connector-curvature="0" />
      <path
         d="m 599.57703,10.302346 0,-0.9980466 4.62109,-5.3046875 c -0.52409,0.02735 -0.98666,0.041022 -1.3877,0.041016 l -2.95996,0 0,-0.9980469 5.9336,0 0,0.8134766 -3.93067,4.6074218 -0.75879,0.8408204 c 0.55143,-0.041015 1.06869,-0.061522 1.55176,-0.061523 l 3.35645,0 0,1.0595702 -6.42578,0"
         id="path5819"
         inkscape:connector-curvature="0" />
      <path
         d="m 608.56628,10.302346 -2.22168,-7.2597654 1.27149,0 1.15527,4.1904297 0.43067,1.5585937 c 0.0182,-0.077472 0.14355,-0.5764953 0.37597,-1.4970703 l 1.15528,-4.2519531 1.26464,0 1.08692,4.2109375 0.3623,1.3876953 0.417,-1.4013672 1.24414,-4.1972656 1.19629,0 -2.26954,7.2597654 -1.27832,0 -1.15527,-4.347656 -0.28027,-1.2373047 -1.46973,5.5849607 -1.28516,0"
         id="path5821"
         inkscape:connector-curvature="0" />
      <path
         d="m 622.31335,7.9644556 1.27149,0.1572266 c -0.20053,0.7428399 -0.57195,1.3193368 -1.11426,1.7294922 -0.54232,0.4101566 -1.23503,0.6152346 -2.07812,0.6152346 -1.06186,0 -1.90495,-0.325846 -2.5293,-0.9775393 -0.61979,-0.6562486 -0.92969,-1.5745419 -0.92969,-2.7548828 0,-1.2213494 0.31445,-2.1692651 0.94336,-2.84375 0.62891,-0.6744721 1.44466,-1.0117114 2.44727,-1.0117188 0.97069,7.4e-6 1.76366,0.3304107 2.3789,0.9912109 0.61523,0.6608131 0.92285,1.5904997 0.92285,2.7890625 0,0.07292 -0.002,0.1822952 -0.007,0.328125 l -5.41406,0 c 0.0456,0.7975286 0.27115,1.4082051 0.67675,1.8320313 0.4056,0.4238292 0.91146,0.635743 1.51758,0.6357422 0.45117,8e-7 0.83626,-0.1184886 1.15528,-0.3554688 0.319,-0.2369777 0.57193,-0.6152325 0.75878,-1.1347656 m -4.04003,-1.9892578 4.05371,0 c -0.0547,-0.6106722 -0.20964,-1.0686795 -0.46485,-1.3740234 -0.39193,-0.4739522 -0.90007,-0.7109311 -1.52441,-0.7109375 -0.56511,6.4e-6 -1.04135,0.1891338 -1.42871,0.5673828 -0.38282,0.3782606 -0.59473,0.8841195 -0.63574,1.5175781"
         id="path5823"
         inkscape:connector-curvature="0" />
      <path
         d="m 625.12292,10.302346 0,-7.2597654 1.10743,0 0,1.1005859 c 0.28255,-0.5149672 0.54231,-0.8544851 0.77929,-1.0185546 0.24154,-0.1640552 0.50586,-0.2460864 0.79297,-0.2460938 0.41471,7.4e-6 0.83626,0.1321688 1.26465,0.3964844 l -0.42383,1.1416015 c -0.30078,-0.1777283 -0.60156,-0.2665954 -0.90234,-0.2666015 -0.26888,6.1e-6 -0.51042,0.082037 -0.72461,0.2460937 -0.2142,0.159511 -0.36686,0.3828181 -0.45801,0.6699219 -0.13672,0.4375048 -0.20508,0.9160199 -0.20508,1.4355469 l 0,3.800781 -1.23047,0"
         id="path5825"
         inkscape:connector-curvature="0" />
      <path
         d="m 629.81921,10.302346 0,-10.02148415 1.23047,0 0,5.71484375 2.91211,-2.953125 1.59278,0 -2.7754,2.6933594 3.05567,4.566406 -1.51758,0 -2.39941,-3.7119138 -0.86817,0.8339843 0,2.8779295 -1.23047,0"
         id="path5827"
         inkscape:connector-curvature="0" />
      <path
         d="m 639.4989,9.2017603 0.17774,1.0869137 c -0.34636,0.07292 -0.65626,0.109375 -0.92969,0.109375 -0.44662,0 -0.79297,-0.07064 -1.03906,-0.211914 -0.2461,-0.141275 -0.41928,-0.3258456 -0.51954,-0.5537106 -0.10026,-0.232421 -0.15039,-0.7177721 -0.15039,-1.4560547 l 0,-4.1767578 -0.90234,0 0,-0.9570313 0.90234,0 0,-1.7978516 1.22364,-0.73828121 0,2.53613281 1.2373,0 0,0.9570313 -1.2373,0 0,4.2451171 c -1e-5,0.3509132 0.0205,0.5764989 0.0615,0.6767579 0.0456,0.1002617 0.11621,0.1800142 0.21191,0.2392578 0.10026,0.059246 0.24154,0.088868 0.42383,0.088867 0.13672,10e-7 0.31673,-0.015949 0.54004,-0.047852"
         id="path5829"
         inkscape:connector-curvature="0" />
      <path
         d="m 645.66492,7.9644556 1.27148,0.1572266 c -0.20053,0.7428399 -0.57195,1.3193368 -1.11426,1.7294922 -0.54232,0.4101566 -1.23503,0.6152346 -2.07812,0.6152346 -1.06185,0 -1.90495,-0.325846 -2.5293,-0.9775393 -0.61979,-0.6562486 -0.92969,-1.5745419 -0.92969,-2.7548828 0,-1.2213494 0.31446,-2.1692651 0.94336,-2.84375 0.62891,-0.6744721 1.44466,-1.0117114 2.44727,-1.0117188 0.9707,7.4e-6 1.76367,0.3304107 2.37891,0.9912109 0.61522,0.6608131 0.92284,1.5904997 0.92285,2.7890625 -1e-5,0.07292 -0.002,0.1822952 -0.007,0.328125 l -5.41406,0 c 0.0456,0.7975286 0.27116,1.4082051 0.67676,1.8320313 0.40559,0.4238292 0.91145,0.635743 1.51757,0.6357422 0.45117,8e-7 0.83626,-0.1184886 1.15528,-0.3554688 0.319,-0.2369777 0.57193,-0.6152325 0.75879,-1.1347656 m -4.04004,-1.9892578 4.05371,0 c -0.0547,-0.6106722 -0.20964,-1.0686795 -0.46484,-1.3740234 -0.39194,-0.4739522 -0.90007,-0.7109311 -1.52442,-0.7109375 -0.56511,6.4e-6 -1.04134,0.1891338 -1.42871,0.5673828 -0.38281,0.3782606 -0.59473,0.8841195 -0.63574,1.5175781"
         id="path5831"
         inkscape:connector-curvature="0" />
      <path
         d="m 653.22546,7.6431665 1.20996,0.1572266 c -0.13216,0.833986 -0.47168,1.4879567 -1.01855,1.9619141 -0.54232,0.4694008 -1.20997,0.7041018 -2.00293,0.7041018 -0.99349,0 -1.7933,-0.323568 -2.39941,-0.9707034 -0.60157,-0.6516912 -0.90235,-1.5836565 -0.90235,-2.7958984 0,-0.7838498 0.12988,-1.4697215 0.38965,-2.0576172 0.25977,-0.5878844 0.65397,-1.0276626 1.18262,-1.319336 0.5332,-0.2962166 1.11197,-0.4443285 1.73633,-0.4443359 0.7884,7.4e-6 1.43326,0.2005281 1.93457,0.6015625 0.50129,0.3964908 0.82258,0.9615944 0.96386,1.6953125 l -1.19629,0.1845703 c -0.11393,-0.4876248 -0.31673,-0.8544864 -0.60839,-1.1005859 -0.28712,-0.2460875 -0.63575,-0.3691342 -1.0459,-0.3691406 -0.6198,6.4e-6 -1.12338,0.2233134 -1.51074,0.6699218 -0.38738,0.4420626 -0.58106,1.1438848 -0.58106,2.1054688 0,0.9752631 0.18685,1.6839212 0.56055,2.1259765 0.37369,0.4420584 0.86132,0.6630868 1.46289,0.663086 0.48307,8e-7 0.88639,-0.148111 1.20996,-0.444336 0.32356,-0.2962223 0.52864,-0.751951 0.61523,-1.3671875"
         id="path5833"
         inkscape:connector-curvature="0" />
      <path
         d="m 655.48816,10.302346 0,-10.02148415 1.23047,0 0,3.59570315 c 0.57421,-0.6653575 1.29882,-0.9980395 2.17383,-0.9980469 0.53775,7.4e-6 1.00487,0.1071037 1.40136,0.3212891 0.39648,0.2096423 0.67903,0.5013087 0.84766,0.875 0.17317,0.3737037 0.25976,0.9160209 0.25977,1.6269531 l 0,4.6005857 -1.23047,0 0,-4.6005857 c -1e-5,-0.6152292 -0.13445,-1.0618433 -0.40332,-1.3398438 -0.26433,-0.2825458 -0.64031,-0.4238217 -1.12793,-0.4238281 -0.36459,6.4e-6 -0.70867,0.095709 -1.03223,0.2871094 -0.31901,0.1868548 -0.54688,0.4420629 -0.68359,0.765625 -0.13672,0.3235727 -0.20508,0.7701868 -0.20508,1.3398437 l 0,3.9716795 -1.23047,0"
         id="path5835"
         inkscape:connector-curvature="0" />
      <path
         d="m 663.28113,10.302346 0,-7.2597654 1.10742,0 0,1.0322266 c 0.5332,-0.797519 1.30338,-1.1962817 2.31055,-1.1962891 0.43749,7.4e-6 0.83853,0.07976 1.20312,0.2392578 0.36914,0.154955 0.64485,0.3600329 0.82715,0.6152344 0.18229,0.2552146 0.30989,0.5582742 0.38281,0.9091797 0.0456,0.22787 0.0684,0.6266326 0.0684,1.196289 l 0,4.463867 -1.23047,0 0,-4.4160154 c 0,-0.5012972 -0.0478,-0.8749947 -0.14355,-1.1210937 -0.0957,-0.2506453 -0.26661,-0.4488873 -0.5127,-0.5947266 -0.24154,-0.1503844 -0.52637,-0.2255796 -0.85449,-0.2255859 -0.52409,6.3e-6 -0.97754,0.1663473 -1.36035,0.4990234 -0.37826,0.3326878 -0.56739,0.9638721 -0.56738,1.8935547 l 0,3.9648435 -1.23047,0"
         id="path5837"
         inkscape:connector-curvature="0" />
      <path
         d="m 671.08093,1.6959009 0,-1.41503905 1.23047,0 0,1.41503905 -1.23047,0 m 0,8.6064451 0,-7.2597654 1.23047,0 0,7.2597654 -1.23047,0"
         id="path5839"
         inkscape:connector-curvature="0" />
      <path
         d="m 674.19812,10.302346 0,-10.02148415 1.23047,0 0,5.71484375 2.91211,-2.953125 1.59277,0 -2.77539,2.6933594 3.05567,4.566406 -1.51758,0 -2.39942,-3.7119138 -0.86816,0.8339843 0,2.8779295 -1.23047,0"
         id="path5841"
         inkscape:connector-curvature="0" />
    </g>
    <g
       style="font-size:14px;font-style:normal;font-variant:normal;font-weight:normal;font-stretch:normal;text-align:start;line-height:125%;letter-spacing:0px;word-spacing:0px;writing-mode:lr-tb;text-anchor:start;fill:#000000;fill-opacity:1;stroke:none;font-family:Arial;-inkscape-font-specification:Arial"
       id="text4285"
       transform="translate(-57.598298,-6)">
      <path
         d="m 747.55145,6.5425882 0,-1.1757812 4.24512,-0.00684 0,3.71875 c -0.6517,0.5195322 -1.3239,0.9114589 -2.0166,1.175781 -0.69272,0.259766 -1.40365,0.389649 -2.13281,0.389649 -0.98438,0 -1.87989,-0.209636 -2.68653,-0.628907 -0.80208,-0.4238268 -1.4082,-1.0345032 -1.81836,-1.8320308 -0.41015,-0.7975229 -0.61523,-1.6884726 -0.61523,-2.6728515 0,-0.9752545 0.2028,-1.8844333 0.6084,-2.7275391 0.41015,-0.8476477 0.99804,-1.4765533 1.76367,-1.88671874 0.76562,-0.41014626 1.64746,-0.61522418 2.64551,-0.61523438 0.7246,1.02e-5 1.37857,0.11849966 1.96191,0.35546875 0.58788,0.23243148 1.04817,0.55827747 1.38086,0.97753907 0.33267,0.4192793 0.5856,0.9661537 0.75879,1.640625 l -1.19629,0.328125 c -0.1504,-0.5104093 -0.33725,-0.9114505 -0.56055,-1.203125 -0.22331,-0.2916583 -0.54232,-0.5240799 -0.95703,-0.6972656 -0.41472,-0.1777254 -0.875,-0.2665925 -1.38086,-0.2666016 -0.60612,9.1e-6 -1.13021,0.093433 -1.57226,0.2802734 -0.44206,0.1823003 -0.79981,0.4238365 -1.07325,0.7246094 -0.26888,0.300789 -0.47851,0.6311923 -0.6289,0.991211 -0.25521,0.6197981 -0.38282,1.2919979 -0.38281,2.0166015 -10e-6,0.8932333 0.15266,1.6406284 0.458,2.2421875 0.3099,0.6015647 0.75879,1.0481789 1.34668,1.3398438 0.58789,0.2916678 1.21224,0.437501 1.87305,0.4375 0.57421,10e-7 1.13476,-0.1093739 1.68164,-0.328125 0.54687,-0.2233057 0.96158,-0.4602847 1.24414,-0.7109375 l 0,-1.866211 -2.94629,0"
         id="path5800"
         inkscape:connector-curvature="0" />
      <path
         d="m 753.57391,10.473252 0,-7.2597653 1.10743,0 0,1.1005859 c 0.28255,-0.5149673 0.54231,-0.8544852 0.77929,-1.0185547 0.24154,-0.1640551 0.50586,-0.2460863 0.79297,-0.2460937 0.41471,7.4e-6 0.83626,0.1321687 1.26465,0.3964843 l -0.42383,1.1416016 c -0.30078,-0.1777283 -0.60156,-0.2665954 -0.90234,-0.2666016 -0.26889,6.2e-6 -0.51042,0.082037 -0.72461,0.2460938 -0.2142,0.159511 -0.36687,0.382818 -0.45801,0.6699219 -0.13672,0.4375048 -0.20508,0.9160199 -0.20508,1.4355468 l 0,3.800781 -1.23047,0"
         id="path5802"
         inkscape:connector-curvature="0" />
      <path
         d="m 763.00067,9.5777445 c -0.45573,0.3873703 -0.89551,0.6608075 -1.31933,0.8203125 -0.41928,0.159505 -0.87045,0.239258 -1.35352,0.239258 -0.79753,0 -1.41048,-0.193685 -1.83887,-0.581055 -0.42838,-0.3919262 -0.64258,-0.8909491 -0.64258,-1.4970702 0,-0.3554665 0.0798,-0.6790339 0.23926,-0.9707031 0.16406,-0.2962208 0.37598,-0.5331997 0.63574,-0.7109375 0.26433,-0.1777306 0.56055,-0.3121706 0.88868,-0.4033203 0.24153,-0.063798 0.60611,-0.1253214 1.09375,-0.1845704 0.99348,-0.1184852 1.72493,-0.2597611 2.19433,-0.4238281 0.005,-0.168615 0.007,-0.2757112 0.007,-0.321289 -10e-6,-0.5012967 -0.11622,-0.8544864 -0.34863,-1.0595704 -0.31446,-0.2779885 -0.78158,-0.4169857 -1.40137,-0.4169921 -0.57878,6.4e-6 -1.00717,0.1025453 -1.28516,0.3076171 -0.27344,0.2005268 -0.47624,0.5582738 -0.6084,1.0732422 l -1.20312,-0.1640625 c 0.10937,-0.5149682 0.28939,-0.9296813 0.54004,-1.2441406 0.25065,-0.3190037 0.61295,-0.5628185 1.08691,-0.7314453 0.47396,-0.1731697 1.02311,-0.2597582 1.64746,-0.2597656 0.61979,7.4e-6 1.12337,0.072924 1.51074,0.21875 0.38737,0.1458404 0.6722,0.3304105 0.8545,0.5537109 0.18228,0.2187564 0.30989,0.496751 0.38281,0.8339844 0.041,0.209641 0.0615,0.5878958 0.0615,1.1347656 l 0,1.640625 c 0,1.1438821 0.0251,1.8684908 0.0752,2.1738281 0.0547,0.3007819 0.1595,0.5901698 0.31445,0.8681638 l -1.28515,0 c -0.12761,-0.255208 -0.20965,-0.5537101 -0.2461,-0.8955075 m -0.10254,-2.7480469 c -0.44662,0.1822951 -1.11654,0.3372429 -2.00976,0.4648438 -0.50587,0.07292 -0.86361,0.1549509 -1.07325,0.2460937 -0.20963,0.091149 -0.37142,0.2255887 -0.48535,0.4033203 -0.11393,0.1731795 -0.1709,0.3668642 -0.1709,0.5810547 0,0.3281266 0.12305,0.6015639 0.36915,0.8203125 0.25064,0.2187509 0.61523,0.3281258 1.09375,0.328125 0.47395,8e-7 0.8955,-0.1025382 1.26464,-0.3076172 0.36914,-0.2096341 0.6403,-0.4944645 0.81348,-0.8544922 0.13216,-0.2779925 0.19824,-0.6881484 0.19824,-1.2304687 l 0,-0.4511719"
         id="path5804"
         inkscape:connector-curvature="0" />
      <path
         d="m 766.35028,10.473252 0,-6.3027341 -1.08691,0 0,-0.9570312 1.08691,0 0,-0.772461 c 0,-0.4876217 0.0433,-0.849926 0.12988,-1.086914 0.11849,-0.319001 0.32585,-0.57648773 0.62207,-0.77246097 0.30078,-0.20051074 0.72005,-0.30077105 1.25782,-0.30078125 0.34635,1.02e-5 0.72916,0.0410258 1.14843,0.12304688 l -0.18457,1.07324214 c -0.25521,-0.045564 -0.49674,-0.06835 -0.72461,-0.068359 -0.3737,9e-6 -0.63802,0.079762 -0.79296,0.2392578 -0.15495,0.1595139 -0.23243,0.4580162 -0.23243,0.8955078 l 0,0.6699219 1.41504,0 0,0.9570312 -1.41504,0 0,6.3027338 -1.22363,0"
         id="path5806"
         inkscape:connector-curvature="0" />
      <path
         d="m 769.94598,1.866807 0,-1.41503908 1.23047,0 0,1.41503908 -1.23047,0 m 0,8.606445 0,-7.2597653 1.23047,0 0,7.2597653 -1.23047,0"
         id="path5808"
         inkscape:connector-curvature="0" />
      <path
         d="m 773.06317,10.473252 0,-10.02148408 1.23047,0 0,5.71484378 2.91211,-2.953125 1.59277,0 -2.77539,2.6933593 3.05567,4.566406 -1.51758,0 -2.39942,-3.7119138 -0.86816,0.8339844 0,2.8779294 -1.23047,0"
         id="path5810"
         inkscape:connector-curvature="0" />
    </g>
    <path
       sodipodi:type="arc"
       style="fill:#7fb619;fill-opacity:1;fill-rule:nonzero;stroke:none"
       id="path7418"
       sodipodi:cx="75.793007"
       sodipodi:cy="-15.549014"
       sodipodi:rx="3.7565048"
       sodipodi:ry="3.7565048"
       d="m 79.549512,-15.549014 c 0,2.07466 -1.681845,3.756505 -3.756505,3.756505 -2.07466,0 -3.756505,-1.681845 -3.756505,-3.756505 0,-2.07466 1.681845,-3.756505 3.756505,-3.756505 2.07466,0 3.756505,1.681845 3.756505,3.756505 z"
       transform="matrix(0.84705883,0,0,0.84705883,122.21983,12.544565)" />
    <path
       transform="matrix(0.84705883,0,0,0.84705883,221.6623,12.544565)"
       d="m 79.549512,-15.549014 c 0,2.07466 -1.681845,3.756505 -3.756505,3.756505 -2.07466,0 -3.756505,-1.681845 -3.756505,-3.756505 0,-2.07466 1.681845,-3.756505 3.756505,-3.756505 2.07466,0 3.756505,1.681845 3.756505,3.756505 z"
       sodipodi:ry="3.7565048"
       sodipodi:rx="3.7565048"
       sodipodi:cy="-15.549014"
       sodipodi:cx="75.793007"
       id="path7420"
       style="fill:#7fb619;fill-opacity:1;fill-rule:nonzero;stroke:none"
       sodipodi:type="arc" />
    <path
       sodipodi:type="arc"
       style="fill:#7fb619;fill-opacity:1;fill-rule:nonzero;stroke:none"
       id="path7422"
       sodipodi:cx="75.793007"
       sodipodi:cy="-15.549014"
       sodipodi:rx="3.7565048"
       sodipodi:ry="3.7565048"
       d="m 79.549512,-15.549014 c 0,2.07466 -1.681845,3.756505 -3.756505,3.756505 -2.07466,0 -3.756505,-1.681845 -3.756505,-3.756505 0,-2.07466 1.681845,-3.756505 3.756505,-3.756505 2.07466,0 3.756505,1.681845 3.756505,3.756505 z"
       transform="matrix(0.84705883,0,0,0.84705883,316.12821,12.544565)" />
    <path
       transform="matrix(0.84705883,0,0,0.84705883,458.50044,12.544565)"
       d="m 79.549512,-15.549014 c 0,2.07466 -1.681845,3.756505 -3.756505,3.756505 -2.07466,0 -3.756505,-1.681845 -3.756505,-3.756505 0,-2.07466 1.681845,-3.756505 3.756505,-3.756505 2.07466,0 3.756505,1.681845 3.756505,3.756505 z"
       sodipodi:ry="3.7565048"
       sodipodi:rx="3.7565048"
       sodipodi:cy="-15.549014"
       sodipodi:cx="75.793007"
       id="path7424"
       style="fill:#7fb619;fill-opacity:1;fill-rule:nonzero;stroke:none"
       sodipodi:type="arc" />
    <path
       sodipodi:type="arc"
       style="fill:#7fb619;fill-opacity:1;fill-rule:nonzero;stroke:none"
       id="path7426"
       sodipodi:cx="75.793007"
       sodipodi:cy="-15.549014"
       sodipodi:rx="3.7565048"
       sodipodi:ry="3.7565048"
       d="m 79.549512,-15.549014 c 0,2.07466 -1.681845,3.756505 -3.756505,3.756505 -2.07466,0 -3.756505,-1.681845 -3.756505,-3.756505 0,-2.07466 1.681845,-3.756505 3.756505,-3.756505 2.07466,0 3.756505,1.681845 3.756505,3.756505 z"
       transform="matrix(0.84705883,0,0,0.84705883,600.5308,12.544565)" />
    <path
       style="fill:none;stroke:#000000;stroke-width:1px;stroke-linecap:butt;stroke-linejoin:miter;stroke-opacity:1"
       d="m 119.98,10.180415 602.12497,0"
       id="path3462"
       inkscape:connector-curvature="0"
       sodipodi:nodetypes="cc" />
    <text
       xml:space="preserve"
       style="font-size:16px;font-style:normal;font-variant:normal;font-weight:normal;font-stretch:normal;text-align:start;line-height:125%;letter-spacing:0px;word-spacing:0px;writing-mode:lr-tb;text-anchor:start;fill:#000000;fill-opacity:1;stroke:none;font-family:Arial;-inkscape-font-specification:Arial"
       x="500.99997"
       y="44.779526"
       id="text10201"
       sodipodi:linespacing="125%"
       transform="translate(49.105,-15.099113)"><tspan
         sodipodi:role="line"
         id="tspan10203"
         x="500.99997"
         y="44.779526" /></text>
  </g>
</svg>
