<?xml version="1.0" encoding="UTF-8" standalone="no"?>
<!-- Created with Inkscape (http://www.inkscape.org/) -->

<svg
   xmlns:dc="http://purl.org/dc/elements/1.1/"
   xmlns:cc="http://creativecommons.org/ns#"
   xmlns:rdf="http://www.w3.org/1999/02/22-rdf-syntax-ns#"
   xmlns:svg="http://www.w3.org/2000/svg"
   xmlns="http://www.w3.org/2000/svg"
   xmlns:sodipodi="http://sodipodi.sourceforge.net/DTD/sodipodi-0.dtd"
   xmlns:inkscape="http://www.inkscape.org/namespaces/inkscape"
   width="602.36218"
   height="44.645668"
   id="svg2"
   version="1.1"
   inkscape:version="0.48.3.1 r9886"
   sodipodi:docname="header.svg"
   inkscape:export-filename="/home/martin/Work/openerp/addons-custom-funkring/funkring/report/header.png"
   inkscape:export-xdpi="300"
   inkscape:export-ydpi="300">
  <defs
     id="defs4">
    <inkscape:perspective
       sodipodi:type="inkscape:persp3d"
       inkscape:vp_x="0 : 526.18109 : 1"
       inkscape:vp_y="0 : 1000 : 0"
       inkscape:vp_z="744.09448 : 526.18109 : 1"
       inkscape:persp3d-origin="372.04724 : 350.78739 : 1"
       id="perspective10" />
    <inkscape:perspective
       sodipodi:type="inkscape:persp3d"
       inkscape:vp_x="0 : 287.4765 : 1"
       inkscape:vp_y="0 : 1000 : 0"
       inkscape:vp_z="983.45599 : 287.4765 : 1"
       inkscape:persp3d-origin="491.728 : 191.651 : 1"
       id="perspective88" />
    <inkscape:perspective
       id="perspective2627"
       inkscape:persp3d-origin="372.04724 : 350.78739 : 1"
       inkscape:vp_z="744.09448 : 526.18109 : 1"
       inkscape:vp_y="0 : 1000 : 0"
       inkscape:vp_x="0 : 526.18109 : 1"
       sodipodi:type="inkscape:persp3d" />
  </defs>
  <sodipodi:namedview
     id="base"
     pagecolor="#ffffff"
     bordercolor="#666666"
     borderopacity="1.0"
     inkscape:pageopacity="0.0"
     inkscape:pageshadow="2"
     inkscape:zoom="1.4142136"
     inkscape:cx="-30.432672"
     inkscape:cy="-1.4831725"
     inkscape:document-units="mm"
     inkscape:current-layer="layer1"
     showgrid="false"
     inkscape:window-width="1920"
     inkscape:window-height="1147"
     inkscape:window-x="1920"
     inkscape:window-y="25"
     inkscape:window-maximized="1"
     showguides="true"
     inkscape:guide-bbox="true"
     fit-margin-top="0"
     fit-margin-left="0"
     fit-margin-right="0"
     fit-margin-bottom="0"
     units="cm"
     inkscape:showpageshadow="false"
     inkscape:snap-global="false">
    <sodipodi:guide
       orientation="0,1"
       position="-96.843749,0.50195019"
       id="guide4043" />
    <sodipodi:guide
       orientation="1,0"
       position="0.15625,225.00195"
       id="guide3049" />
    <sodipodi:guide
       orientation="1,0"
       position="602.15625,229.50195"
       id="guide3051" />
  </sodipodi:namedview>
  <metadata
     id="metadata7">
    <rdf:RDF>
      <cc:Work
         rdf:about="">
        <dc:format>image/svg+xml</dc:format>
        <dc:type
           rdf:resource="http://purl.org/dc/dcmitype/StillImage" />
        <dc:title></dc:title>
      </cc:Work>
    </rdf:RDF>
  </metadata>
  <g
     inkscape:label="Ebene 1"
     inkscape:groupmode="layer"
     id="layer1"
     transform="translate(-119.94875,2.4635317)">
    <text
       xml:space="preserve"
       style="font-size:10px;font-style:normal;font-variant:normal;font-weight:normal;font-stretch:normal;text-align:start;line-height:125%;letter-spacing:0px;word-spacing:0px;writing-mode:lr-tb;text-anchor:start;fill:#000000;fill-opacity:1;stroke:none;font-family:Arial;-inkscape-font-specification:Arial"
       x="239.51233"
       y="70.892891"
       id="text3154"
       sodipodi:linespacing="125%"><tspan
         sodipodi:role="line"
         id="tspan3156"
         x="239.51233"
         y="70.892891" /></text>
    <text
       xml:space="preserve"
       style="font-size:10px;font-style:normal;font-variant:normal;font-weight:normal;font-stretch:normal;text-align:start;line-height:125%;letter-spacing:0px;word-spacing:0px;writing-mode:lr-tb;text-anchor:start;fill:#000000;fill-opacity:1;stroke:none;font-family:Arial;-inkscape-font-specification:Arial"
       x="260.37198"
       y="77.963959"
       id="text3158"
       sodipodi:linespacing="125%"><tspan
         sodipodi:role="line"
         id="tspan3162"
         x="260.37198"
         y="77.963959" /></text>
    <path
       inkscape:connector-curvature="0"
       style="font-size:10px;font-style:normal;font-variant:normal;font-weight:normal;font-stretch:normal;text-align:start;line-height:125%;writing-mode:lr-tb;text-anchor:start;fill:none;stroke:#000000;stroke-width:0.22445618;font-family:DejaVu Sans;-inkscape-font-specification:DejaVu Sans"
       id="path33"
       d="" />
    <path
       inkscape:connector-curvature="0"
       style="font-size:10px;font-style:normal;font-variant:normal;font-weight:normal;font-stretch:normal;text-align:start;line-height:125%;writing-mode:lr-tb;text-anchor:start;fill:none;stroke:#000000;stroke-width:0.22445618;font-family:DejaVu Sans;-inkscape-font-specification:DejaVu Sans"
       id="path35"
       d="" />
    <path
       inkscape:connector-curvature="0"
       style="font-size:10px;font-style:normal;font-variant:normal;font-weight:normal;font-stretch:normal;text-align:start;line-height:125%;writing-mode:lr-tb;text-anchor:start;fill:none;stroke:#000000;stroke-width:0.22445618;font-family:DejaVu Sans;-inkscape-font-specification:DejaVu Sans"
       id="path37"
       d="" />
    <path
       inkscape:connector-curvature="0"
       style="font-size:10px;font-style:normal;font-variant:normal;font-weight:normal;font-stretch:normal;text-align:start;line-height:125%;writing-mode:lr-tb;text-anchor:start;fill:none;stroke:#000000;stroke-width:0.22445618;font-family:DejaVu Sans;-inkscape-font-specification:DejaVu Sans"
       id="path41"
       d="" />
    <path
       inkscape:connector-curvature="0"
       style="font-size:10px;font-style:normal;font-variant:normal;font-weight:normal;font-stretch:normal;text-align:start;line-height:125%;writing-mode:lr-tb;text-anchor:start;fill:none;stroke:#000000;stroke-width:0.22445618;font-family:DejaVu Sans;-inkscape-font-specification:DejaVu Sans"
       id="path43"
       d="" />
    <path
       inkscape:connector-curvature="0"
       style="font-size:10px;font-style:normal;font-variant:normal;font-weight:normal;font-stretch:normal;text-align:start;line-height:125%;writing-mode:lr-tb;text-anchor:start;fill:none;stroke:#000000;stroke-width:0.22445618;font-family:DejaVu Sans;-inkscape-font-specification:DejaVu Sans"
       id="path45"
       d="" />
    <path
       inkscape:connector-curvature="0"
       style="font-size:10px;font-style:normal;font-variant:normal;font-weight:normal;font-stretch:normal;text-align:start;line-height:125%;writing-mode:lr-tb;text-anchor:start;fill:none;stroke:#000000;stroke-width:0.22445618;font-family:DejaVu Sans;-inkscape-font-specification:DejaVu Sans"
       id="path47"
       d="" />
    <path
       inkscape:connector-curvature="0"
       style="font-size:10px;font-style:normal;font-variant:normal;font-weight:normal;font-stretch:normal;text-align:start;line-height:125%;writing-mode:lr-tb;text-anchor:start;fill:none;stroke:#000000;stroke-width:0.22445618;font-family:DejaVu Sans;-inkscape-font-specification:DejaVu Sans"
       id="path49"
       d="" />
    <path
       inkscape:connector-curvature="0"
       style="font-size:10px;font-style:normal;font-variant:normal;font-weight:normal;font-stretch:normal;text-align:start;line-height:125%;writing-mode:lr-tb;text-anchor:start;fill:none;stroke:#000000;stroke-width:0.22445618;font-family:DejaVu Sans;-inkscape-font-specification:DejaVu Sans"
       id="path51"
       d="" />
    <path
       inkscape:connector-curvature="0"
       style="font-size:10px;font-style:normal;font-variant:normal;font-weight:normal;font-stretch:normal;text-align:start;line-height:125%;writing-mode:lr-tb;text-anchor:start;fill:none;stroke:#000000;stroke-width:0.22445618;font-family:DejaVu Sans;-inkscape-font-specification:DejaVu Sans"
       id="path53"
       d="" />
    <path
       inkscape:connector-curvature="0"
       style="font-size:10px;font-style:normal;font-variant:normal;font-weight:normal;font-stretch:normal;text-align:start;line-height:125%;writing-mode:lr-tb;text-anchor:start;fill:none;stroke:#000000;stroke-width:0.22445618;font-family:DejaVu Sans;-inkscape-font-specification:DejaVu Sans"
       id="path55"
       d="" />
    <path
       inkscape:connector-curvature="0"
       style="font-size:10px;font-style:normal;font-variant:normal;font-weight:normal;font-stretch:normal;text-align:start;line-height:125%;writing-mode:lr-tb;text-anchor:start;fill:none;stroke:#000000;stroke-width:0.22445618;font-family:DejaVu Sans;-inkscape-font-specification:DejaVu Sans"
       id="path57"
       d="" />
    <path
       style="font-size:10px;font-style:normal;font-variant:normal;font-weight:normal;font-stretch:normal;text-align:start;line-height:125%;writing-mode:lr-tb;text-anchor:start;fill:#000000;fill-opacity:1;stroke:none;font-family:DejaVu Sans;-inkscape-font-specification:DejaVu Sans"
       inkscape:connector-curvature="0"
       id="path61"
       d="" />
    <path
       inkscape:connector-curvature="0"
       style="font-size:10px;font-style:normal;font-variant:normal;font-weight:normal;font-stretch:normal;text-align:start;line-height:125%;writing-mode:lr-tb;text-anchor:start;fill:none;stroke:#abc716;stroke-width:0.22445618;font-family:DejaVu Sans;-inkscape-font-specification:DejaVu Sans"
       id="path73"
       d="" />
    <path
       inkscape:connector-curvature="0"
       style="font-size:10px;font-style:normal;font-variant:normal;font-weight:normal;font-stretch:normal;text-align:start;line-height:125%;writing-mode:lr-tb;text-anchor:start;fill:none;stroke:#abc716;stroke-width:0.14963745;font-family:DejaVu Sans;-inkscape-font-specification:DejaVu Sans"
       id="path75"
       d="" />
    <path
       inkscape:connector-curvature="0"
       style="font-size:10px;font-style:normal;font-variant:normal;font-weight:normal;font-stretch:normal;text-align:start;line-height:125%;writing-mode:lr-tb;text-anchor:start;fill:none;stroke:#abc716;stroke-width:0.14963745;font-family:DejaVu Sans;-inkscape-font-specification:DejaVu Sans"
       id="path79"
       d="" />
    <g
       style="font-size:10px;font-style:normal;font-variant:normal;font-weight:normal;font-stretch:normal;text-align:start;line-height:125%;writing-mode:lr-tb;text-anchor:start;fill:#000000;fill-opacity:1;stroke:none;font-family:DejaVu Sans;-inkscape-font-specification:DejaVu Sans"
       inkscape:export-ydpi="300"
       inkscape:export-xdpi="300"
       inkscape:export-filename="/home/martin/Work/openerp/addons-custom-funkring/funkring/report/header.png"
       transform="translate(71.73026,2.25)"
       id="g4117">
      <path
         inkscape:connector-curvature="0"
         d="m 95.378549,22.362282 c 0,-1.211649 -0.05301,-2.120282 -0.105597,-3.166233 l 1.166156,0 0.105595,2.395335 0.05301,0 c 0.689092,-1.486702 2.279721,-2.697933 4.374127,-2.697933 1.21958,0 4.42713,0.633162 4.42713,5.588696 l 0,7.929772 -1.24588,0 0,-7.819167 c 0,-2.395335 -0.90153,-4.570293 -3.52601,-4.570293 -1.802236,0 -3.313563,1.32142 -3.817339,3.028498 -0.106014,0.330564 -0.185733,0.771315 -0.185733,1.183684 l 0,8.177278 -1.245874,0 0,-10.049637 4.08e-4,0 z"
         id="path9" />
      <path
         inkscape:connector-curvature="0"
         d="m 117.74043,23.160727 c 0,-1.321837 -0.053,-2.698352 -0.10601,-3.964678 l 1.16615,0 0.053,2.670388 0.0526,0 c 0.55678,-1.651984 1.88196,-2.973404 3.63203,-2.973404 0.15902,0 0.34475,0.02755 0.50377,0.05468 l 0,1.266744 c -0.18531,-0.05509 -0.37105,-0.05509 -0.60937,-0.05509 -1.74965,0 -2.99553,1.569343 -3.34028,3.689207 -0.053,0.38524 -0.10601,0.825993 -0.10601,1.266326 l 0,7.296192 -1.24588,0 0,-9.250357 0,0 z"
         id="path11" />
      <path
         inkscape:connector-curvature="0"
         d="m 126.97159,15.841579 c 0,0.606033 -0.39776,1.129009 -1.06014,1.129009 -0.58308,0 -0.98126,-0.522976 -0.98126,-1.129009 0,-0.605615 0.45077,-1.156555 1.03385,-1.156555 0.60979,0 1.00755,0.522975 1.00755,1.156555 z"
         id="path13" />
      <path
         inkscape:connector-curvature="0"
         d="m 125.32792,19.196003 1.24587,0 0,13.215869 -1.24587,0 0,-13.215869 z"
         id="rect15" />
      <path
         inkscape:connector-curvature="0"
         d="m 128.99212,22.362282 c 0,-1.211649 -0.053,-2.120282 -0.10602,-3.166233 l 1.16616,0 0.10601,2.395335 0.053,0 c 0.68909,-1.486702 2.27972,-2.697933 4.37371,-2.697933 1.21958,0 4.42713,0.633162 4.42713,5.588696 l 0,7.929772 -1.24587,0 0,-7.819167 c 0,-2.395335 -0.90154,-4.570293 -3.52602,-4.570293 -1.80265,0 -3.31356,1.32142 -3.81734,3.028498 -0.10643,0.330564 -0.18573,0.771315 -0.18573,1.183684 l 0,8.177278 -1.24588,0 0,-10.049637 8.2e-4,0 z"
         id="path17" />
      <path
         inkscape:connector-curvature="0"
         d="m 151.65702,30.484048 c 0,3.386191 -0.6628,5.066139 -1.72336,6.11209 -1.16615,1.156555 -2.88951,1.569759 -4.32112,1.569759 -1.4579,0 -3.07524,-0.385657 -4.02937,-1.128591 l 0.45077,-1.046785 c 0.87482,0.578486 2.12112,1.101461 3.76475,1.101461 2.67707,0 4.61245,-1.459155 4.61245,-5.368738 l 0,-1.871942 -0.053,0 c -0.66279,1.34855 -2.14741,2.560617 -4.42713,2.560617 -3.20755,0 -5.46098,-2.89118 -5.46098,-6.497747 0,-4.59784 2.91623,-7.020721 5.72602,-7.020721 2.51846,0 3.76433,1.431607 4.29482,2.532651 l 0.053,0 0.0526,-2.230053 1.16657,0 c -0.053,0.991275 -0.1056,2.037642 -0.1056,3.414156 l 0,7.873843 -4.1e-4,0 z m -1.24588,-6.222278 c 0,-0.468298 -0.053,-0.881084 -0.15944,-1.266325 -0.53007,-1.59689 -1.88154,-3.028498 -3.94965,-3.028498 -2.70378,0 -4.55944,2.312694 -4.55944,5.808656 0,2.973821 1.51133,5.534019 4.50685,5.534019 1.69664,0 3.28686,-1.073914 3.92336,-2.97382 0.15902,-0.440335 0.23832,-0.93618 0.23832,-1.404061 l 0,-2.669971 0,0 z"
         id="path19" />
      <path
         inkscape:connector-curvature="0"
         d="m 159.58762,30.460258 c 0,0.984595 -0.67072,1.834795 -1.78972,1.834795 -0.98417,0 -1.65574,-0.8502 -1.65574,-1.834795 0,-0.984178 0.76088,-1.879039 1.74506,-1.879039 1.02968,0 1.7004,0.850201 1.7004,1.879039 z"
         id="path21"
         style="fill:#80b71b" />
      <path
         inkscape:connector-curvature="0"
         d="m 163.95549,22.362282 c 0,-1.211649 -0.0534,-2.119865 -0.10602,-3.166233 l 1.16616,0 0.10601,2.395335 0.053,0 c 0.68951,-1.486702 2.27972,-2.697933 4.37413,-2.697933 1.21916,0 4.42671,0.633162 4.42671,5.588696 l 0,7.929772 -1.24546,0 0,-7.819585 c 0,-2.395334 -0.90153,-4.570292 -3.52601,-4.570292 -1.80266,0 -3.31398,1.321837 -3.81734,3.028497 -0.10602,0.330564 -0.18532,0.771315 -0.18532,1.183685 l 0,8.177695 -1.24587,0 0,-10.049637 z"
         id="path23" />
      <path
         inkscape:connector-curvature="0"
         d="m 176.89505,25.248454 c 0,4.23973 2.22713,5.891713 4.85119,5.891713 1.85567,0 2.81021,-0.385241 3.52601,-0.742934 l 0.31805,1.045533 c -0.47749,0.27547 -1.77637,0.853539 -4.00308,0.853539 -3.65832,0 -5.93804,-2.780575 -5.93804,-6.662611 0,-4.405012 2.43832,-7.158039 5.72601,-7.158039 4.1621,0 4.9572,4.074864 4.9572,5.974354 0,0.358111 0,0.578069 -0.0526,0.798445 l -9.38475,0 0,0 z m 8.11175,-1.045951 c 0.0263,-1.844813 -0.71622,-4.652934 -3.79063,-4.652934 -2.81021,0 -4.03021,2.615292 -4.24182,4.652934 l 8.03245,0 z"
         id="path25" />
      <path
         inkscape:connector-curvature="0"
         d="m 190.48447,14.600296 0,3.142024 3.63203,0 0,1.126923 -3.63203,0 0,9.247852 c 0,1.808083 0.50378,2.964221 1.85567,2.964221 0.66321,0 1.13944,-0.118952 1.45748,-0.237071 l 0.15944,1.096453 c -0.42405,0.207856 -1.00713,0.356025 -1.77594,0.356025 -0.92825,0 -1.69665,-0.356025 -2.17413,-1.037186 -0.58266,-0.741264 -0.79468,-1.927037 -0.79468,-3.379095 l 0,-9.010782 -2.14783,0 0,-1.126922 2.14783,0 0,-2.608615 1.27216,-0.533827 z"
         id="path27" />
      <path
         inkscape:connector-curvature="0"
         style="font-size:medium;font-style:normal;font-variant:normal;font-weight:normal;font-stretch:normal;text-indent:0;text-align:start;text-decoration:none;line-height:normal;letter-spacing:normal;word-spacing:normal;text-transform:none;direction:ltr;block-progression:tb;writing-mode:lr-tb;text-anchor:start;color:#000000;fill:#80b71b;fill-opacity:1;stroke:none;stroke-width:15.34480572;marker:none;visibility:visible;display:inline;overflow:visible;enable-background:accumulate;font-family:Bitstream Vera Sans;-inkscape-font-specification:Bitstream Vera Sans"
         d="m 65.351226,3.0027775 c -9.241764,0 -16.757736,7.5117225 -16.757736,16.7534865 0,9.241764 7.515972,16.757736 16.757736,16.757736 9.241767,0 16.753486,-7.515974 16.753486,-16.757736 0,-9.241762 -7.511719,-16.7534865 -16.753486,-16.7534865 z m 0,2.0867483 c 8.113928,0 14.666738,6.5528152 14.666738,14.6667382 0,8.113923 -6.55281,14.670988 -14.666738,14.670988 -8.113923,0 -14.670988,-6.557066 -14.670988,-14.670988 0,-8.113922 6.557065,-14.6667382 14.670988,-14.6667382 z"
         id="circle31" />
      <path
         inkscape:connector-curvature="0"
         d="m 60.250314,0.05340775 c 1.422008,-0.27547049 2.900363,-0.42030086 4.418368,-0.42030086 10.234118,0 18.688952,6.59958781 20.006615,15.15375811"
         id="path67"
         style="fill:none;stroke:#80b71b;stroke-width:1.25213516" />
      <path
         inkscape:connector-curvature="0"
         d="m 93.830492,28.772797 c 0,1.156555 0.05259,2.202506 0.106014,3.221326 l -1.166572,0 -0.0793,-2.340241 -0.05301,0 c -0.636085,1.211232 -2.093987,2.642841 -4.373709,2.642841 -1.61734,0 -4.321118,-0.825993 -4.321118,-5.836621 l 0,-7.681431 1.245875,0 0,7.433927 c 0,2.863215 0.874825,4.927986 3.393286,4.927986 1.855664,0 3.207553,-1.348967 3.738041,-2.670387 0.132309,-0.412787 0.265035,-0.935762 0.265035,-1.459155 l 0,-8.231954 1.245875,0 0,9.993709 -4.08e-4,0 z"
         id="path69" />
      <path
         inkscape:connector-curvature="0"
         d="m 71.370944,-3.0777653 c 5.517325,1.1365211 10.230362,4.478052 13.176218,9.0625363"
         id="path71"
         style="fill:none;stroke:#80b71b;stroke-width:0.83475673" />
      <path
         inkscape:connector-curvature="0"
         d="m 78.451351,-4.39209 c 2.153672,1.0071336 4.120777,2.3460838 5.835367,3.95132175"
         id="path77"
         style="fill:none;stroke:#80b71b;stroke-width:0.41737837" />
      <path
         inkscape:connector-curvature="0"
         d="m 110.40584,24.674976 5.14294,-5.478927 -1.53763,0 -4.48014,4.900858 c -0.39776,0.440334 -0.92783,1.04595 -1.24587,1.459154 l -0.053,0 0,-10.747076 -1.24587,0 0,17.602516 1.24587,0 0,-5.50689 1.29888,-1.431608 5.19595,6.938498 1.53762,0 -5.85874,-7.736525 z"
         id="path81" />
      <path
         inkscape:connector-curvature="0"
         style="fill:#000000;fill-opacity:1;stroke:none"
         d="m 62.171261,32.210591 0,-10.657929 9.324567,0 -0.02816,-2.570186 -9.296411,0.01077 0,-7.511393 10.200512,0 -0.05251,-2.5585905 -13.067343,0 0,23.2873255 2.919339,0 z"
         id="path3658" />
    </g>
    <text
       inkscape:export-ydpi="300"
       inkscape:export-xdpi="300"
       inkscape:export-filename="/home/martin/Work/openerp/addons-custom-funkring/funkring/report/header.png"
       sodipodi:linespacing="125%"
       id="text3340"
       y="11.459837"
       x="720.97998"
       style="font-size:10px;font-style:normal;font-variant:normal;font-weight:normal;font-stretch:normal;text-align:end;line-height:125%;letter-spacing:0px;word-spacing:0px;writing-mode:lr-tb;text-anchor:end;fill:#4d4d4d;fill-opacity:1;stroke:none;font-family:Arial;-inkscape-font-specification:Arial"
       xml:space="preserve"><tspan
         y="11.459837"
         x="720.97998"
         id="tspan3342"
         sodipodi:role="line">Martin Reisenhofer</tspan><tspan
         id="tspan3344"
         y="23.959837"
         x="720.97998"
         sodipodi:role="line">Unterrohr 10</tspan><tspan
         id="tspan3346"
         y="36.459839"
         x="720.97998"
         sodipodi:role="line">8294 Rohr bei Hartberg</tspan></text>
    <g
       id="g3470"
       transform="translate(90.160706,0)"
       style="fill:#4d4d4d"
       inkscape:export-filename="/home/martin/Work/openerp/addons-custom-funkring/funkring/report/header.png"
       inkscape:export-xdpi="300"
       inkscape:export-ydpi="300">
      <text
         xml:space="preserve"
         style="font-size:10px;font-style:normal;font-variant:normal;font-weight:normal;font-stretch:normal;text-align:start;line-height:125%;letter-spacing:0px;word-spacing:0px;writing-mode:lr-tb;text-anchor:start;fill:#4d4d4d;fill-opacity:1;stroke:none;font-family:Arial;-inkscape-font-specification:Arial"
         x="362.43826"
         y="23.96277"
         id="text3361"
         sodipodi:linespacing="125%"><tspan
           sodipodi:role="line"
           x="362.43826"
           y="23.96277"
           id="tspan3365">Tel </tspan><tspan
           sodipodi:role="line"
           x="362.43826"
           y="36.462769"
           id="tspan3369">Fax</tspan></text>
      <text
         xml:space="preserve"
         style="font-size:10px;font-style:normal;font-variant:normal;font-weight:normal;font-stretch:normal;text-align:start;line-height:125%;letter-spacing:0px;word-spacing:0px;writing-mode:lr-tb;text-anchor:start;fill:#4d4d4d;fill-opacity:1;stroke:none;font-family:Arial;-inkscape-font-specification:Arial"
         x="382.43829"
         y="23.959837"
         id="text3371"
         sodipodi:linespacing="125%"><tspan
           sodipodi:role="line"
           id="tspan3373"
           x="382.43829"
           y="23.959837">+43 (0) 3332 86927</tspan><tspan
           sodipodi:role="line"
           x="382.43829"
           y="36.459839"
           id="tspan3375">+43 (0) 3332 86927 99</tspan></text>
    </g>
    <text
       sodipodi:linespacing="125%"
       id="text3377"
       y="23.959837"
       x="308.61252"
       style="font-size:10px;font-style:normal;font-variant:normal;font-weight:normal;font-stretch:normal;text-align:start;line-height:125%;letter-spacing:0px;word-spacing:0px;writing-mode:lr-tb;text-anchor:start;fill:#4d4d4d;fill-opacity:1;stroke:none;font-family:Arial;-inkscape-font-specification:Arial"
       xml:space="preserve"
       inkscape:export-filename="/home/martin/Work/openerp/addons-custom-funkring/funkring/report/header.png"
       inkscape:export-xdpi="300"
       inkscape:export-ydpi="300"><tspan
         y="23.959837"
         x="308.61252"
         id="tspan3379"
         sodipodi:role="line">office@funkring.net</tspan><tspan
         id="tspan3381"
         y="36.459839"
         x="308.61252"
         sodipodi:role="line">http://www.funkring.net</tspan></text>
    <path
       style="fill:none;stroke:#000000;stroke-width:1px;stroke-linecap:butt;stroke-linejoin:miter;stroke-opacity:1"
       d="m 70.84375,56.779526 602.03125,0"
       id="path3462"
       inkscape:connector-curvature="0"
       sodipodi:nodetypes="cc"
       transform="translate(49.105,-15.099113)"
       inkscape:export-filename="/home/martin/Work/openerp/addons-custom-funkring/funkring/report/header.png"
       inkscape:export-xdpi="300"
       inkscape:export-ydpi="300" />
  </g>
</svg>
