<?xml version="1.0" encoding="UTF-8" standalone="no"?>
<!-- Created with Inkscape (http://www.inkscape.org/) -->

<svg
   xmlns:dc="http://purl.org/dc/elements/1.1/"
   xmlns:cc="http://creativecommons.org/ns#"
   xmlns:rdf="http://www.w3.org/1999/02/22-rdf-syntax-ns#"
   xmlns:svg="http://www.w3.org/2000/svg"
   xmlns="http://www.w3.org/2000/svg"
   xmlns:xlink="http://www.w3.org/1999/xlink"
   xmlns:sodipodi="http://sodipodi.sourceforge.net/DTD/sodipodi-0.dtd"
   xmlns:inkscape="http://www.inkscape.org/namespaces/inkscape"
   width="128"
   height="128"
   id="svg12137"
   version="1.1"
   inkscape:version="0.48.3.1 r9886"
   sodipodi:docname="icon.svg"
   inkscape:export-filename="/home/martin/Work/openerp-merge/addons-custom-funkring/posix_net/static/description/icon.png"
   inkscape:export-xdpi="90"
   inkscape:export-ydpi="90">
  <defs
     id="defs12139">
    <linearGradient
       id="path10531-8_1_"
       gradientUnits="userSpaceOnUse"
       x1="404.85861"
       y1="441.08801"
       x2="445.80881"
       y2="441.08801"
       gradientTransform="matrix(0,0.9396,0.9396,0,-210.0421,-128.2564)">
      <stop
         offset="0"
         style="stop-color:#80b71b;stop-opacity:1;"
         id="stop6022" />
      <stop
         offset="1"
         style="stop-color:#8DAF0A"
         id="stop6024" />
    </linearGradient>
    <linearGradient
       id="path10575_1_"
       gradientUnits="userSpaceOnUse"
       x1="409.77371"
       y1="441.08499"
       x2="439.24539"
       y2="441.08499"
       gradientTransform="matrix(0,0.9396,0.9396,0,-210.0421,-128.2564)">
      <stop
         offset="0"
         style="stop-color:#6F6F6F"
         id="stop6029" />
      <stop
         offset="1"
         style="stop-color:#494949"
         id="stop6031" />
    </linearGradient>
    <linearGradient
       inkscape:collect="always"
       xlink:href="#path10531-8_1_"
       id="linearGradient3777"
       gradientUnits="userSpaceOnUse"
       gradientTransform="matrix(0,0.9396,0.9396,0,-210.0421,-128.2564)"
       x1="404.85861"
       y1="441.08801"
       x2="445.80881"
       y2="441.08801" />
    <linearGradient
       inkscape:collect="always"
       xlink:href="#path10575_1_"
       id="linearGradient3779"
       gradientUnits="userSpaceOnUse"
       gradientTransform="matrix(0,0.9396,0.9396,0,-210.0421,-128.2564)"
       x1="409.77371"
       y1="441.08499"
       x2="439.24539"
       y2="441.08499" />
    <linearGradient
       id="linearGradient12122"
       gradientUnits="userSpaceOnUse"
       x1="404.85861"
       y1="441.08801"
       x2="445.80881"
       y2="441.08801"
       gradientTransform="matrix(0,0.9396,0.9396,0,-210.0421,-128.2564)">
      <stop
         offset="0"
         style="stop-color:#ABC837"
         id="stop12124" />
      <stop
         offset="1"
         style="stop-color:#8DAF0A"
         id="stop12126" />
    </linearGradient>
    <linearGradient
       id="linearGradient12130"
       gradientUnits="userSpaceOnUse"
       x1="409.77371"
       y1="441.08499"
       x2="439.24539"
       y2="441.08499"
       gradientTransform="matrix(0,0.9396,0.9396,0,-210.0421,-128.2564)">
      <stop
         offset="0"
         style="stop-color:#6F6F6F"
         id="stop12132" />
      <stop
         offset="1"
         style="stop-color:#494949"
         id="stop12134" />
    </linearGradient>
    <linearGradient
       inkscape:collect="always"
       xlink:href="#path10531-8_1_"
       id="linearGradient3792"
       gradientUnits="userSpaceOnUse"
       gradientTransform="matrix(0,2.8390628,2.8390628,0,-1188.2548,-219.16531)"
       x1="404.85861"
       y1="441.08801"
       x2="445.80881"
       y2="441.08801" />
  </defs>
  <sodipodi:namedview
     id="base"
     pagecolor="#ffffff"
     bordercolor="#666666"
     borderopacity="1.0"
     inkscape:pageopacity="0.0"
     inkscape:pageshadow="2"
     inkscape:zoom="1.979899"
     inkscape:cx="12.981632"
     inkscape:cy="64.331375"
     inkscape:document-units="px"
     inkscape:current-layer="layer1"
     showgrid="false"
     inkscape:window-width="1920"
     inkscape:window-height="1147"
     inkscape:window-x="1920"
     inkscape:window-y="25"
     inkscape:window-maximized="1" />
  <metadata
     id="metadata12142">
    <rdf:RDF>
      <cc:Work
         rdf:about="">
        <dc:format>image/svg+xml</dc:format>
        <dc:type
           rdf:resource="http://purl.org/dc/dcmitype/StillImage" />
        <dc:title />
      </cc:Work>
    </rdf:RDF>
  </metadata>
  <g
     inkscape:label="Ebene 1"
     inkscape:groupmode="layer"
     id="layer1"
     transform="translate(0,-924.36218)">
    <path
       id="path10531-8"
       d="m 64.051359,930.2333 c -32.040678,0 -58.1802396,26.14862 -58.1802396,58.18024 0,32.03166 26.1395616,58.07746 58.1802396,58.07746 32.040679,0 58.077511,-26.0458 58.077511,-58.07746 0,-32.03162 -26.036832,-58.18024 -58.077511,-58.18024 z"
       style="fill:url(#linearGradient3792)"
       inkscape:connector-curvature="0" />
    <path
       id="path10533-2"
       d="m 64.003014,940.22864 c 26.538408,0 48.130516,21.59512 48.130516,48.13353 0,26.53233 -21.592108,48.13353 -48.130516,48.13353 -26.541429,0 -48.133535,-21.5981 -48.133535,-48.13353 0,-26.53539 21.592106,-48.13353 48.133535,-48.13353 z"
       inkscape:connector-curvature="0"
       style="fill:#ffffff" />
    <path
       id="path10575"
       d="m 57.984056,944.18689 c -7.526719,1.02733 -14.424953,3.96127 -20.277725,8.26096 2.764733,-0.77352 5.42371,-2.63179 8.073623,-2.53812 3.350916,-3.37811 9.817066,-1.44733 12.204102,-5.72284 z m 18.210974,1.31136 c -2.408187,0.26892 -4.746879,1.45941 -6.10054,3.47177 -3.882712,1.18144 3.653072,-3.09106 -0.75237,-3.00343 -4.157674,-0.78259 -7.538805,0.29611 -10.702384,2.72243 2.217829,1.43222 6.028023,2.80703 6.290899,-0.84604 4.417528,2.20272 -2.106031,5.50529 -4.036812,3.00344 -1.725313,-1.23885 -3.447606,2.58343 -5.822556,2.34775 -2.834228,1.22374 -2.643869,4.59882 -6.194209,3.84646 -5.076229,0.75841 1.181432,7.44815 3.943143,4.03681 1.483589,-3.1515 5.620111,-5.60199 8.916639,-3.1938 1.646753,2.71337 7.439094,2.47466 8.448297,2.63179 -0.371653,-2.17553 4.009617,-1.44431 3.381131,-4.03682 2.610633,-2.55624 10.252171,3.3902 4.036812,2.62574 -2.541137,-1.21466 -7.499525,2.06071 -3.471779,3.38114 3.205881,0.0876 6.079389,-0.56806 5.819535,3.37811 2.326605,3.74976 4.801267,7.39679 7.414921,10.98339 1.909629,2.48674 1.296252,7.427 5.728888,5.07018 3.779978,-1.03035 7.704995,-7.0614 3.003436,-9.48167 -2.930919,-0.25381 -5.692629,-2.23898 -6.381546,-5.07019 3.692353,2.31452 8.248873,2.89164 11.920075,5.25753 3.05782,4.04587 4.16976,9.21577 6.75924,13.42179 0.0846,-0.17827 0.12086,-0.38072 0.18734,-0.56503 -1.26906,-19.08421 -14.569989,-34.92628 -32.38816,-39.98135 l 0,0 z m -22.622459,3.28444 c -0.59827,2.34171 -1.371791,2.92487 -3.471779,2.63178 1.362726,2.35984 9.043545,1.09985 3.471779,-2.63178 z m 2.816099,13.14683 c -1.247907,0.003 -2.592503,0.30518 -3.943143,0.9397 -5.583853,-0.0725 -10.94411,2.87653 -13.143809,8.1673 -1.163303,4.75896 -5.000691,10.25217 -1.411071,14.73919 3.37811,3.66516 7.777509,7.64758 13.05014,4.50516 3.498973,-2.77984 6.363417,2.16344 9.010308,2.81609 -0.353523,4.45681 1.405028,7.93464 3.752784,11.45174 1.547042,4.5263 -0.40489,8.8834 -0.09367,13.2375 2.396101,3.3177 -0.643594,10.5362 5.447882,10.0467 5.17292,-0.1239 8.904553,-4.194 11.170727,-8.4483 1.253949,-3.9643 4.734793,-6.0794 7.130894,-9.2944 -0.359566,-4.212 -2.087902,-8.4966 1.595386,-11.92305 1.550063,-4.61695 7.363555,-6.18212 7.50859,-11.35806 0.622443,-5.08228 -5.15479,0.4774 -7.130894,-3.28747 -3.934078,-3.23005 -5.142704,-8.18542 -7.792617,-12.29777 -1.589343,-1.50776 -2.003298,-5.63219 -4.789181,-3.94314 -3.284441,-1.4987 -7.224562,-2.23596 -10.13433,-0.56503 -3.145449,-2.34474 -6.484279,-4.80731 -10.227998,-4.78616 l 0,0 z m -36.986981,26.09726 c -0.003,0.15712 0,0.31424 0,0.46834 0,10.1857 3.438541,19.51028 9.200666,27.03698 -0.788628,-4.0217 -1.692076,-8.0464 -1.97006,-12.1104 1.967039,-4.01873 -0.679853,-7.3213 -3.568469,-9.95308 -2.474662,-1.39295 -2.843293,-3.43854 -3.662137,-5.44184 z m 72.191238,18.49502 c -0.65568,0.1631 -1.272079,0.8762 -1.595387,2.3447 -0.839995,3.9311 -2.755667,8.4 -2.816098,12.0168 3.508037,-2.1544 5.991764,-6.4329 6.75622,-10.4184 l -0.09367,-0.6587 c 0.006,-2.2239 -1.160281,-3.5533 -2.251066,-3.2844 l 0,0 z"
       style="fill:#000000;fill-opacity:1"
       inkscape:connector-curvature="0" />
  </g>
</svg>
