<?xml version="1.0" encoding="UTF-8" standalone="no"?>
<!-- Created with Inkscape (http://www.inkscape.org/) -->

<svg
   xmlns:dc="http://purl.org/dc/elements/1.1/"
   xmlns:cc="http://creativecommons.org/ns#"
   xmlns:rdf="http://www.w3.org/1999/02/22-rdf-syntax-ns#"
   xmlns:svg="http://www.w3.org/2000/svg"
   xmlns="http://www.w3.org/2000/svg"
   xmlns:sodipodi="http://sodipodi.sourceforge.net/DTD/sodipodi-0.dtd"
   xmlns:inkscape="http://www.inkscape.org/namespaces/inkscape"
   id="svg2"
   version="1.1"
   inkscape:version="0.48.4 r9939"
   width="842.5"
   height="837.5"
   xml:space="preserve"
   sodipodi:docname="Farm Icons.svg"><metadata
     id="metadata8"><rdf:RDF><cc:Work
         rdf:about=""><dc:format>image/svg+xml</dc:format><dc:type
           rdf:resource="http://purl.org/dc/dcmitype/StillImage" /><dc:title></dc:title></cc:Work></rdf:RDF></metadata><defs
     id="defs6" /><sodipodi:namedview
     pagecolor="#ffffff"
     bordercolor="#666666"
     borderopacity="1"
     objecttolerance="10"
     gridtolerance="10"
     guidetolerance="10"
     inkscape:pageopacity="0"
     inkscape:pageshadow="2"
     inkscape:window-width="1920"
     inkscape:window-height="1148"
     id="namedview4"
     showgrid="false"
     inkscape:zoom="0.56358209"
     inkscape:cx="671.79491"
     inkscape:cy="480.63134"
     inkscape:window-x="0"
     inkscape:window-y="1080"
     inkscape:window-maximized="1"
     inkscape:current-layer="g10" /><g
     id="g10"
     inkscape:groupmode="layer"
     inkscape:label="ink_ext_XXXXXX"
     transform="matrix(1.25,0,0,-1.25,0,837.5)"><g
       id="g12"
       transform="scale(0.1,0.1)"><path
         d="m 2985.95,3734.45 377.69,-586.97 39.89,24.92 -362.01,596.77 c -22.95,37.79 -79.45,2.43 -55.57,-34.72"
         style="fill:#231f20;fill-opacity:1;fill-rule:evenodd;stroke:none"
         id="path14" /><g
         id="g16"
         transform="matrix(0.385337,-0.616668,-0.614201,-0.383795,0,0)"><path
           d="m -2179.28,-6228.76 959.8,-12.77 0,-64.94 -959.79,-12.75 c -60.79,-0.79 -60.73,91.25 -0.01,90.46 z"
           style="fill:none;stroke:#231f20;stroke-opacity:1;stroke-width:19.3248;stroke-linecap:butt;stroke-linejoin:round;stroke-miterlimit:22.9256;stroke-dasharray:none"
           id="path18" /></g><path
         d="m 3557.7,3227.92 -311.54,-194.68 c -17.14,-10.71 -22.39,-33.49 -11.69,-50.62 l 1.46,-2.34 373.86,233.61 -1.46,2.34 c -10.71,17.13 -33.48,22.4 -50.63,11.69"
         style="fill:#231f20;fill-opacity:1;fill-rule:evenodd;stroke:none"
         id="path20" /><g
         id="g22"
         transform="matrix(0.612231,0.382678,-0.386595,0.618496,0,0)"><path
           d="m 6548.23,1167.43 -508.83,0.07 c -28,0 -50.88,-22.66 -50.89,-50.37 l 0,-3.77 610.59,-0.08 0.01,3.78 c 0,27.7 -22.88,50.37 -50.88,50.37 z"
           style="fill:none;stroke:#231f20;stroke-opacity:1;stroke-width:19.191;stroke-linecap:butt;stroke-linejoin:round;stroke-miterlimit:22.9256;stroke-dasharray:none"
           id="path24" /></g><path
         d="m 3568.24,3187.93 41.55,25.96 49.82,-79.74 c 5.35,-8.55 12.34,-35.61 3.63,-41.05 l -9.86,-6.16 c -8.72,-5.45 -29.96,12.69 -35.31,21.25 l -49.83,79.74 z m -83.07,-51.91 41.53,25.95 49.82,-79.74 c 5.35,-8.55 12.36,-35.6 3.65,-41.04 l -9.88,-6.17 c -8.72,-5.45 -29.94,12.69 -35.29,21.26 l -49.83,79.74 z m -83.08,-51.91 41.53,25.95 49.83,-79.74 c 5.34,-8.55 12.35,-35.59 3.64,-41.04 l -9.88,-6.17 c -8.71,-5.45 -29.94,12.69 -35.29,21.26 l -49.83,79.74 z m -83.08,-51.92 41.53,25.95 49.82,-79.74 c 5.34,-8.55 12.36,-35.6 3.65,-41.04 l -9.89,-6.17 c -8.71,-5.45 -29.94,12.7 -35.29,21.26 l -49.82,79.74 z m -83.08,-51.91 41.53,25.95 49.83,-79.74 c 5.34,-8.55 12.35,-35.6 3.64,-41.04 l -9.88,-6.17 c -8.71,-5.45 -29.94,12.7 -35.29,21.26 l -49.83,79.74"
         style="fill:#231f20;fill-opacity:1;fill-rule:evenodd;stroke:none"
         id="path26" /><path
         d="m 1897.96,3045.67 -76.54,0 c -24.4,0 -44.36,19.96 -44.36,44.37 l 0,375.76 -84.07,0 c -24.4,0 -44.36,19.95 -44.36,44.36 l 0,56.21 c 0,24.4 19.96,44.36 44.36,44.36 l 505.67,0 c 24.4,0 44.36,-19.96 44.36,-44.36 l 0,-56.21 c 0,-24.41 -19.96,-44.36 -44.36,-44.36 l -84.06,0 0,-375.76 c 0,-24.42 -19.95,-44.37 -44.36,-44.37 l -76.54,0 c -12.22,0 -22.19,9.97 -22.19,22.19 l 0,189.58 c 0,8.65 -7.06,15.72 -15.72,15.72 l -19.92,0 c -8.66,0 -15.72,-7.07 -15.72,-15.72 l 0,-189.58 c 0,-12.22 -9.97,-22.19 -22.19,-22.19 z m 157.74,743.46 c 26.88,-16.69 57.38,-37.22 78.74,-59.89 2.46,-2.63 3.33,-6.04 2.44,-9.52 -0.92,-3.46 -3.33,-6.02 -6.75,-7.12 -24.33,-7.77 -51.72,-12.81 -76.86,-17.26 -34.79,-6.16 -69.88,-11.2 -104.93,-15.55 -35.07,-4.35 -70.36,-8.04 -105.6,-10.56 -25.46,-1.82 -53.28,-3.63 -78.76,-2.04 -3.58,0.23 -6.55,2.12 -8.28,5.26 -1.71,3.16 -1.7,6.68 0.04,9.82 15.15,27.21 39.74,54.56 61.71,77.32 -0.88,4.98 -1.61,9.98 -2.18,15.01 -8.41,74.79 22.45,138.52 104.47,88.17 0.44,-0.29 0.82,-0.55 1.22,-0.89 4.34,-3.65 6.4,-2.11 10.36,2.32 18.43,18.87 45.71,39.14 73.54,28.71 35.6,-13.33 48.25,-67.88 50.84,-103.78 z m -149.53,-946.27 0,143.68 c 0,13.36 10.93,24.28 24.28,24.28 l 30.76,0 c 13.36,0 24.29,-10.92 24.29,-24.28 l 0,-143.68 c 0,-13.35 -10.93,-24.28 -24.29,-24.28 l -30.76,0 c -13.35,0 -24.28,10.93 -24.28,24.28 z m 392.26,767.87 25.62,0 c 4.87,0 9.36,-1.74 12.85,-4.62 l 36.69,20.34 c 4.63,2.57 10.49,0.89 13.04,-3.72 l 5.89,-10.64 c 2.57,-4.62 0.89,-10.47 -3.73,-13.04 l -44.52,-24.67 0,-20.45 42.23,0 c 5.28,0 9.58,-4.3 9.58,-9.58 l 0,-12.16 c 0,-5.28 -4.3,-9.58 -9.58,-9.58 l -42.23,0 0,-20.46 44.52,-24.67 c 4.63,-2.57 6.3,-8.43 3.75,-13.04 l -5.91,-10.64 c -2.55,-4.61 -8.41,-6.29 -13.02,-3.73 l -36.71,20.35 c -3.49,-2.88 -7.98,-4.62 -12.85,-4.62 l -25.62,0 c -11.12,0 -20.21,9.08 -20.21,20.21 l 0,104.51 c 0,11.13 9.09,20.21 20.21,20.21 z m -705.22,0 -25.61,0 c -4.87,0 -9.35,-1.74 -12.85,-4.62 l -36.7,20.34 c -4.62,2.57 -10.48,0.89 -13.03,-3.72 l -5.89,-10.64 c -2.58,-4.62 -0.89,-10.47 3.74,-13.04 l 44.52,-24.67 0,-20.45 -42.24,0 c -5.28,0 -9.58,-4.3 -9.58,-9.58 l 0,-12.16 c 0,-5.28 4.3,-9.58 9.58,-9.58 l 42.24,0 0,-20.46 -44.53,-24.67 c -4.63,-2.57 -6.31,-8.43 -3.74,-13.04 l 5.9,-10.64 c 2.55,-4.61 8.41,-6.29 13.02,-3.73 l 36.71,20.35 c 3.5,-2.88 7.98,-4.62 12.85,-4.62 l 25.61,0 c 11.13,0 20.22,9.08 20.22,20.21 l 0,104.51 c 0,11.13 -9.09,20.21 -20.22,20.21"
         style="fill:#231f20;fill-opacity:1;fill-rule:evenodd;stroke:none"
         id="path28" /><path
         d="m 1897.96,3045.67 -76.54,0 c -24.4,0 -44.36,19.96 -44.36,44.37 l 0,375.76 -84.07,0 c -24.4,0 -44.36,19.95 -44.36,44.36 l 0,56.21 c 0,24.4 19.96,44.36 44.36,44.36 l 505.67,0 c 24.4,0 44.36,-19.96 44.36,-44.36 l 0,-56.21 c 0,-24.41 -19.96,-44.36 -44.36,-44.36 l -84.06,0 0,-375.76 c 0,-24.42 -19.95,-44.37 -44.36,-44.37 l -76.54,0 c -12.22,0 -22.19,9.97 -22.19,22.19 l 0,189.58 c 0,8.65 -7.06,15.72 -15.72,15.72 l -19.92,0 c -8.66,0 -15.72,-7.07 -15.72,-15.72 l 0,-189.58 c 0,-12.22 -9.97,-22.19 -22.19,-22.19 z m 157.74,743.46 c 26.88,-16.69 57.38,-37.22 78.74,-59.89 2.46,-2.63 3.33,-6.04 2.44,-9.52 -0.92,-3.46 -3.33,-6.02 -6.75,-7.12 -24.33,-7.77 -51.72,-12.81 -76.86,-17.26 -34.79,-6.16 -69.88,-11.2 -104.93,-15.55 -35.07,-4.35 -70.36,-8.04 -105.6,-10.56 -25.46,-1.82 -53.28,-3.63 -78.76,-2.04 -3.58,0.23 -6.55,2.12 -8.28,5.26 -1.71,3.16 -1.7,6.68 0.04,9.82 15.15,27.21 39.74,54.56 61.71,77.32 -0.88,4.98 -1.61,9.98 -2.18,15.01 -8.41,74.79 22.45,138.52 104.47,88.17 0.44,-0.29 0.82,-0.55 1.22,-0.89 4.34,-3.65 6.4,-2.11 10.36,2.32 18.43,18.87 45.71,39.14 73.54,28.71 35.6,-13.33 48.25,-67.88 50.84,-103.78 z m -149.53,-946.27 0,143.68 c 0,13.36 10.93,24.28 24.28,24.28 l 30.76,0 c 13.36,0 24.29,-10.92 24.29,-24.28 l 0,-143.68 c 0,-13.35 -10.93,-24.28 -24.29,-24.28 l -30.76,0 c -13.35,0 -24.28,10.93 -24.28,24.28 z m 392.26,767.87 25.62,0 c 4.87,0 9.36,-1.74 12.85,-4.62 l 36.69,20.34 c 4.63,2.57 10.49,0.89 13.04,-3.72 l 5.89,-10.64 c 2.57,-4.62 0.89,-10.47 -3.73,-13.04 l -44.52,-24.67 0,-20.45 42.23,0 c 5.28,0 9.58,-4.3 9.58,-9.58 l 0,-12.16 c 0,-5.28 -4.3,-9.58 -9.58,-9.58 l -42.23,0 0,-20.46 44.52,-24.67 c 4.63,-2.57 6.3,-8.43 3.75,-13.04 l -5.91,-10.64 c -2.55,-4.61 -8.41,-6.29 -13.02,-3.73 l -36.71,20.35 c -3.49,-2.88 -7.98,-4.62 -12.85,-4.62 l -25.62,0 c -11.12,0 -20.21,9.08 -20.21,20.21 l 0,104.51 c 0,11.13 9.09,20.21 20.21,20.21 z m -705.22,0 -25.61,0 c -4.87,0 -9.35,-1.74 -12.85,-4.62 l -36.7,20.34 c -4.62,2.57 -10.48,0.89 -13.03,-3.72 l -5.89,-10.64 c -2.58,-4.62 -0.89,-10.47 3.74,-13.04 l 44.52,-24.67 0,-20.45 -42.24,0 c -5.28,0 -9.58,-4.3 -9.58,-9.58 l 0,-12.16 c 0,-5.28 4.3,-9.58 9.58,-9.58 l 42.24,0 0,-20.46 -44.53,-24.67 c -4.63,-2.57 -6.31,-8.43 -3.74,-13.04 l 5.9,-10.64 c 2.55,-4.61 8.41,-6.29 13.02,-3.73 l 36.71,20.35 c 3.5,-2.88 7.98,-4.62 12.85,-4.62 l 25.61,0 c 11.13,0 20.22,9.08 20.22,20.21 l 0,104.51 c 0,11.13 -9.09,20.21 -20.22,20.21 z"
         style="fill:none;stroke:#231f20;stroke-opacity:1;stroke-width:2.16;stroke-linecap:butt;stroke-linejoin:miter;stroke-miterlimit:22.9256;stroke-dasharray:none"
         id="path30" /><path
         d="m 190.805,3544.59 57.465,0 0,127.36 56.046,82.05 56.047,-82.05 0,-127.36 112.098,0 0,127.36 56.047,82.07 56.047,-82.07 0,-127.36 112.097,0 0,127.36 56.051,82.07 56.047,-82.07 0,-127.36 57.449,0 c 8.114,0 14.746,-6.64 14.746,-14.75 l 0,-50.98 c 0,-8.12 -6.632,-14.76 -14.746,-14.76 l -57.449,0 0,-318.31 57.449,0 c 8.114,0 14.746,-6.63 14.746,-14.75 l 0,-50.99 c 0,-8.11 -6.632,-14.75 -14.746,-14.75 l -57.449,0 0,-83.36 c 0,-11.9 -9.25,-21.62 -20.547,-21.62 l -71.004,0 c -11.297,0 -20.547,9.72 -20.547,21.62 l 0,83.36 -112.097,0 0,-83.36 c 0,-11.9 -9.246,-21.62 -20.543,-21.62 l -71.008,0 c -11.297,0 -20.543,9.72 -20.543,21.62 l 0,83.36 -112.098,0 0,-83.36 c 0,-11.9 -9.246,-21.61 -20.543,-21.61 l -71.007,0 c -11.297,0 -20.543,9.71 -20.543,21.61 l 0,83.36 -57.465,0 c -8.114,0 -14.754,6.64 -14.754,14.75 l 0,50.99 c 0,8.12 6.64,14.75 14.754,14.75 l 57.465,0 0,318.31 -57.465,0 c -8.114,0 -14.754,6.64 -14.754,14.76 l 0,50.98 c 0,8.11 6.64,14.75 14.754,14.75 z m 505.847,-80.49 -112.097,0 0,-318.31 112.097,0 0,318.31 z m -224.191,0 -112.098,0 0,-318.31 112.098,0 0,318.31"
         style="fill:#231f20;fill-opacity:1;fill-rule:evenodd;stroke:none"
         id="path32" /><g
         id="g34"><path
           d="m 190.805,3544.59 57.465,0 0,127.36 56.046,82.05 56.047,-82.05 0,-127.36 112.098,0 0,127.36 56.047,82.07 56.047,-82.07 0,-127.36 112.097,0 0,127.36 56.051,82.07 56.047,-82.07 0,-127.36 57.449,0 c 8.113,0 14.746,-6.64 14.746,-14.75 l 0,-50.98 c 0,-8.12 -6.633,-14.76 -14.746,-14.76 l -57.449,0 0,-318.31 57.449,0 c 8.113,0 14.746,-6.63 14.746,-14.75 l 0,-50.98 c 0,-8.12 -6.633,-14.75 -14.746,-14.75 l -57.449,0 0,-83.37 c 0,-11.9 -9.25,-21.62 -20.547,-21.62 l -71.004,0 c -11.297,0 -20.547,9.72 -20.547,21.62 l 0,83.37 -112.097,0 0,-83.37 c 0,-11.9 -9.246,-21.62 -20.543,-21.62 l -71.008,0 c -11.297,0 -20.543,9.72 -20.543,21.62 l 0,83.37 -112.098,0 0,-83.37 c 0,-11.9 -9.246,-21.61 -20.543,-21.61 l -71.008,0 c -11.296,0 -20.542,9.71 -20.542,21.61 l 0,83.37 -57.465,0 c -8.114,0 -14.754,6.63 -14.754,14.75 l 0,50.98 c 0,8.12 6.64,14.75 14.754,14.75 l 57.465,0 0,318.31 -57.465,0 c -8.114,0 -14.754,6.64 -14.754,14.76 l 0,50.98 c 0,8.11 6.64,14.75 14.754,14.75 z m 505.847,-80.49 -112.097,0 0,-318.31 112.097,0 0,318.31 z m -224.191,0 -112.098,0 0,-318.31 112.098,0 0,318.31 z"
           style="fill:none;stroke:#231f20;stroke-opacity:1;stroke-width:29.4991;stroke-linecap:butt;stroke-linejoin:round;stroke-miterlimit:22.9256;stroke-dasharray:none"
           id="path36" /></g><path
         d="m 6039,3385.01 c -1.07,1.99 -1.76,4.22 -1.98,6.61 L 6014.39,3637 c -0.71,7.69 3.62,14.66 10.84,17.43 3.62,1.4 7.79,1.95 11.62,1.33 l 661.8,-107.74 c 12.6,-2.05 30.17,-14.45 35.7,-25.96 3.56,-7.4 1.43,-16.08 -5.15,-20.99 L 6406.64,3260 c -1.45,-1.09 -2.83,-1.82 -4.52,-2.46 l 142.96,-127.24 c 16.14,-14.37 17.61,-39.67 3.24,-55.82 -14.41,-16.18 -39.63,-17.65 -55.82,-3.25 l -170.28,151.58 -182.58,-153.55 c -22.61,-19.03 -73,-11 -82.42,19.68 l -70.39,229.24 -174.53,299.91 -119.58,16.25 c -21.67,2.94 -36.14,24.07 -32.67,45.37 3.49,21.47 23.91,36.16 45.37,32.67 l 146.64,-23.87 c 5.17,-0.85 9.28,-3.65 11.93,-8.17 l 173.61,-295.18 c 0.47,-0.03 0.94,-0.08 1.4,-0.15 z m 80.48,-229.41 167.55,140.95 -235.5,79.8 c -0.07,0.01 -0.14,0.02 -0.21,0.03 0.53,-0.99 0.97,-2.04 1.31,-3.16 22.26,-72.48 44.52,-144.96 66.85,-217.62 z m 27.53,538.72 c 1.56,13.38 5.94,26.29 14.98,36.49 22.9,25.85 66.78,24.44 98.14,20.1 10.9,0.04 22.73,-2.97 33.38,-5.32 15.03,-3.31 30.03,-6.84 45.2,-9.47 25.12,-4.34 64.32,-9.12 84.57,10.26 28.47,27.25 64.63,47.94 105.23,38.61 59.77,-13.74 99.72,-86.86 122.28,-139.17 5.34,-7.93 10.52,-15.98 15.36,-24.23 3.42,-5.82 3.18,-12.65 -0.64,-18.22 -3.81,-5.56 -10.1,-8.25 -16.76,-7.17 l -487.58,79.37 c -8.97,1.46 -15.21,9.72 -14.16,18.75 z m 353.73,-434.87 c 18.87,3.46 38.22,3.62 57.16,0.53 91.31,-14.85 153.31,-100.94 138.44,-192.27 -14.87,-91.32 -100.95,-153.31 -192.27,-138.44 -81.33,13.24 -141.11,83.8 -140.64,166.12 0.03,6.84 3.84,12.66 10.08,15.44 6.25,2.78 13.12,1.71 18.23,-2.83 l 74.48,-66.3 c 32.21,-28.67 82.95,-25.72 111.62,6.49 28.68,32.22 25.73,82.96 -6.48,111.64 l -78.86,70.19 c -4.97,4.43 -6.86,10.87 -5.07,17.28 1.8,6.42 6.77,10.95 13.31,12.15"
         style="fill:#231f20;fill-opacity:1;fill-rule:evenodd;stroke:none"
         id="path38" /><path
         d="m 6039,3385.01 c -1.07,1.99 -1.76,4.22 -1.98,6.61 L 6014.39,3637 c -0.71,7.69 3.62,14.66 10.84,17.43 3.62,1.4 7.79,1.95 11.62,1.33 l 661.8,-107.74 c 12.6,-2.05 30.17,-14.45 35.7,-25.96 3.56,-7.4 1.43,-16.08 -5.15,-20.99 L 6406.64,3260 c -1.45,-1.09 -2.83,-1.82 -4.52,-2.46 l 142.96,-127.24 c 16.14,-14.37 17.61,-39.67 3.24,-55.82 -14.41,-16.18 -39.63,-17.65 -55.82,-3.25 l -170.28,151.58 -182.58,-153.55 c -22.61,-19.03 -73,-11 -82.42,19.68 l -70.39,229.24 -174.53,299.91 -119.58,16.25 c -21.67,2.94 -36.14,24.07 -32.67,45.37 3.49,21.47 23.91,36.16 45.37,32.67 l 146.64,-23.87 c 5.17,-0.85 9.28,-3.65 11.93,-8.17 l 173.61,-295.18 c 0.47,-0.03 0.94,-0.08 1.4,-0.15 z m 80.48,-229.41 167.55,140.95 -235.5,79.8 c -0.07,0.01 -0.14,0.02 -0.21,0.03 0.53,-0.99 0.97,-2.04 1.31,-3.16 22.26,-72.48 44.52,-144.96 66.85,-217.62 z m 27.53,538.72 c 1.56,13.38 5.94,26.29 14.98,36.49 22.9,25.85 66.78,24.44 98.14,20.1 10.9,0.04 22.73,-2.97 33.38,-5.32 15.03,-3.31 30.03,-6.84 45.2,-9.47 25.12,-4.34 64.32,-9.12 84.57,10.26 28.47,27.25 64.63,47.94 105.23,38.61 59.77,-13.74 99.72,-86.86 122.28,-139.17 5.34,-7.93 10.52,-15.98 15.36,-24.23 3.42,-5.82 3.18,-12.65 -0.64,-18.22 -3.81,-5.56 -10.1,-8.25 -16.76,-7.17 l -487.58,79.37 c -8.97,1.46 -15.21,9.72 -14.16,18.75 z m 353.73,-434.87 c 18.87,3.46 38.22,3.62 57.16,0.53 91.31,-14.85 153.31,-100.94 138.44,-192.27 -14.87,-91.32 -100.95,-153.31 -192.27,-138.44 -81.33,13.24 -141.11,83.8 -140.64,166.12 0.03,6.84 3.84,12.66 10.08,15.44 6.25,2.78 13.12,1.71 18.23,-2.83 l 74.48,-66.3 c 32.21,-28.67 82.95,-25.72 111.62,6.49 28.68,32.22 25.73,82.96 -6.48,111.64 l -78.86,70.19 c -4.97,4.43 -6.86,10.87 -5.07,17.28 1.8,6.42 6.77,10.95 13.31,12.15 z"
         style="fill:none;stroke:#231f20;stroke-opacity:1;stroke-width:5.6693;stroke-linecap:butt;stroke-linejoin:miter;stroke-miterlimit:22.9256;stroke-dasharray:none"
         id="path40" /><path
         d="m 4691.66,3540.64 269.89,-384.62 c 0.52,-0.73 0.79,-1.47 0.87,-2.36 1.78,-19.8 4.62,-39.48 7.26,-59.17 0.76,-5.69 3.18,-20.86 0.2,-25.45 -0.71,-1.09 -1.7,-1.79 -2.97,-2.09 -5.22,-1.24 -17.59,5.69 -22.46,8.34 -17.47,9.5 -34.51,19.78 -51.85,29.53 -0.67,0.38 -1.17,0.82 -1.6,1.45 l -274.48,391.16 c -34.96,8.54 -69.75,17.8 -104.92,25.49 -1.24,0.27 -2.22,0.92 -2.95,1.97 l -85.27,121.52 c -1.55,2.2 -1.01,5.25 1.19,6.8 l 187.07,131.27 c 2.21,1.54 5.26,1.01 6.81,-1.19 l 85.26,-121.52 c 0.73,-1.04 1.01,-2.19 0.84,-3.45 -3.05,-22.75 -5.61,-45.57 -7.88,-68.41 -1.63,-16.43 -3.01,-32.88 -5.01,-49.27 z m -89.18,171.56 -106.82,-74.96 46.24,-65.89 c 26.03,-6.04 51.92,-12.63 77.83,-19.18 6.23,-1.57 12.42,-3.28 18.67,-4.76 0.72,6.4 1.22,12.82 1.85,19.23 2.63,26.59 5.22,53.18 8.44,79.7 l -46.21,65.86 z m 217.29,-630.76 84.5,-120.43 c 41.14,-9.32 81.97,-19.97 122.92,-30.13 14.87,-3.69 31.02,-8.25 46.29,-9.47 l 0,0 c 4.04,14.82 5.21,31.57 6.79,46.85 4.32,41.93 8.19,83.91 13.46,125.73 l -84.48,120.4 -28.94,-20.3 c -2.2,-1.54 -5.25,-1 -6.8,1.2 l -19.16,27.3 c -1.54,2.21 -1.01,5.26 1.19,6.81 l 60.24,42.26 c 2.2,1.55 5.26,1.01 6.8,-1.19 l 114.99,-163.87 c 0.73,-1.04 1.01,-2.19 0.84,-3.45 -4.04,-30.03 -7.44,-60.15 -10.44,-90.3 -2.16,-21.73 -4.01,-43.49 -6.58,-65.18 -2.16,-18.29 -5.44,-52.34 -21.55,-63.69 -16.12,-11.35 -49.21,-2.95 -67.16,1.21 -21.29,4.94 -42.41,10.59 -63.6,15.95 -29.44,7.44 -58.97,14.53 -88.64,20.99 -1.24,0.28 -2.22,0.92 -2.96,1.97 l -114.98,163.87 c -1.55,2.2 -1.01,5.26 1.19,6.8 l 60.24,42.27 c 2.2,1.54 5.26,1.01 6.8,-1.19 l 19.16,-27.31 c 1.54,-2.2 1.01,-5.25 -1.19,-6.8 l -28.93,-20.3"
         style="fill:#231f20;fill-opacity:1;fill-rule:evenodd;stroke:none"
         id="path42" /><g
         id="g44"
         transform="matrix(0.349259,-0.650741,0.650741,0.349259,0,0)"><path
           d="m -1219.97,7864.5 631.672,75.71 c 1.206,0.15 2.267,0 3.382,-0.47 24.756,-10.56 50.046,-19.77 75.232,-29.23 7.283,-2.74 26.927,-9.56 30.492,-16.06 0.852,-1.55 1.042,-3.17 0.588,-4.88 -1.865,-7.02 -18.044,-17.33 -24.327,-21.45 -22.522,-14.76 -45.698,-28.5 -68.427,-42.96 -0.88,-0.55 -1.733,-0.86 -2.759,-0.98 l -642.413,-76.99 c -32.58,-36.25 -65.91,-71.83 -97.6,-108.86 -1.12,-1.31 -2.53,-2.06 -4.24,-2.26 l -199.58,-23.92 c -3.61,-0.44 -6.92,2.16 -7.35,5.78 l -36.82,307.24 c -0.44,3.62 2.16,6.92 5.77,7.35 l 199.57,23.92 c 1.72,0.2 3.27,-0.2 4.66,-1.21 25.19,-18.21 50.77,-35.87 76.56,-53.2 18.56,-12.47 37.3,-24.65 55.59,-37.53 z m -261.79,3.45 21.03,-175.43 108.22,12.97 c 23.87,27.19 48.31,53.87 72.72,80.58 5.86,6.42 11.86,12.72 17.64,19.22 -7.18,4.96 -14.53,9.66 -21.77,14.52 -30.03,20.17 -60.1,40.28 -89.67,61.11 l -108.17,-12.97 z m 891.658,-144.65 197.78,23.7 c 37.473,43.12 76.324,85.01 114.66,127.36 13.928,15.38 29.702,31.73 40.934,49.17 l 0,0 c -15.093,14.3 -34.324,26.43 -51.547,38.09 -47.25,32 -94.853,63.51 -141.378,96.58 l -197.744,-23.71 5.693,-47.51 c 0.432,-3.62 -2.162,-6.92 -5.781,-7.35 l -44.844,-5.38 c -3.617,-0.43 -6.916,2.16 -7.356,5.78 l -11.853,98.93 c -0.432,3.61 2.162,6.91 5.777,7.35 l 269.131,32.25 c 1.715,0.21 3.263,-0.19 4.66,-1.2 33.24,-24.05 66.993,-47.39 101.043,-70.28 24.542,-16.49 49.319,-32.63 73.55,-49.58 20.443,-14.3 58.959,-40.01 62.185,-66.49 3.23,-26.5 -27.993,-60.61 -44.447,-79.35 -19.52,-22.25 -39.785,-43.82 -59.746,-65.67 -27.734,-30.36 -55.095,-61.05 -81.807,-92.31 -1.125,-1.31 -2.523,-2.06 -4.243,-2.26 l -269.127,-32.26 c -3.619,-0.43 -6.925,2.16 -7.358,5.78 l -11.85,98.93 c -0.43,3.62 2.159,6.92 5.776,7.35 l 44.844,5.38 c 3.616,0.43 6.918,-2.17 7.355,-5.78 l 5.693,-47.52 z"
           style="fill:none;stroke:#231f20;stroke-opacity:1;stroke-width:2.99528;stroke-linecap:butt;stroke-linejoin:round;stroke-miterlimit:22.9256;stroke-dasharray:none"
           id="path46" /></g><path
         d="m 714.098,2163.94 c 0,102.49 -83.102,185.59 -185.594,185.59 -102.492,0 -185.59,-83.1 -185.59,-185.59 0,-102.49 83.098,-185.59 185.59,-185.59 102.492,0 185.594,83.1 185.594,185.59 z m -92.789,0.01 c 0,51.24 -41.555,92.79 -92.793,92.79 -51.254,0 -92.797,-41.55 -92.797,-92.79 0,-51.25 41.543,-92.8 92.797,-92.8 51.238,0 92.793,41.55 92.793,92.8 z m 276.476,37.74 c -18.922,187.25 -177.047,333.43 -369.281,333.43 -192.234,0 -350.356,-146.18 -369.277,-333.43 l -1.903,-384.46 92.797,0 0,101.25 c 68.02,-77.08 167.52,-125.72 278.383,-125.72 110.863,0 210.367,48.64 278.387,125.72 l 0,-101.25 92.797,0 -1.903,384.46 z m -90.894,-37.75 c 0,153.73 -124.653,278.38 -278.387,278.38 -153.734,0 -278.383,-124.65 -278.383,-278.38 0,-153.74 124.649,-278.39 278.383,-278.39 153.734,0 278.387,124.65 278.387,278.39 z m -532.2,-422.14 0,0 c 0,8.45 -6.902,15.35 -15.347,15.35 l -111.242,0 c -8.446,0 -15.352,-6.9 -15.352,-15.35 l 0,0 c 0,-8.44 6.906,-15.34 15.352,-15.34 l 111.242,0 c 8.445,0 15.347,6.9 15.347,15.34 z m 649.567,0 0,0 c 0,8.45 -6.903,15.35 -15.348,15.35 l -111.242,0 c -8.445,0 -15.348,-6.9 -15.348,-15.35 l 0,0 c 0,-8.44 6.903,-15.34 15.348,-15.34 l 111.242,0 c 8.445,0 15.348,6.9 15.348,15.34 z m -43.129,-350.57 18.559,275.15 -92.797,0 18.558,-275.15 c 4.196,-62.19 51.485,-62.23 55.68,0"
         style="fill:#231f20;fill-opacity:1;fill-rule:evenodd;stroke:none"
         id="path48" /><g
         id="g50"
         transform="scale(1,0.999999)"><path
           d="m 714.097,2163.94 c 0,102.49 -83.102,185.59 -185.594,185.59 -102.492,0 -185.589,-83.1 -185.589,-185.59 0,-102.49 83.097,-185.59 185.589,-185.59 102.492,0 185.594,83.1 185.594,185.59 z m -92.789,0.01 c 0,51.24 -41.555,92.8 -92.793,92.8 -51.254,0 -92.797,-41.56 -92.797,-92.8 0,-51.25 41.543,-92.8 92.797,-92.8 51.238,0 92.793,41.55 92.793,92.8 z m 276.476,37.74 c -18.922,187.25 -177.047,333.43 -369.281,333.43 -192.234,0 -350.355,-146.18 -369.277,-333.43 l -1.902,-384.46 92.797,0 0,101.25 c 68.019,-77.08 167.519,-125.72 278.382,-125.72 110.863,0 210.367,48.64 278.387,125.72 l 0,-101.25 92.796,0 -1.902,384.46 z m -90.894,-37.75 c 0,153.73 -124.653,278.39 -278.387,278.39 -153.734,0 -278.382,-124.66 -278.382,-278.39 0,-153.73 124.648,-278.38 278.382,-278.38 153.734,0 278.387,124.65 278.387,278.38 z m -532.199,-422.13 0,0 c 0,8.44 -6.902,15.34 -15.348,15.34 l -111.242,0 c -8.445,0 -15.351,-6.9 -15.351,-15.34 l 0,0 c 0,-8.45 6.906,-15.35 15.351,-15.35 l 111.242,0 c 8.446,0 15.348,6.9 15.348,15.35 z m 649.566,0 0,0 c 0,8.44 -6.903,15.34 -15.348,15.34 l -111.242,0 c -8.445,0 -15.348,-6.9 -15.348,-15.34 l 0,0 c 0,-8.45 6.903,-15.35 15.348,-15.35 l 111.242,0 c 8.445,0 15.348,6.9 15.348,15.35 z m -43.129,-350.58 18.558,275.15 -92.796,0 18.558,-275.15 c 4.196,-62.19 51.485,-62.22 55.68,0 z"
           style="fill:none;stroke:#231f20;stroke-opacity:1;stroke-width:27.8384;stroke-linecap:butt;stroke-linejoin:round;stroke-miterlimit:22.9256;stroke-dasharray:none"
           id="path52" /></g><path
         d="m 6347.85,2000.69 0,204.6 c 0,17.98 -14.72,32.69 -32.7,32.69 l -234.71,0 c -17.98,0 -32.7,-14.71 -32.7,-32.69 l 0,-204.6 c -58.63,-24.9 -100.03,-83.15 -100.03,-150.6 l 0,-361 -10.81,0 c -16.35,0 -29.74,-13.39 -29.74,-29.74 l 0,0 c 0,-16.36 13.39,-29.74 29.74,-29.74 l 521.8,0 c 16.35,0 29.73,13.38 29.73,29.74 l 0,0 c 0,16.35 -13.38,29.74 -29.73,29.74 l -10.82,0 0,361 c 0,67.45 -41.4,125.7 -100.03,150.6 z m -183.16,-426.9 176.92,0 0,292.65 c 0,35.77 -29.63,65.4 -65.4,65.4 l -46.13,0 c -35.77,0 -65.39,-29.63 -65.39,-65.4 l 0,-292.65"
         style="fill:#231f20;fill-opacity:1;fill-rule:evenodd;stroke:none"
         id="path54" /><g
         id="g56"><path
           d="m 6347.85,2000.69 0,204.6 c 0,17.98 -14.72,32.69 -32.7,32.69 l -234.71,0 c -17.99,0 -32.7,-14.71 -32.7,-32.69 l 0,-204.6 c -58.64,-24.9 -100.03,-83.15 -100.03,-150.6 l 0,-361 -10.81,0 c -16.36,0 -29.74,-13.39 -29.74,-29.74 l 0,0 c 0,-16.36 13.38,-29.74 29.74,-29.74 l 521.79,0 c 16.36,0 29.74,13.38 29.74,29.74 l 0,0 c 0,16.35 -13.38,29.74 -29.74,29.74 l -10.81,0 0,361 c 0,67.45 -41.4,125.7 -100.03,150.6 z m -183.16,-426.9 176.92,0 0,292.65 c 0,35.77 -29.63,65.4 -65.4,65.4 l -46.13,0 c -35.77,0 -65.39,-29.63 -65.39,-65.4 l 0,-292.65 z"
           style="fill:none;stroke:#231f20;stroke-opacity:1;stroke-width:16.3492;stroke-linecap:butt;stroke-linejoin:round;stroke-miterlimit:22.9256;stroke-dasharray:none"
           id="path58" /></g><path
         d="m 6028.04,2140.37 339.51,0 c 30.8,0 56,25.2 56,56 l 0,144.99 c 0,30.8 -25.2,56 -56,56 l -339.51,0 c -30.81,0 -56,-25.2 -56,-56 l 0,-144.99 c 0,-30.8 25.19,-56 56,-56 z"
         style="fill:none;stroke:#231f20;stroke-opacity:1;stroke-width:65.3953;stroke-linecap:butt;stroke-linejoin:round;stroke-miterlimit:22.9256;stroke-dasharray:none"
         id="path60" /><path
         d="m 6070.13,2347.36 255.33,0 c 12.31,0 22.39,10.07 22.39,22.38 l 0,57.96 c 0,12.31 -10.08,22.38 -22.39,22.38 l -255.33,0 c -12.32,0 -22.39,-10.07 -22.39,-22.38 l 0,-57.96 c 0,-12.31 10.07,-22.38 22.39,-22.38"
         style="fill:#231f20;fill-opacity:1;fill-rule:evenodd;stroke:none"
         id="path62" /><g
         id="g64"
         transform="matrix(0,-0.994912,1.00509,0,0,0)"><path
           d="m -2359.36,6039.4 0,254.04 c 0,12.25 -10.13,22.27 -22.5,22.27 l -58.25,0 c -12.38,0 -22.5,-10.02 -22.5,-22.27 l 0,-254.04 c 0,-12.26 10.12,-22.27 22.5,-22.27 l 58.25,0 c 12.37,0 22.5,10.01 22.5,22.27 z"
           style="fill:none;stroke:#231f20;stroke-opacity:1;stroke-width:16.431;stroke-linecap:butt;stroke-linejoin:round;stroke-miterlimit:22.9256;stroke-dasharray:none"
           id="path66" /></g><path
         d="m 2063.21,2073.25 c 44.59,-27.86 72.85,-104.77 28.97,-157.73 l -212.54,-256.54 -70.18,43.85 c -8.73,5.45 -20.32,2.77 -25.78,-5.95 l 0,-0.01 c -5.46,-8.73 -2.77,-20.33 5.95,-25.78 l 65.91,-41.19 -73.45,-88.66 c -103.89,-125.38 -208.31,-74 -165.53,61.46 l 0.07,-0.04 71,-44.36 c 8.73,-5.46 20.33,-2.78 25.78,5.95 l 0.01,0 c 5.45,8.73 2.77,20.33 -5.96,25.79 l -71,44.36 c -2.1,1.31 -4.37,2.15 -6.67,2.56 l 109.86,242.66 c 1.1,-1.19 2.37,-2.26 3.81,-3.16 l 109.28,-68.29 c 8.73,-5.45 20.33,-2.78 25.78,5.96 l 0.01,0 c 5.45,8.73 2.77,20.33 -5.96,25.78 l -109.28,68.29 c -2.93,1.83 -6.19,2.74 -9.42,2.82 l 76.19,168.29 c 28.34,62.62 109.92,70.95 154.48,43.11 l 78.67,-49.17 z m -48.4,-111.5 -109.28,68.29 c -8.73,5.45 -20.32,2.77 -25.78,-5.96 l 0,0 c -5.46,-8.73 -2.78,-20.33 5.95,-25.78 l 109.28,-68.29 c 8.73,-5.45 20.32,-2.77 25.78,5.95 l 0,0.01 c 5.45,8.73 2.78,20.33 -5.95,25.78 z m 45.33,260.27 -43.94,-70.33 -9.62,6.01 c -67,41.87 -172.4,18.05 -210,-65 l -200.46,-442.79 c -92.04,-203.29 70.2,-304.85 212.67,-132.89 l 310.1,374.27 c 58.22,70.27 33.37,175.38 -33.63,217.25 l -5.28,3.3 52.75,84.42 c 6.82,-20.99 20.77,-39.78 40.94,-52.39 45.54,-28.46 105.53,-14.61 133.99,30.93 28.45,45.54 14.6,105.52 -30.94,133.98 l -0.12,0.08 c 10.79,43 -6.61,89.85 -46.23,114.61 -34.33,21.45 -76.26,20.64 -108.91,1.47 -3.45,2.76 -7.1,5.36 -10.94,7.76 -53.51,33.44 -123.99,17.17 -157.43,-36.34 -33.44,-53.51 -17.17,-123.99 36.34,-157.43 21.96,-13.72 46.77,-19.07 70.71,-16.91"
         style="fill:#231f20;fill-opacity:1;fill-rule:evenodd;stroke:none"
         id="path68" /><path
         d="m 2063.21,2073.25 c 44.59,-27.86 72.85,-104.77 28.97,-157.73 l -212.54,-256.54 -70.18,43.85 c -8.73,5.45 -20.32,2.77 -25.78,-5.95 l 0,-0.01 c -5.46,-8.73 -2.77,-20.33 5.95,-25.78 l 65.91,-41.19 -73.45,-88.66 c -103.89,-125.38 -208.31,-74 -165.53,61.46 l 0.07,-0.04 71,-44.36 c 8.73,-5.46 20.33,-2.78 25.78,5.95 l 0.01,0 c 5.45,8.73 2.77,20.33 -5.96,25.79 l -71,44.36 c -2.1,1.31 -4.37,2.15 -6.67,2.56 l 109.86,242.66 c 1.1,-1.19 2.37,-2.26 3.81,-3.16 l 109.28,-68.29 c 8.73,-5.45 20.33,-2.78 25.78,5.96 l 0.01,0 c 5.45,8.73 2.77,20.33 -5.96,25.78 l -109.28,68.29 c -2.93,1.83 -6.19,2.74 -9.42,2.82 l 76.19,168.29 c 28.34,62.62 109.92,70.95 154.48,43.11 l 78.67,-49.17 z m -48.4,-111.5 -109.28,68.29 c -8.73,5.45 -20.32,2.77 -25.78,-5.96 l 0,0 c -5.46,-8.73 -2.78,-20.33 5.95,-25.78 l 109.28,-68.29 c 8.73,-5.45 20.32,-2.77 25.78,5.95 l 0,0.01 c 5.45,8.73 2.78,20.33 -5.95,25.78 z m 45.33,260.27 -43.94,-70.33 -9.62,6.01 c -67,41.87 -172.4,18.05 -210,-65 l -200.46,-442.79 c -92.04,-203.29 70.2,-304.85 212.67,-132.89 l 310.1,374.27 c 58.22,70.27 33.37,175.38 -33.63,217.25 l -5.28,3.3 52.75,84.42 c 6.82,-20.99 20.77,-39.78 40.94,-52.39 45.54,-28.46 105.53,-14.61 133.99,30.93 28.45,45.54 14.6,105.52 -30.94,133.98 l -0.12,0.08 c 10.79,43 -6.61,89.85 -46.23,114.61 -34.33,21.45 -76.26,20.64 -108.91,1.47 -3.45,2.76 -7.1,5.36 -10.94,7.76 -53.51,33.44 -123.99,17.17 -157.43,-36.34 -33.44,-53.51 -17.17,-123.99 36.34,-157.43 21.96,-13.72 46.77,-19.07 70.71,-16.91 z"
         style="fill:none;stroke:#231f20;stroke-opacity:1;stroke-width:5.6693;stroke-linecap:butt;stroke-linejoin:miter;stroke-miterlimit:22.9256;stroke-dasharray:none"
         id="path70" /><path
         d="m 4878.3,2326.14 c 102.22,-42.86 188.61,-111.44 251.96,-200.05 -2.09,-3.09 -4.24,-6.17 -6.48,-9.25 -15.88,3.21 -35.01,2.87 -58.07,-1.68 l -14.26,-2.8 -667.83,-131.57 494.68,345.35"
         style="fill:#231f20;fill-opacity:1;fill-rule:evenodd;stroke:none"
         id="path72" /><g
         id="g74"
         transform="matrix(0.916722,0.180592,0,0.902686,0,0)"><path
           d="m 5321.46,1512.29 c 111.51,-69.78 205.74,-164.62 274.85,-276.6 -2.28,-2.97 -4.62,-5.91 -7.06,-8.83 -17.33,7.02 -38.19,10.81 -63.35,10.81 l -15.56,0 -728.49,0 539.61,274.62 z"
           style="fill:none;stroke:#231f20;stroke-opacity:1;stroke-width:93.5403;stroke-linecap:butt;stroke-linejoin:round;stroke-miterlimit:22.9256;stroke-dasharray:none"
           id="path76" /></g><g
         id="g78"
         transform="matrix(0.90518,0.178318,0,0.916502,0,0)"><path
           d="m 4842.88,1219.02 732.95,-0.01 c 130.81,0 143.83,-105.09 143.83,-233.085 l 0,-0.009 c 0,-127.996 -13.22,-233.092 -143.83,-233.091 l -732.95,0.002 0,466.193 z"
           style="fill:none;stroke:#231f20;stroke-opacity:1;stroke-width:92.1302;stroke-linecap:butt;stroke-linejoin:round;stroke-miterlimit:22.9256;stroke-dasharray:none"
           id="path80" /></g><path
         d="m 4689.99,1749.38 c 39.33,7.75 71.22,-17.85 71.22,-57.18 0,-39.33 -31.89,-77.5 -71.22,-85.25 -39.33,-7.74 -71.21,17.86 -71.21,57.19 0,39.33 31.88,77.49 71.21,85.24"
         style="fill:#231f20;fill-opacity:1;fill-rule:evenodd;stroke:none"
         id="path82" /><g
         id="g84"
         transform="matrix(0.472644,-0.428377,0.522493,0.576486,0,0)"><path
           d="m 3606.06,5714.16 c 37.53,41.33 101.52,44.46 142.93,7.01 41.4,-37.46 44.55,-101.33 7.02,-142.65 -37.54,-41.33 -101.52,-44.47 -142.93,-7.01 -41.41,37.46 -44.55,101.32 -7.02,142.65 z"
           style="fill:none;stroke:#231f20;stroke-opacity:1;stroke-width:23.9477;stroke-linecap:butt;stroke-linejoin:round;stroke-miterlimit:22.9256;stroke-dasharray:none"
           id="path86" /></g><path
         d="m 5032.42,1967.64 c 50.13,9.88 90.76,-22.75 90.76,-72.88 0,-50.12 -40.63,-98.76 -90.76,-108.64 -50.13,-9.87 -90.76,22.76 -90.76,72.88 0,50.13 40.63,98.77 90.76,108.64"
         style="fill:#231f20;fill-opacity:1;fill-rule:evenodd;stroke:none"
         id="path88" /><g
         id="g90"
         transform="matrix(0.472683,-0.428412,0.522458,0.576447,0,0)"><path
           d="m 3773.72,6218 c 47.83,52.68 129.38,56.68 182.14,8.94 52.77,-47.74 56.78,-129.14 8.95,-181.82 -47.83,-52.67 -129.37,-56.67 -182.14,-8.93 -52.77,47.74 -56.78,129.14 -8.95,181.81 z"
           style="fill:none;stroke:#231f20;stroke-opacity:1;stroke-width:23.9457;stroke-linecap:butt;stroke-linejoin:round;stroke-miterlimit:22.9256;stroke-dasharray:none"
           id="path92" /></g><path
         d="m 4552.63,1903.84 c 20.05,3.95 36.3,-9.11 36.3,-29.15 0,-20.05 -16.25,-39.5 -36.3,-43.45 -20.05,-3.95 -36.3,9.1 -36.3,29.15 0,20.04 16.25,39.5 36.3,43.45"
         style="fill:#231f20;fill-opacity:1;fill-rule:evenodd;stroke:none"
         id="path94" /><g
         id="g96"
         transform="matrix(0.472651,-0.428383,0.522487,0.576479,0,0)"><path
           d="m 3283.85,5742.76 c 19.12,21.06 51.74,22.67 72.85,3.57 21.1,-19.09 22.7,-51.64 3.57,-72.71 -19.12,-21.06 -51.74,-22.66 -72.85,-3.57 -21.1,19.09 -22.7,51.65 -3.57,72.71 z"
           style="fill:none;stroke:#231f20;stroke-opacity:1;stroke-width:23.9517;stroke-linecap:butt;stroke-linejoin:round;stroke-miterlimit:22.9256;stroke-dasharray:none"
           id="path98" /></g><path
         d="m 2931.44,1960.55 -0.02,2.44 c -0.39,48.27 9.78,99.52 33.72,141.78 18.11,31.96 46.71,62.31 84.3,69.19 5.09,0.93 10.26,1.4 15.44,1.4 5.18,0 10.36,-0.47 15.46,-1.41 37.58,-6.88 66.19,-37.22 84.29,-69.18 23.93,-42.27 34.11,-93.51 33.72,-141.78 l -0.02,-2.44 c -0.01,-1.56 -1.28,-2.82 -2.84,-2.82 l -261.22,0 c -1.55,0 -2.82,1.26 -2.83,2.82 z m 298.02,0 -0.02,2.44 c -0.39,48.27 9.79,99.52 33.72,141.78 18.11,31.96 46.72,62.31 84.3,69.19 5.09,0.93 10.27,1.4 15.45,1.4 5.2,0 10.39,-0.48 15.51,-1.41 37.56,-6.91 66.14,-37.26 84.22,-69.22 23.92,-42.25 34.07,-93.49 33.73,-141.74 l -0.02,-2.44 c -0.01,-1.55 -1.28,-2.82 -2.83,-2.82 l -261.22,0 c -1.56,0 -2.83,1.26 -2.84,2.82 z m 298.51,0 -0.02,2.44 c -0.39,48.27 9.78,99.51 33.72,141.78 18.1,31.96 46.71,62.3 84.29,69.18 5.1,0.94 10.27,1.41 15.46,1.41 5.18,0 10.35,-0.47 15.44,-1.4 37.59,-6.88 66.19,-37.23 84.3,-69.19 23.94,-42.26 34.11,-93.51 33.72,-141.78 l -0.02,-2.44 c -0.01,-1.56 -1.28,-2.82 -2.83,-2.82 l -261.22,0 c -1.56,0 -2.83,1.26 -2.84,2.82 z m 123.16,128.43 c -16.81,-17.37 -27.58,-43.15 -33.42,-66.31 -3.15,-12.49 -16.01,-20.17 -28.5,-17.02 -12.49,3.15 -20.17,16.01 -17.02,28.5 7.93,31.43 22.46,63.96 45.2,87.47 8.99,9.3 23.89,9.54 33.19,0.55 9.3,-8.99 9.54,-23.89 0.55,-33.19 z m -298.52,0 c -16.79,-17.37 -27.57,-43.15 -33.41,-66.31 -3.15,-12.49 -16.01,-20.17 -28.5,-17.02 -12.49,3.15 -20.17,16.01 -17.02,28.5 7.92,31.43 22.45,63.96 45.2,87.47 8.99,9.3 23.89,9.54 33.19,0.55 9.3,-8.99 9.54,-23.89 0.54,-33.19 z m -298.02,0 c -16.8,-17.37 -27.57,-43.14 -33.42,-66.31 -3.15,-12.49 -16.01,-20.17 -28.5,-17.02 -12.49,3.15 -20.17,16.01 -17.02,28.5 7.93,31.43 22.46,63.96 45.21,87.47 8.99,9.3 23.89,9.54 33.18,0.55 9.3,-8.99 9.55,-23.89 0.55,-33.19 z m -148.69,-160.92 914.5,0 c 29.14,0 52.99,-23.84 52.99,-52.99 l 0,0 c 0,-29.14 -23.85,-52.99 -52.99,-52.99 l -18.94,0 c -26.84,-70.1 -79.5,-117.76 -140.04,-117.76 -60.55,0 -113.2,47.66 -140.04,117.76 l -18.43,0 c -26.84,-70.1 -79.5,-117.76 -140.04,-117.76 -60.55,0 -113.2,47.66 -140.04,117.76 l -17.95,0 c -26.84,-70.1 -79.49,-117.76 -140.04,-117.76 -60.54,0 -113.2,47.66 -140.04,117.76 l -18.94,0 c -29.14,0 -52.99,23.85 -52.99,52.99 l 0,0 c 0,29.15 23.85,52.99 52.99,52.99"
         style="fill:#231f20;fill-opacity:1;fill-rule:evenodd;stroke:none"
         id="path100" /><path
         d="m 2931.44,1960.55 -0.02,2.44 c -0.39,48.27 9.78,99.52 33.72,141.78 18.11,31.96 46.71,62.31 84.3,69.19 5.09,0.93 10.26,1.4 15.44,1.4 5.18,0 10.36,-0.47 15.46,-1.41 37.58,-6.88 66.19,-37.22 84.29,-69.18 23.93,-42.27 34.11,-93.51 33.72,-141.78 l -0.02,-2.44 c -0.01,-1.56 -1.28,-2.82 -2.84,-2.82 l -261.22,0 c -1.55,0 -2.82,1.26 -2.83,2.82 z m 298.02,0 -0.02,2.44 c -0.39,48.27 9.79,99.52 33.72,141.78 18.11,31.96 46.72,62.31 84.3,69.19 5.09,0.93 10.27,1.4 15.45,1.4 5.2,0 10.39,-0.48 15.51,-1.41 37.56,-6.91 66.14,-37.26 84.22,-69.22 23.92,-42.25 34.07,-93.49 33.73,-141.74 l -0.02,-2.44 c -0.01,-1.55 -1.28,-2.82 -2.83,-2.82 l -261.22,0 c -1.56,0 -2.83,1.26 -2.84,2.82 z m 298.51,0 -0.02,2.44 c -0.39,48.27 9.78,99.51 33.72,141.78 18.1,31.96 46.71,62.3 84.29,69.18 5.1,0.94 10.27,1.41 15.46,1.41 5.18,0 10.35,-0.47 15.44,-1.4 37.59,-6.88 66.19,-37.23 84.3,-69.19 23.94,-42.26 34.11,-93.51 33.72,-141.78 l -0.02,-2.44 c -0.01,-1.56 -1.28,-2.82 -2.83,-2.82 l -261.22,0 c -1.56,0 -2.83,1.26 -2.84,2.82 z m 123.16,128.43 c -16.81,-17.37 -27.58,-43.15 -33.42,-66.31 -3.15,-12.49 -16.01,-20.17 -28.5,-17.02 -12.49,3.15 -20.17,16.01 -17.02,28.5 7.93,31.43 22.46,63.96 45.2,87.47 8.99,9.3 23.89,9.54 33.19,0.55 9.3,-8.99 9.54,-23.89 0.55,-33.19 z m -298.52,0 c -16.79,-17.37 -27.57,-43.15 -33.41,-66.31 -3.15,-12.49 -16.01,-20.17 -28.5,-17.02 -12.49,3.15 -20.17,16.01 -17.02,28.5 7.92,31.43 22.45,63.96 45.2,87.47 8.99,9.3 23.89,9.54 33.19,0.55 9.3,-8.99 9.54,-23.89 0.54,-33.19 z m -298.02,0 c -16.8,-17.37 -27.57,-43.14 -33.42,-66.31 -3.15,-12.49 -16.01,-20.17 -28.5,-17.02 -12.49,3.15 -20.17,16.01 -17.02,28.5 7.93,31.43 22.46,63.96 45.21,87.47 8.99,9.3 23.89,9.54 33.18,0.55 9.3,-8.99 9.55,-23.89 0.55,-33.19 z m -148.69,-160.92 914.5,0 c 29.14,0 52.99,-23.84 52.99,-52.99 l 0,0 c 0,-29.14 -23.85,-52.99 -52.99,-52.99 l -18.94,0 c -26.84,-70.1 -79.5,-117.76 -140.04,-117.76 -60.55,0 -113.2,47.66 -140.04,117.76 l -18.43,0 c -26.84,-70.1 -79.5,-117.76 -140.04,-117.76 -60.55,0 -113.2,47.66 -140.04,117.76 l -17.95,0 c -26.84,-70.1 -79.49,-117.76 -140.04,-117.76 -60.54,0 -113.2,47.66 -140.04,117.76 l -18.94,0 c -29.14,0 -52.99,23.85 -52.99,52.99 l 0,0 c 0,29.15 23.85,52.99 52.99,52.99 z"
         style="fill:none;stroke:#231f20;stroke-opacity:1;stroke-width:5.6665;stroke-linecap:butt;stroke-linejoin:round;stroke-miterlimit:22.9256;stroke-dasharray:none"
         id="path102" /><path
         d="m 627.914,609.473 c -24.523,0 -44.402,19.875 -44.402,44.402 0,24.523 19.879,44.395 44.402,44.395 24.52,0 44.399,-19.872 44.399,-44.395 0,-24.527 -19.879,-44.402 -44.399,-44.402 z M 353.902,757.301 c 0.86,47.539 34.676,88.293 81.305,97.719 15.301,38.828 52.805,64.351 94.543,64.351 32.133,0 62.18,-15.074 81.406,-40.805 11.09,4.016 22.766,6.039 34.559,6.039 44.109,0 83.336,-28.562 96.762,-70.605 1.32,-4.152 0.019,-8.465 -3.379,-11.191 -3.399,-2.731 -7.891,-3.071 -11.657,-0.868 -33.98,19.75 -70.535,29.645 -109.855,29.645 -89.871,0 -173.848,-33.301 -247.582,-83.027 -3.274,-2.211 -7.231,-2.399 -10.699,-0.516 -3.481,1.891 -5.473,5.305 -5.403,9.258 z M 912.68,524.473 C 807.641,533.414 706.438,492.598 636,414.422 568.063,339.023 537.449,238.055 553.734,137.688 c 0.661,-4.086 -1.023,-7.958 -4.468,-10.25 -3.461,-2.297 -7.676,-2.36 -11.196,-0.157 L 137.945,377.293 c -4.523,2.828 -6.14,8.57 -3.777,13.352 86.859,174.82 271.613,389.312 483.418,389.312 96.949,0 157.074,-80.973 203.508,-155.059 46.051,-10.128 84.359,-42.601 102.035,-86.269 1.383,-3.414 0.926,-7.031 -1.258,-10.004 -2.199,-2.977 -5.504,-4.473 -9.191,-4.152 z M 793.223,449.457 c 11.621,-21.168 17.636,-44.801 17.636,-68.953 0,-79.219 -64.214,-143.434 -143.429,-143.434 -17.68,0 -35.192,3.235 -51.68,9.606 -4.895,1.887 -7.582,7.062 -6.301,12.152 22.172,88.172 86.508,161.492 170.887,195.246 4.863,1.949 10.359,-0.011 12.887,-4.617"
         style="fill:#231f20;fill-opacity:1;fill-rule:evenodd;stroke:none"
         id="path104" /><g
         id="g106"
         transform="scale(0.999999,1)"><path
           d="m 627.915,609.472 c -24.524,0 -44.403,19.875 -44.403,44.402 0,24.524 19.879,44.395 44.403,44.395 24.519,0 44.398,-19.871 44.398,-44.395 0,-24.527 -19.879,-44.402 -44.398,-44.402 z M 353.903,757.3 c 0.859,47.539 34.675,88.293 81.304,97.719 15.301,38.828 52.805,64.351 94.543,64.351 32.133,0 62.18,-15.074 81.407,-40.804 11.09,4.015 22.765,6.039 34.558,6.039 44.11,0 83.336,-28.563 96.762,-70.606 1.32,-4.152 0.02,-8.465 -3.379,-11.191 -3.398,-2.731 -7.89,-3.07 -11.656,-0.867 -33.981,19.75 -70.535,29.644 -109.856,29.644 -89.871,0 -173.847,-33.301 -247.582,-83.027 -3.273,-2.211 -7.23,-2.398 -10.699,-0.516 -3.481,1.891 -5.473,5.305 -5.402,9.258 z M 912.68,524.472 C 807.641,533.414 706.438,492.597 636,414.422 568.063,339.023 537.45,238.054 553.735,137.687 c 0.66,-4.086 -1.024,-7.957 -4.469,-10.25 -3.461,-2.296 -7.676,-2.359 -11.195,-0.156 L 137.945,377.293 c -4.523,2.828 -6.14,8.57 -3.777,13.351 86.86,174.82 271.614,389.312 483.418,389.312 96.95,0 157.075,-80.972 203.508,-155.058 46.051,-10.129 84.36,-42.602 102.036,-86.27 1.382,-3.414 0.925,-7.031 -1.258,-10.003 -2.199,-2.977 -5.504,-4.473 -9.192,-4.153 z M 793.223,449.457 c 11.621,-21.168 17.637,-44.801 17.637,-68.953 0,-79.219 -64.215,-143.434 -143.43,-143.434 -17.679,0 -35.191,3.234 -51.68,9.606 -4.894,1.886 -7.582,7.062 -6.3,12.152 22.172,88.172 86.508,161.492 170.887,195.246 4.863,1.949 10.359,-0.012 12.886,-4.617 z"
           style="fill:none;stroke:#231f20;stroke-opacity:1;stroke-width:20.651;stroke-linecap:butt;stroke-linejoin:round;stroke-miterlimit:22.9256;stroke-dasharray:none"
           id="path108" /></g><g
         id="g110"><path
           d="m 5896.42,825.539 c 84.03,0 152.15,-129.367 152.15,-288.937 0,-159.571 -68.12,-288.938 -152.15,-288.938 -84.02,0 -152.17,129.367 -152.17,288.938 0,159.57 68.15,288.937 152.17,288.937 z"
           style="fill:none;stroke:#231f20;stroke-opacity:1;stroke-width:2.1552;stroke-linecap:butt;stroke-linejoin:round;stroke-miterlimit:22.9256;stroke-dasharray:none"
           id="path112" /></g><path
         d="m 5896.43,825.539 c 84.03,0 152.14,-129.367 152.14,-288.937 0,-159.571 -68.11,-288.938 -152.14,-288.938 -84.04,0 -152.18,129.367 -152.18,288.938 0,159.57 68.14,288.937 152.18,288.937 z m -33.39,-145.254 c 24.96,0 45.19,-38.422 45.19,-85.812 0,-47.387 -20.23,-85.809 -45.19,-85.809 -24.95,0 -45.2,38.422 -45.2,85.809 0,47.39 20.25,85.812 45.2,85.812 z m 70.43,-161.324 c 12.48,0 22.59,-19.211 22.59,-42.906 0,-23.696 -10.11,-42.907 -22.59,-42.907 -12.48,0 -22.6,19.211 -22.6,42.907 0,23.695 10.12,42.906 22.6,42.906"
         style="fill:#231f20;fill-opacity:1;fill-rule:evenodd;stroke:none"
         id="path114" /><g
         id="g116"><path
           d="m 5896.42,825.539 c 84.03,0 152.15,-129.367 152.15,-288.937 0,-159.571 -68.12,-288.938 -152.15,-288.938 -84.03,0 -152.17,129.367 -152.17,288.938 0,159.57 68.14,288.937 152.17,288.937 z m -33.38,-145.254 c 24.95,0 45.18,-38.421 45.18,-85.812 0,-47.387 -20.23,-85.809 -45.18,-85.809 -24.96,0 -45.2,38.422 -45.2,85.809 0,47.391 20.24,85.812 45.2,85.812 z m 70.43,-161.324 c 12.47,0 22.59,-19.211 22.59,-42.906 0,-23.695 -10.12,-42.906 -22.59,-42.906 -12.48,0 -22.6,19.211 -22.6,42.906 0,23.695 10.12,42.906 22.6,42.906 z"
           style="fill:none;stroke:#231f20;stroke-opacity:1;stroke-width:7.0875;stroke-linecap:butt;stroke-linejoin:round;stroke-miterlimit:22.9256;stroke-dasharray:none"
           id="path118" /></g><path
         d="m 6412.96,328.238 4.5,1.18 c 44.07,29.949 50.82,95.609 20.3,151.656 9.93,-5.609 24.81,-15.254 41.22,-26.773 -2.2,4.137 -4.61,8.336 -7.23,12.613 -44.57,20.676 -92.46,71.047 -143.74,151.082 -113.56,131.18 -221.49,197.488 -323.74,198.871 l 0,-0.027 c 63.75,-71.578 86.87,-201.477 86.87,-280.238 0,-94.063 -32.96,-261.028 -128.73,-314.508 l 0,-0.028 c 105.59,-10.828 198.13,12.614 277.61,70.325 60.19,29.613 117.84,41.554 172.94,35.847"
         style="fill:#231f20;fill-opacity:1;fill-rule:evenodd;stroke:none"
         id="path120" /><path
         d="m 6412.96,328.238 4.5,1.18 c 44.07,29.949 50.82,95.609 20.3,151.656 9.93,-5.609 24.81,-15.254 41.22,-26.773 -2.2,4.137 -4.61,8.336 -7.23,12.613 -44.57,20.676 -92.46,71.047 -143.74,151.082 -113.56,131.18 -221.49,197.488 -323.74,198.871 l 0,-0.027 c 63.75,-71.578 86.87,-201.477 86.87,-280.238 0,-94.063 -32.96,-261.028 -128.73,-314.508 l 0,-0.028 c 105.59,-10.828 198.13,12.614 277.61,70.325 60.19,29.613 117.84,41.554 172.94,35.847 z"
         style="fill:none;stroke:#231f20;stroke-opacity:1;stroke-width:14.1732;stroke-linecap:butt;stroke-linejoin:round;stroke-miterlimit:22.9256;stroke-dasharray:none"
         id="path122" /><g
         id="g124"><path
           d="m 6544.13,338.024 c -35.13,-6.602 -99.93,-0.645 -126.67,-0.102 44.06,29.949 50.82,84.27 20.3,140.317 26.99,-15.25 90.55,-57.473 122.17,-88.95 6.9,14.11 29.99,19.672 53.73,12.36 25.31,-7.793 41.78,-27.266 36.78,-43.489 -2.82,-9.152 -11.87,-15.316 -23.76,-17.55 8.57,-8.54 12.59,-18.731 9.77,-27.883 -5,-16.223 -29.56,-23.059 -54.88,-15.262 -23.8,7.328 -39.78,24.984 -37.44,40.559 z"
           style="fill:none;stroke:#231f20;stroke-opacity:1;stroke-width:34.0163;stroke-linecap:butt;stroke-linejoin:round;stroke-miterlimit:22.9256;stroke-dasharray:none"
           id="path126" /></g><g
         id="g128"
         transform="matrix(0,-1,-1,0,0,0)"><path
           d="m -585.261,-4577.55 c 4.121,0.08 8.293,0.1 12.464,0.1 208.828,0 378.11,-90.9 378.11,-203.03 0,-112.14 -169.282,-203.03 -378.11,-203.03 -4.171,0 -8.343,0.01 -12.464,0.09 8.89,-117.06 -50.899,-200.57 -179.313,-250.59 -30.453,114.32 -11.078,202.43 58.129,264.25 -84.23,29.45 -143.906,103.08 -143.906,189.28 0,86.19 59.691,159.83 143.922,189.29 -69.223,61.84 -88.598,149.92 -58.145,264.26 128.414,-50.03 188.215,-133.55 179.313,-250.62 z"
           style="fill:none;stroke:#231f20;stroke-opacity:1;stroke-width:85.0358;stroke-linecap:round;stroke-linejoin:round;stroke-miterlimit:22.9256;stroke-dasharray:none"
           id="path130" /></g><g
         id="g132"
         transform="matrix(0,-1,-0.999999,0,0,0)"><path
           d="m -459.992,-3571.58 c 39.918,-191.05 -15.539,-282.02 -166.453,-272.83 -69.859,104.33 -59.484,193.94 51.028,257.43 l -2.379,-0.03 c -36.348,0 -70.703,8.61 -101.086,23.92 -29.945,-103.19 -136.344,-144.63 -319.226,-124.28 104.836,27.67 185.117,90.84 240.851,189.51 -28.699,37.8 -45.758,84.95 -45.758,136.09 0,50.61 16.711,97.32 44.879,134.91 -55.695,97.76 -135.703,160.4 -239.972,187.92 181.476,20.19 287.636,-20.46 318.531,-121.9 29.906,15.18 63.675,23.89 99.441,24.25 -106.105,63.33 -115.168,151.87 -46.309,254.7 152.782,9.29 207.742,-84.09 164.934,-280.05 l 198.718,-51.87 c 114.817,-29.96 215.8712,-34.42 215.8712,-153.1 l 0,-0.08 c 0,-118.68 -100.9652,-123.14 -215.8712,-153.11 l -197.199,-51.48 z"
           style="fill:none;stroke:#231f20;stroke-opacity:1;stroke-width:90.3632;stroke-linecap:round;stroke-linejoin:round;stroke-miterlimit:22.9256;stroke-dasharray:none"
           id="path134" /></g><path
         d="m 1945.83,501.313 c 73.8,0 133.62,-49.317 133.62,-110.141 0,-60.82 -59.82,-110.137 -133.62,-110.137 -73.8,0 -133.63,49.317 -133.63,110.137 0,60.824 59.83,110.141 133.63,110.141 z m -50.62,-71.11 c 14.31,0 25.92,-11.605 25.92,-25.914 0,-14.309 -11.61,-25.918 -25.92,-25.918 -14.31,0 -25.92,11.609 -25.92,25.918 0,14.309 11.61,25.914 25.92,25.914 z m 101.24,0 c 14.3,0 25.91,-11.605 25.91,-25.914 0,-14.309 -11.61,-25.918 -25.91,-25.918 -14.32,0 -25.92,11.609 -25.92,25.918 0,14.309 11.6,25.914 25.92,25.914"
         style="fill:#231f20;fill-opacity:1;fill-rule:evenodd;stroke:none"
         id="path136" /><path
         d="m 1686.15,709.25 c -59.34,12.047 -104.32,66.523 -134.92,163.469 136.59,48.316 224.02,25.726 258.63,-75.129 41.72,17.578 87.68,27.32 135.97,27.32 48.28,0 94.24,-9.742 135.96,-27.32 34.62,100.855 122.05,123.445 258.64,75.129 -30.61,-96.946 -75.59,-151.422 -134.93,-163.469 53.11,-59.539 85.31,-137.496 85.31,-222.836 0,-186.957 -154.45,-338.504 -344.98,-338.504 -190.53,0 -344.99,151.547 -344.99,338.504 0,85.34 32.2,163.297 85.31,222.836 z"
         style="fill:none;stroke:#231f20;stroke-opacity:1;stroke-width:85.0394;stroke-linecap:butt;stroke-linejoin:round;stroke-miterlimit:22.9256;stroke-dasharray:none"
         id="path138" /><path
         d="m 6308.51,4983.45 c -26.25,129.91 20.25,213.97 152.2,243.32 2.84,0.63 5.67,-1.14 6.34,-3.96 31.47,-131.47 -23.69,-210.11 -151.97,-243.47 -1.47,-0.38 -2.88,-0.16 -4.17,0.64 -1.29,0.81 -2.09,1.98 -2.4,3.47 z m -96.11,-105.24 c -110.37,73.26 -136.94,165.67 -64.43,279.67 1.56,2.45 4.82,3.2 7.29,1.68 115.15,-70.68 131.78,-165.38 64.69,-279.61 -0.77,-1.31 -1.92,-2.15 -3.4,-2.49 -1.48,-0.35 -2.89,-0.09 -4.15,0.75 z m -110.46,-176.78 c -110.37,73.26 -136.94,165.67 -64.44,279.66 1.56,2.46 4.82,3.21 7.3,1.69 115.14,-70.67 131.77,-165.38 64.68,-279.61 -0.77,-1.3 -1.91,-2.15 -3.39,-2.49 -1.48,-0.34 -2.89,-0.09 -4.15,0.75 z m -110.47,-176.78 c -110.37,73.26 -136.94,165.67 -64.43,279.67 1.56,2.45 4.82,3.2 7.3,1.68 115.14,-70.67 131.77,-165.38 64.68,-279.61 -0.77,-1.3 -1.92,-2.15 -3.4,-2.49 -1.48,-0.35 -2.88,-0.08 -4.15,0.75 z m 269.41,329.73 c 73.26,110.37 165.67,136.94 279.66,64.43 2.46,-1.56 3.21,-4.82 1.69,-7.29 -70.68,-115.15 -165.38,-131.77 -279.61,-64.69 -1.3,0.77 -2.16,1.92 -2.49,3.4 -0.35,1.48 -0.09,2.88 0.75,4.15 z M 6150.41,4677.6 c 73.26,110.37 165.67,136.94 279.67,64.43 2.45,-1.56 3.21,-4.82 1.68,-7.3 -70.67,-115.14 -165.37,-131.77 -279.6,-64.68 -1.31,0.77 -2.16,1.92 -2.5,3.4 -0.34,1.48 -0.09,2.88 0.75,4.15 z m -110.46,-176.78 c 73.26,110.37 165.67,136.94 279.66,64.43 2.46,-1.56 3.21,-4.81 1.69,-7.29 -70.67,-115.15 -165.38,-131.77 -279.61,-64.69 -1.3,0.77 -2.15,1.92 -2.49,3.4 -0.35,1.48 -0.09,2.88 0.75,4.15 z m -138.39,-175.94 -0.01,0 c -15.63,9.77 -20.43,30.56 -10.66,46.19 l 63.59,101.77 c 9.77,15.63 30.55,20.43 46.19,10.66 l 0.01,0 c 15.63,-9.77 20.43,-30.55 10.66,-46.19 l -63.59,-101.77 c -9.77,-15.63 -30.55,-20.43 -46.19,-10.66"
         style="fill:#231f20;fill-opacity:1;fill-rule:evenodd;stroke:none"
         id="path140" /><g
         id="g142"
         transform="matrix(0.615434,-0.384566,0.384566,0.615434,0,0)"><path
           d="m 3733.04,10430.1 c -125.54,132.7 -132.58,264.8 0.19,395.5 2.85,2.8 7.46,2.8 10.3,0 132.77,-130.7 125.74,-262.8 0.19,-395.5 -1.44,-1.5 -3.24,-2.3 -5.34,-2.3 -2.1,0 -3.89,0.8 -5.34,2.3 z m -35.46,-193.1 c -182.47,5 -281,93.6 -279.51,279.7 0.03,4 3.29,7.3 7.29,7.3 186.17,1.5 274.75,-97 279.77,-279.5 0.05,-2.1 -0.67,-3.9 -2.15,-5.4 -1.48,-1.5 -3.31,-2.2 -5.4,-2.1 z m 0,-287.29 c -182.47,5.02 -281,93.59 -279.51,279.79 0.03,4 3.28,7.2 7.29,7.3 186.17,1.5 274.75,-97.1 279.77,-279.54 0.05,-2.09 -0.67,-3.92 -2.15,-5.39 -1.48,-1.49 -3.31,-2.21 -5.4,-2.16 z m 0,-287.24 c -182.48,5.02 -281,93.6 -279.51,279.76 0.03,4.01 3.29,7.27 7.3,7.3 186.16,1.49 274.74,-97.04 279.76,-279.51 0.05,-2.09 -0.67,-3.92 -2.15,-5.4 -1.48,-1.48 -3.31,-2.2 -5.4,-2.15 z m 74.05,582.03 c 5.02,182.5 93.6,281 279.76,279.5 4.01,0 7.27,-3.3 7.3,-7.3 1.49,-186.1 -97.04,-274.7 -279.51,-279.7 -2.09,-0.1 -3.92,0.6 -5.4,2.1 -1.48,1.5 -2.21,3.3 -2.15,5.4 z m 0,-287.24 c 5.02,182.44 93.6,281.04 279.77,279.54 4,-0.1 7.26,-3.3 7.29,-7.3 1.49,-186.2 -97.04,-274.77 -279.51,-279.79 -2.09,-0.05 -3.92,0.67 -5.4,2.15 -1.48,1.48 -2.21,3.31 -2.15,5.4 z m -0.01,-287.24 c 5.03,182.47 93.61,280.99 279.77,279.5 4.01,-0.02 7.26,-3.28 7.3,-7.29 1.49,-186.16 -97.04,-274.74 -279.52,-279.77 -2.08,-0.05 -3.91,0.67 -5.39,2.16 -1.48,1.48 -2.2,3.31 -2.16,5.4 z m -33.24,-306.66 0,0 c -25.41,0 -46.19,20.79 -46.2,46.2 l 0,165.34 c 0.01,25.41 20.78,46.2 46.19,46.2 l 0.02,0 c 25.4,0 46.18,-20.78 46.18,-46.19 l 0.01,-165.35 c 0,-25.41 -20.79,-46.2 -46.2,-46.2 z"
           style="fill:none;stroke:#231f20;stroke-opacity:1;stroke-width:14.7037;stroke-linecap:butt;stroke-linejoin:round;stroke-miterlimit:22.9256;stroke-dasharray:none"
           id="path144" /></g><path
         d="m 1626.04,4986.09 c 24.14,136.09 143.03,236.16 282.19,236.16 89.15,0 172.43,-41.14 226.72,-111.25 14.05,2.67 28.34,4 42.65,4 125.89,0 227.94,-102.05 227.94,-227.94 0,-77.69 -39.31,-149.54 -104.39,-191.59 -1.92,-1.24 -3.87,-1.81 -6.15,-1.81 -247.07,0 -494.13,0 -741.19,0 -2.72,0 -5.06,0.83 -7.17,2.55 -38.35,31.29 -60.53,77.82 -60.53,127.38 0,81.7 60.02,150.63 139.93,162.5 z m 581.28,-360.92 0,0 c -12.09,4.88 -25.96,-1.01 -30.84,-13.08 l -54.51,-134.93 c -4.88,-12.08 1.01,-25.95 13.09,-30.83 l 0,0 c 12.08,-4.88 25.96,1.01 30.83,13.08 l 54.52,134.93 c 4.88,12.08 -1.01,25.95 -13.09,30.83 z m -159.42,-117.88 0,0 c -12.08,4.88 -25.96,-1.01 -30.84,-13.09 l -54.51,-134.92 c -4.88,-12.08 1.01,-25.95 13.09,-30.83 l 0,0 c 12.08,-4.88 25.96,1 30.83,13.09 l 54.52,134.92 c 4.88,12.08 -1.01,25.95 -13.09,30.83 z m -77.44,117.88 0,0 c -12.08,4.88 -25.95,-1.01 -30.83,-13.08 l -54.52,-134.93 c -4.88,-12.08 1.02,-25.95 13.09,-30.83 l 0.01,0 c 12.08,-4.88 25.95,1.01 30.83,13.08 l 54.51,134.93 c 4.88,12.08 -1.01,25.95 -13.09,30.83 z m -159.42,-117.88 0,0 c -12.08,4.88 -25.95,-1.01 -30.84,-13.09 l -54.51,-134.92 c -4.88,-12.08 1.01,-25.95 13.09,-30.83 l 0.01,0 c 12.07,-4.88 25.95,1 30.83,13.09 l 54.51,134.92 c 4.88,12.08 -1.01,25.95 -13.09,30.83 z m -77.43,117.88 -0.01,0 c -12.08,4.88 -25.95,-1.01 -30.83,-13.08 l -54.51,-134.93 c -4.88,-12.08 1.01,-25.95 13.09,-30.83 l 0,0 c 12.08,-4.88 25.95,1.01 30.83,13.08 l 54.52,134.93 c 4.87,12.08 -1.02,25.95 -13.09,30.83 z m -159.43,-117.88 0,0 c -12.07,4.88 -25.95,-1.01 -30.83,-13.09 l -54.51,-134.92 c -4.88,-12.08 1.01,-25.95 13.09,-30.83 l 0,0 c 12.08,-4.88 25.95,1 30.83,13.09 l 54.52,134.92 c 4.87,12.08 -1.01,25.95 -13.1,30.83"
         style="fill:#231f20;fill-opacity:1;fill-rule:evenodd;stroke:none"
         id="path146" /><path
         d="m 1626.04,4986.09 c 24.14,136.09 143.03,236.16 282.19,236.16 89.15,0 172.43,-41.14 226.72,-111.25 14.05,2.67 28.34,4 42.65,4 125.89,0 227.94,-102.05 227.94,-227.94 0,-77.69 -39.31,-149.54 -104.39,-191.59 -1.92,-1.24 -3.87,-1.81 -6.15,-1.81 -247.07,0 -494.13,0 -741.19,0 -2.72,0 -5.06,0.83 -7.17,2.55 -38.35,31.29 -60.53,77.82 -60.53,127.38 0,81.7 60.02,150.63 139.93,162.5 z m 581.28,-360.92 0,0 c -12.09,4.88 -25.96,-1.01 -30.84,-13.08 l -54.51,-134.93 c -4.88,-12.08 1.01,-25.95 13.09,-30.83 l 0,0 c 12.08,-4.88 25.96,1.01 30.83,13.08 l 54.52,134.93 c 4.88,12.08 -1.01,25.95 -13.09,30.83 z m -159.42,-117.88 0,0 c -12.08,4.88 -25.96,-1.01 -30.84,-13.09 l -54.51,-134.92 c -4.88,-12.08 1.01,-25.95 13.09,-30.83 l 0,0 c 12.08,-4.88 25.96,1 30.83,13.09 l 54.52,134.92 c 4.88,12.08 -1.01,25.95 -13.09,30.83 z m -77.44,117.88 0,0 c -12.08,4.88 -25.95,-1.01 -30.83,-13.08 l -54.52,-134.93 c -4.88,-12.08 1.02,-25.95 13.09,-30.83 l 0.01,0 c 12.08,-4.88 25.95,1.01 30.83,13.08 l 54.51,134.93 c 4.88,12.08 -1.01,25.95 -13.09,30.83 z m -159.42,-117.88 0,0 c -12.08,4.88 -25.95,-1.01 -30.84,-13.09 l -54.51,-134.92 c -4.88,-12.08 1.01,-25.95 13.09,-30.83 l 0.01,0 c 12.07,-4.88 25.95,1 30.83,13.09 l 54.51,134.92 c 4.88,12.08 -1.01,25.95 -13.09,30.83 z m -77.43,117.88 -0.01,0 c -12.08,4.88 -25.95,-1.01 -30.83,-13.08 l -54.51,-134.93 c -4.88,-12.08 1.01,-25.95 13.09,-30.83 l 0,0 c 12.08,-4.88 25.95,1.01 30.83,13.08 l 54.52,134.93 c 4.87,12.08 -1.02,25.95 -13.09,30.83 z m -159.43,-117.88 0,0 c -12.07,4.88 -25.95,-1.01 -30.83,-13.09 l -54.51,-134.92 c -4.88,-12.08 1.01,-25.95 13.09,-30.83 l 0,0 c 12.08,-4.88 25.95,1 30.83,13.09 l 54.52,134.92 c 4.87,12.08 -1.01,25.95 -13.1,30.83 z"
         style="fill:none;stroke:#231f20;stroke-opacity:1;stroke-width:14.1732;stroke-linecap:butt;stroke-linejoin:round;stroke-miterlimit:22.9256;stroke-dasharray:none"
         id="path148" /><path
         d="m 3337.35,4599.19 c 9.25,70.66 27.35,123.2 54.31,157.66 301.91,-184.47 366.14,171.74 481.73,349.93 -203.44,-63.33 -638.59,48.93 -520.22,-282.27 74.95,79.45 163.6,112.49 265.94,99.14 -164.25,-51.94 -272.54,-127.87 -324.87,-227.81 -46.12,64.64 -129.58,103.73 -250.42,117.22 65.54,22.07 128.1,11.84 187.67,-30.65 34.82,233.08 -236.63,102.79 -378.58,118.01 99.11,-102.12 187.57,-327.92 362.06,-167.47 22.03,-18.99 40.63,-50.84 55.82,-95.53 -3.85,-13.3 -6.86,-26.96 -9.03,-40.98 -139.84,-13.89 -250.73,-75.54 -278.55,-154.24 l 676.96,0 c -30.7,86.84 -162.54,152.93 -322.82,156.99"
         style="fill:#231f20;fill-opacity:1;fill-rule:evenodd;stroke:none"
         id="path150" /><g
         id="g152"
         transform="scale(1,0.999999)"><path
           d="m 3337.35,4599.19 c 9.25,70.66 27.34,123.21 54.31,157.66 301.9,-184.47 366.14,171.74 481.72,349.93 -203.43,-63.33 -638.58,48.93 -520.21,-282.27 74.95,79.45 163.6,112.5 265.94,99.15 -164.25,-51.94 -272.54,-127.88 -324.87,-227.81 -46.12,64.64 -129.58,103.72 -250.42,117.21 65.54,22.07 128.1,11.85 187.67,-30.65 34.82,233.08 -236.63,102.79 -378.58,118.02 99.11,-102.13 187.57,-327.93 362.06,-167.47 22.03,-19 40.63,-50.85 55.81,-95.54 -3.84,-13.3 -6.85,-26.96 -9.02,-40.98 -139.84,-13.89 -250.73,-75.53 -278.56,-154.24 l 676.97,0 c -30.7,86.85 -162.54,152.93 -322.82,156.99 z"
           style="fill:none;stroke:#231f20;stroke-opacity:1;stroke-width:14.107;stroke-linecap:butt;stroke-linejoin:round;stroke-miterlimit:22.9256;stroke-dasharray:none"
           id="path154" /></g><path
         d="m 5074.64,5223.14 c -6,2.18 -12.12,3.79 -18.3,4.89 l -39.39,-58.91 17.21,-10.76 40.48,64.78 z m -76.49,0.5 c -13.34,-4.19 -26.35,-10.47 -38.61,-18.64 l 18.42,-11.52 20.19,30.16 z m 74.98,-89.62 17.21,-10.76 35.7,61.26 c -3.68,5.11 -7.85,9.83 -12.44,14.27 l -40.47,-64.77 z m 56.2,-35.12 18.45,-11.53 c 1.97,14.61 1.91,29.1 -0.18,42.93 l -18.27,-31.4 z m -209.26,69.79 c -2.41,-3.01 -4.76,-6.05 -7,-9.25 l -23.22,-32.83 30.61,-19.12 28.75,43 -29.14,18.2 z m 39.35,-85.55 19.95,-12.46 27.4,43.84 -18.57,11.61 -28.78,-42.99 z m 58.91,-36.81 19.96,-12.47 26.01,44.71 -18.57,11.61 -27.4,-43.85 z m 58.91,-36.81 30.64,-19.14 19.33,35.25 c 1.89,3.42 3.59,6.87 5.24,10.35 l -29.16,18.23 -26.05,-44.69 z m -217.26,74.8 -29.89,-42.28 32.84,-20.52 28.78,42.97 -31.73,19.83 z m 41.94,-87.17 22.66,-14.16 27.4,43.84 -21.31,13.31 -28.75,-42.99 z m 61.62,-38.51 22.66,-14.16 26.04,44.69 -21.31,13.32 -27.39,-43.85 z m 61.65,-38.52 32.87,-20.54 24.9,45.41 -31.76,19.84 -26.01,-44.71 z m -224.97,79.61 -29.87,-42.29 35.08,-21.92 28.75,43 -33.96,21.21 z m 44.17,-88.56 25.4,-15.87 27.39,43.85 -24.01,15 -28.78,-42.98 z m 64.36,-40.21 25.39,-15.87 26.02,44.71 -24.02,15 -27.39,-43.84 z m 64.36,-40.22 35.1,-21.94 24.92,45.39 -33.99,21.24 -26.03,-44.69 z m -232.66,84.42 -29.86,-42.3 37.31,-23.32 28.78,42.98 -36.23,22.64 z m 46.44,-89.98 28.1,-17.56 27.4,43.84 -26.75,16.71 -28.75,-42.99 z m 67.06,-41.91 28.1,-17.56 26.05,44.69 -26.75,16.71 -27.4,-43.84 z m 67.1,-41.93 37.34,-23.33 24.93,45.39 -36.26,22.65 -26.01,-44.71 z m -240.36,89.23 -29.87,-42.29 39.57,-24.74 28.76,43 -38.46,24.03 z m 48.7,-91.39 30.81,-19.25 27.4,43.84 -29.46,18.41 -28.75,-43 z m 69.77,-43.6 30.81,-19.25 26.05,44.69 -29.47,18.41 -27.39,-43.85 z m 69.8,-43.61 39.61,-24.75 24.93,45.38 -38.5,24.06 -26.04,-44.69 z m -248.04,94.03 -29.87,-42.3 41.82,-26.13 28.78,42.98 -40.73,25.45 z m 50.94,-92.79 33.55,-20.97 27.39,43.85 -32.19,20.11 -28.75,-42.99 z m 72.51,-45.32 33.54,-20.96 26.05,44.69 -32.19,20.12 -27.4,-43.85 z m 72.53,-45.32 41.85,-26.15 24.92,45.39 -40.75,25.47 -26.02,-44.71 z m -255.75,98.85 -1.86,-2.66 c -21.3,-30.16 -21.91,-69.65 -10.39,-106.73 l 55.22,82.54 -42.97,26.85 z m 10.52,-158.01 c 8.9,-13.85 19.29,-26.28 30.48,-36.41 l 75.86,121.4 -34.9,21.81 -71.44,-106.8 z m 69.42,-60.79 c 14,-5.62 29.77,-9.53 46.09,-11.44 l 64.69,111.06 -34.9,21.81 -75.88,-121.43 z m 99.75,-10.62 c 38.41,5.88 73.63,23.74 91.45,56.18 l 1.57,2.84 -43,26.86 -50.02,-85.88"
         style="fill:#231f20;fill-opacity:1;fill-rule:evenodd;stroke:none"
         id="path156" /><g
         id="g158"
         transform="matrix(-0.579149,0.361893,0.407239,0.651719,0,0)"><path
           d="m -2248.72,9263.09 c 9.15,-1.72 17.99,-4.16 26.53,-7.21 l 3.19,-92.17 -29.72,0 0,99.38 z m 95.37,-52.18 c 13.32,-13.82 24.59,-29.73 33.49,-47.2 l -31.81,0 -1.68,47.2 z m -162.64,-47.2 -29.73,0 3.2,92.22 c 8.54,3.1 17.38,5.43 26.53,7.16 l 0,-99.38 z m -97.05,0 -31.86,0 c 8.89,17.48 20.22,33.43 33.53,47.25 l -1.67,-47.25 z m 314.01,-67.28 c 0.66,-4.98 1.22,-9.96 1.52,-15.04 l 3.36,-52.23 -52.85,0 -2.33,67.27 50.3,0 z m -115.24,-67.27 -34.45,0 0,67.27 32.06,0.01 2.39,-67.28 z m -101.72,0 -34.46,0 2.39,67.27 32.07,0 0,-67.27 z m -101.73,0 -52.89,0 3.35,52.23 c 0.31,5.09 0.87,10.06 1.53,15.04 l 50.35,0 -2.34,-67.27 z m 327.84,-67.27 4.32,-67.28 -56.71,0 -2.39,67.28 54.78,0 z m -119.71,-67.28 -39.13,0.01 0,67.27 36.79,-0.01 2.34,-67.27 z m -106.4,0 -39.13,0 2.34,67.27 36.79,0.01 0,-67.28 z m -106.45,0 -56.76,0 4.32,67.28 54.82,0 -2.38,-67.28 z m 341.14,-67.27 4.27,-67.27 -60.57,-0.01 -2.34,67.28 58.64,0 z m -123.57,-67.28 -43.85,0.01 0,67.27 41.46,0 2.39,-67.28 z m -111.12,0 -43.85,0.01 2.38,67.27 41.46,0 0.01,-67.28 z m -111.13,0.01 -60.61,-0.01 4.26,67.28 58.69,0 -2.34,-67.27 z m 354.41,-67.28 4.26,-67.27 -64.42,0 -2.39,67.27 62.55,0 z m -127.48,-67.27 -48.52,0 -0.01,67.27 46.18,0 2.35,-67.27 z m -115.8,0 -48.52,0 2.33,67.27 46.19,0 0,-67.27 z m -115.85,0 -64.48,0 4.26,67.27 62.61,0 -2.39,-67.27 z m 367.71,-67.28 4.27,-67.27 -68.33,0 -2.34,67.27 66.4,0 z m -131.39,-67.27 -53.2,0 0,67.28 50.86,0 2.34,-67.28 z m -120.47,0 -53.2,0 2.33,67.28 50.87,-0.01 0,-67.27 z m -120.52,0 -68.4,0 4.27,67.27 66.46,0 -2.33,-67.27 z m 380.98,-67.28 4.26,-67.26 -72.2,-0.01 -2.39,67.28 70.33,-0.01 z m -135.26,-67.26 -57.93,-0.01 0,67.28 55.59,0 2.34,-67.27 z m -125.2,-0.01 -57.93,0 2.34,67.27 55.58,0.01 0.01,-67.28 z m -125.25,0 -72.25,0 4.27,67.27 70.37,0.01 -2.39,-67.28 z m 394.29,-67.27 0.25,-4.21 c 3.05,-47.98 -26.83,-91.98 -69.91,-124.95 l -4.52,129.16 74.18,0 z m -135.66,-167.12 c -21.8,-9.14 -44.36,-15.7 -66.11,-19.15 l 0,186.27 60.26,0 5.85,-167.12 z m -133.39,-19.2 c -21.74,3.45 -44.35,10.01 -66.1,19.15 l 5.84,167.17 60.27,0 -0.01,-186.32 z m -132.1,57.06 c -43.14,32.97 -73.02,76.97 -69.97,125.04 l 0.26,4.22 74.23,0 -4.52,-129.26 z"
           style="fill:none;stroke:#231f20;stroke-opacity:1;stroke-width:38.7179;stroke-linecap:butt;stroke-linejoin:round;stroke-miterlimit:22.9256;stroke-dasharray:none"
           id="path160" /></g><path
         d="m 4581.61,4866.43 c -52.42,10.42 -109.04,10.81 -169.88,1.07 76.54,67.89 159.98,89.33 250.38,64.38 32.21,-136.94 25.44,-267.21 -20.36,-390.85 1.53,-34.62 17.72,-44.74 48.57,-30.36 91.05,95.38 205.17,158.56 342.37,189.64 62.06,-70.31 79.36,-154.7 51.9,-253.26 -17.92,58.95 -43.09,109.67 -75.44,152.22 -102.95,-50.83 -173.79,-131.48 -223.86,-224.37 -37.14,-68.79 -162.7,-65.85 -228.87,-24.5 l -0.03,0.02 c -66.16,41.34 -123.79,153 -78.31,216.44 61.54,85.73 102.97,184.76 103.53,299.57"
         style="fill:#231f20;fill-opacity:1;fill-rule:evenodd;stroke:none"
         id="path162" /><g
         id="g164"
         transform="matrix(-0.384566,-0.615434,-0.615434,0.384566,0,0)"><path
           d="m -9032.36,-1800.47 c 26.09,68.87 66.99,135.32 122.79,199.3 -135.22,-39.87 -221.21,-121.71 -258.06,-245.58 136.5,-137.63 293.68,-224.85 471.61,-261.6 39.33,-27.07 39.33,-53.38 0,-78.94 -177.93,-36.74 -335.11,-123.96 -471.61,-261.6 36.86,-123.87 122.84,-205.7 258.05,-245.58 -55.79,63.98 -96.69,130.43 -122.78,199.31 134.57,83.18 280.54,107.07 425.66,97.76 107.51,-6.84 195.75,142.05 195.75,249.56 l 0,0.05 c 0,107.5 -88.4,256.38 -195.75,249.55 -145.11,-9.31 -291.09,14.58 -425.66,97.77 z"
           style="fill:none;stroke:#231f20;stroke-opacity:1;stroke-width:41.0006;stroke-linecap:butt;stroke-linejoin:round;stroke-miterlimit:22.9256;stroke-dasharray:none"
           id="path166" /></g><path
         d="m 702.07,5193.51 -50.812,-122.67 m -443.457,24.35 93.929,-93.93 m 453.547,-453.54 93.93,-93.93 m 0,641.4 -93.93,-93.93 M 301.73,4547.72 207.801,4453.79 m 320.703,774.24 0,-132.84 m 0,-641.4 0,-132.84 m 453.543,453.54 -132.84,0 m -641.406,0 -132.8401,0 m 34.5231,-173.57 122.668,50.81 m 592.703,245.51 122.668,50.81 m -592.585,245.46 50.812,-122.67 m 245.508,-592.7 50.812,-122.67 m -592.586,592.58 122.668,-50.81 m 592.703,-245.51 122.668,-50.81 M 405.75,4478.14 354.938,4355.47"
         style="fill:none;stroke:#231f20;stroke-opacity:1;stroke-width:49.8898;stroke-linecap:round;stroke-linejoin:miter;stroke-miterlimit:22.9256;stroke-dasharray:none"
         id="path168" /><path
         d="m 528.504,5024.18 c 137.898,0 249.687,-111.79 249.687,-249.69 0,-137.9 -111.789,-249.69 -249.687,-249.69 -137.899,0 -249.688,111.79 -249.688,249.69 0,137.9 111.789,249.69 249.688,249.69 z"
         style="fill:none;stroke:#231f20;stroke-opacity:1;stroke-width:34.0157;stroke-linecap:round;stroke-linejoin:miter;stroke-miterlimit:22.9256;stroke-dasharray:none"
         id="path170" /><path
         d="m 583,4933.71 c 66.539,-35.38 108.125,-104.59 108.125,-179.95"
         style="fill:none;stroke:#231f20;stroke-opacity:1;stroke-width:27.2126;stroke-linecap:round;stroke-linejoin:miter;stroke-miterlimit:22.9256;stroke-dasharray:none"
         id="path172" /><path
         d="m 5919.73,6044.17 c 2.5,43.03 8.08,85.76 13.72,128.46 6.53,49.33 15.93,98.44 29,146.48 1.76,6.43 6.3,11.13 12.66,13.1 71.37,22.06 150.77,30.21 225.29,30.21 74.85,0 154.82,-8.23 226.48,-30.6 6.35,-1.97 10.87,-6.67 12.6,-13.09 13,-47.91 22.4,-96.89 28.9,-146.09 5.64,-42.81 11.03,-85.69 13.12,-128.83 0.32,-6.6 -2.49,-12.42 -7.85,-16.27 -5.36,-3.85 -11.77,-4.66 -17.92,-2.24 -76.97,30.11 -173.15,40.56 -255.34,40.56 -82.09,0 -178.03,-10.41 -254.91,-40.4 -6.18,-2.41 -12.63,-1.57 -17.99,2.32 -5.36,3.9 -8.14,9.77 -7.76,16.39 z m 618.21,-185.18 c 42.29,-47.42 65.9,-96 53.78,-113.92 -13.26,-19.62 -64.34,4.67 -115.41,54.34 -58.79,-35.89 -147.86,-52.79 -278.52,-52.79 -131.88,0 -220.56,17.01 -278.31,53 -51.13,-49.81 -102.34,-74.19 -115.61,-54.56 -12.24,18.11 11.93,67.46 55.03,115.33 -45.65,75.88 -40.5,191.62 -19.16,352.99 14.44,109.19 42.04,208.98 75.05,282.27 l -2.86,2.83 c -52.41,52.41 -83.86,111.23 -70.25,131.37 12.98,19.2 62.26,-3.7 112.27,-51.33 60.07,52.16 186.75,66.84 243.84,66.84 63.72,0 186.16,-11.36 244.59,-66.15 49.75,47.15 98.61,69.75 111.53,50.63 13.49,-19.94 -17.27,-77.86 -68.81,-129.91 33.86,-73.66 62.28,-175.21 76.99,-286.55 21.48,-162.57 24.2,-278.63 -24.15,-354.39"
         style="fill:#231f20;fill-opacity:1;fill-rule:evenodd;stroke:none"
         id="path174" /><g
         id="g176"><path
           d="m 5919.73,6044.17 c 2.51,43.03 8.08,85.75 13.73,128.45 6.52,49.34 15.92,98.45 29,146.49 1.75,6.43 6.29,11.13 12.66,13.09 71.36,22.07 150.77,30.21 225.28,30.21 74.86,0 154.83,-8.22 226.48,-30.59 6.35,-1.97 10.87,-6.67 12.61,-13.09 13,-47.91 22.39,-96.9 28.89,-146.1 5.64,-42.8 11.04,-85.68 13.12,-128.82 0.32,-6.6 -2.49,-12.42 -7.85,-16.27 -5.36,-3.86 -11.77,-4.66 -17.92,-2.25 -76.97,30.12 -173.15,40.56 -255.34,40.56 -82.09,0 -178.02,-10.4 -254.91,-40.39 -6.18,-2.41 -12.63,-1.58 -17.99,2.32 -5.36,3.9 -8.14,9.77 -7.76,16.39 z m 618.21,-185.18 c 42.29,-47.42 65.9,-96 53.79,-113.93 -13.27,-19.62 -64.35,4.68 -115.41,54.35 -58.8,-35.89 -147.87,-52.8 -278.53,-52.8 -131.87,0 -220.56,17.01 -278.31,53.01 -51.13,-49.81 -102.34,-74.2 -115.61,-54.56 -12.24,18.11 11.94,67.46 55.03,115.33 -45.65,75.88 -40.49,191.61 -19.16,352.98 14.44,109.2 42.04,208.98 75.05,282.28 l -2.86,2.82 c -52.41,52.42 -83.86,111.24 -70.25,131.38 12.98,19.2 62.26,-3.7 112.27,-51.33 60.07,52.15 186.76,66.83 243.84,66.83 63.72,0 186.16,-11.35 244.59,-66.14 49.75,47.15 98.61,69.75 111.53,50.63 13.49,-19.94 -17.27,-77.86 -68.81,-129.91 33.87,-73.66 62.28,-175.21 76.99,-286.56 21.49,-162.56 24.2,-278.63 -24.15,-354.38 z"
           style="fill:none;stroke:#231f20;stroke-opacity:1;stroke-width:18.9054;stroke-linecap:butt;stroke-linejoin:round;stroke-miterlimit:22.9256;stroke-dasharray:none"
           id="path178" /></g><path
         d="m 3139.75,6289.64 c 126.98,0 229.93,-102.95 229.93,-229.93 0,-126.98 -102.95,-229.92 -229.93,-229.92 -119.3,0 -217.39,90.88 -228.8,207.19 l -38.63,0 c -10.68,0 -19.41,8.73 -19.41,19.41 l 0,0 c 0,10.68 8.73,19.41 19.41,19.41 l 38.08,0 c 8.27,119.49 107.78,213.84 229.35,213.84 z m 0,-130.68 c 54.81,0 99.26,-44.44 99.26,-99.25 0,-54.8 -44.45,-99.25 -99.26,-99.25 -54.8,0 -99.25,44.45 -99.25,99.25 0,54.81 44.45,99.25 99.25,99.25"
         style="fill:#231f20;fill-opacity:1;fill-rule:evenodd;stroke:none"
         id="path180" /><g
         id="g182"
         transform="scale(1,0.999999)"><path
           d="m 3139.75,6289.64 c 126.98,0 229.93,-102.95 229.93,-229.93 0,-126.97 -102.95,-229.92 -229.93,-229.92 -119.3,0 -217.39,90.88 -228.8,207.19 l -38.63,0 c -10.68,0 -19.41,8.73 -19.41,19.41 l 0,0 c 0,10.69 8.73,19.42 19.41,19.42 l 38.08,0 c 8.27,119.48 107.78,213.83 229.35,213.83 z m 0,-130.67 c 54.81,0 99.26,-44.45 99.26,-99.26 0,-54.8 -44.45,-99.25 -99.26,-99.25 -54.8,0 -99.25,44.45 -99.25,99.25 0,54.81 44.45,99.26 99.25,99.26 z"
           style="fill:none;stroke:#231f20;stroke-opacity:1;stroke-width:16.7514;stroke-linecap:butt;stroke-linejoin:round;stroke-miterlimit:22.9256;stroke-dasharray:none"
           id="path184" /></g><path
         d="m 3742.17,6028.3 c 54.8,0 99.25,-44.45 99.25,-99.26 0,-54.8 -44.45,-99.25 -99.25,-99.25 -54.81,0 -99.26,44.45 -99.26,99.25 0,54.81 44.45,99.26 99.26,99.26 z m 0,-50.87 c 26.71,0 48.38,-21.68 48.38,-48.39 0,-26.71 -21.67,-48.38 -48.38,-48.38 -26.71,0 -48.39,21.67 -48.39,48.38 0,26.71 21.68,48.39 48.39,48.39"
         style="fill:#231f20;fill-opacity:1;fill-rule:evenodd;stroke:none"
         id="path186" /><g
         id="g188"
         transform="scale(1,0.999999)"><path
           d="m 3742.17,6028.3 c 54.8,0 99.25,-44.45 99.25,-99.25 0,-54.81 -44.45,-99.26 -99.25,-99.26 -54.81,0 -99.26,44.45 -99.26,99.26 0,54.8 44.45,99.25 99.26,99.25 z m 0,-50.87 c 26.7,0 48.38,-21.67 48.38,-48.38 0,-26.71 -21.68,-48.39 -48.38,-48.39 -26.71,0 -48.39,21.68 -48.39,48.39 0,26.71 21.68,48.38 48.39,48.38 z"
           style="fill:none;stroke:#231f20;stroke-opacity:1;stroke-width:16.7514;stroke-linecap:butt;stroke-linejoin:round;stroke-miterlimit:22.9256;stroke-dasharray:none"
           id="path190" /></g><path
         d="m 3139.75,6387.05 c 61.03,0 115.24,-35.57 149.58,-90.71 -43.28,27.41 -94.57,43.29 -149.58,43.29 -55.02,0 -106.33,-15.88 -149.62,-43.31 34.34,55.13 88.6,90.73 149.62,90.73 z m 244.44,6.99 0.02,0 16.67,19.19 c 5.58,6.44 15.36,7.12 21.8,1.54 l 0,0 c 6.42,-5.56 7.1,-15.37 1.54,-21.79 l -16.68,-19.21 36.75,-31.92 c 7.98,8.13 19.1,13.23 31.35,13.23 l 309.81,0 c 39.94,0 73.89,-26.97 84.51,-63.62 l -103.83,0 c -17.5,0 -31.81,-14.31 -31.81,-31.81 l 0,0 c 0,-17.5 14.31,-31.81 31.81,-31.81 l 107.26,0 0,-63.62 -107.26,0 c -17.5,0 -31.81,-14.31 -31.81,-31.81 l 0,0 c 0,-17.5 14.31,-31.81 31.81,-31.81 l 103.83,0 c -10.62,-36.65 -44.57,-63.62 -84.51,-63.62 l -366.7,0 c 0.59,7.5 0.92,15.08 0.92,22.73 0,49.86 -13.04,96.66 -35.9,137.22 l 47.9,0 0,114.19 0.03,0.76 -44.41,38.54 -16.69,-19.21 c -5.56,-6.42 -15.37,-7.1 -21.8,-1.54 l 0,0 c -6.42,5.58 -7.1,15.39 -1.54,21.81 l 16.68,19.21 20.25,23.35 z m 364.51,123.67 -26.76,-27.96 0,-131.59 -42.71,0 0,148.13 2.46,3.2 36.16,37.77 c 8.11,8.49 21.68,8.79 30.17,0.66 l 0.02,-0.02 c 8.51,-8.13 8.79,-21.68 0.66,-30.19"
         style="fill:#231f20;fill-opacity:1;fill-rule:evenodd;stroke:none"
         id="path192" /><g
         id="g194"
         transform="scale(1,0.999999)"><path
           d="m 3139.75,6387.05 c 61.03,0 115.24,-35.57 149.58,-90.7 -43.28,27.41 -94.57,43.28 -149.58,43.28 -55.02,0 -106.33,-15.87 -149.62,-43.31 34.34,55.14 88.6,90.73 149.62,90.73 z m 244.44,6.99 0.02,0 16.66,19.19 c 5.59,6.44 15.37,7.12 21.81,1.54 l 0,0 c 6.42,-5.56 7.1,-15.36 1.54,-21.79 l -16.69,-19.21 36.76,-31.92 c 7.98,8.13 19.1,13.24 31.35,13.24 l 309.81,0 c 39.94,0 73.88,-26.98 84.51,-63.63 l -103.83,0 c -17.5,0 -31.81,-14.3 -31.81,-31.81 l 0,0 c 0,-17.49 14.31,-31.8 31.81,-31.8 l 107.25,0 0,-63.62 -107.25,0 c -17.5,0 -31.81,-14.32 -31.81,-31.82 l 0,0 c 0,-17.49 14.31,-31.81 31.81,-31.81 l 103.83,0 c -10.63,-36.64 -44.57,-63.62 -84.51,-63.62 l -366.71,0 c 0.6,7.5 0.93,15.08 0.93,22.73 0,49.86 -13.04,96.66 -35.9,137.23 l 47.9,0 0,114.18 0.02,0.77 -44.41,38.54 -16.68,-19.22 c -5.56,-6.42 -15.37,-7.1 -21.8,-1.54 l 0,0 c -6.43,5.59 -7.11,15.39 -1.54,21.81 l 16.68,19.21 20.25,23.35 z m 364.5,123.68 -26.75,-27.96 0,-131.6 -42.72,0 0,148.13 2.47,3.21 36.16,37.77 c 8.11,8.48 21.68,8.79 30.16,0.65 l 0.02,-0.02 c 8.52,-8.13 8.8,-21.67 0.66,-30.18 z"
           style="fill:none;stroke:#231f20;stroke-opacity:1;stroke-width:16.7514;stroke-linecap:butt;stroke-linejoin:round;stroke-miterlimit:22.9256;stroke-dasharray:none"
           id="path196" /></g><path
         d="m 1725.21,5751.5 c -67.08,26.03 -128.26,61.93 -181.25,105.65 112.25,137.91 327.4,265.89 645.44,383.94 -228.81,-175.21 -383.54,-338.41 -464.19,-489.59"
         style="fill:#231f20;fill-opacity:1;fill-rule:evenodd;stroke:none"
         id="path198" /><g
         id="g200"
         transform="scale(1,0.999999)"><path
           d="m 1725.21,5751.5 c -67.08,26.03 -128.27,61.93 -181.25,105.66 112.25,137.91 327.39,265.88 645.44,383.93 -228.81,-175.21 -383.54,-338.41 -464.19,-489.59 z"
           style="fill:none;stroke:#231f20;stroke-opacity:1;stroke-width:20.6908;stroke-linecap:butt;stroke-linejoin:round;stroke-miterlimit:22.9256;stroke-dasharray:none"
           id="path202" /></g><path
         d="m 2127.02,5718.44 c -46.5,-9.5 -94.9,-14.53 -144.62,-14.53 -33.04,0 -65.51,2.22 -97.22,6.5 27.75,152.97 135.99,326.44 324.75,520.42 -76.24,-227.62 -103.88,-398.42 -82.91,-512.39"
         style="fill:#231f20;fill-opacity:1;fill-rule:evenodd;stroke:none"
         id="path204" /><g
         id="g206"
         transform="scale(1,0.999999)"><path
           d="m 2127.01,5718.44 c -46.49,-9.5 -94.89,-14.52 -144.61,-14.52 -33.04,0 -65.51,2.22 -97.22,6.5 27.75,152.97 135.99,326.43 324.75,520.42 -76.24,-227.63 -103.88,-398.42 -82.92,-512.4 z"
           style="fill:none;stroke:#231f20;stroke-opacity:1;stroke-width:20.6908;stroke-linecap:butt;stroke-linejoin:round;stroke-miterlimit:22.9256;stroke-dasharray:none"
           id="path208" /></g><path
         d="m 2391.8,5834.54 c -43.24,-31.64 -91.13,-58.4 -142.63,-79.28 -35.71,107.04 -40.24,260.99 -13.58,461.88 53.74,-136.43 105.81,-263.97 156.21,-382.6"
         style="fill:#231f20;fill-opacity:1;fill-rule:evenodd;stroke:none"
         id="path210" /><g
         id="g212"
         transform="scale(1,0.999999)"><path
           d="m 2391.8,5834.55 c -43.24,-31.65 -91.13,-58.41 -142.63,-79.29 -35.71,107.04 -40.24,260.99 -13.58,461.88 53.74,-136.43 105.81,-263.96 156.21,-382.59 z"
           style="fill:none;stroke:#231f20;stroke-opacity:1;stroke-width:20.6908;stroke-linecap:butt;stroke-linejoin:round;stroke-miterlimit:22.9256;stroke-dasharray:none"
           id="path214" /></g><path
         d="m 2541.1,5990.85 c -22.35,-34.19 -48.49,-66.14 -77.93,-95.39 -33.65,86.74 -95.82,188.83 -186.52,306.28 104.8,-24.84 192.96,-95.14 264.45,-210.89"
         style="fill:#231f20;fill-opacity:1;fill-rule:evenodd;stroke:none"
         id="path216" /><g
         id="g218"
         transform="scale(1,0.999999)"><path
           d="m 2541.1,5990.85 c -22.35,-34.19 -48.49,-66.14 -77.93,-95.39 -33.65,86.74 -95.82,188.84 -186.52,306.29 104.8,-24.84 192.95,-95.15 264.45,-210.9 z"
           style="fill:none;stroke:#231f20;stroke-opacity:1;stroke-width:20.6908;stroke-linecap:butt;stroke-linejoin:round;stroke-miterlimit:22.9256;stroke-dasharray:none"
           id="path220" /></g><path
         d="m 1431.63,5965.09 c 263.48,181.82 507.45,280.72 731.91,296.69 -207.73,61.16 -478.73,7.43 -812.99,-161.15 20.31,-48.61 47.7,-94.13 81.08,-135.54"
         style="fill:#231f20;fill-opacity:1;fill-rule:evenodd;stroke:none"
         id="path222" /><g
         id="g224"
         transform="scale(1,0.999999)"><path
           d="m 1431.63,5965.1 c 263.48,181.82 507.45,280.72 731.9,296.68 -207.72,61.16 -478.72,7.44 -812.98,-161.15 20.3,-48.61 47.7,-94.13 81.08,-135.53 z"
           style="fill:none;stroke:#231f20;stroke-opacity:1;stroke-width:20.6908;stroke-linecap:butt;stroke-linejoin:round;stroke-miterlimit:22.9256;stroke-dasharray:none"
           id="path226" /></g><g
         id="g228"
         transform="matrix(0.707107,-0.292893,0.292893,0.707106,0,0)"><path
           d="m -1498.33,8523.53 128.09,0"
           style="fill:none;stroke:#231f20;stroke-opacity:1;stroke-width:49.776;stroke-linecap:round;stroke-linejoin:round;stroke-miterlimit:22.9256;stroke-dasharray:none"
           id="path230" /></g><g
         id="g232"
         transform="matrix(0.707107,-0.292893,0.292893,0.707106,0,0)"><path
           d="m -1365.79,8843.53 90.58,-90.58"
           style="fill:none;stroke:#231f20;stroke-opacity:1;stroke-width:49.776;stroke-linecap:round;stroke-linejoin:round;stroke-miterlimit:22.9256;stroke-dasharray:none"
           id="path234" /></g><g
         id="g236"
         transform="matrix(0.707107,-0.292893,0.292893,0.707106,0,0)"><path
           d="m -816.374,8752.95 90.575,90.57"
           style="fill:none;stroke:#231f20;stroke-opacity:1;stroke-width:49.776;stroke-linecap:round;stroke-linejoin:round;stroke-miterlimit:22.9256;stroke-dasharray:none"
           id="path238" /></g><g
         id="g240"
         transform="matrix(0.707107,-0.292893,0.292893,0.707106,0,0)"><path
           d="m -1345.48,8399.4 -118.4,-49.04"
           style="fill:none;stroke:#231f20;stroke-opacity:1;stroke-width:49.776;stroke-linecap:round;stroke-linejoin:round;stroke-miterlimit:22.9256;stroke-dasharray:none"
           id="path242" /></g><g
         id="g244"
         transform="matrix(0.707107,-0.292893,0.292893,0.707106,0,0)"><path
           d="m -1218.97,8941.62 49.04,-118.39"
           style="fill:none;stroke:#231f20;stroke-opacity:1;stroke-width:49.776;stroke-linecap:round;stroke-linejoin:round;stroke-miterlimit:22.9256;stroke-dasharray:none"
           id="path246" /></g><g
         id="g248"
         transform="matrix(0.707107,-0.292893,0.292893,0.707106,0,0)"><path
           d="m -872.614,8941.62 -49.042,-118.39"
           style="fill:none;stroke:#231f20;stroke-opacity:1;stroke-width:49.776;stroke-linecap:round;stroke-linejoin:round;stroke-miterlimit:22.9256;stroke-dasharray:none"
           id="path250" /></g><g
         id="g252"
         transform="matrix(0.707107,-0.292893,0.292893,0.707106,0,0)"><path
           d="m -1463.88,8696.71 118.39,-49.04"
           style="fill:none;stroke:#231f20;stroke-opacity:1;stroke-width:49.776;stroke-linecap:round;stroke-linejoin:round;stroke-miterlimit:22.9256;stroke-dasharray:none"
           id="path254" /></g><g
         id="g256"
         transform="matrix(0.707107,-0.292893,0.292893,0.707106,0,0)"><path
           d="m -1045.79,8976.07 0,-128.09"
           style="fill:none;stroke:#231f20;stroke-opacity:1;stroke-width:49.776;stroke-linecap:round;stroke-linejoin:round;stroke-miterlimit:22.9256;stroke-dasharray:none"
           id="path258" /></g><g
         id="g260"
         transform="scale(1,0.999999)"><path
           d="m 1578,6267.52 c -7.55,20.52 -11.68,42.7 -11.68,65.83 0,105.31 85.37,190.68 190.68,190.68 100.58,0 182.97,-77.87 190.16,-176.63"
           style="fill:none;stroke:#231f20;stroke-opacity:1;stroke-width:34.0155;stroke-linecap:round;stroke-linejoin:round;stroke-miterlimit:22.9256;stroke-dasharray:none"
           id="path262" /></g><g
         id="g264"
         transform="scale(1,0.999999)"><path
           d="m 1792.12,6450.62 c 42.46,-22.58 71.61,-63.21 80.05,-109.53"
           style="fill:none;stroke:#231f20;stroke-opacity:1;stroke-width:20.7838;stroke-linecap:round;stroke-linejoin:round;stroke-miterlimit:22.9256;stroke-dasharray:none"
           id="path266" /></g><path
         d="m 4873.13,6436.09 -121.75,121.74 c -11.02,11.03 -29.06,11.03 -40.08,0 l -177.29,-177.28 c -11.02,-11.03 -11.02,-29.07 0,-40.09 l 121.75,-121.75 c 11.03,-11.02 29.06,-11.02 40.09,0 L 4873.13,6396 c 11.03,11.02 11.03,29.06 0,40.09 z m -223.63,-343.41 -215.39,215.39 c -28.84,28.84 -28.84,76.02 0,104.86 l 244.8,244.81 c 28.84,28.83 76.02,28.84 104.86,0 l 343.06,-343.06 c 28.84,-28.84 28.85,-76.02 0.01,-104.85 l -117.15,-117.15 c -2.4,-2.41 -5.33,-3.62 -8.74,-3.62 l -342.71,0 c -3.4,0 -6.33,1.21 -8.74,3.62 z m 308.79,-114.69 c -29.36,30.47 -63.7,45.03 -76.7,32.51 -13,-12.52 0.26,-47.39 29.61,-77.87 29.37,-30.48 63.7,-45.03 76.71,-32.5 13,12.51 -0.27,47.38 -29.62,77.86 z m -165.27,-36.6 c -6.26,-41.85 -25.82,-73.61 -43.67,-70.94 -17.86,2.67 -27.25,38.77 -20.99,80.62 6.26,41.85 25.82,73.61 43.67,70.95 17.86,-2.68 27.26,-38.78 20.99,-80.63 z m 130.64,-153.58 c 26.72,-32.81 37.02,-68.65 23.02,-80.05 -14,-11.41 -47.01,5.96 -73.73,38.79 -26.71,32.8 -37.02,68.65 -23.02,80.04 14,11.41 47.01,-5.95 73.73,-38.78"
         style="fill:#231f20;fill-opacity:1;fill-rule:evenodd;stroke:none"
         id="path268" /><path
         d="m 4873.13,6436.09 -121.75,121.74 c -11.02,11.03 -29.06,11.03 -40.08,0 l -177.29,-177.28 c -11.02,-11.03 -11.02,-29.07 0,-40.09 l 121.75,-121.75 c 11.03,-11.02 29.06,-11.02 40.09,0 L 4873.13,6396 c 11.03,11.02 11.03,29.06 0,40.09 z m -223.63,-343.41 -215.39,215.39 c -28.84,28.84 -28.84,76.02 0,104.86 l 244.8,244.81 c 28.84,28.83 76.02,28.84 104.86,0 l 343.06,-343.06 c 28.84,-28.84 28.85,-76.02 0.01,-104.85 l -117.15,-117.15 c -2.4,-2.41 -5.33,-3.62 -8.74,-3.62 l -342.71,0 c -3.4,0 -6.33,1.21 -8.74,3.62 z m 308.79,-114.69 c -29.36,30.47 -63.7,45.03 -76.7,32.51 -13,-12.52 0.26,-47.39 29.61,-77.87 29.37,-30.48 63.7,-45.03 76.71,-32.5 13,12.51 -0.27,47.38 -29.62,77.86 z m -165.27,-36.6 c -6.26,-41.85 -25.82,-73.61 -43.67,-70.94 -17.86,2.67 -27.25,38.77 -20.99,80.62 6.26,41.85 25.82,73.61 43.67,70.95 17.86,-2.68 27.26,-38.78 20.99,-80.63 z m 130.64,-153.58 c 26.72,-32.81 37.02,-68.65 23.02,-80.05 -14,-11.41 -47.01,5.96 -73.73,38.79 -26.71,32.8 -37.02,68.65 -23.02,80.04 14,11.41 47.01,-5.95 73.73,-38.78 z"
         style="fill:none;stroke:#231f20;stroke-opacity:1;stroke-width:5.6693;stroke-linecap:butt;stroke-linejoin:miter;stroke-miterlimit:22.9256;stroke-dasharray:none"
         id="path270" /><path
         d="m 828.52,6375.65 c 61.535,-49.69 130.902,-109.97 176.89,-172.83 5.3,-7.25 6.42,-15.98 3.12,-24.32 -3.31,-8.34 -10.1,-13.95 -18.921,-15.61 -336.656,-63.14 -585.558,-63.14 -922.2184,0 -8.8164,1.66 -15.6054,7.27 -18.9179,15.61 -3.3008,8.34 -2.1836,17.07 3.1211,24.32 45.9765,62.86 115.3402,123.12 176.8752,172.82 -0.672,12.61 -0.938,25.26 -0.801,37.9 2.121,188.13 98.297,336.71 286.242,186.56 1.039,-0.83 1.863,-1.6 2.75,-2.56 9.649,-10.38 15.242,-7.23 26.434,2.56 51.511,41.15 125.418,83.01 191.242,48.6 84.223,-44.02 98.793,-183.22 94.184,-273.05"
         style="fill:#231f20;fill-opacity:1;fill-rule:evenodd;stroke:none"
         id="path272" /><g
         id="g274"
         transform="scale(1,0.999999)"><path
           d="m 828.519,6375.65 c 61.535,-49.69 130.902,-109.97 176.891,-172.82 5.3,-7.25 6.42,-15.98 3.12,-24.33 -3.31,-8.34 -10.101,-13.95 -18.921,-15.61 -336.656,-63.13 -585.558,-63.13 -922.2184,0 -8.8164,1.66 -15.6055,7.27 -18.918,15.61 -3.3008,8.35 -2.1836,17.08 3.1211,24.33 45.9766,62.85 115.3393,123.12 176.8753,172.81 -0.672,12.62 -0.938,25.27 -0.801,37.91 2.121,188.13 98.297,336.7 286.242,186.56 1.039,-0.83 1.863,-1.61 2.75,-2.57 9.648,-10.38 15.242,-7.22 26.433,2.57 51.512,41.15 125.418,83 191.242,48.6 84.223,-44.03 98.793,-183.22 94.184,-273.06 z"
           style="fill:none;stroke:#231f20;stroke-opacity:1;stroke-width:76.1409;stroke-linecap:butt;stroke-linejoin:round;stroke-miterlimit:22.9256;stroke-dasharray:none"
           id="path276" /></g><g
         id="g278"
         transform="scale(1,0.999999)"><path
           d="m 849.398,6139.59 0.074,-7.79 c 0,-226.36 -143.703,-409.86 -320.972,-409.86 -177.266,0 -320.973,183.5 -320.973,409.86 l 0.078,7.79 c 224.516,-32.06 417.289,-32.06 641.793,0 z"
           style="fill:none;stroke:#231f20;stroke-opacity:1;stroke-width:88.8308;stroke-linecap:butt;stroke-linejoin:round;stroke-miterlimit:22.9256;stroke-dasharray:none"
           id="path280" /></g></g></g></svg>