<?xml version="1.0" encoding="UTF-8" standalone="no"?>
<!-- Created with Inkscape (http://www.inkscape.org/) -->

<svg
   xmlns:dc="http://purl.org/dc/elements/1.1/"
   xmlns:cc="http://creativecommons.org/ns#"
   xmlns:rdf="http://www.w3.org/1999/02/22-rdf-syntax-ns#"
   xmlns:svg="http://www.w3.org/2000/svg"
   xmlns="http://www.w3.org/2000/svg"
   xmlns:xlink="http://www.w3.org/1999/xlink"
   xmlns:sodipodi="http://sodipodi.sourceforge.net/DTD/sodipodi-0.dtd"
   xmlns:inkscape="http://www.inkscape.org/namespaces/inkscape"
   width="128"
   height="128"
   id="svg7664"
   version="1.1"
   inkscape:version="0.48.3.1 r9886"
   sodipodi:docname="icon.svg"
   inkscape:export-filename="/home/martin/Work/openerp-merge/addons-funkring/at_project/static/description/icon.png"
   inkscape:export-xdpi="90"
   inkscape:export-ydpi="90">
  <defs
     id="defs7666">
    <linearGradient
       id="path7406_1_"
       gradientUnits="userSpaceOnUse"
       x1="265.63599"
       y1="451.9296"
       x2="282.71881"
       y2="451.9296"
       gradientTransform="matrix(0,0.9396,0.9396,0,-218.0559,-127.7409)">
      <stop
         offset="0"
         style="stop-color:#ABC837"
         id="stop5758" />
      <stop
         offset="1"
         style="stop-color:#8DAF0A"
         id="stop5760" />
    </linearGradient>
    <linearGradient
       id="path15531_1_"
       gradientUnits="userSpaceOnUse"
       x1="267.86649"
       y1="451.91199"
       x2="296.27271"
       y2="451.91199"
       gradientTransform="matrix(0,0.9396,0.9396,0,-218.0559,-127.7409)">
      <stop
         offset="0"
         style="stop-color:#6F6F6F"
         id="stop5764" />
      <stop
         offset="1"
         style="stop-color:#494949"
         id="stop5766" />
    </linearGradient>
    <linearGradient
       id="path9354_1_"
       gradientUnits="userSpaceOnUse"
       x1="183.4377"
       y1="459.31061"
       x2="220.2249"
       y2="459.31061"
       gradientTransform="matrix(0,0.9396,0.9396,0,-226.6132,-127.191)">
      <stop
         offset="0"
         style="stop-color:#ABC837"
         id="stop5664" />
      <stop
         offset="1"
         style="stop-color:#8DAF0A"
         id="stop5666" />
    </linearGradient>
    <linearGradient
       id="path9356_1_"
       gradientUnits="userSpaceOnUse"
       x1="193.24049"
       y1="463.14069"
       x2="221.7092"
       y2="463.14069"
       gradientTransform="matrix(0,0.9396,0.9396,0,-226.6132,-127.191)">
      <stop
         offset="0"
         style="stop-color:#6F6F6F"
         id="stop5670" />
      <stop
         offset="1"
         style="stop-color:#494949"
         id="stop5672" />
    </linearGradient>
    <linearGradient
       gradientTransform="translate(179.1401,3150.5547)"
       y2="-1094.314"
       x2="3313.8777"
       y1="-1146.2104"
       x1="3313.8777"
       gradientUnits="userSpaceOnUse"
       id="SVGID_143_">
      <stop
         id="stop11069"
         style="stop-color:#676767"
         offset="0" />
      <stop
         id="stop11071"
         style="stop-color:#383838"
         offset="1" />
    </linearGradient>
    <linearGradient
       gradientTransform="translate(179.1401,3150.5547)"
       y2="-1164.6465"
       x2="3313.8777"
       y1="-1216.5293"
       x1="3313.8777"
       gradientUnits="userSpaceOnUse"
       id="SVGID_144_">
      <stop
         id="stop11076"
         style="stop-color:#676767"
         offset="0" />
      <stop
         id="stop11078"
         style="stop-color:#383838"
         offset="1" />
    </linearGradient>
    <linearGradient
       gradientTransform="translate(179.1401,3150.5547)"
       y2="-1235.9834"
       x2="3313.8777"
       y1="-1287.8799"
       x1="3313.8777"
       gradientUnits="userSpaceOnUse"
       id="SVGID_145_">
      <stop
         id="stop11083"
         style="stop-color:#676767"
         offset="0" />
      <stop
         id="stop11085"
         style="stop-color:#383838"
         offset="1" />
    </linearGradient>
    <linearGradient
       gradientTransform="translate(179.1401,3150.5547)"
       y2="-1022.2515"
       x2="3357.1208"
       y1="-1450.3398"
       x1="3357.1208"
       gradientUnits="userSpaceOnUse"
       id="SVGID_146_">
      <stop
         id="stop11090"
         style="stop-color:#676767"
         offset="0" />
      <stop
         id="stop11092"
         style="stop-color:#383838"
         offset="1" />
    </linearGradient>
    <linearGradient
       id="SVGID_150_"
       gradientUnits="userSpaceOnUse"
       x1="3459.4548"
       y1="-1240.5513"
       x2="3459.4548"
       y2="-1088.7412"
       gradientTransform="translate(179.1401,3150.5547)">
      <stop
         offset="0"
         style="stop-color:#A7C92A"
         id="stop11118" />
      <stop
         offset="1"
         style="stop-color:#92B211"
         id="stop11120" />
    </linearGradient>
    <linearGradient
       y2="-1088.7412"
       x2="3459.4548"
       y1="-1240.5513"
       x1="3459.4548"
       gradientTransform="translate(179.1401,3150.5547)"
       gradientUnits="userSpaceOnUse"
       id="linearGradient11583"
       xlink:href="#SVGID_150_"
       inkscape:collect="always" />
    <linearGradient
       id="linearGradient11554"
       gradientUnits="userSpaceOnUse"
       x1="3313.8777"
       y1="-1146.2104"
       x2="3313.8777"
       y2="-1094.314"
       gradientTransform="translate(179.1401,3150.5547)">
      <stop
         offset="0"
         style="stop-color:#676767"
         id="stop11556" />
      <stop
         offset="1"
         style="stop-color:#383838"
         id="stop11558" />
    </linearGradient>
    <linearGradient
       id="linearGradient11561"
       gradientUnits="userSpaceOnUse"
       x1="3313.8777"
       y1="-1216.5293"
       x2="3313.8777"
       y2="-1164.6465"
       gradientTransform="translate(179.1401,3150.5547)">
      <stop
         offset="0"
         style="stop-color:#676767"
         id="stop11563" />
      <stop
         offset="1"
         style="stop-color:#383838"
         id="stop11565" />
    </linearGradient>
    <linearGradient
       id="linearGradient11568"
       gradientUnits="userSpaceOnUse"
       x1="3313.8777"
       y1="-1287.8799"
       x2="3313.8777"
       y2="-1235.9834"
       gradientTransform="translate(179.1401,3150.5547)">
      <stop
         offset="0"
         style="stop-color:#676767"
         id="stop11570" />
      <stop
         offset="1"
         style="stop-color:#383838"
         id="stop11572" />
    </linearGradient>
    <linearGradient
       id="linearGradient11575"
       gradientUnits="userSpaceOnUse"
       x1="3357.1208"
       y1="-1450.3398"
       x2="3357.1208"
       y2="-1022.2515"
       gradientTransform="translate(179.1401,3150.5547)">
      <stop
         offset="0"
         style="stop-color:#676767"
         id="stop11577" />
      <stop
         offset="1"
         style="stop-color:#383838"
         id="stop11579" />
    </linearGradient>
  </defs>
  <sodipodi:namedview
     id="base"
     pagecolor="#ffffff"
     bordercolor="#666666"
     borderopacity="1.0"
     inkscape:pageopacity="0.0"
     inkscape:pageshadow="2"
     inkscape:zoom="1.4"
     inkscape:cx="-133.4699"
     inkscape:cy="163.56061"
     inkscape:document-units="px"
     inkscape:current-layer="layer1"
     showgrid="false"
     inkscape:window-width="1920"
     inkscape:window-height="1147"
     inkscape:window-x="1920"
     inkscape:window-y="25"
     inkscape:window-maximized="1" />
  <metadata
     id="metadata7669">
    <rdf:RDF>
      <cc:Work
         rdf:about="">
        <dc:format>image/svg+xml</dc:format>
        <dc:type
           rdf:resource="http://purl.org/dc/dcmitype/StillImage" />
        <dc:title />
      </cc:Work>
    </rdf:RDF>
  </metadata>
  <g
     inkscape:label="Ebene 1"
     inkscape:groupmode="layer"
     id="layer1"
     transform="translate(0,-924.36218)">
    <g
       id="g17606">
      <path
         style="fill:#000000;fill-opacity:1"
         inkscape:connector-curvature="0"
         id="path11073"
         d="m 43.298103,1023.172 h 12.722684 v -12.7234 H 43.298103 v 12.7234 z m 3.004331,-9.7183 h 6.715248 v 6.7145 h -6.715248 v -6.7145 z" />
      <path
         style="fill:#000000;fill-opacity:1"
         inkscape:connector-curvature="0"
         id="path11080"
         d="M 56.020787,993.20837 H 43.298103 v 12.72023 h 12.722684 v -12.72023 z m -3.003105,9.71813 h -6.715248 v -6.71674 h 6.715248 v 6.71674 z" />
      <path
         style="fill:#000000;fill-opacity:1"
         inkscape:connector-curvature="0"
         id="path11087"
         d="M 56.020787,975.71538 H 43.298103 v 12.72342 h 12.722684 v -12.72342 z m -3.003105,9.71836 h -6.715248 v -6.71476 h 6.715248 v 6.71476 z" />
      <path
         style="fill:#000000;fill-opacity:1"
         inkscape:connector-curvature="0"
         id="path11094"
         d="m 96.483402,975.71538 c 0,-6.43354 0,-22.10932 0,-22.10932 0,-3.54003 -2.873656,-6.41221 -6.412706,-6.41221 H 70.154189 c 0,-6.24428 -4.428043,-11.30903 -9.892915,-11.30903 -5.464628,0 -9.893406,5.06475 -9.893406,11.30903 H 30.451607 c -3.541503,0 -6.412216,2.87218 -6.412216,6.41221 v 80.82124 c 0,3.5415 2.870713,6.4123 6.412216,6.4123 h 59.619089 c 3.539786,0 6.412706,-2.8708 6.412706,-6.4123 v -2.5907 H 85.35139 33.925932 33.750144 v -75.63858 h 10.430821 c 0,0 0.353047,9.37143 15.902314,9.37143 15.548532,0 16.254626,-9.37143 16.254626,-9.37143 h 10.434253 c 0,0 0,13.40892 0,19.51687 0,6.11041 9.711244,6.43576 9.711244,0 z M 60.261029,941.8925 c 2.536299,0 4.591817,2.37425 4.591817,5.30135 0,2.92857 -2.055763,5.30232 -4.591817,5.30232 -2.535809,0 -4.593288,-2.37375 -4.593288,-5.30232 0,-2.92809 2.057724,-5.30135 4.593288,-5.30135 z" />
      <path
         style="fill:#80b71b;fill-opacity:1"
         inkscape:connector-curvature="0"
         id="path11122"
         d="m 98.510479,1019.0877 c 7.266881,-7.2669 7.266881,-19.0523 0,-26.31892 -7.268354,-7.26738 -19.051051,-7.2664 -26.319405,0 -7.265412,7.26782 -7.266638,19.04782 0,26.31792 7.269825,7.2664 19.053258,7.2689 26.320386,0 z M 74.815635,1002.72 c 0.04511,-0.051 0.07821,-0.1066 0.125282,-0.1554 1.169468,-1.168 3.061947,-1.1697 4.234112,0 l 4.611431,4.6109 9.252527,-9.25224 c 1.169713,-1.16971 3.065625,-1.16971 4.234847,0 1.169959,1.17094 1.169959,3.06714 0,4.23784 l -4.609224,4.607 -8.879131,8.8798 -4.234847,-4.2353 -4.610941,-4.6107 c -1.121904,-1.1224 -1.153286,-2.9038 -0.124056,-4.0809 z" />
    </g>
  </g>
</svg>
